<?xml version="1.0" encoding="UTF-8" standalone="no"?>
<!DOCTYPE svg PUBLIC "-//W3C//DTD SVG 1.1//EN"
 "http://www.w3.org/Graphics/SVG/1.1/DTD/svg11.dtd">
<!-- Generated by graphviz version 2.40.1 (20161225.0304)
 -->
<!-- Title: %3 Pages: 1 -->
<svg width="535pt" height="581pt"
 viewBox="0.00 0.00 535.00 580.96" xmlns="http://www.w3.org/2000/svg" xmlns:xlink="http://www.w3.org/1999/xlink">
<g id="graph0" class="graph" transform="scale(1 1) rotate(0) translate(4 576.959)">
<title>%3</title>
<polygon fill="#ffffff" stroke="transparent" points="-4,4 -4,-576.959 531,-576.959 531,4 -4,4"/>
<!-- CLIENTE -->
<g id="node1" class="node">
<title>CLIENTE</title>
<polygon fill="#ffffff" stroke="transparent" points="383,-375.959 209,-375.959 209,-180.959 383,-180.959 383,-375.959"/>
<polygon fill="none" stroke="#000000" points="217,-354.459 217,-371.459 375,-371.459 375,-354.459 217,-354.459"/>
<text text-anchor="start" x="220" y="-361.459" font-family="Courier,monospace" font-weight="bold" font-size="10.00" fill="#000000">CLIENTE</text>
<polygon fill="none" stroke="#000000" points="217,-337.459 217,-354.459 375,-354.459 375,-337.459 217,-337.459"/>
<text text-anchor="start" x="220" y="-344.459" font-family="Courier,monospace" text-decoration="underline" font-size="10.00" fill="#000000">NumCC</text>
<text text-anchor="start" x="251" y="-344.459" font-family="Courier,monospace" font-size="10.00" fill="#000000"> </text>
<text text-anchor="start" x="258" y="-344.459" font-family="Courier,monospace" font-style="italic" font-size="10.00" fill="#000000">int</text>
<polygon fill="none" stroke="#000000" points="217,-320.459 217,-337.459 375,-337.459 375,-320.459 217,-320.459"/>
<text text-anchor="start" x="220" y="-327.459" font-family="Courier,monospace" font-size="10.00" fill="#000000">Nome </text>
<text text-anchor="start" x="251" y="-327.459" font-family="Courier,monospace" font-style="italic" font-size="10.00" fill="#000000">varchar</text>
<polygon fill="none" stroke="#000000" points="217,-303.459 217,-320.459 375,-320.459 375,-303.459 217,-303.459"/>
<text text-anchor="start" x="220" y="-310.459" font-family="Courier,monospace" font-size="10.00" fill="#000000">DataNascimento </text>
<text text-anchor="start" x="311" y="-310.459" font-family="Courier,monospace" font-style="italic" font-size="10.00" fill="#000000">date</text>
<polygon fill="none" stroke="#000000" points="217,-286.459 217,-303.459 375,-303.459 375,-286.459 217,-286.459"/>
<text text-anchor="start" x="220" y="-293.459" font-family="Courier,monospace" font-size="10.00" fill="#000000">Genero </text>
<text text-anchor="start" x="263" y="-293.459" font-family="Courier,monospace" font-style="italic" font-size="10.00" fill="#000000">enum</text>
<polygon fill="none" stroke="#000000" points="217,-269.459 217,-286.459 375,-286.459 375,-269.459 217,-269.459"/>
<text text-anchor="start" x="220" y="-276.459" font-family="Courier,monospace" font-size="10.00" fill="#000000">Email ? </text>
<text text-anchor="start" x="269" y="-276.459" font-family="Courier,monospace" font-style="italic" font-size="10.00" fill="#000000">varchar</text>
<polygon fill="none" stroke="#000000" points="217,-252.459 217,-269.459 375,-269.459 375,-252.459 217,-252.459"/>
<text text-anchor="start" x="220" y="-259.459" font-family="Courier,monospace" font-size="10.00" fill="#000000">Morada_Rua </text>
<text text-anchor="start" x="287" y="-259.459" font-family="Courier,monospace" font-style="italic" font-size="10.00" fill="#000000">varchar</text>
<polygon fill="none" stroke="#000000" points="217,-235.459 217,-252.459 375,-252.459 375,-235.459 217,-235.459"/>
<text text-anchor="start" x="220" y="-242.459" font-family="Courier,monospace" font-size="10.00" fill="#000000">Morada_NumRua </text>
<text text-anchor="start" x="305" y="-242.459" font-family="Courier,monospace" font-style="italic" font-size="10.00" fill="#000000">int</text>
<polygon fill="none" stroke="#000000" points="217,-218.459 217,-235.459 375,-235.459 375,-218.459 217,-218.459"/>
<text text-anchor="start" x="220" y="-225.459" font-family="Courier,monospace" font-size="10.00" fill="#000000">Morada_Andar ? </text>
<text text-anchor="start" x="311" y="-225.459" font-family="Courier,monospace" font-style="italic" font-size="10.00" fill="#000000">int</text>
<polygon fill="none" stroke="#000000" points="217,-201.459 217,-218.459 375,-218.459 375,-201.459 217,-201.459"/>
<text text-anchor="start" x="220" y="-208.459" font-family="Courier,monospace" font-size="10.00" fill="#000000">Morada_Localidade </text>
<text text-anchor="start" x="329" y="-208.459" font-family="Courier,monospace" font-style="italic" font-size="10.00" fill="#000000">varchar</text>
<polygon fill="none" stroke="#000000" points="217,-184.459 217,-201.459 375,-201.459 375,-184.459 217,-184.459"/>
<text text-anchor="start" x="220" y="-191.459" font-family="Courier,monospace" font-size="10.00" fill="#000000">Morada_CodPostal </text>
<text text-anchor="start" x="323" y="-191.459" font-family="Courier,monospace" font-style="italic" font-size="10.00" fill="#000000">varchar</text>
</g>
<!-- DEPARTAMENTO -->
<g id="node2" class="node">
<title>DEPARTAMENTO</title>
<polygon fill="#ffffff" stroke="transparent" points="171,-490.959 2,-490.959 2,-431.959 171,-431.959 171,-490.959"/>
<polygon fill="none" stroke="#000000" points="10.5,-469.459 10.5,-486.459 163.5,-486.459 163.5,-469.459 10.5,-469.459"/>
<text text-anchor="start" x="13.5" y="-476.459" font-family="Courier,monospace" font-weight="bold" font-size="10.00" fill="#000000">DEPARTAMENTO</text>
<polygon fill="none" stroke="#000000" points="10.5,-452.459 10.5,-469.459 163.5,-469.459 163.5,-452.459 10.5,-452.459"/>
<text text-anchor="start" x="13.5" y="-459.459" font-family="Courier,monospace" text-decoration="underline" font-size="10.00" fill="#000000">NomeDepartamento</text>
<text text-anchor="start" x="110.5" y="-459.459" font-family="Courier,monospace" font-size="10.00" fill="#000000"> </text>
<text text-anchor="start" x="117.5" y="-459.459" font-family="Courier,monospace" font-style="italic" font-size="10.00" fill="#000000">varchar</text>
<polygon fill="none" stroke="#000000" points="10.5,-435.459 10.5,-452.459 163.5,-452.459 163.5,-435.459 10.5,-435.459"/>
<text text-anchor="start" x="13.5" y="-442.459" font-family="Courier,monospace" font-size="10.00" fill="#000000">Gestor </text>
<text text-anchor="start" x="56.5" y="-442.459" font-family="Courier,monospace" font-style="italic" font-size="10.00" fill="#000000">int</text>
</g>
<!-- FUNCIONARIO -->
<g id="node3" class="node">
<title>FUNCIONARIO</title>
<polygon fill="#ffffff" stroke="transparent" points="368,-571.459 224,-571.459 224,-393.459 368,-393.459 368,-571.459"/>
<polygon fill="none" stroke="#000000" points="232,-550.459 232,-567.459 360,-567.459 360,-550.459 232,-550.459"/>
<text text-anchor="start" x="235" y="-557.459" font-family="Courier,monospace" font-weight="bold" font-size="10.00" fill="#000000">FUNCIONARIO</text>
<polygon fill="none" stroke="#000000" points="232,-533.459 232,-550.459 360,-550.459 360,-533.459 232,-533.459"/>
<text text-anchor="start" x="235" y="-540.459" font-family="Courier,monospace" text-decoration="underline" font-size="10.00" fill="#000000">IdFuncionario</text>
<text text-anchor="start" x="314" y="-540.459" font-family="Courier,monospace" font-size="10.00" fill="#000000"> </text>
<text text-anchor="start" x="321" y="-540.459" font-family="Courier,monospace" font-style="italic" font-size="10.00" fill="#000000">int</text>
<polygon fill="none" stroke="#000000" points="232,-516.459 232,-533.459 360,-533.459 360,-516.459 232,-516.459"/>
<text text-anchor="start" x="235" y="-523.459" font-family="Courier,monospace" font-size="10.00" fill="#000000">Nome </text>
<text text-anchor="start" x="266" y="-523.459" font-family="Courier,monospace" font-style="italic" font-size="10.00" fill="#000000">varchar</text>
<polygon fill="none" stroke="#000000" points="232,-499.459 232,-516.459 360,-516.459 360,-499.459 232,-499.459"/>
<text text-anchor="start" x="235" y="-506.459" font-family="Courier,monospace" font-size="10.00" fill="#000000">NumCC </text>
<text text-anchor="start" x="272" y="-506.459" font-family="Courier,monospace" font-style="italic" font-size="10.00" fill="#000000">int</text>
<polygon fill="none" stroke="#000000" points="232,-482.459 232,-499.459 360,-499.459 360,-482.459 232,-482.459"/>
<text text-anchor="start" x="235" y="-489.459" font-family="Courier,monospace" font-size="10.00" fill="#000000">DataNascimento </text>
<text text-anchor="start" x="326" y="-489.459" font-family="Courier,monospace" font-style="italic" font-size="10.00" fill="#000000">date</text>
<polygon fill="none" stroke="#000000" points="232,-465.459 232,-482.459 360,-482.459 360,-465.459 232,-465.459"/>
<text text-anchor="start" x="235" y="-472.459" font-family="Courier,monospace" font-size="10.00" fill="#000000">Email ? </text>
<text text-anchor="start" x="284" y="-472.459" font-family="Courier,monospace" font-style="italic" font-size="10.00" fill="#000000">varchar</text>
<polygon fill="none" stroke="#000000" points="232,-448.459 232,-465.459 360,-465.459 360,-448.459 232,-448.459"/>
<text text-anchor="start" x="235" y="-455.459" font-family="Courier,monospace" font-size="10.00" fill="#000000">Departamento </text>
<text text-anchor="start" x="314" y="-455.459" font-family="Courier,monospace" font-style="italic" font-size="10.00" fill="#000000">varchar</text>
<polygon fill="none" stroke="#000000" points="232,-431.459 232,-448.459 360,-448.459 360,-431.459 232,-431.459"/>
<text text-anchor="start" x="235" y="-438.459" font-family="Courier,monospace" font-size="10.00" fill="#000000">Supervisor ? </text>
<text text-anchor="start" x="314" y="-438.459" font-family="Courier,monospace" font-style="italic" font-size="10.00" fill="#000000">int</text>
<polygon fill="none" stroke="#000000" points="232,-414.459 232,-431.459 360,-431.459 360,-414.459 232,-414.459"/>
<text text-anchor="start" x="235" y="-421.459" font-family="Courier,monospace" font-size="10.00" fill="#000000">Salario </text>
<text text-anchor="start" x="284" y="-421.459" font-family="Courier,monospace" font-style="italic" font-size="10.00" fill="#000000">int</text>
<polygon fill="none" stroke="#000000" points="232,-397.459 232,-414.459 360,-414.459 360,-397.459 232,-397.459"/>
<text text-anchor="start" x="235" y="-404.459" font-family="Courier,monospace" font-size="10.00" fill="#000000">Gere ? </text>
<text text-anchor="start" x="278" y="-404.459" font-family="Courier,monospace" font-style="italic" font-size="10.00" fill="#000000">varchar</text>
</g>
<!-- DEPARTAMENTO&#45;&gt;FUNCIONARIO -->
<g id="edge1" class="edge">
<title>DEPARTAMENTO:Gestor&#45;&gt;FUNCIONARIO:IdFuncionario</title>
<path fill="none" stroke="#000000" d="M163.5,-443.459C213.2436,-443.459 183.455,-529.0265 222.0144,-541.0595"/>
<polygon fill="#000000" stroke="#000000" points="221.611,-544.5371 232,-542.459 222.5826,-537.6048 221.611,-544.5371"/>
</g>
<!-- FUNCIONARIO&#45;&gt;DEPARTAMENTO -->
<g id="edge2" class="edge">
<title>FUNCIONARIO:Departamento&#45;&gt;DEPARTAMENTO:NomeDepartamento</title>
<path fill="none" stroke="#000000" d="M232,-456.459C205.1966,-456.459 196.1516,-459.5489 173.6491,-460.2972"/>
<polygon fill="#000000" stroke="#000000" points="173.4429,-456.8 163.5,-460.459 173.5545,-463.7991 173.4429,-456.8"/>
</g>
<!-- FUNCIONARIO&#45;&gt;FUNCIONARIO -->
<g id="edge3" class="edge">
<title>FUNCIONARIO:Supervisor&#45;&gt;FUNCIONARIO:IdFuncionario</title>
<path fill="none" stroke="#000000" d="M231.9259,-435.326C184.151,-436.9728 136,-450.3105 136,-490.959 136,-528.7493 177.6179,-542.9345 221.8597,-546.0658"/>
<polygon fill="#000000" stroke="#000000" points="221.7568,-549.5651 231.9259,-546.592 222.1223,-542.5746 221.7568,-549.5651"/>
</g>
<!-- ENCOMENDAS -->
<g id="node4" class="node">
<title>ENCOMENDAS</title>
<polygon fill="#ffffff" stroke="transparent" points="140.5,-179.459 32.5,-179.459 32.5,-69.459 140.5,-69.459 140.5,-179.459"/>
<polygon fill="none" stroke="#000000" points="40.5,-158.459 40.5,-175.459 132.5,-175.459 132.5,-158.459 40.5,-158.459"/>
<text text-anchor="start" x="43.5" y="-165.459" font-family="Courier,monospace" font-weight="bold" font-size="10.00" fill="#000000">ENCOMENDAS</text>
<polygon fill="none" stroke="#000000" points="40.5,-141.459 40.5,-158.459 132.5,-158.459 132.5,-141.459 40.5,-141.459"/>
<text text-anchor="start" x="43.5" y="-148.459" font-family="Courier,monospace" text-decoration="underline" font-size="10.00" fill="#000000">NumCC</text>
<text text-anchor="start" x="74.5" y="-148.459" font-family="Courier,monospace" font-size="10.00" fill="#000000"> </text>
<text text-anchor="start" x="81.5" y="-148.459" font-family="Courier,monospace" font-style="italic" font-size="10.00" fill="#000000">int</text>
<polygon fill="none" stroke="#000000" points="40.5,-124.459 40.5,-141.459 132.5,-141.459 132.5,-124.459 40.5,-124.459"/>
<text text-anchor="start" x="43.5" y="-131.459" font-family="Courier,monospace" font-size="10.00" fill="#000000">IdEmpresa </text>
<text text-anchor="start" x="104.5" y="-131.459" font-family="Courier,monospace" font-style="italic" font-size="10.00" fill="#000000">int</text>
<polygon fill="none" stroke="#000000" points="40.5,-107.459 40.5,-124.459 132.5,-124.459 132.5,-107.459 40.5,-107.459"/>
<text text-anchor="start" x="43.5" y="-114.459" font-family="Courier,monospace" font-size="10.00" fill="#000000">IdProduto </text>
<text text-anchor="start" x="104.5" y="-114.459" font-family="Courier,monospace" font-style="italic" font-size="10.00" fill="#000000">int</text>
<polygon fill="none" stroke="#000000" points="40.5,-90.459 40.5,-107.459 132.5,-107.459 132.5,-90.459 40.5,-90.459"/>
<text text-anchor="start" x="43.5" y="-97.459" font-family="Courier,monospace" font-size="10.00" fill="#000000">Quantidade </text>
<text text-anchor="start" x="110.5" y="-97.459" font-family="Courier,monospace" font-style="italic" font-size="10.00" fill="#000000">int</text>
<polygon fill="none" stroke="#000000" points="40.5,-73.459 40.5,-90.459 132.5,-90.459 132.5,-73.459 40.5,-73.459"/>
<text text-anchor="start" x="43.5" y="-80.459" font-family="Courier,monospace" font-size="10.00" fill="#000000">Custo </text>
<text text-anchor="start" x="80.5" y="-80.459" font-family="Courier,monospace" font-style="italic" font-size="10.00" fill="#000000">decimal</text>
</g>
<!-- ENCOMENDAS&#45;&gt;CLIENTE -->
<g id="edge4" class="edge">
<title>ENCOMENDAS:NumCC&#45;&gt;CLIENTE:NumCC</title>
<path fill="none" stroke="#000000" d="M132.5,-150.459C223.6563,-150.459 130.0535,-331.4456 206.7754,-345.5851"/>
<polygon fill="#000000" stroke="#000000" points="206.7382,-349.0946 217,-346.459 207.3344,-342.12 206.7382,-349.0946"/>
</g>
<!-- FORNECEDOR -->
<g id="node5" class="node">
<title>FORNECEDOR</title>
<polygon fill="#ffffff" stroke="transparent" points="365,-162.959 227,-162.959 227,-35.959 365,-35.959 365,-162.959"/>
<polygon fill="none" stroke="#000000" points="235,-141.459 235,-158.459 357,-158.459 357,-141.459 235,-141.459"/>
<text text-anchor="start" x="238" y="-148.459" font-family="Courier,monospace" font-weight="bold" font-size="10.00" fill="#000000">FORNECEDOR</text>
<polygon fill="none" stroke="#000000" points="235,-124.459 235,-141.459 357,-141.459 357,-124.459 235,-124.459"/>
<text text-anchor="start" x="238" y="-131.459" font-family="Courier,monospace" text-decoration="underline" font-size="10.00" fill="#000000">IdEmpresa</text>
<text text-anchor="start" x="293" y="-131.459" font-family="Courier,monospace" font-size="10.00" fill="#000000"> </text>
<text text-anchor="start" x="300" y="-131.459" font-family="Courier,monospace" font-style="italic" font-size="10.00" fill="#000000">int</text>
<polygon fill="none" stroke="#000000" points="235,-107.459 235,-124.459 357,-124.459 357,-107.459 235,-107.459"/>
<text text-anchor="start" x="238" y="-114.459" font-family="Courier,monospace" font-size="10.00" fill="#000000">NomeEmpresa </text>
<text text-anchor="start" x="311" y="-114.459" font-family="Courier,monospace" font-style="italic" font-size="10.00" fill="#000000">varchar</text>
<polygon fill="none" stroke="#000000" points="235,-90.459 235,-107.459 357,-107.459 357,-90.459 235,-90.459"/>
<text text-anchor="start" x="238" y="-97.459" font-family="Courier,monospace" font-size="10.00" fill="#000000">IdProduto </text>
<text text-anchor="start" x="299" y="-97.459" font-family="Courier,monospace" font-style="italic" font-size="10.00" fill="#000000">int</text>
<polygon fill="none" stroke="#000000" points="235,-73.459 235,-90.459 357,-90.459 357,-73.459 235,-73.459"/>
<text text-anchor="start" x="238" y="-80.459" font-family="Courier,monospace" font-size="10.00" fill="#000000">NomeProduto </text>
<text text-anchor="start" x="311" y="-80.459" font-family="Courier,monospace" font-style="italic" font-size="10.00" fill="#000000">varchar</text>
<polygon fill="none" stroke="#000000" points="235,-56.459 235,-73.459 357,-73.459 357,-56.459 235,-56.459"/>
<text text-anchor="start" x="238" y="-63.459" font-family="Courier,monospace" font-size="10.00" fill="#000000">Custo </text>
<text text-anchor="start" x="275" y="-63.459" font-family="Courier,monospace" font-style="italic" font-size="10.00" fill="#000000">decimal</text>
<polygon fill="none" stroke="#000000" points="235,-39.459 235,-56.459 357,-56.459 357,-39.459 235,-39.459"/>
<text text-anchor="start" x="238" y="-46.459" font-family="Courier,monospace" font-size="10.00" fill="#000000">Comissao </text>
<text text-anchor="start" x="293" y="-46.459" font-family="Courier,monospace" font-style="italic" font-size="10.00" fill="#000000">decimal</text>
</g>
<!-- ENCOMENDAS&#45;&gt;FORNECEDOR -->
<g id="edge5" class="edge">
<title>ENCOMENDAS:IdEmpresa&#45;&gt;FORNECEDOR:IdEmpresa</title>
<path fill="none" stroke="#000000" d="M132.5,-133.459C174.4965,-133.459 187.4564,-133.459 224.9159,-133.459"/>
<polygon fill="#000000" stroke="#000000" points="225,-136.9591 235,-133.459 225,-129.9591 225,-136.9591"/>
</g>
<!-- PRODUTO -->
<g id="node6" class="node">
<title>PRODUTO</title>
<polygon fill="#ffffff" stroke="transparent" points="527,-127.459 419,-127.459 419,-17.459 527,-17.459 527,-127.459"/>
<polygon fill="none" stroke="#000000" points="427,-106.459 427,-123.459 519,-123.459 519,-106.459 427,-106.459"/>
<text text-anchor="start" x="430" y="-113.459" font-family="Courier,monospace" font-weight="bold" font-size="10.00" fill="#000000">PRODUTO</text>
<polygon fill="none" stroke="#000000" points="427,-89.459 427,-106.459 519,-106.459 519,-89.459 427,-89.459"/>
<text text-anchor="start" x="430" y="-96.459" font-family="Courier,monospace" text-decoration="underline" font-size="10.00" fill="#000000">IdProduto</text>
<text text-anchor="start" x="485" y="-96.459" font-family="Courier,monospace" font-size="10.00" fill="#000000"> </text>
<text text-anchor="start" x="492" y="-96.459" font-family="Courier,monospace" font-style="italic" font-size="10.00" fill="#000000">int</text>
<polygon fill="none" stroke="#000000" points="427,-72.459 427,-89.459 519,-89.459 519,-72.459 427,-72.459"/>
<text text-anchor="start" x="430" y="-79.459" font-family="Courier,monospace" font-size="10.00" fill="#000000">Nome </text>
<text text-anchor="start" x="461" y="-79.459" font-family="Courier,monospace" font-style="italic" font-size="10.00" fill="#000000">varchar</text>
<polygon fill="none" stroke="#000000" points="427,-55.459 427,-72.459 519,-72.459 519,-55.459 427,-55.459"/>
<text text-anchor="start" x="430" y="-62.459" font-family="Courier,monospace" font-size="10.00" fill="#000000">Custo </text>
<text text-anchor="start" x="467" y="-62.459" font-family="Courier,monospace" font-style="italic" font-size="10.00" fill="#000000">decimal</text>
<polygon fill="none" stroke="#000000" points="427,-38.459 427,-55.459 519,-55.459 519,-38.459 427,-38.459"/>
<text text-anchor="start" x="430" y="-44.459" font-family="Courier,monospace" font-size="10.00" fill="#000000">IdEmpresa</text>
<polygon fill="none" stroke="#000000" points="427,-21.459 427,-38.459 519,-38.459 519,-21.459 427,-21.459"/>
<text text-anchor="start" x="430" y="-28.459" font-family="Courier,monospace" font-size="10.00" fill="#000000">Quantidade </text>
<text text-anchor="start" x="497" y="-28.459" font-family="Courier,monospace" font-style="italic" font-size="10.00" fill="#000000">int</text>
</g>
<!-- ENCOMENDAS&#45;&gt;PRODUTO -->
<g id="edge6" class="edge">
<title>ENCOMENDAS:IdProduto&#45;&gt;PRODUTO:IdProduto</title>
<path fill="none" stroke="#000000" d="M132.5,-115.459C184.6598,-115.459 161.5971,-48.2214 209,-26.459 279.2807,5.8066 315.5502,11.3692 383,-26.459 412.2595,-42.8687 394.3713,-87.5338 417.1164,-96.7728"/>
<polygon fill="#000000" stroke="#000000" points="416.5538,-100.2273 427,-98.459 417.7311,-93.327 416.5538,-100.2273"/>
</g>
<!-- FORNECEDOR&#45;&gt;PRODUTO -->
<g id="edge7" class="edge">
<title>FORNECEDOR:IdProduto&#45;&gt;PRODUTO:IdProduto</title>
<path fill="none" stroke="#000000" d="M357,-98.459C384.4653,-98.459 393.7455,-98.459 416.9487,-98.459"/>
<polygon fill="#000000" stroke="#000000" points="417,-101.9591 427,-98.459 417,-94.9591 417,-101.9591"/>
</g>
<!-- PRODUTO&#45;&gt;FORNECEDOR -->
<g id="edge10" class="edge">
<title>PRODUTO:IdEmpresa&#45;&gt;FORNECEDOR:IdEmpresa</title>
<path fill="none" stroke="#000000" d="M427,-46.459C381.2485,-46.459 402.5387,-120.3962 367.2625,-131.9489"/>
<polygon fill="#000000" stroke="#000000" points="366.3839,-128.5404 357,-133.459 367.403,-135.4659 366.3839,-128.5404"/>
</g>
<!-- NUM_TELEMOVEL_FUNCIONARIO -->
<g id="node7" class="node">
<title>NUM_TELEMOVEL_FUNCIONARIO</title>
<polygon fill="#ffffff" stroke="transparent" points="173,-572.959 0,-572.959 0,-513.959 173,-513.959 173,-572.959"/>
<polygon fill="none" stroke="#000000" points="8.5,-551.459 8.5,-568.459 165.5,-568.459 165.5,-551.459 8.5,-551.459"/>
<text text-anchor="start" x="11.5" y="-558.459" font-family="Courier,monospace" font-weight="bold" font-size="10.00" fill="#000000">NUM_TELEMOVEL_FUNCIONARIO</text>
<polygon fill="none" stroke="#000000" points="8.5,-534.459 8.5,-551.459 165.5,-551.459 165.5,-534.459 8.5,-534.459"/>
<text text-anchor="start" x="11.5" y="-541.459" font-family="Courier,monospace" text-decoration="underline" font-size="10.00" fill="#000000">IdFuncionario</text>
<polygon fill="none" stroke="#000000" points="8.5,-517.459 8.5,-534.459 165.5,-534.459 165.5,-517.459 8.5,-517.459"/>
<text text-anchor="start" x="11.5" y="-524.459" font-family="Courier,monospace" text-decoration="underline" font-size="10.00" fill="#000000">Num_Telemovel</text>
<text text-anchor="start" x="90.5" y="-524.459" font-family="Courier,monospace" font-size="10.00" fill="#000000"> </text>
<text text-anchor="start" x="97.5" y="-524.459" font-family="Courier,monospace" font-style="italic" font-size="10.00" fill="#000000">int</text>
</g>
<!-- NUM_TELEMOVEL_FUNCIONARIO&#45;&gt;FUNCIONARIO -->
<g id="edge8" class="edge">
<title>NUM_TELEMOVEL_FUNCIONARIO:IdFuncionario&#45;&gt;FUNCIONARIO:IdFuncionario</title>
<path fill="none" stroke="#000000" d="M165.5,-542.459C191.3611,-542.459 200.2509,-542.459 221.8691,-542.459"/>
<polygon fill="#000000" stroke="#000000" points="222,-545.9591 232,-542.459 222,-538.9591 222,-545.9591"/>
</g>
<!-- NUM_TELEMOVEL_CLIENTE -->
<g id="node8" class="node">
<title>NUM_TELEMOVEL_CLIENTE</title>
<polygon fill="#ffffff" stroke="transparent" points="161,-376.959 12,-376.959 12,-317.959 161,-317.959 161,-376.959"/>
<polygon fill="none" stroke="#000000" points="20.5,-355.459 20.5,-372.459 153.5,-372.459 153.5,-355.459 20.5,-355.459"/>
<text text-anchor="start" x="23.5" y="-362.459" font-family="Courier,monospace" font-weight="bold" font-size="10.00" fill="#000000">NUM_TELEMOVEL_CLIENTE</text>
<polygon fill="none" stroke="#000000" points="20.5,-338.459 20.5,-355.459 153.5,-355.459 153.5,-338.459 20.5,-338.459"/>
<text text-anchor="start" x="23.5" y="-345.459" font-family="Courier,monospace" text-decoration="underline" font-size="10.00" fill="#000000">NumCC</text>
<text text-anchor="start" x="54.5" y="-345.459" font-family="Courier,monospace" font-size="10.00" fill="#000000"> </text>
<text text-anchor="start" x="61.5" y="-345.459" font-family="Courier,monospace" font-style="italic" font-size="10.00" fill="#000000">int</text>
<polygon fill="none" stroke="#000000" points="20.5,-321.459 20.5,-338.459 153.5,-338.459 153.5,-321.459 20.5,-321.459"/>
<text text-anchor="start" x="23.5" y="-328.459" font-family="Courier,monospace" text-decoration="underline" font-size="10.00" fill="#000000">Num_Telemovel</text>
<text text-anchor="start" x="102.5" y="-328.459" font-family="Courier,monospace" font-size="10.00" fill="#000000"> </text>
<text text-anchor="start" x="109.5" y="-328.459" font-family="Courier,monospace" font-style="italic" font-size="10.00" fill="#000000">int</text>
</g>
<!-- NUM_TELEMOVEL_CLIENTE&#45;&gt;CLIENTE -->
<g id="edge9" class="edge">
<title>NUM_TELEMOVEL_CLIENTE:NumCC&#45;&gt;CLIENTE:NumCC</title>
<path fill="none" stroke="#000000" d="M153.5,-346.459C177.974,-346.459 186.5303,-346.459 206.7761,-346.459"/>
<polygon fill="#000000" stroke="#000000" points="207,-349.9591 217,-346.459 207,-342.9591 207,-349.9591"/>
</g>
</g>
</svg>
