<?xml version="1.0" encoding="UTF-8" standalone="no"?>
<!DOCTYPE svg PUBLIC "-//W3C//DTD SVG 1.1//EN"
 "http://www.w3.org/Graphics/SVG/1.1/DTD/svg11.dtd">
<!-- Generated by graphviz version 2.40.1 (20161225.0304)
 -->
<!-- Title: %3 Pages: 1 -->
<svg width="712pt" height="1314pt"
 viewBox="0.00 0.00 712.47 1314.00" xmlns="http://www.w3.org/2000/svg" xmlns:xlink="http://www.w3.org/1999/xlink">
<g id="graph0" class="graph" transform="scale(1 1) rotate(0) translate(4 1310)">
<title>%3</title>
<polygon fill="#ffffff" stroke="transparent" points="-4,4 -4,-1310 708.4662,-1310 708.4662,4 -4,4"/>
<!-- CLIENTE -->
<g id="node1" class="node">
<title>CLIENTE</title>
<polygon fill="#ffffff" stroke="#000000" points="365.455,-812 306.455,-812 306.455,-776 365.455,-776 365.455,-812"/>
<text text-anchor="middle" x="335.955" y="-791.5" font-family="Courier,monospace" font-size="10.00" fill="#000000">CLIENTE</text>
</g>
<!-- COMPRA -->
<g id="node49" class="node">
<title>COMPRA</title>
<polygon fill="#ffffff" stroke="#000000" points="498.3741,-1091 454.1293,-1073 498.3741,-1055 542.6189,-1073 498.3741,-1091"/>
<text text-anchor="middle" x="498.3741" y="-1070.5" font-family="Courier,monospace" font-size="10.00" fill="#000000">COMPRA</text>
</g>
<!-- CLIENTE&#45;&#45;COMPRA -->
<g id="edge44" class="edge">
<title>CLIENTE&#45;&#45;COMPRA</title>
<path fill="none" stroke="#000000" d="M339.1444,-812.1305C343.0943,-857.7822 359.6406,-978.2784 425.705,-1044.5945 436.2853,-1055.5408 452.7289,-1062.1598 467.0294,-1065.9092"/>
<path fill="none" stroke="transparent" d="M337.1519,-812.303C341.1129,-858.0542 357.6592,-978.5504 424.2821,-1046 435.5385,-1057.3961 451.982,-1064.0152 466.5201,-1067.8433"/>
<path fill="none" stroke="#000000" d="M335.1594,-812.4756C339.1315,-858.3263 355.6778,-978.8225 422.8592,-1047.4055 434.7917,-1059.2515 451.2352,-1065.8705 466.0108,-1069.7774"/>
<text text-anchor="middle" x="402.7821" y="-1027" font-family="Courier,monospace" font-size="10.00" fill="#000000">M</text>
</g>
<!-- ENCOMENDA -->
<g id="node54" class="node">
<title>ENCOMENDA</title>
<polygon fill="#ffffff" stroke="#000000" points="498.3741,-605 439.1596,-587 498.3741,-569 557.5886,-587 498.3741,-605"/>
<text text-anchor="middle" x="498.3741" y="-584.5" font-family="Courier,monospace" font-size="10.00" fill="#000000">ENCOMENDA</text>
</g>
<!-- CLIENTE&#45;&#45;ENCOMENDA -->
<g id="edge52" class="edge">
<title>CLIENTE&#45;&#45;ENCOMENDA</title>
<path fill="none" stroke="#000000" d="M340.0101,-775.9383C348.972,-740.06 373.7927,-659.3691 424.2821,-614 434.8727,-604.4833 449.0866,-598.2429 462.2319,-594.1874"/>
<text text-anchor="middle" x="402.7821" y="-640" font-family="Courier,monospace" font-size="10.00" fill="#000000">1</text>
</g>
<!-- CLIENTE_NumCC_ -->
<g id="node2" class="node">
<title>CLIENTE_NumCC_</title>
<ellipse fill="#ffffff" stroke="#000000" cx="190.641" cy="-682" rx="31.3996" ry="18"/>
<text text-anchor="start" x="172.141" y="-680.5" font-family="Courier,monospace" text-decoration="underline" font-size="10.00" fill="#000000">NumCC_</text>
</g>
<!-- CLIENTE_NumCC_&#45;&#45;CLIENTE -->
<g id="edge1" class="edge">
<title>CLIENTE_NumCC_&#45;&#45;CLIENTE</title>
<path fill="none" stroke="#000000" d="M217.9042,-690.9636C229.4658,-695.4376 242.752,-701.5087 253.628,-709 281.0364,-727.8789 306.7241,-756.9026 321.893,-775.6715"/>
</g>
<!-- CLIENTE_Nome -->
<g id="node3" class="node">
<title>CLIENTE_Nome</title>
<ellipse fill="#ffffff" stroke="#000000" cx="190.641" cy="-628" rx="27" ry="18"/>
<text text-anchor="middle" x="190.641" y="-625.5" font-family="Courier,monospace" font-size="10.00" fill="#000000">Nome</text>
</g>
<!-- CLIENTE_Nome&#45;&#45;CLIENTE -->
<g id="edge2" class="edge">
<title>CLIENTE_Nome&#45;&#45;CLIENTE</title>
<path fill="none" stroke="#000000" d="M215.9994,-634.7885C228.3888,-639.059 242.8993,-645.5803 253.628,-655 292.6192,-689.2338 318.2497,-746.5793 329.4675,-775.7549"/>
</g>
<!-- CLIENTE_DataNascimento -->
<g id="node4" class="node">
<title>CLIENTE_DataNascimento</title>
<ellipse fill="#ffffff" stroke="#000000" cx="190.641" cy="-960" rx="59.4099" ry="18"/>
<text text-anchor="middle" x="190.641" y="-957.5" font-family="Courier,monospace" font-size="10.00" fill="#000000">DataNascimento</text>
</g>
<!-- CLIENTE_DataNascimento&#45;&#45;CLIENTE -->
<g id="edge3" class="edge">
<title>CLIENTE_DataNascimento&#45;&#45;CLIENTE</title>
<path fill="none" stroke="#000000" d="M231.8355,-946.8102C239.6085,-943.132 247.2802,-938.5733 253.628,-933 292.6192,-898.7662 318.2497,-841.4207 329.4675,-812.2451"/>
</g>
<!-- CLIENTE_Genero -->
<g id="node5" class="node">
<title>CLIENTE_Genero</title>
<ellipse fill="#ffffff" stroke="#000000" cx="190.641" cy="-906" rx="31.3996" ry="18"/>
<text text-anchor="middle" x="190.641" y="-903.5" font-family="Courier,monospace" font-size="10.00" fill="#000000">Genero</text>
</g>
<!-- CLIENTE_Genero&#45;&#45;CLIENTE -->
<g id="edge4" class="edge">
<title>CLIENTE_Genero&#45;&#45;CLIENTE</title>
<path fill="none" stroke="#000000" d="M217.9042,-897.0364C229.4658,-892.5624 242.752,-886.4913 253.628,-879 281.0364,-860.1211 306.7241,-831.0974 321.893,-812.3285"/>
</g>
<!-- CLIENTE_Enail -->
<g id="node6" class="node">
<title>CLIENTE_Enail</title>
<ellipse fill="#ffffff" stroke="#000000" cx="190.641" cy="-852" rx="27.8353" ry="18"/>
<text text-anchor="middle" x="190.641" y="-849.5" font-family="Courier,monospace" font-size="10.00" fill="#000000">Enail</text>
</g>
<!-- CLIENTE_Enail&#45;&#45;CLIENTE -->
<g id="edge5" class="edge">
<title>CLIENTE_Enail&#45;&#45;CLIENTE</title>
<path fill="none" stroke="#000000" d="M214.3116,-842.5522C239.4035,-832.5371 279.0855,-816.6987 306.2583,-805.853"/>
</g>
<!-- CLIENTE_NumTelemovel -->
<g id="node7" class="node">
<title>CLIENTE_NumTelemovel</title>
<ellipse fill="#ffffff" stroke="#000000" cx="190.641" cy="-794" rx="52.2899" ry="18"/>
<ellipse fill="none" stroke="#000000" cx="190.641" cy="-794" rx="56.2822" ry="22"/>
<text text-anchor="middle" x="190.641" y="-791.5" font-family="Courier,monospace" font-size="10.00" fill="#000000">NumTelemovel</text>
</g>
<!-- CLIENTE_NumTelemovel&#45;&#45;CLIENTE -->
<g id="edge6" class="edge">
<title>CLIENTE_NumTelemovel&#45;&#45;CLIENTE</title>
<path fill="none" stroke="#000000" d="M247.2393,-794C267.3214,-794 289.1264,-794 306.0935,-794"/>
</g>
<!-- CLIENTE_Morada -->
<g id="node8" class="node">
<title>CLIENTE_Morada</title>
<ellipse fill="#ffffff" stroke="#000000" cx="190.641" cy="-736" rx="31.3996" ry="18"/>
<text text-anchor="middle" x="190.641" y="-733.5" font-family="Courier,monospace" font-size="10.00" fill="#000000">Morada</text>
</g>
<!-- CLIENTE_Morada&#45;&#45;CLIENTE -->
<g id="edge7" class="edge">
<title>CLIENTE_Morada&#45;&#45;CLIENTE</title>
<path fill="none" stroke="#000000" d="M216.6203,-746.3692C241.8457,-756.4376 280.0887,-771.7017 306.4487,-782.223"/>
</g>
<!-- CLIENTE_Morada_Rua -->
<g id="node9" class="node">
<title>CLIENTE_Morada_Rua</title>
<ellipse fill="#ffffff" stroke="#000000" cx="45.327" cy="-844" rx="27" ry="18"/>
<text text-anchor="middle" x="45.327" y="-841.5" font-family="Courier,monospace" font-size="10.00" fill="#000000">Rua</text>
</g>
<!-- CLIENTE_Morada_Rua&#45;&#45;CLIENTE_Morada -->
<g id="edge8" class="edge">
<title>CLIENTE_Morada_Rua&#45;&#45;CLIENTE_Morada</title>
<path fill="none" stroke="#000000" d="M67.4048,-833.3841C75.2618,-828.9783 83.8414,-823.3934 90.6541,-817 111.8687,-797.0912 105.1702,-781.4634 127.6541,-763 137.8602,-754.6189 151.0574,-748.4297 162.7332,-744.1073"/>
</g>
<!-- CLIENTE_Morada_NumRua -->
<g id="node10" class="node">
<title>CLIENTE_Morada_NumRua</title>
<ellipse fill="#ffffff" stroke="#000000" cx="45.327" cy="-790" rx="31.3996" ry="18"/>
<text text-anchor="middle" x="45.327" y="-787.5" font-family="Courier,monospace" font-size="10.00" fill="#000000">NumRua</text>
</g>
<!-- CLIENTE_Morada_NumRua&#45;&#45;CLIENTE_Morada -->
<g id="edge9" class="edge">
<title>CLIENTE_Morada_NumRua&#45;&#45;CLIENTE_Morada</title>
<path fill="none" stroke="#000000" d="M71.6423,-780.221C97.8145,-770.4952 137.7553,-755.6528 164.0305,-745.8887"/>
</g>
<!-- CLIENTE_Morada_Andar -->
<g id="node11" class="node">
<title>CLIENTE_Morada_Andar</title>
<ellipse fill="#ffffff" stroke="#000000" cx="45.327" cy="-736" rx="34.9638" ry="18"/>
<text text-anchor="middle" x="45.327" y="-733.5" font-family="Courier,monospace" font-size="10.00" fill="#000000">Andar ?</text>
</g>
<!-- CLIENTE_Morada_Andar&#45;&#45;CLIENTE_Morada -->
<g id="edge10" class="edge">
<title>CLIENTE_Morada_Andar&#45;&#45;CLIENTE_Morada</title>
<path fill="none" stroke="#000000" d="M80.1334,-736C104.1472,-736 135.8145,-736 159.0919,-736"/>
</g>
<!-- CLIENTE_Morada_Localidade -->
<g id="node12" class="node">
<title>CLIENTE_Morada_Localidade</title>
<ellipse fill="#ffffff" stroke="#000000" cx="45.327" cy="-682" rx="45.1548" ry="18"/>
<text text-anchor="middle" x="45.327" y="-679.5" font-family="Courier,monospace" font-size="10.00" fill="#000000">Localidade</text>
</g>
<!-- CLIENTE_Morada_Localidade&#45;&#45;CLIENTE_Morada -->
<g id="edge11" class="edge">
<title>CLIENTE_Morada_Localidade&#45;&#45;CLIENTE_Morada</title>
<path fill="none" stroke="#000000" d="M78.665,-694.3887C104.6406,-704.0415 140.2109,-717.2597 164.2349,-726.1873"/>
</g>
<!-- CLIENTE_Morada_CodPostal -->
<g id="node13" class="node">
<title>CLIENTE_Morada_CodPostal</title>
<ellipse fill="#ffffff" stroke="#000000" cx="45.327" cy="-628" rx="41.5911" ry="18"/>
<text text-anchor="middle" x="45.327" y="-625.5" font-family="Courier,monospace" font-size="10.00" fill="#000000">CodPostal</text>
</g>
<!-- CLIENTE_Morada_CodPostal&#45;&#45;CLIENTE_Morada -->
<g id="edge12" class="edge">
<title>CLIENTE_Morada_CodPostal&#45;&#45;CLIENTE_Morada</title>
<path fill="none" stroke="#000000" d="M73.0385,-641.9169C79.2014,-645.6946 85.4444,-650.111 90.6541,-655 111.8687,-674.9088 105.1702,-690.5366 127.6541,-709 137.8602,-717.3811 151.0574,-723.5703 162.7332,-727.8927"/>
</g>
<!-- PRODUTO -->
<g id="node14" class="node">
<title>PRODUTO</title>
<polygon fill="#ffffff" stroke="#000000" points="689.4662,-956 630.4662,-956 630.4662,-920 689.4662,-920 689.4662,-956"/>
<text text-anchor="middle" x="659.9662" y="-935.5" font-family="Courier,monospace" font-size="10.00" fill="#000000">PRODUTO</text>
</g>
<!-- PRODUTO__IdProduto_ -->
<g id="node15" class="node">
<title>PRODUTO__IdProduto_</title>
<ellipse fill="#ffffff" stroke="#000000" cx="498.3741" cy="-1019" rx="48.7185" ry="18"/>
<text text-anchor="middle" x="498.3741" y="-1016.5" font-family="Courier,monospace" font-size="10.00" fill="#000000">_IdProduto_</text>
</g>
<!-- PRODUTO__IdProduto_&#45;&#45;PRODUTO -->
<g id="edge13" class="edge">
<title>PRODUTO__IdProduto_&#45;&#45;PRODUTO</title>
<path fill="none" stroke="#000000" d="M535.5408,-1007.1242C547.5407,-1002.8515 560.7616,-997.6712 572.4662,-992 593.8321,-981.6477 616.6148,-967.4768 633.5753,-956.2493"/>
</g>
<!-- PRODUTO_Nome -->
<g id="node16" class="node">
<title>PRODUTO_Nome</title>
<ellipse fill="#ffffff" stroke="#000000" cx="498.3741" cy="-965" rx="27" ry="18"/>
<text text-anchor="middle" x="498.3741" y="-962.5" font-family="Courier,monospace" font-size="10.00" fill="#000000">Nome</text>
</g>
<!-- PRODUTO_Nome&#45;&#45;PRODUTO -->
<g id="edge14" class="edge">
<title>PRODUTO_Nome&#45;&#45;PRODUTO</title>
<path fill="none" stroke="#000000" d="M524.6963,-960.6019C553.6722,-955.7604 600.1445,-947.9954 630.3659,-942.9458"/>
</g>
<!-- PRODUTO_Custo -->
<g id="node17" class="node">
<title>PRODUTO_Custo</title>
<ellipse fill="#ffffff" stroke="#000000" cx="498.3741" cy="-911" rx="27.8353" ry="18"/>
<text text-anchor="middle" x="498.3741" y="-908.5" font-family="Courier,monospace" font-size="10.00" fill="#000000">Custo</text>
</g>
<!-- PRODUTO_Custo&#45;&#45;PRODUTO -->
<g id="edge15" class="edge">
<title>PRODUTO_Custo&#45;&#45;PRODUTO</title>
<path fill="none" stroke="#000000" d="M525.421,-915.5192C554.4414,-920.3681 600.393,-928.0461 630.3637,-933.0538"/>
</g>
<!-- PRODUTO_IdEmpresa -->
<g id="node18" class="node">
<title>PRODUTO_IdEmpresa</title>
<ellipse fill="#ffffff" stroke="#000000" cx="498.3741" cy="-857" rx="41.5911" ry="18"/>
<text text-anchor="middle" x="498.3741" y="-854.5" font-family="Courier,monospace" font-size="10.00" fill="#000000">IdEmpresa</text>
</g>
<!-- PRODUTO_IdEmpresa&#45;&#45;PRODUTO -->
<g id="edge16" class="edge">
<title>PRODUTO_IdEmpresa&#45;&#45;PRODUTO</title>
<path fill="none" stroke="#000000" d="M532.1655,-867.6862C545.0221,-872.1714 559.6527,-877.7915 572.4662,-884 593.8321,-894.3523 616.6148,-908.5232 633.5753,-919.7507"/>
</g>
<!-- PRODUTO_Quantidade -->
<g id="node19" class="node">
<title>PRODUTO_Quantidade</title>
<ellipse fill="#ffffff" stroke="#000000" cx="498.3741" cy="-803" rx="45.1548" ry="18"/>
<text text-anchor="middle" x="498.3741" y="-800.5" font-family="Courier,monospace" font-size="10.00" fill="#000000">Quantidade</text>
</g>
<!-- PRODUTO_Quantidade&#45;&#45;PRODUTO -->
<g id="edge17" class="edge">
<title>PRODUTO_Quantidade&#45;&#45;PRODUTO</title>
<path fill="none" stroke="#000000" d="M536.8658,-812.6423C548.9453,-816.7809 561.8782,-822.4465 572.4662,-830 606.8445,-854.5257 635.11,-895.9886 649.5551,-919.7715"/>
</g>
<!-- DEPARTAMENTO -->
<g id="node20" class="node">
<title>DEPARTAMENTO</title>
<polygon fill="#ffffff" stroke="#000000" points="704.4662,-659 615.4662,-659 615.4662,-623 704.4662,-623 704.4662,-659"/>
<text text-anchor="middle" x="659.9662" y="-638.5" font-family="Courier,monospace" font-size="10.00" fill="#000000">DEPARTAMENTO</text>
</g>
<!-- DEPARTAMENTO__NomeDepartamento_ -->
<g id="node21" class="node">
<title>DEPARTAMENTO__NomeDepartamento_</title>
<ellipse fill="#ffffff" stroke="#000000" cx="498.3741" cy="-641" rx="73.6658" ry="18"/>
<text text-anchor="middle" x="498.3741" y="-638.5" font-family="Courier,monospace" font-size="10.00" fill="#000000">_NomeDepartamento_</text>
</g>
<!-- DEPARTAMENTO__NomeDepartamento_&#45;&#45;DEPARTAMENTO -->
<g id="edge18" class="edge">
<title>DEPARTAMENTO__NomeDepartamento_&#45;&#45;DEPARTAMENTO</title>
<path fill="none" stroke="#000000" d="M572.0771,-641C586.7271,-641 601.6906,-641 615.0209,-641"/>
</g>
<!-- DEPARTAMENTO_Gestor -->
<g id="node22" class="node">
<title>DEPARTAMENTO_Gestor</title>
<ellipse fill="#ffffff" stroke="#000000" cx="498.3741" cy="-695" rx="31.3996" ry="18"/>
<text text-anchor="middle" x="498.3741" y="-692.5" font-family="Courier,monospace" font-size="10.00" fill="#000000">Gestor</text>
</g>
<!-- DEPARTAMENTO_Gestor&#45;&#45;DEPARTAMENTO -->
<g id="edge19" class="edge">
<title>DEPARTAMENTO_Gestor&#45;&#45;DEPARTAMENTO</title>
<path fill="none" stroke="#000000" d="M525.421,-685.9616C549.949,-677.765 586.5722,-665.5264 615.4187,-655.8867"/>
</g>
<!-- FUNCIONARIO -->
<g id="node23" class="node">
<title>FUNCIONARIO</title>
<polygon fill="#ffffff" stroke="#000000" points="377.455,-314 294.455,-314 294.455,-278 377.455,-278 377.455,-314"/>
<text text-anchor="middle" x="335.955" y="-293.5" font-family="Courier,monospace" font-size="10.00" fill="#000000">FUNCIONARIO</text>
</g>
<!-- SUPERVISIONA -->
<g id="node50" class="node">
<title>SUPERVISIONA</title>
<polygon fill="#ffffff" stroke="#000000" points="498.3741,-227 424.1899,-209 498.3741,-191 572.5584,-209 498.3741,-227"/>
<text text-anchor="middle" x="498.3741" y="-206.5" font-family="Courier,monospace" font-size="10.00" fill="#000000">SUPERVISIONA</text>
</g>
<!-- FUNCIONARIO&#45;&#45;SUPERVISIONA -->
<g id="edge46" class="edge">
<title>FUNCIONARIO&#45;&#45;SUPERVISIONA</title>
<path fill="none" stroke="#000000" d="M358.1322,-276.161C375.4406,-263.2595 399.8723,-246.2674 423.3708,-234.2197 436.4796,-227.5223 451.4028,-221.7568 464.5265,-217.2446"/>
<path fill="none" stroke="transparent" d="M359.3275,-277.7644C376.5825,-264.9014 401.0143,-247.9094 424.2821,-236 437.2003,-229.3879 452.1236,-223.6224 465.1766,-219.136"/>
<path fill="none" stroke="#000000" d="M360.5228,-279.3679C377.7245,-266.5434 402.1562,-249.5513 425.1933,-237.7803 437.9211,-231.2535 452.8444,-225.488 465.8267,-221.0274"/>
<text text-anchor="middle" x="402.7821" y="-251" font-family="Courier,monospace" font-size="10.00" fill="#000000">1</text>
</g>
<!-- TRABALHA_EM -->
<g id="node53" class="node">
<title>TRABALHA_EM</title>
<polygon fill="#ffffff" stroke="#000000" points="498.3741,-551 429.1798,-533 498.3741,-515 567.5685,-533 498.3741,-551"/>
<text text-anchor="middle" x="498.3741" y="-530.5" font-family="Courier,monospace" font-size="10.00" fill="#000000">TRABALHA_EM</text>
</g>
<!-- FUNCIONARIO&#45;&#45;TRABALHA_EM -->
<g id="edge50" class="edge">
<title>FUNCIONARIO&#45;&#45;TRABALHA_EM</title>
<path fill="none" stroke="#000000" d="M338.6137,-314.2196C345.4202,-354.4447 367.1454,-451.5795 424.2821,-506 433.7991,-515.0646 446.5975,-521.1276 458.878,-525.1655"/>
<text text-anchor="middle" x="402.7821" y="-486" font-family="Courier,monospace" font-size="10.00" fill="#000000">1</text>
</g>
<!-- VENDE -->
<g id="node55" class="node">
<title>VENDE</title>
<polygon fill="#ffffff" stroke="#000000" points="498.3741,-767 459.1192,-749 498.3741,-731 537.6291,-749 498.3741,-767"/>
<text text-anchor="middle" x="498.3741" y="-746.5" font-family="Courier,monospace" font-size="10.00" fill="#000000">VENDE</text>
</g>
<!-- FUNCIONARIO&#45;&#45;VENDE -->
<g id="edge54" class="edge">
<title>FUNCIONARIO&#45;&#45;VENDE</title>
<path fill="none" stroke="#000000" d="M340.1987,-314.0986C351.5945,-362.9695 383.5397,-501.7572 406.2821,-618 415.2889,-664.0366 394.193,-686.0119 424.2821,-722 434.9956,-734.814 452.325,-741.5466 467.5313,-745.084"/>
<text text-anchor="middle" x="402.7821" y="-621" font-family="Courier,monospace" font-size="10.00" fill="#000000">1</text>
</g>
<!-- FUNCIONARIO__IdFuncionario_ -->
<g id="node24" class="node">
<title>FUNCIONARIO__IdFuncionario_</title>
<ellipse fill="#ffffff" stroke="#000000" cx="190.641" cy="-126" rx="62.9739" ry="18"/>
<text text-anchor="middle" x="190.641" y="-123.5" font-family="Courier,monospace" font-size="10.00" fill="#000000">_IdFuncionario_</text>
</g>
<!-- FUNCIONARIO__IdFuncionario_&#45;&#45;FUNCIONARIO -->
<g id="edge20" class="edge">
<title>FUNCIONARIO__IdFuncionario_&#45;&#45;FUNCIONARIO</title>
<path fill="none" stroke="#000000" d="M234.2709,-139.1514C241.3967,-142.7708 248.2084,-147.3178 253.628,-153 286.0478,-186.9908 264.9268,-212.6824 290.628,-252 296.8687,-261.5471 305.5196,-270.5988 313.5924,-277.9821"/>
</g>
<!-- FUNCIONARIO_Nome -->
<g id="node25" class="node">
<title>FUNCIONARIO_Nome</title>
<ellipse fill="#ffffff" stroke="#000000" cx="190.641" cy="-72" rx="27" ry="18"/>
<text text-anchor="middle" x="190.641" y="-69.5" font-family="Courier,monospace" font-size="10.00" fill="#000000">Nome</text>
</g>
<!-- FUNCIONARIO_Nome&#45;&#45;FUNCIONARIO -->
<g id="edge21" class="edge">
<title>FUNCIONARIO_Nome&#45;&#45;FUNCIONARIO</title>
<path fill="none" stroke="#000000" d="M216.6471,-77.3353C229.5157,-81.2611 244.2599,-87.9128 253.628,-99 298.7805,-152.4384 255.9412,-191.2443 290.628,-252 296.1743,-261.7147 304.4967,-270.6731 312.5024,-277.9357"/>
</g>
<!-- FUNCIONARIO_NumCC -->
<g id="node26" class="node">
<title>FUNCIONARIO_NumCC</title>
<ellipse fill="#ffffff" stroke="#000000" cx="190.641" cy="-18" rx="27.8353" ry="18"/>
<text text-anchor="middle" x="190.641" y="-15.5" font-family="Courier,monospace" font-size="10.00" fill="#000000">NumCC</text>
</g>
<!-- FUNCIONARIO_NumCC&#45;&#45;FUNCIONARIO -->
<g id="edge22" class="edge">
<title>FUNCIONARIO_NumCC&#45;&#45;FUNCIONARIO</title>
<path fill="none" stroke="#000000" d="M217.3381,-23.483C230.0688,-27.4207 244.4804,-34.0384 253.628,-45 277.8747,-74.055 265.6819,-90.7999 272.628,-128 282.8496,-182.7426 265.2979,-202.4054 290.628,-252 295.6164,-261.767 303.6239,-270.6174 311.5308,-277.7769"/>
</g>
<!-- FUNCIONARIO_DataNascimento -->
<g id="node27" class="node">
<title>FUNCIONARIO_DataNascimento</title>
<ellipse fill="#ffffff" stroke="#000000" cx="190.641" cy="-566" rx="59.4099" ry="18"/>
<text text-anchor="middle" x="190.641" y="-563.5" font-family="Courier,monospace" font-size="10.00" fill="#000000">DataNascimento</text>
</g>
<!-- FUNCIONARIO_DataNascimento&#45;&#45;FUNCIONARIO -->
<g id="edge23" class="edge">
<title>FUNCIONARIO_DataNascimento&#45;&#45;FUNCIONARIO</title>
<path fill="none" stroke="#000000" d="M233.4459,-553.4758C240.9101,-549.7675 248.0548,-545.0276 253.628,-539 315.1654,-472.4445 330.8905,-358.15 334.7521,-314.0705"/>
</g>
<!-- FUNCIONARIO_Email -->
<g id="node28" class="node">
<title>FUNCIONARIO_Email</title>
<ellipse fill="#ffffff" stroke="#000000" cx="190.641" cy="-512" rx="34.9638" ry="18"/>
<text text-anchor="middle" x="190.641" y="-509.5" font-family="Courier,monospace" font-size="10.00" fill="#000000">Email ?</text>
</g>
<!-- FUNCIONARIO_Email&#45;&#45;FUNCIONARIO -->
<g id="edge24" class="edge">
<title>FUNCIONARIO_Email&#45;&#45;FUNCIONARIO</title>
<path fill="none" stroke="#000000" d="M221.9312,-503.8535C233.0437,-499.6981 244.9375,-493.6399 253.628,-485 303.3755,-435.5422 325.2057,-351.0283 332.7059,-314.1293"/>
</g>
<!-- FUNCIONARIO_Departamento -->
<g id="node29" class="node">
<title>FUNCIONARIO_Departamento</title>
<ellipse fill="#ffffff" stroke="#000000" cx="190.641" cy="-458" rx="52.2822" ry="18"/>
<text text-anchor="middle" x="190.641" y="-455.5" font-family="Courier,monospace" font-size="10.00" fill="#000000">Departamento</text>
</g>
<!-- FUNCIONARIO_Departamento&#45;&#45;FUNCIONARIO -->
<g id="edge25" class="edge">
<title>FUNCIONARIO_Departamento&#45;&#45;FUNCIONARIO</title>
<path fill="none" stroke="#000000" d="M229.4777,-445.8071C238.0282,-441.9583 246.615,-437.0777 253.628,-431 291.7994,-397.9192 317.6297,-342.6508 329.1398,-314.1791"/>
</g>
<!-- FUNCIONARIO_Supervisor -->
<g id="node30" class="node">
<title>FUNCIONARIO_Supervisor</title>
<ellipse fill="#ffffff" stroke="#000000" cx="190.641" cy="-404" rx="52.2822" ry="18"/>
<text text-anchor="middle" x="190.641" y="-401.5" font-family="Courier,monospace" font-size="10.00" fill="#000000">Supervisor ?</text>
</g>
<!-- FUNCIONARIO_Supervisor&#45;&#45;FUNCIONARIO -->
<g id="edge26" class="edge">
<title>FUNCIONARIO_Supervisor&#45;&#45;FUNCIONARIO</title>
<path fill="none" stroke="#000000" d="M227.1538,-391.0711C236.1538,-387.161 245.5274,-382.4369 253.628,-377 280.2658,-359.1212 305.7653,-331.9503 321.1441,-314.0863"/>
</g>
<!-- FUNCIONARIO_Salario -->
<g id="node31" class="node">
<title>FUNCIONARIO_Salario</title>
<ellipse fill="#ffffff" stroke="#000000" cx="190.641" cy="-350" rx="34.9638" ry="18"/>
<text text-anchor="middle" x="190.641" y="-347.5" font-family="Courier,monospace" font-size="10.00" fill="#000000">Salario</text>
</g>
<!-- FUNCIONARIO_Salario&#45;&#45;FUNCIONARIO -->
<g id="edge27" class="edge">
<title>FUNCIONARIO_Salario&#45;&#45;FUNCIONARIO</title>
<path fill="none" stroke="#000000" d="M219.004,-339.4601C240.3963,-331.5105 270.0726,-320.4825 294.1777,-311.5248"/>
</g>
<!-- FUNCIONARIO_HorasTradalho -->
<g id="node32" class="node">
<title>FUNCIONARIO_HorasTradalho</title>
<ellipse fill="none" stroke="#000000" stroke-dasharray="5,2" cx="190.641" cy="-296" rx="55.8461" ry="18"/>
<text text-anchor="middle" x="190.641" y="-293.5" font-family="Courier,monospace" font-size="10.00" fill="#000000">HorasTradalho</text>
</g>
<!-- FUNCIONARIO_HorasTradalho&#45;&#45;FUNCIONARIO -->
<g id="edge28" class="edge">
<title>FUNCIONARIO_HorasTradalho&#45;&#45;FUNCIONARIO</title>
<path fill="none" stroke="#000000" d="M246.8232,-296C262.6367,-296 279.5492,-296 294.3458,-296"/>
</g>
<!-- FUNCIONARIO_Gere -->
<g id="node33" class="node">
<title>FUNCIONARIO_Gere</title>
<ellipse fill="#ffffff" stroke="#000000" cx="190.641" cy="-242" rx="31.3996" ry="18"/>
<text text-anchor="middle" x="190.641" y="-239.5" font-family="Courier,monospace" font-size="10.00" fill="#000000">Gere ?</text>
</g>
<!-- FUNCIONARIO_Gere&#45;&#45;FUNCIONARIO -->
<g id="edge29" class="edge">
<title>FUNCIONARIO_Gere&#45;&#45;FUNCIONARIO</title>
<path fill="none" stroke="#000000" d="M216.9563,-251.779C238.5483,-259.8028 269.5117,-271.3091 294.4415,-280.5732"/>
</g>
<!-- FUNCIONARIO_NumTelemovel -->
<g id="node34" class="node">
<title>FUNCIONARIO_NumTelemovel</title>
<ellipse fill="#ffffff" stroke="#000000" cx="190.641" cy="-184" rx="52.2899" ry="18"/>
<ellipse fill="none" stroke="#000000" cx="190.641" cy="-184" rx="56.2822" ry="22"/>
<text text-anchor="middle" x="190.641" y="-181.5" font-family="Courier,monospace" font-size="10.00" fill="#000000">NumTelemovel</text>
</g>
<!-- FUNCIONARIO_NumTelemovel&#45;&#45;FUNCIONARIO -->
<g id="edge30" class="edge">
<title>FUNCIONARIO_NumTelemovel&#45;&#45;FUNCIONARIO</title>
<path fill="none" stroke="#000000" d="M228.769,-200.2602C237.2589,-204.5553 245.9975,-209.5366 253.628,-215 272.5368,-228.5386 274.0618,-235.6781 290.628,-252 299.2215,-260.4668 308.7988,-269.7813 316.9277,-277.6516"/>
</g>
<!-- FORNECEDOR -->
<g id="node35" class="node">
<title>FORNECEDOR</title>
<polygon fill="#ffffff" stroke="#000000" points="374.455,-1145 297.455,-1145 297.455,-1109 374.455,-1109 374.455,-1145"/>
<text text-anchor="middle" x="335.955" y="-1124.5" font-family="Courier,monospace" font-size="10.00" fill="#000000">FORNECEDOR</text>
</g>
<!-- FORNECE -->
<g id="node48" class="node">
<title>FORNECE</title>
<polygon fill="#ffffff" stroke="#000000" points="498.3741,-1145 449.1394,-1127 498.3741,-1109 547.6088,-1127 498.3741,-1145"/>
<text text-anchor="middle" x="498.3741" y="-1124.5" font-family="Courier,monospace" font-size="10.00" fill="#000000">FORNECE</text>
</g>
<!-- FORNECEDOR&#45;&#45;FORNECE -->
<g id="edge42" class="edge">
<title>FORNECEDOR&#45;&#45;FORNECE</title>
<path fill="none" stroke="#000000" d="M374.8584,-1125C397.1004,-1125 425.2166,-1125 449.0031,-1125"/>
<path fill="none" stroke="transparent" d="M374.8584,-1127C397.1004,-1127 425.2166,-1127 449.0031,-1127"/>
<path fill="none" stroke="#000000" d="M374.8584,-1129C397.1004,-1129 425.2166,-1129 449.0031,-1129"/>
<text text-anchor="middle" x="402.7821" y="-1130" font-family="Courier,monospace" font-size="10.00" fill="#000000">M</text>
</g>
<!-- FORNECEDOR__IdEmpresa_ -->
<g id="node36" class="node">
<title>FORNECEDOR__IdEmpresa_</title>
<ellipse fill="#ffffff" stroke="#000000" cx="190.641" cy="-1288" rx="48.7185" ry="18"/>
<text text-anchor="middle" x="190.641" y="-1285.5" font-family="Courier,monospace" font-size="10.00" fill="#000000">_IdEmpresa_</text>
</g>
<!-- FORNECEDOR__IdEmpresa_&#45;&#45;FORNECEDOR -->
<g id="edge31" class="edge">
<title>FORNECEDOR__IdEmpresa_&#45;&#45;FORNECEDOR</title>
<path fill="none" stroke="#000000" d="M228.1481,-1276.3742C237.129,-1272.4392 246.2448,-1267.3772 253.628,-1261 291.6479,-1228.1605 317.5445,-1173.3032 329.1038,-1145.0436"/>
</g>
<!-- FORNECEDOR_NomeEmpresa -->
<g id="node37" class="node">
<title>FORNECEDOR_NomeEmpresa</title>
<ellipse fill="#ffffff" stroke="#000000" cx="190.641" cy="-1234" rx="48.7185" ry="18"/>
<text text-anchor="middle" x="190.641" y="-1231.5" font-family="Courier,monospace" font-size="10.00" fill="#000000">NomeEmpresa</text>
</g>
<!-- FORNECEDOR_NomeEmpresa&#45;&#45;FORNECEDOR -->
<g id="edge32" class="edge">
<title>FORNECEDOR_NomeEmpresa&#45;&#45;FORNECEDOR</title>
<path fill="none" stroke="#000000" d="M226.1442,-1221.4621C235.4429,-1217.4709 245.2136,-1212.6097 253.628,-1207 279.9938,-1189.4223 305.3666,-1162.8188 320.8091,-1145.182"/>
</g>
<!-- FORNECEDOR_IdProduto -->
<g id="node38" class="node">
<title>FORNECEDOR_IdProduto</title>
<ellipse fill="#ffffff" stroke="#000000" cx="190.641" cy="-1180" rx="41.5911" ry="18"/>
<text text-anchor="middle" x="190.641" y="-1177.5" font-family="Courier,monospace" font-size="10.00" fill="#000000">IdProduto</text>
</g>
<!-- FORNECEDOR_IdProduto&#45;&#45;FORNECEDOR -->
<g id="edge33" class="edge">
<title>FORNECEDOR_IdProduto&#45;&#45;FORNECEDOR</title>
<path fill="none" stroke="#000000" d="M222.8909,-1168.2376C244.8816,-1160.217 274.1132,-1149.5554 297.3444,-1141.0823"/>
</g>
<!-- FORNECEDOR_NomeProduto -->
<g id="node39" class="node">
<title>FORNECEDOR_NomeProduto</title>
<ellipse fill="#ffffff" stroke="#000000" cx="190.641" cy="-1126" rx="48.7185" ry="18"/>
<text text-anchor="middle" x="190.641" y="-1123.5" font-family="Courier,monospace" font-size="10.00" fill="#000000">NomeProduto</text>
</g>
<!-- FORNECEDOR_NomeProduto&#45;&#45;FORNECEDOR -->
<g id="edge34" class="edge">
<title>FORNECEDOR_NomeProduto&#45;&#45;FORNECEDOR</title>
<path fill="none" stroke="#000000" d="M239.8377,-1126.3386C258.6106,-1126.4677 279.7243,-1126.613 297.3712,-1126.7345"/>
</g>
<!-- FORNECEDOR_Custo -->
<g id="node40" class="node">
<title>FORNECEDOR_Custo</title>
<ellipse fill="#ffffff" stroke="#000000" cx="190.641" cy="-1072" rx="27.8353" ry="18"/>
<text text-anchor="middle" x="190.641" y="-1069.5" font-family="Courier,monospace" font-size="10.00" fill="#000000">Custo</text>
</g>
<!-- FORNECEDOR_Custo&#45;&#45;FORNECEDOR -->
<g id="edge35" class="edge">
<title>FORNECEDOR_Custo&#45;&#45;FORNECEDOR</title>
<path fill="none" stroke="#000000" d="M214.6367,-1081.0821C237.1274,-1089.5947 271.131,-1102.4647 297.4218,-1112.4155"/>
</g>
<!-- FORNECEDOR_Comissao -->
<g id="node41" class="node">
<title>FORNECEDOR_Comissao</title>
<ellipse fill="#ffffff" stroke="#000000" cx="190.641" cy="-1018" rx="38.0276" ry="18"/>
<text text-anchor="middle" x="190.641" y="-1015.5" font-family="Courier,monospace" font-size="10.00" fill="#000000">Comissao</text>
</g>
<!-- FORNECEDOR_Comissao&#45;&#45;FORNECEDOR -->
<g id="edge36" class="edge">
<title>FORNECEDOR_Comissao&#45;&#45;FORNECEDOR</title>
<path fill="none" stroke="#000000" d="M221.6419,-1028.569C232.2372,-1032.8741 243.8682,-1038.4059 253.628,-1045 280.3728,-1063.0698 305.8456,-1090.5836 321.1892,-1108.6779"/>
</g>
<!-- ENCOMENDAS -->
<g id="node42" class="node">
<title>ENCOMENDAS</title>
<polygon fill="#ffffff" stroke="#000000" points="698.4662,-416 621.4662,-416 621.4662,-380 698.4662,-380 698.4662,-416"/>
<text text-anchor="middle" x="659.9662" y="-395.5" font-family="Courier,monospace" font-size="10.00" fill="#000000">ENCOMENDAS</text>
</g>
<!-- ENCOMENDAS__NumCC_ -->
<g id="node43" class="node">
<title>ENCOMENDAS__NumCC_</title>
<ellipse fill="#ffffff" stroke="#000000" cx="498.3741" cy="-371" rx="34.9638" ry="18"/>
<text text-anchor="middle" x="498.3741" y="-368.5" font-family="Courier,monospace" font-size="10.00" fill="#000000">_NumCC_</text>
</g>
<!-- ENCOMENDAS__NumCC_&#45;&#45;ENCOMENDAS -->
<g id="edge37" class="edge">
<title>ENCOMENDAS__NumCC_&#45;&#45;ENCOMENDAS</title>
<path fill="none" stroke="#000000" d="M531.4646,-376.529C557.5033,-380.8797 593.841,-386.9513 621.2336,-391.5283"/>
</g>
<!-- ENCOMENDAS_IdEmpresa -->
<g id="node44" class="node">
<title>ENCOMENDAS_IdEmpresa</title>
<ellipse fill="#ffffff" stroke="#000000" cx="498.3741" cy="-317" rx="41.5911" ry="18"/>
<text text-anchor="middle" x="498.3741" y="-314.5" font-family="Courier,monospace" font-size="10.00" fill="#000000">IdEmpresa</text>
</g>
<!-- ENCOMENDAS_IdEmpresa&#45;&#45;ENCOMENDAS -->
<g id="edge38" class="edge">
<title>ENCOMENDAS_IdEmpresa&#45;&#45;ENCOMENDAS</title>
<path fill="none" stroke="#000000" d="M532.1655,-327.6862C545.0221,-332.1714 559.6527,-337.7915 572.4662,-344 593.8321,-354.3523 616.6148,-368.5232 633.5753,-379.7507"/>
</g>
<!-- ENCOMENDAS_IdProduto -->
<g id="node45" class="node">
<title>ENCOMENDAS_IdProduto</title>
<ellipse fill="#ffffff" stroke="#000000" cx="498.3741" cy="-263" rx="41.5911" ry="18"/>
<text text-anchor="middle" x="498.3741" y="-260.5" font-family="Courier,monospace" font-size="10.00" fill="#000000">IdProduto</text>
</g>
<!-- ENCOMENDAS_IdProduto&#45;&#45;ENCOMENDAS -->
<g id="edge39" class="edge">
<title>ENCOMENDAS_IdProduto&#45;&#45;ENCOMENDAS</title>
<path fill="none" stroke="#000000" d="M534.9661,-272.0015C547.5774,-276.1898 561.321,-282.049 572.4662,-290 606.8445,-314.5257 635.11,-355.9886 649.5551,-379.7715"/>
</g>
<!-- ENCOMENDAS_Quantidade -->
<g id="node46" class="node">
<title>ENCOMENDAS_Quantidade</title>
<ellipse fill="#ffffff" stroke="#000000" cx="498.3741" cy="-479" rx="45.1548" ry="18"/>
<text text-anchor="middle" x="498.3741" y="-476.5" font-family="Courier,monospace" font-size="10.00" fill="#000000">Quantidade</text>
</g>
<!-- ENCOMENDAS_Quantidade&#45;&#45;ENCOMENDAS -->
<g id="edge40" class="edge">
<title>ENCOMENDAS_Quantidade&#45;&#45;ENCOMENDAS</title>
<path fill="none" stroke="#000000" d="M534.0317,-467.6591C546.4247,-463.2868 560.2688,-457.91 572.4662,-452 593.8321,-441.6477 616.6148,-427.4768 633.5753,-416.2493"/>
</g>
<!-- ENCOMENDAS_Custo -->
<g id="node47" class="node">
<title>ENCOMENDAS_Custo</title>
<ellipse fill="#ffffff" stroke="#000000" cx="498.3741" cy="-425" rx="27.8353" ry="18"/>
<text text-anchor="middle" x="498.3741" y="-422.5" font-family="Courier,monospace" font-size="10.00" fill="#000000">Custo</text>
</g>
<!-- ENCOMENDAS_Custo&#45;&#45;ENCOMENDAS -->
<g id="edge41" class="edge">
<title>ENCOMENDAS_Custo&#45;&#45;ENCOMENDAS</title>
<path fill="none" stroke="#000000" d="M525.421,-420.4808C551.6561,-416.0972 591.7285,-409.4017 621.3218,-404.457"/>
</g>
<!-- FORNECE&#45;&#45;PRODUTO -->
<g id="edge43" class="edge">
<title>FORNECE&#45;&#45;PRODUTO</title>
<path fill="none" stroke="#000000" d="M530.0216,-1118.7891C543.9209,-1114.8194 559.9053,-1108.3492 571.1587,-1098.4866 616.9103,-1059.2934 642.8932,-988.4948 653.0109,-955.4625"/>
<path fill="none" stroke="transparent" d="M530.5723,-1120.7118C544.6713,-1116.6733 560.6557,-1110.2031 572.4662,-1100 618.7879,-1059.9825 644.7707,-989.1839 654.9231,-956.0484"/>
<path fill="none" stroke="#000000" d="M531.1231,-1122.6345C545.4217,-1118.5271 561.4061,-1112.057 573.7737,-1101.5134 620.6654,-1060.6715 646.6483,-989.873 656.8354,-956.6343"/>
<text text-anchor="middle" x="593.9662" y="-1081" font-family="Courier,monospace" font-size="10.00" fill="#000000">N</text>
</g>
<!-- COMPRA&#45;&#45;PRODUTO -->
<g id="edge45" class="edge">
<title>COMPRA&#45;&#45;PRODUTO</title>
<path fill="none" stroke="#000000" d="M526.2877,-1064.6044C540.6987,-1060.4157 558.1633,-1053.8289 571.3047,-1044.3719 605.192,-1020.3478 633.4575,-978.8849 647.8457,-955.1902"/>
<path fill="none" stroke="transparent" d="M526.8467,-1066.5247C541.4045,-1062.287 558.869,-1055.7003 572.4662,-1046 606.8445,-1021.4743 635.11,-980.0114 649.5551,-956.2285"/>
<path fill="none" stroke="#000000" d="M527.4057,-1068.445C542.1103,-1064.1583 559.5748,-1057.5716 573.6277,-1047.6281 608.4971,-1022.6009 636.7626,-981.138 651.2645,-957.2667"/>
<text text-anchor="middle" x="593.9662" y="-1032" font-family="Courier,monospace" font-size="10.00" fill="#000000">N</text>
</g>
<!-- SUPERVISIONA&#45;&#45;FUNCIONARIO -->
<g id="edge47" class="edge">
<title>SUPERVISIONA&#45;&#45;FUNCIONARIO</title>
<path fill="none" stroke="#000000" d="M460.2162,-217.8115C447.8891,-221.9299 434.7231,-227.7937 424.2821,-236 412.943,-244.9121 417.2121,-253.5908 406.2821,-263 397.9006,-270.2152 387.673,-276.194 377.6418,-280.9881"/>
<text text-anchor="middle" x="402.7821" y="-271" font-family="Courier,monospace" font-size="10.00" fill="#000000">1</text>
</g>
<!-- SUPERVISIONA_Supervisor -->
<g id="node51" class="node">
<title>SUPERVISIONA_Supervisor</title>
<ellipse fill="#ffffff" stroke="#000000" cx="335.955" cy="-225" rx="45.1548" ry="18"/>
<text text-anchor="middle" x="335.955" y="-222.5" font-family="Courier,monospace" font-size="10.00" fill="#000000">Supervisor</text>
</g>
<!-- SUPERVISIONA_Supervisor&#45;&#45;SUPERVISIONA -->
<g id="edge48" class="edge">
<title>SUPERVISIONA_Supervisor&#45;&#45;SUPERVISIONA</title>
<path fill="none" stroke="#000000" d="M380.3367,-220.6279C400.4366,-218.6479 424.3551,-216.2917 445.3887,-214.2196"/>
</g>
<!-- SUPERVISIONA_Horas -->
<g id="node52" class="node">
<title>SUPERVISIONA_Horas</title>
<ellipse fill="#ffffff" stroke="#000000" cx="335.955" cy="-171" rx="27.8353" ry="18"/>
<text text-anchor="middle" x="335.955" y="-168.5" font-family="Courier,monospace" font-size="10.00" fill="#000000">Horas</text>
</g>
<!-- SUPERVISIONA_Horas&#45;&#45;SUPERVISIONA -->
<g id="edge49" class="edge">
<title>SUPERVISIONA_Horas&#45;&#45;SUPERVISIONA</title>
<path fill="none" stroke="#000000" d="M362.0505,-177.1054C388.6831,-183.3364 430.2893,-193.0707 460.5358,-200.1473"/>
</g>
<!-- TRABALHA_EM&#45;&#45;DEPARTAMENTO -->
<g id="edge51" class="edge">
<title>TRABALHA_EM&#45;&#45;DEPARTAMENTO</title>
<path fill="none" stroke="#000000" d="M564.0156,-532.0575C575.7772,-534.1219 587.4595,-537.8029 597.4662,-544 626.9311,-562.2474 645.1148,-600.1303 653.8086,-622.7769"/>
<text text-anchor="middle" x="593.9662" y="-547" font-family="Courier,monospace" font-size="10.00" fill="#000000">1</text>
</g>
<!-- ENCOMENDA&#45;&#45;ENCOMENDAS -->
<g id="edge53" class="edge">
<title>ENCOMENDA&#45;&#45;ENCOMENDAS</title>
<path fill="none" stroke="#000000" d="M540.1926,-579.7722C559.3182,-575.4951 581.3436,-567.5691 596.0998,-553.5396 636.3212,-516.3967 651.0034,-448.1027 655.8221,-415.7802"/>
<path fill="none" stroke="transparent" d="M540.6307,-581.7237C559.9954,-577.3769 582.0208,-569.451 597.4662,-555 638.2766,-516.817 652.9587,-448.5231 657.8002,-416.0754"/>
<path fill="none" stroke="#000000" d="M541.0687,-583.6751C560.6726,-579.2588 582.698,-571.3328 598.8326,-556.4604 640.2319,-517.2374 654.914,-448.9434 659.7783,-416.3705"/>
<text text-anchor="middle" x="593.9662" y="-563" font-family="Courier,monospace" font-size="10.00" fill="#000000">N</text>
</g>
<!-- VENDE&#45;&#45;PRODUTO -->
<g id="edge55" class="edge">
<title>VENDE&#45;&#45;PRODUTO</title>
<path fill="none" stroke="#000000" d="M527.0557,-752.2511C542.2464,-756.2389 560.2148,-762.9384 573.7737,-774.4866 620.6654,-815.3285 646.6483,-886.127 656.8354,-919.3657"/>
<path fill="none" stroke="transparent" d="M526.5492,-754.1859C541.5477,-758.1129 559.5161,-764.8124 572.4662,-776 618.7879,-816.0175 644.7707,-886.8161 654.9231,-919.9516"/>
<path fill="none" stroke="#000000" d="M526.0426,-756.1207C540.849,-759.9869 558.8174,-766.6864 571.1587,-777.5134 616.9103,-816.7066 642.8932,-887.5052 653.0109,-920.5375"/>
<text text-anchor="middle" x="593.9662" y="-804" font-family="Courier,monospace" font-size="10.00" fill="#000000">N</text>
</g>
</g>
</svg>
