<?xml version="1.0" encoding="UTF-8" standalone="no"?>
<!DOCTYPE svg PUBLIC "-//W3C//DTD SVG 1.1//EN"
 "http://www.w3.org/Graphics/SVG/1.1/DTD/svg11.dtd">
<!-- Generated by graphviz version 2.40.1 (20161225.0304)
 -->
<!-- Title: %3 Pages: 1 -->
<svg width="705pt" height="1329pt"
 viewBox="0.00 0.00 704.81 1329.00" xmlns="http://www.w3.org/2000/svg" xmlns:xlink="http://www.w3.org/1999/xlink">
<g id="graph0" class="graph" transform="scale(1 1) rotate(0) translate(4 1325)">
<title>%3</title>
<polygon fill="#ffffff" stroke="transparent" points="-4,4 -4,-1325 700.8121,-1325 700.8121,4 -4,4"/>
<!-- CLIENTE -->
<g id="node1" class="node">
<title>CLIENTE</title>
<polygon fill="#ffffff" stroke="#000000" points="361.628,-252 302.628,-252 302.628,-216 361.628,-216 361.628,-252"/>
<text text-anchor="middle" x="332.128" y="-231.5" font-family="Courier,monospace" font-size="10.00" fill="#000000">CLIENTE</text>
</g>
<!-- COMPRA -->
<g id="node48" class="node">
<title>COMPRA</title>
<polygon fill="#ffffff" stroke="#000000" points="490.72,-597 446.4752,-579 490.72,-561 534.9649,-579 490.72,-597"/>
<text text-anchor="middle" x="490.72" y="-576.5" font-family="Courier,monospace" font-size="10.00" fill="#000000">COMPRA</text>
</g>
<!-- CLIENTE&#45;&#45;COMPRA -->
<g id="edge43" class="edge">
<title>CLIENTE&#45;&#45;COMPRA</title>
<path fill="none" stroke="#000000" d="M336.7263,-252.0765C345.7302,-312.8633 377.171,-506.353 418.1042,-550.6506 428.1008,-561.8713 444.318,-568.514 458.594,-572.1881"/>
<path fill="none" stroke="transparent" d="M334.7479,-252.3696C343.756,-313.1841 375.1969,-506.6738 416.628,-552 427.3427,-563.7221 443.5599,-570.3647 458.0931,-574.1244"/>
<path fill="none" stroke="#000000" d="M332.7695,-252.6626C341.7819,-313.5049 373.2228,-506.9945 415.1517,-553.3494 426.5846,-565.5728 442.8019,-572.2155 457.5922,-576.0606"/>
<text text-anchor="middle" x="395.128" y="-521" font-family="Courier,monospace" font-size="10.00" fill="#000000">M</text>
</g>
<!-- ENCOMENDA -->
<g id="node51" class="node">
<title>ENCOMENDA</title>
<polygon fill="#ffffff" stroke="#000000" points="490.72,-252 431.5055,-234 490.72,-216 549.9345,-234 490.72,-252"/>
<text text-anchor="middle" x="490.72" y="-231.5" font-family="Courier,monospace" font-size="10.00" fill="#000000">ENCOMENDA</text>
</g>
<!-- CLIENTE&#45;&#45;ENCOMENDA -->
<g id="edge49" class="edge">
<title>CLIENTE&#45;&#45;ENCOMENDA</title>
<path fill="none" stroke="#000000" d="M361.9579,-234C381.5184,-234 407.7652,-234 431.4583,-234"/>
<text text-anchor="middle" x="395.128" y="-237" font-family="Courier,monospace" font-size="10.00" fill="#000000">1</text>
</g>
<!-- CLIENTE_NumCC_ -->
<g id="node2" class="node">
<title>CLIENTE_NumCC_</title>
<ellipse fill="#ffffff" stroke="#000000" cx="190.641" cy="-261" rx="31.3996" ry="18"/>
<text text-anchor="start" x="172.141" y="-259.5" font-family="Courier,monospace" text-decoration="underline" font-size="10.00" fill="#000000">NumCC_</text>
</g>
<!-- CLIENTE_NumCC_&#45;&#45;CLIENTE -->
<g id="edge1" class="edge">
<title>CLIENTE_NumCC_&#45;&#45;CLIENTE</title>
<path fill="none" stroke="#000000" d="M220.3013,-255.3399C244.4489,-250.7318 278.3697,-244.2587 302.5067,-239.6526"/>
</g>
<!-- CLIENTE_Nome -->
<g id="node3" class="node">
<title>CLIENTE_Nome</title>
<ellipse fill="#ffffff" stroke="#000000" cx="190.641" cy="-207" rx="27" ry="18"/>
<text text-anchor="middle" x="190.641" y="-204.5" font-family="Courier,monospace" font-size="10.00" fill="#000000">Nome</text>
</g>
<!-- CLIENTE_Nome&#45;&#45;CLIENTE -->
<g id="edge2" class="edge">
<title>CLIENTE_Nome&#45;&#45;CLIENTE</title>
<path fill="none" stroke="#000000" d="M216.922,-212.0152C241.2165,-216.6513 277.2759,-223.5326 302.5646,-228.3584"/>
</g>
<!-- CLIENTE_DataNascimento -->
<g id="node4" class="node">
<title>CLIENTE_DataNascimento</title>
<ellipse fill="#ffffff" stroke="#000000" cx="190.641" cy="-153" rx="59.4099" ry="18"/>
<text text-anchor="middle" x="190.641" y="-150.5" font-family="Courier,monospace" font-size="10.00" fill="#000000">DataNascimento</text>
</g>
<!-- CLIENTE_DataNascimento&#45;&#45;CLIENTE -->
<g id="edge3" class="edge">
<title>CLIENTE_DataNascimento&#45;&#45;CLIENTE</title>
<path fill="none" stroke="#000000" d="M227.1995,-167.2228C236.0154,-171.0457 245.2923,-175.4054 253.628,-180 272.8953,-190.6201 293.3308,-204.7805 308.5202,-215.9362"/>
</g>
<!-- CLIENTE_Genero -->
<g id="node5" class="node">
<title>CLIENTE_Genero</title>
<ellipse fill="#ffffff" stroke="#000000" cx="190.641" cy="-99" rx="31.3996" ry="18"/>
<text text-anchor="middle" x="190.641" y="-96.5" font-family="Courier,monospace" font-size="10.00" fill="#000000">Genero</text>
</g>
<!-- CLIENTE_Genero&#45;&#45;CLIENTE -->
<g id="edge4" class="edge">
<title>CLIENTE_Genero&#45;&#45;CLIENTE</title>
<path fill="none" stroke="#000000" d="M218.4377,-107.2447C230.0937,-111.5914 243.3064,-117.7616 253.628,-126 285.1507,-151.1603 310.0872,-192.0116 322.828,-215.6006"/>
</g>
<!-- CLIENTE_Email -->
<g id="node6" class="node">
<title>CLIENTE_Email</title>
<ellipse fill="#ffffff" stroke="#000000" cx="190.641" cy="-45" rx="34.9638" ry="18"/>
<text text-anchor="middle" x="190.641" y="-42.5" font-family="Courier,monospace" font-size="10.00" fill="#000000">Email ?</text>
</g>
<!-- CLIENTE_Email&#45;&#45;CLIENTE -->
<g id="edge5" class="edge">
<title>CLIENTE_Email&#45;&#45;CLIENTE</title>
<path fill="none" stroke="#000000" d="M221.746,-53.3365C232.8372,-57.5139 244.7646,-63.5375 253.628,-72 296.8024,-113.222 319.25,-183.1113 327.8657,-215.9444"/>
</g>
<!-- CLIENTE_NumTelemovel -->
<g id="node7" class="node">
<title>CLIENTE_NumTelemovel</title>
<ellipse fill="#ffffff" stroke="#000000" cx="190.641" cy="-373" rx="52.2899" ry="18"/>
<ellipse fill="none" stroke="#000000" cx="190.641" cy="-373" rx="56.2822" ry="22"/>
<text text-anchor="middle" x="190.641" y="-370.5" font-family="Courier,monospace" font-size="10.00" fill="#000000">NumTelemovel</text>
</g>
<!-- CLIENTE_NumTelemovel&#45;&#45;CLIENTE -->
<g id="edge6" class="edge">
<title>CLIENTE_NumTelemovel&#45;&#45;CLIENTE</title>
<path fill="none" stroke="#000000" d="M230.0906,-357.2525C238.334,-352.986 246.6355,-347.8875 253.628,-342 284.4808,-316.0226 309.6581,-275.4649 322.6218,-252.1479"/>
</g>
<!-- CLIENTE_Morada -->
<g id="node8" class="node">
<title>CLIENTE_Morada</title>
<ellipse fill="#ffffff" stroke="#000000" cx="190.641" cy="-315" rx="31.3996" ry="18"/>
<text text-anchor="middle" x="190.641" y="-312.5" font-family="Courier,monospace" font-size="10.00" fill="#000000">Morada</text>
</g>
<!-- CLIENTE_Morada&#45;&#45;CLIENTE -->
<g id="edge7" class="edge">
<title>CLIENTE_Morada&#45;&#45;CLIENTE</title>
<path fill="none" stroke="#000000" d="M216.9315,-305.0877C228.4432,-300.4044 241.9581,-294.4324 253.628,-288 272.8953,-277.3799 293.3308,-263.2195 308.5202,-252.0638"/>
</g>
<!-- CLIENTE_Morada_Rua -->
<g id="node9" class="node">
<title>CLIENTE_Morada_Rua</title>
<ellipse fill="#ffffff" stroke="#000000" cx="45.327" cy="-423" rx="27" ry="18"/>
<text text-anchor="middle" x="45.327" y="-420.5" font-family="Courier,monospace" font-size="10.00" fill="#000000">Rua</text>
</g>
<!-- CLIENTE_Morada_Rua&#45;&#45;CLIENTE_Morada -->
<g id="edge8" class="edge">
<title>CLIENTE_Morada_Rua&#45;&#45;CLIENTE_Morada</title>
<path fill="none" stroke="#000000" d="M67.4048,-412.3841C75.2618,-407.9783 83.8414,-402.3934 90.6541,-396 111.8687,-376.0912 105.1702,-360.4634 127.6541,-342 137.8602,-333.6189 151.0574,-327.4297 162.7332,-323.1073"/>
</g>
<!-- CLIENTE_Morada_NumRua -->
<g id="node10" class="node">
<title>CLIENTE_Morada_NumRua</title>
<ellipse fill="#ffffff" stroke="#000000" cx="45.327" cy="-369" rx="31.3996" ry="18"/>
<text text-anchor="middle" x="45.327" y="-366.5" font-family="Courier,monospace" font-size="10.00" fill="#000000">NumRua</text>
</g>
<!-- CLIENTE_Morada_NumRua&#45;&#45;CLIENTE_Morada -->
<g id="edge9" class="edge">
<title>CLIENTE_Morada_NumRua&#45;&#45;CLIENTE_Morada</title>
<path fill="none" stroke="#000000" d="M71.6423,-359.221C97.8145,-349.4952 137.7553,-334.6528 164.0305,-324.8887"/>
</g>
<!-- CLIENTE_Morada_Andar -->
<g id="node11" class="node">
<title>CLIENTE_Morada_Andar</title>
<ellipse fill="#ffffff" stroke="#000000" cx="45.327" cy="-315" rx="34.9638" ry="18"/>
<text text-anchor="middle" x="45.327" y="-312.5" font-family="Courier,monospace" font-size="10.00" fill="#000000">Andar ?</text>
</g>
<!-- CLIENTE_Morada_Andar&#45;&#45;CLIENTE_Morada -->
<g id="edge10" class="edge">
<title>CLIENTE_Morada_Andar&#45;&#45;CLIENTE_Morada</title>
<path fill="none" stroke="#000000" d="M80.1334,-315C104.1472,-315 135.8145,-315 159.0919,-315"/>
</g>
<!-- CLIENTE_Morada_Localidade -->
<g id="node12" class="node">
<title>CLIENTE_Morada_Localidade</title>
<ellipse fill="#ffffff" stroke="#000000" cx="45.327" cy="-261" rx="45.1548" ry="18"/>
<text text-anchor="middle" x="45.327" y="-258.5" font-family="Courier,monospace" font-size="10.00" fill="#000000">Localidade</text>
</g>
<!-- CLIENTE_Morada_Localidade&#45;&#45;CLIENTE_Morada -->
<g id="edge11" class="edge">
<title>CLIENTE_Morada_Localidade&#45;&#45;CLIENTE_Morada</title>
<path fill="none" stroke="#000000" d="M78.665,-273.3887C104.6406,-283.0415 140.2109,-296.2597 164.2349,-305.1873"/>
</g>
<!-- CLIENTE_Morada_CodPostal -->
<g id="node13" class="node">
<title>CLIENTE_Morada_CodPostal</title>
<ellipse fill="#ffffff" stroke="#000000" cx="45.327" cy="-207" rx="41.5911" ry="18"/>
<text text-anchor="middle" x="45.327" y="-204.5" font-family="Courier,monospace" font-size="10.00" fill="#000000">CodPostal</text>
</g>
<!-- CLIENTE_Morada_CodPostal&#45;&#45;CLIENTE_Morada -->
<g id="edge12" class="edge">
<title>CLIENTE_Morada_CodPostal&#45;&#45;CLIENTE_Morada</title>
<path fill="none" stroke="#000000" d="M73.0385,-220.9169C79.2014,-224.6946 85.4444,-229.111 90.6541,-234 111.8687,-253.9088 105.1702,-269.5366 127.6541,-288 137.8602,-296.3811 151.0574,-302.5703 162.7332,-306.8927"/>
</g>
<!-- PRODUTO -->
<g id="node14" class="node">
<title>PRODUTO</title>
<polygon fill="#ffffff" stroke="#000000" points="681.8121,-948 622.8121,-948 622.8121,-912 681.8121,-912 681.8121,-948"/>
<text text-anchor="middle" x="652.3121" y="-927.5" font-family="Courier,monospace" font-size="10.00" fill="#000000">PRODUTO</text>
</g>
<!-- PRODUTO__IdProduto_ -->
<g id="node15" class="node">
<title>PRODUTO__IdProduto_</title>
<ellipse fill="#ffffff" stroke="#000000" cx="490.72" cy="-1011" rx="48.7185" ry="18"/>
<text text-anchor="middle" x="490.72" y="-1008.5" font-family="Courier,monospace" font-size="10.00" fill="#000000">_IdProduto_</text>
</g>
<!-- PRODUTO__IdProduto_&#45;&#45;PRODUTO -->
<g id="edge13" class="edge">
<title>PRODUTO__IdProduto_&#45;&#45;PRODUTO</title>
<path fill="none" stroke="#000000" d="M527.8867,-999.1242C539.8867,-994.8515 553.1075,-989.6712 564.8121,-984 586.178,-973.6477 608.9607,-959.4768 625.9212,-948.2493"/>
</g>
<!-- PRODUTO_Nome -->
<g id="node16" class="node">
<title>PRODUTO_Nome</title>
<ellipse fill="#ffffff" stroke="#000000" cx="490.72" cy="-957" rx="27" ry="18"/>
<text text-anchor="middle" x="490.72" y="-954.5" font-family="Courier,monospace" font-size="10.00" fill="#000000">Nome</text>
</g>
<!-- PRODUTO_Nome&#45;&#45;PRODUTO -->
<g id="edge14" class="edge">
<title>PRODUTO_Nome&#45;&#45;PRODUTO</title>
<path fill="none" stroke="#000000" d="M517.0422,-952.6019C546.0181,-947.7604 592.4904,-939.9954 622.7118,-934.9458"/>
</g>
<!-- PRODUTO_Custo -->
<g id="node17" class="node">
<title>PRODUTO_Custo</title>
<ellipse fill="#ffffff" stroke="#000000" cx="490.72" cy="-903" rx="27.8353" ry="18"/>
<text text-anchor="middle" x="490.72" y="-900.5" font-family="Courier,monospace" font-size="10.00" fill="#000000">Custo</text>
</g>
<!-- PRODUTO_Custo&#45;&#45;PRODUTO -->
<g id="edge15" class="edge">
<title>PRODUTO_Custo&#45;&#45;PRODUTO</title>
<path fill="none" stroke="#000000" d="M517.7669,-907.5192C546.7873,-912.3681 592.7389,-920.0461 622.7096,-925.0538"/>
</g>
<!-- PRODUTO_IdEmpresa -->
<g id="node18" class="node">
<title>PRODUTO_IdEmpresa</title>
<ellipse fill="#ffffff" stroke="#000000" cx="490.72" cy="-849" rx="41.5911" ry="18"/>
<text text-anchor="middle" x="490.72" y="-846.5" font-family="Courier,monospace" font-size="10.00" fill="#000000">IdEmpresa</text>
</g>
<!-- PRODUTO_IdEmpresa&#45;&#45;PRODUTO -->
<g id="edge16" class="edge">
<title>PRODUTO_IdEmpresa&#45;&#45;PRODUTO</title>
<path fill="none" stroke="#000000" d="M524.5114,-859.6862C537.368,-864.1714 551.9986,-869.7915 564.8121,-876 586.178,-886.3523 608.9607,-900.5232 625.9212,-911.7507"/>
</g>
<!-- PRODUTO_Quantidade -->
<g id="node19" class="node">
<title>PRODUTO_Quantidade</title>
<ellipse fill="#ffffff" stroke="#000000" cx="490.72" cy="-795" rx="45.1548" ry="18"/>
<text text-anchor="middle" x="490.72" y="-792.5" font-family="Courier,monospace" font-size="10.00" fill="#000000">Quantidade</text>
</g>
<!-- PRODUTO_Quantidade&#45;&#45;PRODUTO -->
<g id="edge17" class="edge">
<title>PRODUTO_Quantidade&#45;&#45;PRODUTO</title>
<path fill="none" stroke="#000000" d="M529.2117,-804.6423C541.2912,-808.7809 554.2241,-814.4465 564.8121,-822 599.1905,-846.5257 627.4559,-887.9886 641.901,-911.7715"/>
</g>
<!-- DEPARTAMENTO -->
<g id="node20" class="node">
<title>DEPARTAMENTO</title>
<polygon fill="#ffffff" stroke="#000000" points="696.8121,-705 607.8121,-705 607.8121,-669 696.8121,-669 696.8121,-705"/>
<text text-anchor="middle" x="652.3121" y="-684.5" font-family="Courier,monospace" font-size="10.00" fill="#000000">DEPARTAMENTO</text>
</g>
<!-- DEPARTAMENTO__NomeDepartamento_ -->
<g id="node21" class="node">
<title>DEPARTAMENTO__NomeDepartamento_</title>
<ellipse fill="#ffffff" stroke="#000000" cx="490.72" cy="-525" rx="73.6658" ry="18"/>
<text text-anchor="middle" x="490.72" y="-522.5" font-family="Courier,monospace" font-size="10.00" fill="#000000">_NomeDepartamento_</text>
</g>
<!-- DEPARTAMENTO__NomeDepartamento_&#45;&#45;DEPARTAMENTO -->
<g id="edge18" class="edge">
<title>DEPARTAMENTO__NomeDepartamento_&#45;&#45;DEPARTAMENTO</title>
<path fill="none" stroke="#000000" d="M540.8973,-538.2387C549.3959,-541.8492 557.7442,-546.3705 564.8121,-552 605.0108,-584.0174 632.6265,-639.751 644.9806,-668.5685"/>
</g>
<!-- FUNCIONARIO -->
<g id="node22" class="node">
<title>FUNCIONARIO</title>
<polygon fill="#ffffff" stroke="#000000" points="373.628,-719 290.628,-719 290.628,-683 373.628,-683 373.628,-719"/>
<text text-anchor="middle" x="332.128" y="-698.5" font-family="Courier,monospace" font-size="10.00" fill="#000000">FUNCIONARIO</text>
</g>
<!-- SUPERVISIONA -->
<g id="node49" class="node">
<title>SUPERVISIONA</title>
<polygon fill="#ffffff" stroke="#000000" points="490.72,-651 416.5358,-633 490.72,-615 564.9043,-633 490.72,-651"/>
<text text-anchor="middle" x="490.72" y="-630.5" font-family="Courier,monospace" font-size="10.00" fill="#000000">SUPERVISIONA</text>
</g>
<!-- FUNCIONARIO&#45;&#45;SUPERVISIONA -->
<g id="edge45" class="edge">
<title>FUNCIONARIO&#45;&#45;SUPERVISIONA</title>
<path fill="none" stroke="#000000" d="M367.527,-682.8252C382.5135,-675.3928 400.2618,-666.9311 416.628,-660 430.4954,-654.1271 446.1252,-648.3162 459.4425,-643.5983"/>
<text text-anchor="middle" x="395.128" y="-673" font-family="Courier,monospace" font-size="10.00" fill="#000000">1</text>
</g>
<!-- TRABALHA_EM -->
<g id="node50" class="node">
<title>TRABALHA_EM</title>
<polygon fill="#ffffff" stroke="#000000" points="490.72,-705 421.5257,-687 490.72,-669 559.9144,-687 490.72,-705"/>
<text text-anchor="middle" x="490.72" y="-684.5" font-family="Courier,monospace" font-size="10.00" fill="#000000">TRABALHA_EM</text>
</g>
<!-- FUNCIONARIO&#45;&#45;TRABALHA_EM -->
<g id="edge47" class="edge">
<title>FUNCIONARIO&#45;&#45;TRABALHA_EM</title>
<path fill="none" stroke="#000000" d="M373.6203,-695.3294C393.5352,-693.5714 417.5721,-691.4495 438.6598,-689.5879"/>
<path fill="none" stroke="transparent" d="M373.7962,-697.3217C393.711,-695.5636 417.748,-693.4417 438.8356,-691.5802"/>
<path fill="none" stroke="#000000" d="M373.972,-699.3139C393.8869,-697.5559 417.9239,-695.434 439.0115,-693.5724"/>
<text text-anchor="middle" x="395.128" y="-698" font-family="Courier,monospace" font-size="10.00" fill="#000000">N</text>
</g>
<!-- VENDE -->
<g id="node52" class="node">
<title>VENDE</title>
<polygon fill="#ffffff" stroke="#000000" points="490.72,-1083 451.4651,-1065 490.72,-1047 529.975,-1065 490.72,-1083"/>
<text text-anchor="middle" x="490.72" y="-1062.5" font-family="Courier,monospace" font-size="10.00" fill="#000000">VENDE</text>
</g>
<!-- FUNCIONARIO&#45;&#45;VENDE -->
<g id="edge51" class="edge">
<title>FUNCIONARIO&#45;&#45;VENDE</title>
<path fill="none" stroke="#000000" d="M334.4202,-719.1293C342.7028,-782.0054 372.9147,-989.4974 416.628,-1038 427.81,-1050.4072 445.1614,-1057.1208 460.2623,-1060.7497"/>
<text text-anchor="middle" x="395.128" y="-1005" font-family="Courier,monospace" font-size="10.00" fill="#000000">1</text>
</g>
<!-- GERE -->
<g id="node53" class="node">
<title>GERE</title>
<polygon fill="#ffffff" stroke="#000000" points="490.72,-759 456.4549,-741 490.72,-723 524.9851,-741 490.72,-759"/>
<text text-anchor="middle" x="490.72" y="-738.5" font-family="Courier,monospace" font-size="10.00" fill="#000000">GERE</text>
</g>
<!-- FUNCIONARIO&#45;&#45;GERE -->
<g id="edge53" class="edge">
<title>FUNCIONARIO&#45;&#45;GERE</title>
<path fill="none" stroke="#000000" d="M373.7962,-711.5095C403.7144,-719.0555 442.9358,-728.9479 467.4842,-735.1395"/>
<text text-anchor="middle" x="395.128" y="-720" font-family="Courier,monospace" font-size="10.00" fill="#000000">1</text>
</g>
<!-- FUNCIONARIO__IdFuncionario_ -->
<g id="node23" class="node">
<title>FUNCIONARIO__IdFuncionario_</title>
<ellipse fill="#ffffff" stroke="#000000" cx="190.641" cy="-755" rx="62.9739" ry="18"/>
<text text-anchor="middle" x="190.641" y="-752.5" font-family="Courier,monospace" font-size="10.00" fill="#000000">_IdFuncionario_</text>
</g>
<!-- FUNCIONARIO__IdFuncionario_&#45;&#45;FUNCIONARIO -->
<g id="edge19" class="edge">
<title>FUNCIONARIO__IdFuncionario_&#45;&#45;FUNCIONARIO</title>
<path fill="none" stroke="#000000" d="M228.5569,-740.529C247.7112,-733.2186 270.9909,-724.3336 290.6243,-716.8403"/>
</g>
<!-- FUNCIONARIO_Nome -->
<g id="node24" class="node">
<title>FUNCIONARIO_Nome</title>
<ellipse fill="#ffffff" stroke="#000000" cx="190.641" cy="-701" rx="27" ry="18"/>
<text text-anchor="middle" x="190.641" y="-698.5" font-family="Courier,monospace" font-size="10.00" fill="#000000">Nome</text>
</g>
<!-- FUNCIONARIO_Nome&#45;&#45;FUNCIONARIO -->
<g id="edge20" class="edge">
<title>FUNCIONARIO_Nome&#45;&#45;FUNCIONARIO</title>
<path fill="none" stroke="#000000" d="M217.9211,-701C238.4784,-701 267.0301,-701 290.4425,-701"/>
</g>
<!-- FUNCIONARIO_NumCC -->
<g id="node25" class="node">
<title>FUNCIONARIO_NumCC</title>
<ellipse fill="#ffffff" stroke="#000000" cx="190.641" cy="-647" rx="27.8353" ry="18"/>
<text text-anchor="middle" x="190.641" y="-644.5" font-family="Courier,monospace" font-size="10.00" fill="#000000">NumCC</text>
</g>
<!-- FUNCIONARIO_NumCC&#45;&#45;FUNCIONARIO -->
<g id="edge21" class="edge">
<title>FUNCIONARIO_NumCC&#45;&#45;FUNCIONARIO</title>
<path fill="none" stroke="#000000" d="M214.6424,-656.1604C235.3777,-664.0742 265.8103,-675.6892 290.5066,-685.1148"/>
</g>
<!-- FUNCIONARIO_DataNascimento -->
<g id="node26" class="node">
<title>FUNCIONARIO_DataNascimento</title>
<ellipse fill="#ffffff" stroke="#000000" cx="190.641" cy="-593" rx="59.4099" ry="18"/>
<text text-anchor="middle" x="190.641" y="-590.5" font-family="Courier,monospace" font-size="10.00" fill="#000000">DataNascimento</text>
</g>
<!-- FUNCIONARIO_DataNascimento&#45;&#45;FUNCIONARIO -->
<g id="edge22" class="edge">
<title>FUNCIONARIO_DataNascimento&#45;&#45;FUNCIONARIO</title>
<path fill="none" stroke="#000000" d="M229.5553,-606.8163C237.8293,-610.5266 246.2786,-614.9394 253.628,-620 279.4344,-637.7697 303.6468,-664.9679 318.1771,-682.8677"/>
</g>
<!-- FUNCIONARIO_Email -->
<g id="node27" class="node">
<title>FUNCIONARIO_Email</title>
<ellipse fill="#ffffff" stroke="#000000" cx="190.641" cy="-539" rx="34.9638" ry="18"/>
<text text-anchor="middle" x="190.641" y="-536.5" font-family="Courier,monospace" font-size="10.00" fill="#000000">Email ?</text>
</g>
<!-- FUNCIONARIO_Email&#45;&#45;FUNCIONARIO -->
<g id="edge23" class="edge">
<title>FUNCIONARIO_Email&#45;&#45;FUNCIONARIO</title>
<path fill="none" stroke="#000000" d="M221.4107,-547.7013C232.4631,-551.9207 244.4517,-557.8779 253.628,-566 290.9828,-599.0637 315.1933,-654.3395 325.8569,-682.8168"/>
</g>
<!-- FUNCIONARIO_Departamento -->
<g id="node28" class="node">
<title>FUNCIONARIO_Departamento</title>
<ellipse fill="#ffffff" stroke="#000000" cx="190.641" cy="-485" rx="52.2822" ry="18"/>
<text text-anchor="middle" x="190.641" y="-482.5" font-family="Courier,monospace" font-size="10.00" fill="#000000">Departamento</text>
</g>
<!-- FUNCIONARIO_Departamento&#45;&#45;FUNCIONARIO -->
<g id="edge24" class="edge">
<title>FUNCIONARIO_Departamento&#45;&#45;FUNCIONARIO</title>
<path fill="none" stroke="#000000" d="M230.8409,-496.7376C239.1364,-500.5785 247.2704,-505.5702 253.628,-512 302.5912,-561.5199 322.5948,-646.0008 329.2818,-682.881"/>
</g>
<!-- FUNCIONARIO_Supervisor -->
<g id="node29" class="node">
<title>FUNCIONARIO_Supervisor</title>
<ellipse fill="#ffffff" stroke="#000000" cx="190.641" cy="-431" rx="52.2822" ry="18"/>
<text text-anchor="middle" x="190.641" y="-428.5" font-family="Courier,monospace" font-size="10.00" fill="#000000">Supervisor ?</text>
</g>
<!-- FUNCIONARIO_Supervisor&#45;&#45;FUNCIONARIO -->
<g id="edge25" class="edge">
<title>FUNCIONARIO_Supervisor&#45;&#45;FUNCIONARIO</title>
<path fill="none" stroke="#000000" d="M231.5622,-442.5158C239.7216,-446.3574 247.6168,-451.4054 253.628,-458 314.4054,-524.6766 328.1604,-638.8997 331.246,-682.9448"/>
</g>
<!-- FUNCIONARIO_Salario -->
<g id="node30" class="node">
<title>FUNCIONARIO_Salario</title>
<ellipse fill="#ffffff" stroke="#000000" cx="190.641" cy="-979" rx="34.9638" ry="18"/>
<text text-anchor="middle" x="190.641" y="-976.5" font-family="Courier,monospace" font-size="10.00" fill="#000000">Salario</text>
</g>
<!-- FUNCIONARIO_Salario&#45;&#45;FUNCIONARIO -->
<g id="edge26" class="edge">
<title>FUNCIONARIO_Salario&#45;&#45;FUNCIONARIO</title>
<path fill="none" stroke="#000000" d="M222.443,-971.3413C233.6146,-967.2423 245.4151,-961.0951 253.628,-952 316.0512,-882.8714 328.8357,-764.529 331.4538,-719.3047"/>
</g>
<!-- FUNCIONARIO_HorasTrabalho -->
<g id="node31" class="node">
<title>FUNCIONARIO_HorasTrabalho</title>
<ellipse fill="none" stroke="#000000" stroke-dasharray="5,2" cx="190.641" cy="-925" rx="55.8461" ry="18"/>
<text text-anchor="middle" x="190.641" y="-922.5" font-family="Courier,monospace" font-size="10.00" fill="#000000">HorasTrabalho</text>
</g>
<!-- FUNCIONARIO_HorasTrabalho&#45;&#45;FUNCIONARIO -->
<g id="edge27" class="edge">
<title>FUNCIONARIO_HorasTrabalho&#45;&#45;FUNCIONARIO</title>
<path fill="none" stroke="#000000" d="M232.2177,-912.7136C240.0512,-908.9545 247.6493,-904.1348 253.628,-898 304.377,-845.9258 323.5441,-756.9484 329.654,-719.0022"/>
</g>
<!-- FUNCIONARIO_Gere -->
<g id="node32" class="node">
<title>FUNCIONARIO_Gere</title>
<ellipse fill="#ffffff" stroke="#000000" cx="190.641" cy="-871" rx="31.3996" ry="18"/>
<text text-anchor="middle" x="190.641" y="-868.5" font-family="Courier,monospace" font-size="10.00" fill="#000000">Gere ?</text>
</g>
<!-- FUNCIONARIO_Gere&#45;&#45;FUNCIONARIO -->
<g id="edge28" class="edge">
<title>FUNCIONARIO_Gere&#45;&#45;FUNCIONARIO</title>
<path fill="none" stroke="#000000" d="M218.9586,-863.3673C230.7069,-859.1289 243.8476,-852.8742 253.628,-844 292.6397,-808.6026 316.4021,-749.1533 326.4803,-719.2886"/>
</g>
<!-- FUNCIONARIO_NumTelemovel -->
<g id="node33" class="node">
<title>FUNCIONARIO_NumTelemovel</title>
<ellipse fill="#ffffff" stroke="#000000" cx="190.641" cy="-813" rx="52.2899" ry="18"/>
<ellipse fill="none" stroke="#000000" cx="190.641" cy="-813" rx="56.2822" ry="22"/>
<text text-anchor="middle" x="190.641" y="-810.5" font-family="Courier,monospace" font-size="10.00" fill="#000000">NumTelemovel</text>
</g>
<!-- FUNCIONARIO_NumTelemovel&#45;&#45;FUNCIONARIO -->
<g id="edge29" class="edge">
<title>FUNCIONARIO_NumTelemovel&#45;&#45;FUNCIONARIO</title>
<path fill="none" stroke="#000000" d="M229.1629,-796.6594C237.5454,-792.398 246.1391,-787.4513 253.628,-782 278.8017,-763.6757 302.9869,-736.8672 317.7006,-719.1823"/>
</g>
<!-- FORNECEDOR -->
<g id="node34" class="node">
<title>FORNECEDOR</title>
<polygon fill="#ffffff" stroke="#000000" points="370.628,-1159 293.628,-1159 293.628,-1123 370.628,-1123 370.628,-1159"/>
<text text-anchor="middle" x="332.128" y="-1138.5" font-family="Courier,monospace" font-size="10.00" fill="#000000">FORNECEDOR</text>
</g>
<!-- FORNECE -->
<g id="node47" class="node">
<title>FORNECE</title>
<polygon fill="#ffffff" stroke="#000000" points="490.72,-1148 441.4853,-1130 490.72,-1112 539.9547,-1130 490.72,-1148"/>
<text text-anchor="middle" x="490.72" y="-1127.5" font-family="Courier,monospace" font-size="10.00" fill="#000000">FORNECE</text>
</g>
<!-- FORNECEDOR&#45;&#45;FORNECE -->
<g id="edge41" class="edge">
<title>FORNECEDOR&#45;&#45;FORNECE</title>
<path fill="none" stroke="#000000" d="M370.7856,-1136.3139C394.5361,-1134.6665 424.9129,-1132.5596 449.1343,-1130.8796"/>
<path fill="none" stroke="transparent" d="M370.9239,-1138.3091C394.6745,-1136.6617 425.0513,-1134.5548 449.2727,-1132.8748"/>
<path fill="none" stroke="#000000" d="M371.0623,-1140.3043C394.8129,-1138.657 425.1897,-1136.55 449.4111,-1134.87"/>
<text text-anchor="middle" x="395.128" y="-1139" font-family="Courier,monospace" font-size="10.00" fill="#000000">M</text>
</g>
<!-- FORNECEDOR__IdEmpresa_ -->
<g id="node35" class="node">
<title>FORNECEDOR__IdEmpresa_</title>
<ellipse fill="#ffffff" stroke="#000000" cx="190.641" cy="-1303" rx="48.7185" ry="18"/>
<text text-anchor="middle" x="190.641" y="-1300.5" font-family="Courier,monospace" font-size="10.00" fill="#000000">_IdEmpresa_</text>
</g>
<!-- FORNECEDOR__IdEmpresa_&#45;&#45;FORNECEDOR -->
<g id="edge30" class="edge">
<title>FORNECEDOR__IdEmpresa_&#45;&#45;FORNECEDOR</title>
<path fill="none" stroke="#000000" d="M228.2559,-1291.4976C237.2348,-1287.5601 246.3226,-1282.4662 253.628,-1276 290.9828,-1242.9363 315.1933,-1187.6605 325.8569,-1159.1832"/>
</g>
<!-- FORNECEDOR_NomeEmpresa -->
<g id="node36" class="node">
<title>FORNECEDOR_NomeEmpresa</title>
<ellipse fill="#ffffff" stroke="#000000" cx="190.641" cy="-1249" rx="48.7185" ry="18"/>
<text text-anchor="middle" x="190.641" y="-1246.5" font-family="Courier,monospace" font-size="10.00" fill="#000000">NomeEmpresa</text>
</g>
<!-- FORNECEDOR_NomeEmpresa&#45;&#45;FORNECEDOR -->
<g id="edge31" class="edge">
<title>FORNECEDOR_NomeEmpresa&#45;&#45;FORNECEDOR</title>
<path fill="none" stroke="#000000" d="M226.2581,-1236.6302C235.5566,-1232.6387 245.2987,-1227.7354 253.628,-1222 279.4344,-1204.2303 303.6468,-1177.0321 318.1771,-1159.1323"/>
</g>
<!-- FORNECEDOR_IdProduto -->
<g id="node37" class="node">
<title>FORNECEDOR_IdProduto</title>
<ellipse fill="#ffffff" stroke="#000000" cx="190.641" cy="-1195" rx="41.5911" ry="18"/>
<text text-anchor="middle" x="190.641" y="-1192.5" font-family="Courier,monospace" font-size="10.00" fill="#000000">IdProduto</text>
</g>
<!-- FORNECEDOR_IdProduto&#45;&#45;FORNECEDOR -->
<g id="edge32" class="edge">
<title>FORNECEDOR_IdProduto&#45;&#45;FORNECEDOR</title>
<path fill="none" stroke="#000000" d="M222.0416,-1183.0156C243.1274,-1174.968 271.0507,-1164.3108 293.4982,-1155.7435"/>
</g>
<!-- FORNECEDOR_NomeProduto -->
<g id="node38" class="node">
<title>FORNECEDOR_NomeProduto</title>
<ellipse fill="#ffffff" stroke="#000000" cx="190.641" cy="-1141" rx="48.7185" ry="18"/>
<text text-anchor="middle" x="190.641" y="-1138.5" font-family="Courier,monospace" font-size="10.00" fill="#000000">NomeProduto</text>
</g>
<!-- FORNECEDOR_NomeProduto&#45;&#45;FORNECEDOR -->
<g id="edge33" class="edge">
<title>FORNECEDOR_NomeProduto&#45;&#45;FORNECEDOR</title>
<path fill="none" stroke="#000000" d="M239.7292,-1141C257.2883,-1141 276.8173,-1141 293.3813,-1141"/>
</g>
<!-- FORNECEDOR_Custo -->
<g id="node39" class="node">
<title>FORNECEDOR_Custo</title>
<ellipse fill="#ffffff" stroke="#000000" cx="190.641" cy="-1087" rx="27.8353" ry="18"/>
<text text-anchor="middle" x="190.641" y="-1084.5" font-family="Courier,monospace" font-size="10.00" fill="#000000">Custo</text>
</g>
<!-- FORNECEDOR_Custo&#45;&#45;FORNECEDOR -->
<g id="edge34" class="edge">
<title>FORNECEDOR_Custo&#45;&#45;FORNECEDOR</title>
<path fill="none" stroke="#000000" d="M214.6424,-1096.1604C236.2449,-1104.4052 268.373,-1116.6672 293.5741,-1126.2855"/>
</g>
<!-- FORNECEDOR_Comissao -->
<g id="node40" class="node">
<title>FORNECEDOR_Comissao</title>
<ellipse fill="#ffffff" stroke="#000000" cx="190.641" cy="-1033" rx="38.0276" ry="18"/>
<text text-anchor="middle" x="190.641" y="-1030.5" font-family="Courier,monospace" font-size="10.00" fill="#000000">Comissao</text>
</g>
<!-- FORNECEDOR_Comissao&#45;&#45;FORNECEDOR -->
<g id="edge35" class="edge">
<title>FORNECEDOR_Comissao&#45;&#45;FORNECEDOR</title>
<path fill="none" stroke="#000000" d="M222.0296,-1043.6026C232.5436,-1047.8809 244.0248,-1053.3875 253.628,-1060 279.4344,-1077.7697 303.6468,-1104.9679 318.1771,-1122.8677"/>
</g>
<!-- ENCOMENDAS -->
<g id="node41" class="node">
<title>ENCOMENDAS</title>
<polygon fill="#ffffff" stroke="#000000" points="690.8121,-171 613.8121,-171 613.8121,-135 690.8121,-135 690.8121,-171"/>
<text text-anchor="middle" x="652.3121" y="-150.5" font-family="Courier,monospace" font-size="10.00" fill="#000000">ENCOMENDAS</text>
</g>
<!-- ENCOMENDAS__NumCC_ -->
<g id="node42" class="node">
<title>ENCOMENDAS__NumCC_</title>
<ellipse fill="#ffffff" stroke="#000000" cx="490.72" cy="-18" rx="34.9638" ry="18"/>
<text text-anchor="middle" x="490.72" y="-15.5" font-family="Courier,monospace" font-size="10.00" fill="#000000">_NumCC_</text>
</g>
<!-- ENCOMENDAS__NumCC_&#45;&#45;ENCOMENDAS -->
<g id="edge36" class="edge">
<title>ENCOMENDAS__NumCC_&#45;&#45;ENCOMENDAS</title>
<path fill="none" stroke="#000000" d="M522.4592,-25.4518C536.3061,-29.7018 552.218,-36.0153 564.8121,-45 599.1905,-69.5257 627.4559,-110.9886 641.901,-134.7715"/>
</g>
<!-- ENCOMENDAS_IdEmpresa -->
<g id="node43" class="node">
<title>ENCOMENDAS_IdEmpresa</title>
<ellipse fill="#ffffff" stroke="#000000" cx="490.72" cy="-288" rx="41.5911" ry="18"/>
<text text-anchor="middle" x="490.72" y="-285.5" font-family="Courier,monospace" font-size="10.00" fill="#000000">IdEmpresa</text>
</g>
<!-- ENCOMENDAS_IdEmpresa&#45;&#45;ENCOMENDAS -->
<g id="edge37" class="edge">
<title>ENCOMENDAS_IdEmpresa&#45;&#45;ENCOMENDAS</title>
<path fill="none" stroke="#000000" d="M527.312,-278.9985C539.9233,-274.8102 553.6669,-268.951 564.8121,-261 599.1905,-236.4743 627.4559,-195.0114 641.901,-171.2285"/>
</g>
<!-- ENCOMENDAS_IdProduto -->
<g id="node44" class="node">
<title>ENCOMENDAS_IdProduto</title>
<ellipse fill="#ffffff" stroke="#000000" cx="490.72" cy="-180" rx="41.5911" ry="18"/>
<text text-anchor="middle" x="490.72" y="-177.5" font-family="Courier,monospace" font-size="10.00" fill="#000000">IdProduto</text>
</g>
<!-- ENCOMENDAS_IdProduto&#45;&#45;ENCOMENDAS -->
<g id="edge38" class="edge">
<title>ENCOMENDAS_IdProduto&#45;&#45;ENCOMENDAS</title>
<path fill="none" stroke="#000000" d="M529.837,-173.4641C555.2433,-169.219 588.2211,-163.7088 613.5554,-159.4758"/>
</g>
<!-- ENCOMENDAS_Quantidade -->
<g id="node45" class="node">
<title>ENCOMENDAS_Quantidade</title>
<ellipse fill="#ffffff" stroke="#000000" cx="490.72" cy="-126" rx="45.1548" ry="18"/>
<text text-anchor="middle" x="490.72" y="-123.5" font-family="Courier,monospace" font-size="10.00" fill="#000000">Quantidade</text>
</g>
<!-- ENCOMENDAS_Quantidade&#45;&#45;ENCOMENDAS -->
<g id="edge39" class="edge">
<title>ENCOMENDAS_Quantidade&#45;&#45;ENCOMENDAS</title>
<path fill="none" stroke="#000000" d="M532.7546,-133.0234C557.8163,-137.2109 589.3987,-142.488 613.8089,-146.5666"/>
</g>
<!-- ENCOMENDAS_Custo -->
<g id="node46" class="node">
<title>ENCOMENDAS_Custo</title>
<ellipse fill="#ffffff" stroke="#000000" cx="490.72" cy="-72" rx="27.8353" ry="18"/>
<text text-anchor="middle" x="490.72" y="-69.5" font-family="Courier,monospace" font-size="10.00" fill="#000000">Custo</text>
</g>
<!-- ENCOMENDAS_Custo&#45;&#45;ENCOMENDAS -->
<g id="edge40" class="edge">
<title>ENCOMENDAS_Custo&#45;&#45;ENCOMENDAS</title>
<path fill="none" stroke="#000000" d="M515.9383,-79.7691C530.5187,-84.6088 549.0417,-91.3588 564.8121,-99 586.178,-109.3523 608.9607,-123.5232 625.9212,-134.7507"/>
</g>
<!-- FORNECE&#45;&#45;PRODUTO -->
<g id="edge42" class="edge">
<title>FORNECE&#45;&#45;PRODUTO</title>
<path fill="none" stroke="#000000" d="M515.6827,-1119.4315C531.0049,-1113.2474 550.2776,-1103.5616 563.413,-1090.5708 606.4672,-1048.6688 633.6722,-979.7613 644.7121,-947.3775"/>
<path fill="none" stroke="transparent" d="M516.432,-1121.2858C531.903,-1115.0344 551.1757,-1105.3486 564.8121,-1092 608.3274,-1049.4032 635.5324,-980.4957 646.605,-948.023"/>
<path fill="none" stroke="#000000" d="M517.1813,-1123.1402C532.8011,-1116.8215 552.0738,-1107.1356 566.2111,-1093.4292 610.1877,-1050.1377 637.3927,-981.2301 648.498,-948.6685"/>
<text text-anchor="middle" x="586.3121" y="-1072" font-family="Courier,monospace" font-size="10.00" fill="#000000">N</text>
</g>
<!-- COMPRA&#45;&#45;PRODUTO -->
<g id="edge44" class="edge">
<title>COMPRA&#45;&#45;PRODUTO</title>
<path fill="none" stroke="#000000" d="M524.7989,-581.5262C539.6421,-585.2906 555.6071,-591.9761 566.3592,-604.7326 599.7721,-648.5227 571.6254,-673.9336 584.7555,-723.5277 601.9278,-794.2606 632.8098,-875.6364 646.8507,-911.1142"/>
<path fill="none" stroke="transparent" d="M524.31,-583.4656C538.8696,-587.1354 554.8346,-593.8209 564.8121,-606 598.4319,-647.0382 570.2851,-672.4491 582.8121,-724 600.058,-794.9702 630.9399,-876.346 644.991,-911.8502"/>
<path fill="none" stroke="#000000" d="M523.8212,-585.4049C538.0971,-588.9802 554.062,-595.6656 563.265,-607.2674 597.0916,-645.5536 568.9449,-670.9646 580.8687,-724.4723 598.1881,-795.6798 629.07,-877.0556 643.1314,-912.5862"/>
<text text-anchor="middle" x="586.3121" y="-749" font-family="Courier,monospace" font-size="10.00" fill="#000000">N</text>
</g>
<!-- SUPERVISIONA&#45;&#45;FUNCIONARIO -->
<g id="edge46" class="edge">
<title>SUPERVISIONA&#45;&#45;FUNCIONARIO</title>
<path fill="none" stroke="#000000" d="M439.3278,-638.5621C423.5195,-641.5264 406.4022,-646.0628 391.628,-653 376.0101,-660.3333 360.9107,-672.5967 349.8306,-682.8919"/>
<text text-anchor="middle" x="395.128" y="-656" font-family="Courier,monospace" font-size="10.00" fill="#000000">N</text>
</g>
<!-- TRABALHA_EM&#45;&#45;DEPARTAMENTO -->
<g id="edge48" class="edge">
<title>TRABALHA_EM&#45;&#45;DEPARTAMENTO</title>
<path fill="none" stroke="#000000" d="M560.1874,-687C576.2691,-687 592.9617,-687 607.6483,-687"/>
<text text-anchor="middle" x="586.3121" y="-690" font-family="Courier,monospace" font-size="10.00" fill="#000000">1</text>
</g>
<!-- ENCOMENDA&#45;&#45;ENCOMENDAS -->
<g id="edge50" class="edge">
<title>ENCOMENDA&#45;&#45;ENCOMENDAS</title>
<path fill="none" stroke="#000000" d="M519.4936,-222.9266C533.2667,-218.2445 549.8193,-212.0516 563.94,-205.2001 585.1216,-194.9494 607.9044,-180.7785 624.8172,-169.5816"/>
<path fill="none" stroke="transparent" d="M520.1374,-224.8202C533.9676,-220.1177 550.5202,-213.9248 564.8121,-207 586.178,-196.6477 608.9607,-182.4768 625.9212,-171.2493"/>
<path fill="none" stroke="#000000" d="M520.7813,-226.7137C534.6684,-221.9909 551.221,-215.798 565.6842,-208.7999 587.2343,-198.346 610.0171,-184.1751 627.0252,-172.917"/>
<text text-anchor="middle" x="586.3121" y="-199" font-family="Courier,monospace" font-size="10.00" fill="#000000">N</text>
</g>
<!-- VENDE&#45;&#45;PRODUTO -->
<g id="edge52" class="edge">
<title>VENDE&#45;&#45;PRODUTO</title>
<path fill="none" stroke="#000000" d="M516.8736,-1057.1094C531.6241,-1052.9438 549.9694,-1046.22 563.6506,-1036.3719 597.5379,-1012.3478 625.8034,-970.8849 640.1916,-947.1902"/>
<path fill="none" stroke="transparent" d="M517.4179,-1059.034C532.3124,-1054.8217 550.6577,-1048.0978 564.8121,-1038 599.1905,-1013.4743 627.4559,-972.0114 641.901,-948.2285"/>
<path fill="none" stroke="#000000" d="M517.9621,-1060.9585C533.0006,-1056.6995 551.3459,-1049.9757 565.9736,-1039.6281 600.843,-1014.6009 629.1085,-973.138 643.6104,-949.2667"/>
<text text-anchor="middle" x="586.3121" y="-1024" font-family="Courier,monospace" font-size="10.00" fill="#000000">N</text>
</g>
<!-- GERE&#45;&#45;DEPARTAMENTO -->
<g id="edge54" class="edge">
<title>GERE&#45;&#45;DEPARTAMENTO</title>
<path fill="none" stroke="#000000" d="M511.8454,-733.9404C536.0559,-725.8499 576.4172,-712.3622 607.6784,-701.9155"/>
<text text-anchor="middle" x="586.3121" y="-712" font-family="Courier,monospace" font-size="10.00" fill="#000000">1</text>
</g>
</g>
</svg>
