<?xml version="1.0" encoding="UTF-8" standalone="no"?>
<!DOCTYPE svg PUBLIC "-//W3C//DTD SVG 1.1//EN"
 "http://www.w3.org/Graphics/SVG/1.1/DTD/svg11.dtd">
<!-- Generated by graphviz version 2.40.1 (20161225.0304)
 -->
<!-- Title: %3 Pages: 1 -->
<svg width="852pt" height="1294pt"
 viewBox="0.00 0.00 852.12 1294.00" xmlns="http://www.w3.org/2000/svg" xmlns:xlink="http://www.w3.org/1999/xlink">
<g id="graph0" class="graph" transform="scale(1 1) rotate(0) translate(4 1290)">
<title>%3</title>
<polygon fill="#ffffff" stroke="transparent" points="-4,4 -4,-1290 848.1203,-1290 848.1203,4 -4,4"/>
<!-- CLIENTE -->
<g id="node1" class="node">
<title>CLIENTE</title>
<polygon fill="#ffffff" stroke="#000000" points="505.1091,-1070 446.1091,-1070 446.1091,-1034 505.1091,-1034 505.1091,-1070"/>
<text text-anchor="middle" x="475.6091" y="-1049.5" font-family="Courier,monospace" font-size="10.00" fill="#000000">CLIENTE</text>
</g>
<!-- COMPRA -->
<g id="node47" class="node">
<title>COMPRA</title>
<polygon fill="#ffffff" stroke="#000000" points="638.0282,-765 593.7834,-747 638.0282,-729 682.273,-747 638.0282,-765"/>
<text text-anchor="middle" x="638.0282" y="-744.5" font-family="Courier,monospace" font-size="10.00" fill="#000000">COMPRA</text>
</g>
<!-- CLIENTE&#45;&#45;COMPRA -->
<g id="edge41" class="edge">
<title>CLIENTE&#45;&#45;COMPRA</title>
<path fill="none" stroke="#000000" d="M477.2874,-1033.2199C488.6364,-977.5398 524.827,-812.3148 562.4927,-772.6157 574.2746,-760.5846 590.7036,-753.9514 605.5205,-750.0756"/>
<path fill="none" stroke="transparent" d="M479.2471,-1033.6193C490.5901,-977.9677 526.7807,-812.7427 563.9362,-774 575.0234,-762.4392 591.4523,-755.806 606.0245,-752.011"/>
<path fill="none" stroke="#000000" d="M481.2069,-1034.0187C492.5437,-978.3956 528.7343,-813.1707 565.3796,-775.3843 575.7721,-764.2937 592.2011,-757.6605 606.5285,-753.9465"/>
<text text-anchor="middle" x="542.4362" y="-817" font-family="Courier,monospace" font-size="10.00" fill="#000000">M</text>
</g>
<!-- CLIENTE_NumCC_ -->
<g id="node2" class="node">
<title>CLIENTE_NumCC_</title>
<ellipse fill="#ffffff" stroke="#000000" cx="324.2951" cy="-1268" rx="31.3996" ry="18"/>
<text text-anchor="start" x="305.7951" y="-1266.5" font-family="Courier,monospace" text-decoration="underline" font-size="10.00" fill="#000000">NumCC_</text>
</g>
<!-- CLIENTE_NumCC_&#45;&#45;CLIENTE -->
<g id="edge1" class="edge">
<title>CLIENTE_NumCC_&#45;&#45;CLIENTE</title>
<path fill="none" stroke="#000000" d="M352.8946,-1260.668C364.6928,-1256.4828 377.7946,-1250.1867 387.2821,-1241 438.2808,-1191.6181 462.9634,-1107.0639 471.7319,-1070.1418"/>
</g>
<!-- CLIENTE_Nome -->
<g id="node3" class="node">
<title>CLIENTE_Nome</title>
<ellipse fill="#ffffff" stroke="#000000" cx="324.2951" cy="-1214" rx="27" ry="18"/>
<text text-anchor="middle" x="324.2951" y="-1211.5" font-family="Courier,monospace" font-size="10.00" fill="#000000">Nome</text>
</g>
<!-- CLIENTE_Nome&#45;&#45;CLIENTE -->
<g id="edge2" class="edge">
<title>CLIENTE_Nome&#45;&#45;CLIENTE</title>
<path fill="none" stroke="#000000" d="M349.4777,-1207.0067C361.8223,-1202.684 376.3458,-1196.1778 387.2821,-1187 426.7583,-1153.8713 455.1173,-1098.6239 467.9467,-1070.1678"/>
</g>
<!-- CLIENTE_DataNascimento -->
<g id="node4" class="node">
<title>CLIENTE_DataNascimento</title>
<ellipse fill="#ffffff" stroke="#000000" cx="324.2951" cy="-1160" rx="59.4099" ry="18"/>
<text text-anchor="middle" x="324.2951" y="-1157.5" font-family="Courier,monospace" font-size="10.00" fill="#000000">DataNascimento</text>
</g>
<!-- CLIENTE_DataNascimento&#45;&#45;CLIENTE -->
<g id="edge3" class="edge">
<title>CLIENTE_DataNascimento&#45;&#45;CLIENTE</title>
<path fill="none" stroke="#000000" d="M362.3283,-1146.1498C370.8225,-1142.3944 379.5869,-1137.9711 387.2821,-1133 415.2449,-1114.9359 442.7569,-1087.8113 459.4587,-1070.0081"/>
</g>
<!-- CLIENTE_Genero -->
<g id="node5" class="node">
<title>CLIENTE_Genero</title>
<ellipse fill="#ffffff" stroke="#000000" cx="324.2951" cy="-1106" rx="31.3996" ry="18"/>
<text text-anchor="middle" x="324.2951" y="-1103.5" font-family="Courier,monospace" font-size="10.00" fill="#000000">Genero</text>
</g>
<!-- CLIENTE_Genero&#45;&#45;CLIENTE -->
<g id="edge4" class="edge">
<title>CLIENTE_Genero&#45;&#45;CLIENTE</title>
<path fill="none" stroke="#000000" d="M350.9987,-1096.4702C377.6392,-1086.9629 418.4712,-1072.391 446.068,-1062.5424"/>
</g>
<!-- CLIENTE_Enail -->
<g id="node6" class="node">
<title>CLIENTE_Enail</title>
<ellipse fill="#ffffff" stroke="#000000" cx="324.2951" cy="-1052" rx="27.8353" ry="18"/>
<text text-anchor="middle" x="324.2951" y="-1049.5" font-family="Courier,monospace" font-size="10.00" fill="#000000">Enail</text>
</g>
<!-- CLIENTE_Enail&#45;&#45;CLIENTE -->
<g id="edge5" class="edge">
<title>CLIENTE_Enail&#45;&#45;CLIENTE</title>
<path fill="none" stroke="#000000" d="M352.0484,-1052C378.6678,-1052 418.7276,-1052 445.9625,-1052"/>
</g>
<!-- CLIENTE_NumTelefone -->
<g id="node7" class="node">
<title>CLIENTE_NumTelefone</title>
<ellipse fill="#ffffff" stroke="#000000" cx="324.2951" cy="-994" rx="48.7291" ry="18"/>
<ellipse fill="none" stroke="#000000" cx="324.2951" cy="-994" rx="52.7184" ry="22"/>
<text text-anchor="middle" x="324.2951" y="-991.5" font-family="Courier,monospace" font-size="10.00" fill="#000000">NumTelefone</text>
</g>
<!-- CLIENTE_NumTelefone&#45;&#45;CLIENTE -->
<g id="edge6" class="edge">
<title>CLIENTE_NumTelefone&#45;&#45;CLIENTE</title>
<path fill="none" stroke="#000000" d="M363.2622,-1008.9364C389.0063,-1018.8044 422.2288,-1031.5388 445.8526,-1040.5941"/>
</g>
<!-- CLIENTE_Morada -->
<g id="node8" class="node">
<title>CLIENTE_Morada</title>
<ellipse fill="#ffffff" stroke="#000000" cx="324.2951" cy="-936" rx="31.3996" ry="18"/>
<text text-anchor="middle" x="324.2951" y="-933.5" font-family="Courier,monospace" font-size="10.00" fill="#000000">Morada</text>
</g>
<!-- CLIENTE_Morada&#45;&#45;CLIENTE -->
<g id="edge7" class="edge">
<title>CLIENTE_Morada&#45;&#45;CLIENTE</title>
<path fill="none" stroke="#000000" d="M351.5146,-945.0275C363.0684,-949.5128 376.3607,-955.575 387.2821,-963 416.9864,-983.1948 445.0929,-1014.3296 461.3214,-1033.9128"/>
</g>
<!-- CLIENTE_Morada_Rua -->
<g id="node9" class="node">
<title>CLIENTE_Morada_Rua</title>
<ellipse fill="#ffffff" stroke="#000000" cx="172.9811" cy="-963" rx="27" ry="18"/>
<text text-anchor="middle" x="172.9811" y="-960.5" font-family="Courier,monospace" font-size="10.00" fill="#000000">Rua</text>
</g>
<!-- CLIENTE_Morada_Rua&#45;&#45;CLIENTE_Morada -->
<g id="edge8" class="edge">
<title>CLIENTE_Morada_Rua&#45;&#45;CLIENTE_Morada</title>
<path fill="none" stroke="#000000" d="M199.338,-958.297C225.8406,-953.5679 266.6389,-946.288 294.3495,-941.3434"/>
</g>
<!-- CLIENTE_Morada_NumRua -->
<g id="node10" class="node">
<title>CLIENTE_Morada_NumRua</title>
<ellipse fill="#ffffff" stroke="#000000" cx="172.9811" cy="-909" rx="31.3996" ry="18"/>
<text text-anchor="middle" x="172.9811" y="-906.5" font-family="Courier,monospace" font-size="10.00" fill="#000000">NumRua</text>
</g>
<!-- CLIENTE_Morada_NumRua&#45;&#45;CLIENTE_Morada -->
<g id="edge9" class="edge">
<title>CLIENTE_Morada_NumRua&#45;&#45;CLIENTE_Morada</title>
<path fill="none" stroke="#000000" d="M202.8759,-914.3343C229.4033,-919.0678 267.9538,-925.9466 294.4625,-930.6768"/>
</g>
<!-- CLIENTE_Morada_Andar -->
<g id="node11" class="node">
<title>CLIENTE_Morada_Andar</title>
<ellipse fill="#ffffff" stroke="#000000" cx="172.9811" cy="-855" rx="34.9638" ry="18"/>
<text text-anchor="middle" x="172.9811" y="-852.5" font-family="Courier,monospace" font-size="10.00" fill="#000000">Andar ?</text>
</g>
<!-- CLIENTE_Morada_Andar&#45;&#45;CLIENTE_Morada -->
<g id="edge10" class="edge">
<title>CLIENTE_Morada_Andar&#45;&#45;CLIENTE_Morada</title>
<path fill="none" stroke="#000000" d="M196.103,-868.6314C203.2437,-872.8791 211.1195,-877.6029 218.3082,-882 237.5587,-893.775 241.3216,-898.5228 261.3082,-909 273.1102,-915.1867 286.6415,-921.128 298.1301,-925.8545"/>
</g>
<!-- CLIENTE_Morada_Localidade -->
<g id="node12" class="node">
<title>CLIENTE_Morada_Localidade</title>
<ellipse fill="#ffffff" stroke="#000000" cx="172.9811" cy="-1071" rx="45.1548" ry="18"/>
<text text-anchor="middle" x="172.9811" y="-1068.5" font-family="Courier,monospace" font-size="10.00" fill="#000000">Localidade</text>
</g>
<!-- CLIENTE_Morada_Localidade&#45;&#45;CLIENTE_Morada -->
<g id="edge11" class="edge">
<title>CLIENTE_Morada_Localidade&#45;&#45;CLIENTE_Morada</title>
<path fill="none" stroke="#000000" d="M202.0492,-1056.9078C207.8756,-1053.2364 213.6347,-1048.9093 218.3082,-1044 246.411,-1014.4794 231.316,-990.5989 261.3082,-963 271.0261,-954.0575 284.1586,-947.7938 295.9175,-943.567"/>
</g>
<!-- CLIENTE_Morada_CodPostal -->
<g id="node13" class="node">
<title>CLIENTE_Morada_CodPostal</title>
<ellipse fill="none" stroke="#000000" stroke-dasharray="5,2" cx="172.9811" cy="-1017" rx="41.5911" ry="18"/>
<text text-anchor="middle" x="172.9811" y="-1014.5" font-family="Courier,monospace" font-size="10.00" fill="#000000">CodPostal</text>
</g>
<!-- CLIENTE_Morada_CodPostal&#45;&#45;CLIENTE_Morada -->
<g id="edge12" class="edge">
<title>CLIENTE_Morada_CodPostal&#45;&#45;CLIENTE_Morada</title>
<path fill="none" stroke="#000000" d="M197.9816,-1002.2502C204.6082,-998.3018 211.7446,-994.0148 218.3082,-990 237.5587,-978.225 241.3216,-973.4772 261.3082,-963 273.1102,-956.8133 286.6415,-950.872 298.1301,-946.1455"/>
</g>
<!-- PRODUTO -->
<g id="node14" class="node">
<title>PRODUTO</title>
<polygon fill="#ffffff" stroke="#000000" points="829.1203,-748 770.1203,-748 770.1203,-712 829.1203,-712 829.1203,-748"/>
<text text-anchor="middle" x="799.6203" y="-727.5" font-family="Courier,monospace" font-size="10.00" fill="#000000">PRODUTO</text>
</g>
<!-- PRODUTO__IdProduto_ -->
<g id="node15" class="node">
<title>PRODUTO__IdProduto_</title>
<ellipse fill="#ffffff" stroke="#000000" cx="638.0282" cy="-585" rx="48.7185" ry="18"/>
<text text-anchor="middle" x="638.0282" y="-582.5" font-family="Courier,monospace" font-size="10.00" fill="#000000">_IdProduto_</text>
</g>
<!-- PRODUTO__IdProduto_&#45;&#45;PRODUTO -->
<g id="edge13" class="edge">
<title>PRODUTO__IdProduto_&#45;&#45;PRODUTO</title>
<path fill="none" stroke="#000000" d="M678.6302,-595.0394C690.1561,-599.1059 702.2453,-604.6307 712.1203,-612 748.7075,-639.3033 776.9091,-686.1157 790.5642,-711.8061"/>
</g>
<!-- PRODUTO_Nome -->
<g id="node16" class="node">
<title>PRODUTO_Nome</title>
<ellipse fill="#ffffff" stroke="#000000" cx="638.0282" cy="-531" rx="27" ry="18"/>
<text text-anchor="middle" x="638.0282" y="-528.5" font-family="Courier,monospace" font-size="10.00" fill="#000000">Nome</text>
</g>
<!-- PRODUTO_Nome&#45;&#45;PRODUTO -->
<g id="edge14" class="edge">
<title>PRODUTO_Nome&#45;&#45;PRODUTO</title>
<path fill="none" stroke="#000000" d="M664.1689,-535.5205C679.6073,-539.3177 698.694,-546.1091 712.1203,-558 760.6517,-600.9815 785.8081,-677.2547 795.1987,-711.9356"/>
</g>
<!-- PRODUTO_Custo -->
<g id="node17" class="node">
<title>PRODUTO_Custo</title>
<ellipse fill="#ffffff" stroke="#000000" cx="638.0282" cy="-909" rx="27.8353" ry="18"/>
<text text-anchor="middle" x="638.0282" y="-906.5" font-family="Courier,monospace" font-size="10.00" fill="#000000">Custo</text>
</g>
<!-- PRODUTO_Custo&#45;&#45;PRODUTO -->
<g id="edge15" class="edge">
<title>PRODUTO_Custo&#45;&#45;PRODUTO</title>
<path fill="none" stroke="#000000" d="M664.6582,-904.0482C679.8927,-900.1306 698.6006,-893.3635 712.1203,-882 756.1743,-844.9719 782.8725,-779.7691 793.8298,-748.1758"/>
</g>
<!-- PRODUTO_IdEmpresa -->
<g id="node18" class="node">
<title>PRODUTO_IdEmpresa</title>
<ellipse fill="#ffffff" stroke="#000000" cx="638.0282" cy="-855" rx="41.5911" ry="18"/>
<text text-anchor="middle" x="638.0282" y="-852.5" font-family="Courier,monospace" font-size="10.00" fill="#000000">IdEmpresa</text>
</g>
<!-- PRODUTO_IdEmpresa&#45;&#45;PRODUTO -->
<g id="edge16" class="edge">
<title>PRODUTO_IdEmpresa&#45;&#45;PRODUTO</title>
<path fill="none" stroke="#000000" d="M674.0341,-845.8245C686.7272,-841.5977 700.6744,-835.7585 712.1203,-828 744.2164,-806.2439 772.2705,-770.1667 787.4972,-748.3826"/>
</g>
<!-- PRODUTO_Quantidade -->
<g id="node19" class="node">
<title>PRODUTO_Quantidade</title>
<ellipse fill="#ffffff" stroke="#000000" cx="638.0282" cy="-801" rx="45.1548" ry="18"/>
<text text-anchor="middle" x="638.0282" y="-798.5" font-family="Courier,monospace" font-size="10.00" fill="#000000">Quantidade</text>
</g>
<!-- PRODUTO_Quantidade&#45;&#45;PRODUTO -->
<g id="edge17" class="edge">
<title>PRODUTO_Quantidade&#45;&#45;PRODUTO</title>
<path fill="none" stroke="#000000" d="M672.6612,-789.3214C685.2155,-784.8417 699.426,-779.4825 712.1203,-774 731.7887,-765.5054 753.2927,-754.7137 770.0609,-745.944"/>
</g>
<!-- DEPARTAMENTO -->
<g id="node20" class="node">
<title>DEPARTAMENTO</title>
<polygon fill="#ffffff" stroke="#000000" points="844.1203,-218 755.1203,-218 755.1203,-182 844.1203,-182 844.1203,-218"/>
<text text-anchor="middle" x="799.6203" y="-197.5" font-family="Courier,monospace" font-size="10.00" fill="#000000">DEPARTAMENTO</text>
</g>
<!-- DEPARTAMENTO__NomeDepartamento_ -->
<g id="node21" class="node">
<title>DEPARTAMENTO__NomeDepartamento_</title>
<ellipse fill="#ffffff" stroke="#000000" cx="638.0282" cy="-200" rx="73.6658" ry="18"/>
<text text-anchor="middle" x="638.0282" y="-197.5" font-family="Courier,monospace" font-size="10.00" fill="#000000">_NomeDepartamento_</text>
</g>
<!-- DEPARTAMENTO__NomeDepartamento_&#45;&#45;DEPARTAMENTO -->
<g id="edge18" class="edge">
<title>DEPARTAMENTO__NomeDepartamento_&#45;&#45;DEPARTAMENTO</title>
<path fill="none" stroke="#000000" d="M711.7312,-200C726.3812,-200 741.3447,-200 754.675,-200"/>
</g>
<!-- DEPARTAMENTO_Gestor -->
<g id="node22" class="node">
<title>DEPARTAMENTO_Gestor</title>
<ellipse fill="#ffffff" stroke="#000000" cx="638.0282" cy="-146" rx="31.3996" ry="18"/>
<text text-anchor="middle" x="638.0282" y="-143.5" font-family="Courier,monospace" font-size="10.00" fill="#000000">Gestor</text>
</g>
<!-- DEPARTAMENTO_Gestor&#45;&#45;DEPARTAMENTO -->
<g id="edge19" class="edge">
<title>DEPARTAMENTO_Gestor&#45;&#45;DEPARTAMENTO</title>
<path fill="none" stroke="#000000" d="M665.0751,-155.0384C689.6031,-163.235 726.2263,-175.4736 755.0728,-185.1133"/>
</g>
<!-- FUNCIONARIO -->
<g id="node23" class="node">
<title>FUNCIONARIO</title>
<polygon fill="#ffffff" stroke="#000000" points="517.1091,-306 434.1091,-306 434.1091,-270 517.1091,-270 517.1091,-306"/>
<text text-anchor="middle" x="475.6091" y="-285.5" font-family="Courier,monospace" font-size="10.00" fill="#000000">FUNCIONARIO</text>
</g>
<!-- VENDE -->
<g id="node49" class="node">
<title>VENDE</title>
<polygon fill="#ffffff" stroke="#000000" points="638.0282,-657 598.7733,-639 638.0282,-621 677.2832,-639 638.0282,-657"/>
<text text-anchor="middle" x="638.0282" y="-636.5" font-family="Courier,monospace" font-size="10.00" fill="#000000">VENDE</text>
</g>
<!-- FUNCIONARIO&#45;&#45;VENDE -->
<g id="edge45" class="edge">
<title>FUNCIONARIO&#45;&#45;VENDE</title>
<path fill="none" stroke="#000000" d="M478.3481,-306.2903C487.888,-367.7782 521.4032,-565.7674 563.9362,-612 575.3373,-624.3929 592.8869,-631.1099 608.0446,-634.7444"/>
<text text-anchor="middle" x="542.4362" y="-580" font-family="Courier,monospace" font-size="10.00" fill="#000000">1</text>
</g>
<!-- SUPERVISIONA -->
<g id="node51" class="node">
<title>SUPERVISIONA</title>
<polygon fill="#ffffff" stroke="#000000" points="638.0282,-272 563.844,-254 638.0282,-236 712.2125,-254 638.0282,-272"/>
<text text-anchor="middle" x="638.0282" y="-251.5" font-family="Courier,monospace" font-size="10.00" fill="#000000">SUPERVISIONA</text>
</g>
<!-- FUNCIONARIO&#45;&#45;SUPERVISIONA -->
<g id="edge49" class="edge">
<title>FUNCIONARIO&#45;&#45;SUPERVISIONA</title>
<path fill="none" stroke="#000000" d="M517.0263,-277.2866C541.84,-272.0922 573.1263,-265.5429 597.6132,-260.4169"/>
<path fill="none" stroke="transparent" d="M517.4361,-279.2442C542.2498,-274.0498 573.5361,-267.5005 598.0229,-262.3745"/>
<path fill="none" stroke="#000000" d="M517.8458,-281.2017C542.6596,-276.0073 573.9459,-269.458 598.4327,-264.3321"/>
<text text-anchor="middle" x="542.4362" y="-277" font-family="Courier,monospace" font-size="10.00" fill="#000000">1</text>
</g>
<!-- TRABALHA_EM -->
<g id="node54" class="node">
<title>TRABALHA_EM</title>
<polygon fill="#ffffff" stroke="#000000" points="638.0282,-333 568.8339,-315 638.0282,-297 707.2225,-315 638.0282,-333"/>
<text text-anchor="middle" x="638.0282" y="-312.5" font-family="Courier,monospace" font-size="10.00" fill="#000000">TRABALHA_EM</text>
</g>
<!-- FUNCIONARIO&#45;&#45;TRABALHA_EM -->
<g id="edge53" class="edge">
<title>FUNCIONARIO&#45;&#45;TRABALHA_EM</title>
<path fill="none" stroke="#000000" d="M517.1278,-296.0953C524.3885,-297.4458 531.8763,-298.7972 538.9362,-300 556.603,-303.01 576.0947,-306.0261 593.0828,-308.5561"/>
<text text-anchor="middle" x="542.4362" y="-303" font-family="Courier,monospace" font-size="10.00" fill="#000000">1</text>
</g>
<!-- FUNCIONARIO__IdFuncionario_ -->
<g id="node24" class="node">
<title>FUNCIONARIO__IdFuncionario_</title>
<ellipse fill="#ffffff" stroke="#000000" cx="324.2951" cy="-72" rx="62.9739" ry="18"/>
<text text-anchor="middle" x="324.2951" y="-69.5" font-family="Courier,monospace" font-size="10.00" fill="#000000">_IdFuncionario_</text>
</g>
<!-- FUNCIONARIO__IdFuncionario_&#45;&#45;FUNCIONARIO -->
<g id="edge20" class="edge">
<title>FUNCIONARIO__IdFuncionario_&#45;&#45;FUNCIONARIO</title>
<path fill="none" stroke="#000000" d="M368.1324,-84.9579C375.2371,-88.597 381.988,-93.2006 387.2821,-99 433.7513,-149.9041 394.4699,-189.1094 430.2821,-248 435.299,-256.25 442.564,-263.7363 449.8133,-269.9424"/>
</g>
<!-- FUNCIONARIO_Nome -->
<g id="node25" class="node">
<title>FUNCIONARIO_Nome</title>
<ellipse fill="#ffffff" stroke="#000000" cx="324.2951" cy="-18" rx="27" ry="18"/>
<text text-anchor="middle" x="324.2951" y="-15.5" font-family="Courier,monospace" font-size="10.00" fill="#000000">Nome</text>
</g>
<!-- FUNCIONARIO_Nome&#45;&#45;FUNCIONARIO -->
<g id="edge21" class="edge">
<title>FUNCIONARIO_Nome&#45;&#45;FUNCIONARIO</title>
<path fill="none" stroke="#000000" d="M349.9905,-23.6072C362.7741,-27.6074 377.536,-34.2436 387.2821,-45 449.2055,-113.3431 386.3955,-166.8874 430.2821,-248 434.777,-256.3077 441.7137,-263.7179 448.8197,-269.8348"/>
</g>
<!-- FUNCIONARIO_NumCC -->
<g id="node26" class="node">
<title>FUNCIONARIO_NumCC</title>
<ellipse fill="#ffffff" stroke="#000000" cx="324.2951" cy="-504" rx="27.8353" ry="18"/>
<text text-anchor="middle" x="324.2951" y="-501.5" font-family="Courier,monospace" font-size="10.00" fill="#000000">NumCC</text>
</g>
<!-- FUNCIONARIO_NumCC&#45;&#45;FUNCIONARIO -->
<g id="edge22" class="edge">
<title>FUNCIONARIO_NumCC&#45;&#45;FUNCIONARIO</title>
<path fill="none" stroke="#000000" d="M350.3658,-497.5403C362.7855,-493.3754 377.1108,-486.8488 387.2821,-477 438.2808,-427.6181 462.9634,-343.0639 471.7319,-306.1418"/>
</g>
<!-- FUNCIONARIO_DataNascimento -->
<g id="node27" class="node">
<title>FUNCIONARIO_DataNascimento</title>
<ellipse fill="#ffffff" stroke="#000000" cx="324.2951" cy="-450" rx="59.4099" ry="18"/>
<text text-anchor="middle" x="324.2951" y="-447.5" font-family="Courier,monospace" font-size="10.00" fill="#000000">DataNascimento</text>
</g>
<!-- FUNCIONARIO_DataNascimento&#45;&#45;FUNCIONARIO -->
<g id="edge23" class="edge">
<title>FUNCIONARIO_DataNascimento&#45;&#45;FUNCIONARIO</title>
<path fill="none" stroke="#000000" d="M364.9681,-436.7402C372.8671,-433.0516 380.7203,-428.5067 387.2821,-423 426.7583,-389.8713 455.1173,-334.6239 467.9467,-306.1678"/>
</g>
<!-- FUNCIONARIO_Email -->
<g id="node28" class="node">
<title>FUNCIONARIO_Email</title>
<ellipse fill="#ffffff" stroke="#000000" cx="324.2951" cy="-396" rx="34.9638" ry="18"/>
<text text-anchor="middle" x="324.2951" y="-393.5" font-family="Courier,monospace" font-size="10.00" fill="#000000">Email ?</text>
</g>
<!-- FUNCIONARIO_Email&#45;&#45;FUNCIONARIO -->
<g id="edge24" class="edge">
<title>FUNCIONARIO_Email&#45;&#45;FUNCIONARIO</title>
<path fill="none" stroke="#000000" d="M353.2333,-385.9758C364.307,-381.5389 376.7887,-375.7787 387.2821,-369 415.2449,-350.9359 442.7569,-323.8113 459.4587,-306.0081"/>
</g>
<!-- FUNCIONARIO_Departamento -->
<g id="node29" class="node">
<title>FUNCIONARIO_Departamento</title>
<ellipse fill="#ffffff" stroke="#000000" cx="324.2951" cy="-342" rx="52.2822" ry="18"/>
<text text-anchor="middle" x="324.2951" y="-339.5" font-family="Courier,monospace" font-size="10.00" fill="#000000">Departamento</text>
</g>
<!-- FUNCIONARIO_Departamento&#45;&#45;FUNCIONARIO -->
<g id="edge25" class="edge">
<title>FUNCIONARIO_Departamento&#45;&#45;FUNCIONARIO</title>
<path fill="none" stroke="#000000" d="M360.924,-328.9281C382.9651,-321.0622 411.0917,-311.0246 433.9741,-302.8584"/>
</g>
<!-- FUNCIONARIO_Supervisor -->
<g id="node30" class="node">
<title>FUNCIONARIO_Supervisor</title>
<ellipse fill="#ffffff" stroke="#000000" cx="324.2951" cy="-288" rx="52.2822" ry="18"/>
<text text-anchor="middle" x="324.2951" y="-285.5" font-family="Courier,monospace" font-size="10.00" fill="#000000">Supervisor ?</text>
</g>
<!-- FUNCIONARIO_Supervisor&#45;&#45;FUNCIONARIO -->
<g id="edge26" class="edge">
<title>FUNCIONARIO_Supervisor&#45;&#45;FUNCIONARIO</title>
<path fill="none" stroke="#000000" d="M376.7928,-288C395.4007,-288 416.0772,-288 433.6873,-288"/>
</g>
<!-- FUNCIONARIO_Salario -->
<g id="node31" class="node">
<title>FUNCIONARIO_Salario</title>
<ellipse fill="#ffffff" stroke="#000000" cx="324.2951" cy="-234" rx="34.9638" ry="18"/>
<text text-anchor="middle" x="324.2951" y="-231.5" font-family="Courier,monospace" font-size="10.00" fill="#000000">Salario</text>
</g>
<!-- FUNCIONARIO_Salario&#45;&#45;FUNCIONARIO -->
<g id="edge27" class="edge">
<title>FUNCIONARIO_Salario&#45;&#45;FUNCIONARIO</title>
<path fill="none" stroke="#000000" d="M353.1123,-244.2841C376.0067,-252.4545 408.3355,-263.9918 434.0328,-273.1625"/>
</g>
<!-- FUNCIONARIO_HorasTradalho -->
<g id="node32" class="node">
<title>FUNCIONARIO_HorasTradalho</title>
<ellipse fill="none" stroke="#000000" stroke-dasharray="5,2" cx="324.2951" cy="-180" rx="55.8461" ry="18"/>
<text text-anchor="middle" x="324.2951" y="-177.5" font-family="Courier,monospace" font-size="10.00" fill="#000000">HorasTradalho</text>
</g>
<!-- FUNCIONARIO_HorasTradalho&#45;&#45;FUNCIONARIO -->
<g id="edge28" class="edge">
<title>FUNCIONARIO_HorasTradalho&#45;&#45;FUNCIONARIO</title>
<path fill="none" stroke="#000000" d="M361.7386,-193.4493C370.4356,-197.2704 379.437,-201.8233 387.2821,-207 409.3222,-221.5436 410.8233,-230.1495 430.2821,-248 438.1707,-255.2367 446.9689,-263.0568 454.6995,-269.8465"/>
</g>
<!-- FUNCIONARIO_Gere -->
<g id="node33" class="node">
<title>FUNCIONARIO_Gere</title>
<ellipse fill="#ffffff" stroke="#000000" cx="324.2951" cy="-126" rx="31.3996" ry="18"/>
<text text-anchor="middle" x="324.2951" y="-123.5" font-family="Courier,monospace" font-size="10.00" fill="#000000">Gere ?</text>
</g>
<!-- FUNCIONARIO_Gere&#45;&#45;FUNCIONARIO -->
<g id="edge29" class="edge">
<title>FUNCIONARIO_Gere&#45;&#45;FUNCIONARIO</title>
<path fill="none" stroke="#000000" d="M352.9484,-133.2767C364.7562,-137.4521 377.8505,-143.7559 387.2821,-153 420.3809,-185.441 402.7387,-210.7265 430.2821,-248 436.1452,-255.9343 443.8138,-263.4349 451.1716,-269.7506"/>
</g>
<!-- FORNECEDOR -->
<g id="node34" class="node">
<title>FORNECEDOR</title>
<polygon fill="#ffffff" stroke="#000000" points="514.1091,-711 437.1091,-711 437.1091,-675 514.1091,-675 514.1091,-711"/>
<text text-anchor="middle" x="475.6091" y="-690.5" font-family="Courier,monospace" font-size="10.00" fill="#000000">FORNECEDOR</text>
</g>
<!-- FORNECE -->
<g id="node48" class="node">
<title>FORNECE</title>
<polygon fill="#ffffff" stroke="#000000" points="638.0282,-711 588.7935,-693 638.0282,-675 687.2629,-693 638.0282,-711"/>
<text text-anchor="middle" x="638.0282" y="-690.5" font-family="Courier,monospace" font-size="10.00" fill="#000000">FORNECE</text>
</g>
<!-- FORNECEDOR&#45;&#45;FORNECE -->
<g id="edge43" class="edge">
<title>FORNECEDOR&#45;&#45;FORNECE</title>
<path fill="none" stroke="#000000" d="M514.5125,-691C536.7545,-691 564.8707,-691 588.6572,-691"/>
<path fill="none" stroke="transparent" d="M514.5125,-693C536.7545,-693 564.8707,-693 588.6572,-693"/>
<path fill="none" stroke="#000000" d="M514.5125,-695C536.7545,-695 564.8707,-695 588.6572,-695"/>
<text text-anchor="middle" x="542.4362" y="-696" font-family="Courier,monospace" font-size="10.00" fill="#000000">M</text>
</g>
<!-- FORNECEDOR__IdEmpresa_ -->
<g id="node35" class="node">
<title>FORNECEDOR__IdEmpresa_</title>
<ellipse fill="#ffffff" stroke="#000000" cx="324.2951" cy="-828" rx="48.7185" ry="18"/>
<text text-anchor="middle" x="324.2951" y="-825.5" font-family="Courier,monospace" font-size="10.00" fill="#000000">_IdEmpresa_</text>
</g>
<!-- FORNECEDOR__IdEmpresa_&#45;&#45;FORNECEDOR -->
<g id="edge30" class="edge">
<title>FORNECEDOR__IdEmpresa_&#45;&#45;FORNECEDOR</title>
<path fill="none" stroke="#000000" d="M360.9021,-815.8091C369.9967,-811.8634 379.3917,-806.9378 387.2821,-801 420.9583,-775.6576 449.6608,-734.8717 464.5932,-711.3434"/>
</g>
<!-- FORNECEDOR_NomeEmpresa -->
<g id="node36" class="node">
<title>FORNECEDOR_NomeEmpresa</title>
<ellipse fill="#ffffff" stroke="#000000" cx="324.2951" cy="-774" rx="48.7185" ry="18"/>
<text text-anchor="middle" x="324.2951" y="-771.5" font-family="Courier,monospace" font-size="10.00" fill="#000000">NomeEmpresa</text>
</g>
<!-- FORNECEDOR_NomeEmpresa&#45;&#45;FORNECEDOR -->
<g id="edge31" class="edge">
<title>FORNECEDOR_NomeEmpresa&#45;&#45;FORNECEDOR</title>
<path fill="none" stroke="#000000" d="M357.7264,-760.7257C367.3952,-756.6043 377.8745,-751.8601 387.2821,-747 408.3602,-736.1107 431.1849,-722.0941 448.3511,-711.0703"/>
</g>
<!-- FORNECEDOR_IdProduto -->
<g id="node37" class="node">
<title>FORNECEDOR_IdProduto</title>
<ellipse fill="#ffffff" stroke="#000000" cx="324.2951" cy="-720" rx="41.5911" ry="18"/>
<text text-anchor="middle" x="324.2951" y="-717.5" font-family="Courier,monospace" font-size="10.00" fill="#000000">IdProduto</text>
</g>
<!-- FORNECEDOR_IdProduto&#45;&#45;FORNECEDOR -->
<g id="edge32" class="edge">
<title>FORNECEDOR_IdProduto&#45;&#45;FORNECEDOR</title>
<path fill="none" stroke="#000000" d="M363.2622,-713.0468C385.9416,-709 414.4246,-703.9176 437.0362,-699.8828"/>
</g>
<!-- FORNECEDOR_NomeProduto -->
<g id="node38" class="node">
<title>FORNECEDOR_NomeProduto</title>
<ellipse fill="#ffffff" stroke="#000000" cx="324.2951" cy="-666" rx="48.7185" ry="18"/>
<text text-anchor="middle" x="324.2951" y="-663.5" font-family="Courier,monospace" font-size="10.00" fill="#000000">NomeProduto</text>
</g>
<!-- FORNECEDOR_NomeProduto&#45;&#45;FORNECEDOR -->
<g id="edge33" class="edge">
<title>FORNECEDOR_NomeProduto&#45;&#45;FORNECEDOR</title>
<path fill="none" stroke="#000000" d="M368.4682,-673.8821C390.1887,-677.7579 416.1231,-682.3855 437.0355,-686.117"/>
</g>
<!-- FORNECEDOR_Custo -->
<g id="node39" class="node">
<title>FORNECEDOR_Custo</title>
<ellipse fill="#ffffff" stroke="#000000" cx="324.2951" cy="-612" rx="27.8353" ry="18"/>
<text text-anchor="middle" x="324.2951" y="-609.5" font-family="Courier,monospace" font-size="10.00" fill="#000000">Custo</text>
</g>
<!-- FORNECEDOR_Custo&#45;&#45;FORNECEDOR -->
<g id="edge34" class="edge">
<title>FORNECEDOR_Custo&#45;&#45;FORNECEDOR</title>
<path fill="none" stroke="#000000" d="M348.2974,-621.3383C360.2087,-626.2106 374.7034,-632.5017 387.2821,-639 408.3602,-649.8893 431.1849,-663.9059 448.3511,-674.9297"/>
</g>
<!-- FORNECEDOR_Comissao -->
<g id="node40" class="node">
<title>FORNECEDOR_Comissao</title>
<ellipse fill="#ffffff" stroke="#000000" cx="324.2951" cy="-558" rx="38.0276" ry="18"/>
<text text-anchor="middle" x="324.2951" y="-555.5" font-family="Courier,monospace" font-size="10.00" fill="#000000">Comissao</text>
</g>
<!-- FORNECEDOR_Comissao&#45;&#45;FORNECEDOR -->
<g id="edge35" class="edge">
<title>FORNECEDOR_Comissao&#45;&#45;FORNECEDOR</title>
<path fill="none" stroke="#000000" d="M356.0114,-568.1475C366.5517,-572.3893 377.9657,-577.9892 387.2821,-585 420.9583,-610.3424 449.6608,-651.1283 464.5932,-674.6566"/>
</g>
<!-- ENCOMENDAS -->
<g id="node41" class="node">
<title>ENCOMENDAS</title>
<polygon fill="#ffffff" stroke="#000000" points="211.4811,-819 134.4811,-819 134.4811,-783 211.4811,-783 211.4811,-819"/>
<text text-anchor="middle" x="172.9811" y="-798.5" font-family="Courier,monospace" font-size="10.00" fill="#000000">ENCOMENDAS</text>
</g>
<!-- ENCOMENDA -->
<g id="node50" class="node">
<title>ENCOMENDA</title>
<polygon fill="#ffffff" stroke="#000000" points="324.2951,-900 265.0806,-882 324.2951,-864 383.5096,-882 324.2951,-900"/>
<text text-anchor="middle" x="324.2951" y="-879.5" font-family="Courier,monospace" font-size="10.00" fill="#000000">ENCOMENDA</text>
</g>
<!-- ENCOMENDAS&#45;&#45;ENCOMENDA -->
<g id="edge47" class="edge">
<title>ENCOMENDAS&#45;&#45;ENCOMENDA</title>
<path fill="none" stroke="#000000" d="M204.7891,-817.4872C209.673,-820.4135 214.6535,-823.4201 219.3518,-826.2939 239.1261,-838.5328 242.889,-843.2806 262.2368,-853.2286 273.9143,-859.3555 287.4456,-865.2968 298.891,-870.0049"/>
<path fill="none" stroke="transparent" d="M203.7611,-819.2028C208.6394,-822.1257 213.6199,-825.1323 218.3082,-828 237.5587,-839.775 241.3216,-844.5228 261.3082,-855 273.1102,-861.1867 286.6415,-867.128 298.1301,-871.8545"/>
<path fill="none" stroke="#000000" d="M202.7332,-820.9184C207.6058,-823.8379 212.5863,-826.8445 217.2646,-829.7061 235.9913,-841.0173 239.7542,-845.7651 260.3796,-856.7714 272.3061,-863.018 285.8375,-868.9593 297.3691,-873.7041"/>
<text text-anchor="middle" x="239.8082" y="-847" font-family="Courier,monospace" font-size="10.00" fill="#000000">N</text>
</g>
<!-- ENCOMENDAS__NumCC_ -->
<g id="node42" class="node">
<title>ENCOMENDAS__NumCC_</title>
<ellipse fill="#ffffff" stroke="#000000" cx="45.327" cy="-909" rx="34.9638" ry="18"/>
<text text-anchor="middle" x="45.327" y="-906.5" font-family="Courier,monospace" font-size="10.00" fill="#000000">_NumCC_</text>
</g>
<!-- ENCOMENDAS__NumCC_&#45;&#45;ENCOMENDAS -->
<g id="edge36" class="edge">
<title>ENCOMENDAS__NumCC_&#45;&#45;ENCOMENDAS</title>
<path fill="none" stroke="#000000" d="M70.6745,-896.5043C77.5837,-892.43 84.7765,-887.5158 90.6541,-882 111.8687,-862.0912 106.4395,-847.9088 127.6541,-828 130.9936,-824.866 134.7578,-821.9263 138.6532,-819.2244"/>
</g>
<!-- ENCOMENDAS_IdEmpresa -->
<g id="node43" class="node">
<title>ENCOMENDAS_IdEmpresa</title>
<ellipse fill="#ffffff" stroke="#000000" cx="45.327" cy="-855" rx="41.5911" ry="18"/>
<text text-anchor="middle" x="45.327" y="-852.5" font-family="Courier,monospace" font-size="10.00" fill="#000000">IdEmpresa</text>
</g>
<!-- ENCOMENDAS_IdEmpresa&#45;&#45;ENCOMENDAS -->
<g id="edge37" class="edge">
<title>ENCOMENDAS_IdEmpresa&#45;&#45;ENCOMENDAS</title>
<path fill="none" stroke="#000000" d="M75.2563,-842.3394C92.7951,-834.9201 115.1447,-825.4659 134.0427,-817.4717"/>
</g>
<!-- ENCOMENDAS_IdProduto -->
<g id="node44" class="node">
<title>ENCOMENDAS_IdProduto</title>
<ellipse fill="#ffffff" stroke="#000000" cx="45.327" cy="-801" rx="41.5911" ry="18"/>
<text text-anchor="middle" x="45.327" y="-798.5" font-family="Courier,monospace" font-size="10.00" fill="#000000">IdProduto</text>
</g>
<!-- ENCOMENDAS_IdProduto&#45;&#45;ENCOMENDAS -->
<g id="edge38" class="edge">
<title>ENCOMENDAS_IdProduto&#45;&#45;ENCOMENDAS</title>
<path fill="none" stroke="#000000" d="M87.1258,-801C102.2502,-801 119.2555,-801 134.1174,-801"/>
</g>
<!-- ENCOMENDAS_Quantidade -->
<g id="node45" class="node">
<title>ENCOMENDAS_Quantidade</title>
<ellipse fill="#ffffff" stroke="#000000" cx="45.327" cy="-747" rx="45.1548" ry="18"/>
<text text-anchor="middle" x="45.327" y="-744.5" font-family="Courier,monospace" font-size="10.00" fill="#000000">Quantidade</text>
</g>
<!-- ENCOMENDAS_Quantidade&#45;&#45;ENCOMENDAS -->
<g id="edge39" class="edge">
<title>ENCOMENDAS_Quantidade&#45;&#45;ENCOMENDAS</title>
<path fill="none" stroke="#000000" d="M76.5548,-760.2099C93.9744,-767.5787 115.8224,-776.8208 134.3153,-784.6437"/>
</g>
<!-- ENCOMENDAS_Custo -->
<g id="node46" class="node">
<title>ENCOMENDAS_Custo</title>
<ellipse fill="#ffffff" stroke="#000000" cx="45.327" cy="-693" rx="27.8353" ry="18"/>
<text text-anchor="middle" x="45.327" y="-690.5" font-family="Courier,monospace" font-size="10.00" fill="#000000">Custo</text>
</g>
<!-- ENCOMENDAS_Custo&#45;&#45;ENCOMENDAS -->
<g id="edge40" class="edge">
<title>ENCOMENDAS_Custo&#45;&#45;ENCOMENDAS</title>
<path fill="none" stroke="#000000" d="M67.2302,-704.625C74.9001,-709.06 83.4027,-714.404 90.6541,-720 115.7347,-739.355 141.2165,-765.6732 157.0505,-782.9867"/>
</g>
<!-- COMPRA&#45;&#45;PRODUTO -->
<g id="edge42" class="edge">
<title>COMPRA&#45;&#45;PRODUTO</title>
<path fill="none" stroke="#000000" d="M673.281,-741.2803C702.1744,-738.2406 742.504,-733.9978 769.716,-731.135"/>
<path fill="none" stroke="transparent" d="M673.4903,-743.2693C702.3837,-740.2296 742.7132,-735.9868 769.9252,-733.124"/>
<path fill="none" stroke="#000000" d="M673.6995,-745.2583C702.5929,-742.2186 742.9225,-737.9758 770.1345,-735.113"/>
<text text-anchor="middle" x="733.6203" y="-739" font-family="Courier,monospace" font-size="10.00" fill="#000000">N</text>
</g>
<!-- FORNECE&#45;&#45;PRODUTO -->
<g id="edge44" class="edge">
<title>FORNECE&#45;&#45;PRODUTO</title>
<path fill="none" stroke="#000000" d="M668.8688,-698.0099C697.9418,-704.6668 741.5112,-714.6429 770.3547,-721.2473"/>
<path fill="none" stroke="transparent" d="M668.4224,-699.9594C697.4954,-706.6163 741.0648,-716.5925 769.9083,-723.1968"/>
<path fill="none" stroke="#000000" d="M667.9761,-701.909C697.049,-708.5658 740.6184,-718.542 769.4619,-725.1463"/>
<text text-anchor="middle" x="733.6203" y="-717" font-family="Courier,monospace" font-size="10.00" fill="#000000">N</text>
</g>
<!-- VENDE&#45;&#45;PRODUTO -->
<g id="edge46" class="edge">
<title>VENDE&#45;&#45;PRODUTO</title>
<path fill="none" stroke="#000000" d="M663.061,-644.0764C677.9485,-648.7986 696.9792,-655.6707 713.0624,-664.2358 737.5675,-677.3501 762.6189,-696.3463 779.7292,-710.3263"/>
<path fill="none" stroke="transparent" d="M662.4565,-645.9828C677.2692,-650.6797 696.2999,-657.5518 712.1203,-666 736.3591,-678.9437 761.4105,-697.9399 778.4637,-711.875"/>
<path fill="none" stroke="#000000" d="M661.852,-647.8893C676.59,-652.5608 695.6206,-659.4329 711.1782,-667.7642 735.1507,-680.5374 760.202,-699.5336 777.1982,-713.4237"/>
<text text-anchor="middle" x="733.6203" y="-682" font-family="Courier,monospace" font-size="10.00" fill="#000000">N</text>
</g>
<!-- ENCOMENDA&#45;&#45;CLIENTE -->
<g id="edge48" class="edge">
<title>ENCOMENDA&#45;&#45;CLIENTE</title>
<path fill="none" stroke="#000000" d="M354.9498,-890.8329C365.989,-895.0676 377.9985,-901.0007 387.2821,-909 428.3992,-944.4291 456.3952,-1003.864 468.6313,-1033.7185"/>
<text text-anchor="middle" x="408.7821" y="-934" font-family="Courier,monospace" font-size="10.00" fill="#000000">1</text>
</g>
<!-- SUPERVISIONA&#45;&#45;FUNCIONARIO -->
<g id="edge50" class="edge">
<title>SUPERVISIONA&#45;&#45;FUNCIONARIO</title>
<path fill="none" stroke="#000000" d="M565.5835,-254.4678C556.5355,-255.4582 547.4694,-256.9124 538.9362,-259 528.8347,-261.4712 518.3734,-265.5548 508.9341,-269.8887"/>
<text text-anchor="middle" x="542.4362" y="-262" font-family="Courier,monospace" font-size="10.00" fill="#000000">1</text>
</g>
<!-- SUPERVISIONA_Supervisor -->
<g id="node52" class="node">
<title>SUPERVISIONA_Supervisor</title>
<ellipse fill="#ffffff" stroke="#000000" cx="475.6091" cy="-221" rx="45.1548" ry="18"/>
<text text-anchor="middle" x="475.6091" y="-218.5" font-family="Courier,monospace" font-size="10.00" fill="#000000">Supervisor</text>
</g>
<!-- SUPERVISIONA_Supervisor&#45;&#45;SUPERVISIONA -->
<g id="edge51" class="edge">
<title>SUPERVISIONA_Supervisor&#45;&#45;SUPERVISIONA</title>
<path fill="none" stroke="#000000" d="M516.5253,-229.0952C526.1731,-231.0179 536.4194,-233.071 545.9362,-235 562.8957,-238.4375 581.5996,-242.2859 597.6956,-245.6155"/>
</g>
<!-- SUPERVISIONA_Horas -->
<g id="node53" class="node">
<title>SUPERVISIONA_Horas</title>
<ellipse fill="#ffffff" stroke="#000000" cx="475.6091" cy="-167" rx="27.8353" ry="18"/>
<text text-anchor="middle" x="475.6091" y="-164.5" font-family="Courier,monospace" font-size="10.00" fill="#000000">Horas</text>
</g>
<!-- SUPERVISIONA_Horas&#45;&#45;SUPERVISIONA -->
<g id="edge52" class="edge">
<title>SUPERVISIONA_Horas&#45;&#45;SUPERVISIONA</title>
<path fill="none" stroke="#000000" d="M496.6883,-178.864C504.4372,-183.4049 513.2037,-188.7563 520.9362,-194 540.8744,-207.5208 542.8182,-215.4079 563.9362,-227 576.5377,-233.9172 591.2664,-239.7023 604.2574,-244.1203"/>
</g>
<!-- TRABALHA_EM&#45;&#45;DEPARTAMENTO -->
<g id="edge54" class="edge">
<title>TRABALHA_EM&#45;&#45;DEPARTAMENTO</title>
<path fill="none" stroke="#000000" d="M666.5825,-304.391C680.8313,-298.4882 697.9941,-290.4282 712.1203,-281 739.4968,-262.728 766.6204,-235.9069 783.2444,-218.2049"/>
<text text-anchor="middle" x="733.6203" y="-270" font-family="Courier,monospace" font-size="10.00" fill="#000000">1</text>
</g>
</g>
</svg>
