<?xml version="1.0" encoding="UTF-8" standalone="no"?>
<!DOCTYPE svg PUBLIC "-//W3C//DTD SVG 1.1//EN"
 "http://www.w3.org/Graphics/SVG/1.1/DTD/svg11.dtd">
<!-- Generated by graphviz version 2.40.1 (20161225.0304)
 -->
<!-- Title: %3 Pages: 1 -->
<svg width="705pt" height="1302pt"
 viewBox="0.00 0.00 704.81 1302.00" xmlns="http://www.w3.org/2000/svg" xmlns:xlink="http://www.w3.org/1999/xlink">
<g id="graph0" class="graph" transform="scale(1 1) rotate(0) translate(4 1298)">
<title>%3</title>
<polygon fill="#ffffff" stroke="transparent" points="-4,4 -4,-1298 700.8121,-1298 700.8121,4 -4,4"/>
<!-- CLIENTE -->
<g id="node1" class="node">
<title>CLIENTE</title>
<polygon fill="#ffffff" stroke="#000000" points="361.628,-800 302.628,-800 302.628,-764 361.628,-764 361.628,-800"/>
<text text-anchor="middle" x="332.128" y="-779.5" font-family="Courier,monospace" font-size="10.00" fill="#000000">CLIENTE</text>
</g>
<!-- COMPRA -->
<g id="node49" class="node">
<title>COMPRA</title>
<polygon fill="#ffffff" stroke="#000000" points="490.72,-1006 446.4752,-988 490.72,-970 534.9649,-988 490.72,-1006"/>
<text text-anchor="middle" x="490.72" y="-985.5" font-family="Courier,monospace" font-size="10.00" fill="#000000">COMPRA</text>
</g>
<!-- CLIENTE&#45;&#45;COMPRA -->
<g id="edge44" class="edge">
<title>CLIENTE&#45;&#45;COMPRA</title>
<path fill="none" stroke="#000000" d="M337.8147,-799.7787C346.0478,-835.4726 369.1719,-915.3945 417.9759,-959.5225 429.2971,-970.0282 445.9713,-976.6154 460.2693,-980.4831"/>
<path fill="none" stroke="transparent" d="M335.8659,-800.2284C344.1266,-836.0284 367.2507,-915.9504 416.628,-961 428.5623,-971.8883 445.2365,-978.4755 459.7454,-982.4133"/>
<path fill="none" stroke="#000000" d="M333.9171,-800.678C342.2054,-836.5843 365.3295,-916.5062 415.28,-962.4775 427.8274,-973.7485 444.5017,-980.3356 459.2216,-984.3434"/>
<text text-anchor="middle" x="395.128" y="-944" font-family="Courier,monospace" font-size="10.00" fill="#000000">M</text>
</g>
<!-- ENCOMENDA -->
<g id="node52" class="node">
<title>ENCOMENDA</title>
<polygon fill="#ffffff" stroke="#000000" points="490.72,-466 431.5055,-448 490.72,-430 549.9345,-448 490.72,-466"/>
<text text-anchor="middle" x="490.72" y="-445.5" font-family="Courier,monospace" font-size="10.00" fill="#000000">ENCOMENDA</text>
</g>
<!-- CLIENTE&#45;&#45;ENCOMENDA -->
<g id="edge50" class="edge">
<title>CLIENTE&#45;&#45;ENCOMENDA</title>
<path fill="none" stroke="#000000" d="M340.353,-763.7559C354.4653,-731.7004 383.2533,-662.8866 398.628,-602 412.5853,-546.7264 380.7341,-519.29 416.628,-475 425.1617,-464.4701 438.1757,-458.0465 450.9286,-454.128"/>
<text text-anchor="middle" x="395.128" y="-630" font-family="Courier,monospace" font-size="10.00" fill="#000000">M</text>
</g>
<!-- CLIENTE__NumCC_ -->
<g id="node2" class="node">
<title>CLIENTE__NumCC_</title>
<ellipse fill="#ffffff" stroke="#000000" cx="190.641" cy="-782" rx="34.9638" ry="18"/>
<text text-anchor="middle" x="190.641" y="-779.5" font-family="Courier,monospace" font-size="10.00" fill="#000000">_NumCC_</text>
</g>
<!-- CLIENTE__NumCC_&#45;&#45;CLIENTE -->
<g id="edge1" class="edge">
<title>CLIENTE__NumCC_&#45;&#45;CLIENTE</title>
<path fill="none" stroke="#000000" d="M225.6153,-782C249.1831,-782 279.9384,-782 302.3383,-782"/>
</g>
<!-- CLIENTE_Nome -->
<g id="node3" class="node">
<title>CLIENTE_Nome</title>
<ellipse fill="#ffffff" stroke="#000000" cx="190.641" cy="-728" rx="27" ry="18"/>
<text text-anchor="middle" x="190.641" y="-725.5" font-family="Courier,monospace" font-size="10.00" fill="#000000">Nome</text>
</g>
<!-- CLIENTE_Nome&#45;&#45;CLIENTE -->
<g id="edge2" class="edge">
<title>CLIENTE_Nome&#45;&#45;CLIENTE</title>
<path fill="none" stroke="#000000" d="M214.3228,-737.0384C238.5524,-746.2859 276.2618,-760.6781 302.465,-770.6788"/>
</g>
<!-- CLIENTE_DataNascimento -->
<g id="node4" class="node">
<title>CLIENTE_DataNascimento</title>
<ellipse fill="#ffffff" stroke="#000000" cx="190.641" cy="-674" rx="59.4099" ry="18"/>
<text text-anchor="middle" x="190.641" y="-671.5" font-family="Courier,monospace" font-size="10.00" fill="#000000">DataNascimento</text>
</g>
<!-- CLIENTE_DataNascimento&#45;&#45;CLIENTE -->
<g id="edge3" class="edge">
<title>CLIENTE_DataNascimento&#45;&#45;CLIENTE</title>
<path fill="none" stroke="#000000" d="M229.5553,-687.8163C237.8293,-691.5266 246.2786,-695.9394 253.628,-701 279.4344,-718.7697 303.6468,-745.9679 318.1771,-763.8677"/>
</g>
<!-- CLIENTE_Genero -->
<g id="node5" class="node">
<title>CLIENTE_Genero</title>
<ellipse fill="#ffffff" stroke="#000000" cx="190.641" cy="-620" rx="31.3996" ry="18"/>
<text text-anchor="middle" x="190.641" y="-617.5" font-family="Courier,monospace" font-size="10.00" fill="#000000">Genero</text>
</g>
<!-- CLIENTE_Genero&#45;&#45;CLIENTE -->
<g id="edge4" class="edge">
<title>CLIENTE_Genero&#45;&#45;CLIENTE</title>
<path fill="none" stroke="#000000" d="M218.8541,-627.7494C230.5839,-632.0084 243.739,-638.247 253.628,-647 290.9828,-680.0637 315.1933,-735.3395 325.8569,-763.8168"/>
</g>
<!-- CLIENTE_Email -->
<g id="node6" class="node">
<title>CLIENTE_Email</title>
<ellipse fill="#ffffff" stroke="#000000" cx="190.641" cy="-952" rx="34.9638" ry="18"/>
<text text-anchor="middle" x="190.641" y="-949.5" font-family="Courier,monospace" font-size="10.00" fill="#000000">Email ?</text>
</g>
<!-- CLIENTE_Email&#45;&#45;CLIENTE -->
<g id="edge5" class="edge">
<title>CLIENTE_Email&#45;&#45;CLIENTE</title>
<path fill="none" stroke="#000000" d="M221.5187,-943.4193C232.5836,-939.2137 244.5525,-933.2346 253.628,-925 292.6397,-889.6026 316.4021,-830.1533 326.4803,-800.2886"/>
</g>
<!-- CLIENTE_NumTelemovel -->
<g id="node7" class="node">
<title>CLIENTE_NumTelemovel</title>
<ellipse fill="#ffffff" stroke="#000000" cx="190.641" cy="-894" rx="52.2899" ry="18"/>
<ellipse fill="none" stroke="#000000" cx="190.641" cy="-894" rx="56.2822" ry="22"/>
<text text-anchor="middle" x="190.641" y="-891.5" font-family="Courier,monospace" font-size="10.00" fill="#000000">NumTelemovel</text>
</g>
<!-- CLIENTE_NumTelemovel&#45;&#45;CLIENTE -->
<g id="edge6" class="edge">
<title>CLIENTE_NumTelemovel&#45;&#45;CLIENTE</title>
<path fill="none" stroke="#000000" d="M229.1629,-877.6594C237.5454,-873.398 246.1391,-868.4513 253.628,-863 278.8017,-844.6757 302.9869,-817.8672 317.7006,-800.1823"/>
</g>
<!-- CLIENTE_Morada -->
<g id="node8" class="node">
<title>CLIENTE_Morada</title>
<ellipse fill="#ffffff" stroke="#000000" cx="190.641" cy="-836" rx="31.3996" ry="18"/>
<text text-anchor="middle" x="190.641" y="-833.5" font-family="Courier,monospace" font-size="10.00" fill="#000000">Morada</text>
</g>
<!-- CLIENTE_Morada&#45;&#45;CLIENTE -->
<g id="edge7" class="edge">
<title>CLIENTE_Morada&#45;&#45;CLIENTE</title>
<path fill="none" stroke="#000000" d="M216.922,-825.9696C241.2165,-816.6973 277.2759,-802.9349 302.5646,-793.2832"/>
</g>
<!-- CLIENTE_Morada_Rua -->
<g id="node9" class="node">
<title>CLIENTE_Morada_Rua</title>
<ellipse fill="#ffffff" stroke="#000000" cx="45.327" cy="-944" rx="27" ry="18"/>
<text text-anchor="middle" x="45.327" y="-941.5" font-family="Courier,monospace" font-size="10.00" fill="#000000">Rua</text>
</g>
<!-- CLIENTE_Morada_Rua&#45;&#45;CLIENTE_Morada -->
<g id="edge8" class="edge">
<title>CLIENTE_Morada_Rua&#45;&#45;CLIENTE_Morada</title>
<path fill="none" stroke="#000000" d="M67.4048,-933.3841C75.2618,-928.9783 83.8414,-923.3934 90.6541,-917 111.8687,-897.0912 105.1702,-881.4634 127.6541,-863 137.8602,-854.6189 151.0574,-848.4297 162.7332,-844.1073"/>
</g>
<!-- CLIENTE_Morada_NumRua -->
<g id="node10" class="node">
<title>CLIENTE_Morada_NumRua</title>
<ellipse fill="#ffffff" stroke="#000000" cx="45.327" cy="-890" rx="31.3996" ry="18"/>
<text text-anchor="middle" x="45.327" y="-887.5" font-family="Courier,monospace" font-size="10.00" fill="#000000">NumRua</text>
</g>
<!-- CLIENTE_Morada_NumRua&#45;&#45;CLIENTE_Morada -->
<g id="edge9" class="edge">
<title>CLIENTE_Morada_NumRua&#45;&#45;CLIENTE_Morada</title>
<path fill="none" stroke="#000000" d="M71.6423,-880.221C97.8145,-870.4952 137.7553,-855.6528 164.0305,-845.8887"/>
</g>
<!-- CLIENTE_Morada_Andar -->
<g id="node11" class="node">
<title>CLIENTE_Morada_Andar</title>
<ellipse fill="#ffffff" stroke="#000000" cx="45.327" cy="-836" rx="34.9638" ry="18"/>
<text text-anchor="middle" x="45.327" y="-833.5" font-family="Courier,monospace" font-size="10.00" fill="#000000">Andar ?</text>
</g>
<!-- CLIENTE_Morada_Andar&#45;&#45;CLIENTE_Morada -->
<g id="edge10" class="edge">
<title>CLIENTE_Morada_Andar&#45;&#45;CLIENTE_Morada</title>
<path fill="none" stroke="#000000" d="M80.1334,-836C104.1472,-836 135.8145,-836 159.0919,-836"/>
</g>
<!-- CLIENTE_Morada_Localidade -->
<g id="node12" class="node">
<title>CLIENTE_Morada_Localidade</title>
<ellipse fill="#ffffff" stroke="#000000" cx="45.327" cy="-782" rx="45.1548" ry="18"/>
<text text-anchor="middle" x="45.327" y="-779.5" font-family="Courier,monospace" font-size="10.00" fill="#000000">Localidade</text>
</g>
<!-- CLIENTE_Morada_Localidade&#45;&#45;CLIENTE_Morada -->
<g id="edge11" class="edge">
<title>CLIENTE_Morada_Localidade&#45;&#45;CLIENTE_Morada</title>
<path fill="none" stroke="#000000" d="M78.665,-794.3887C104.6406,-804.0415 140.2109,-817.2597 164.2349,-826.1873"/>
</g>
<!-- CLIENTE_Morada_CodPostal -->
<g id="node13" class="node">
<title>CLIENTE_Morada_CodPostal</title>
<ellipse fill="#ffffff" stroke="#000000" cx="45.327" cy="-728" rx="41.5911" ry="18"/>
<text text-anchor="middle" x="45.327" y="-725.5" font-family="Courier,monospace" font-size="10.00" fill="#000000">CodPostal</text>
</g>
<!-- CLIENTE_Morada_CodPostal&#45;&#45;CLIENTE_Morada -->
<g id="edge12" class="edge">
<title>CLIENTE_Morada_CodPostal&#45;&#45;CLIENTE_Morada</title>
<path fill="none" stroke="#000000" d="M73.0385,-741.9169C79.2014,-745.6946 85.4444,-750.111 90.6541,-755 111.8687,-774.9088 105.1702,-790.5366 127.6541,-809 137.8602,-817.3811 151.0574,-823.5703 162.7332,-827.8927"/>
</g>
<!-- PRODUTO -->
<g id="node14" class="node">
<title>PRODUTO</title>
<polygon fill="#ffffff" stroke="#000000" points="681.8121,-871 622.8121,-871 622.8121,-835 681.8121,-835 681.8121,-871"/>
<text text-anchor="middle" x="652.3121" y="-850.5" font-family="Courier,monospace" font-size="10.00" fill="#000000">PRODUTO</text>
</g>
<!-- PRODUTO__IdProduto_ -->
<g id="node15" class="node">
<title>PRODUTO__IdProduto_</title>
<ellipse fill="#ffffff" stroke="#000000" cx="490.72" cy="-934" rx="48.7185" ry="18"/>
<text text-anchor="middle" x="490.72" y="-931.5" font-family="Courier,monospace" font-size="10.00" fill="#000000">_IdProduto_</text>
</g>
<!-- PRODUTO__IdProduto_&#45;&#45;PRODUTO -->
<g id="edge13" class="edge">
<title>PRODUTO__IdProduto_&#45;&#45;PRODUTO</title>
<path fill="none" stroke="#000000" d="M527.8867,-922.1242C539.8867,-917.8515 553.1075,-912.6712 564.8121,-907 586.178,-896.6477 608.9607,-882.4768 625.9212,-871.2493"/>
</g>
<!-- PRODUTO_Nome -->
<g id="node16" class="node">
<title>PRODUTO_Nome</title>
<ellipse fill="#ffffff" stroke="#000000" cx="490.72" cy="-880" rx="27" ry="18"/>
<text text-anchor="middle" x="490.72" y="-877.5" font-family="Courier,monospace" font-size="10.00" fill="#000000">Nome</text>
</g>
<!-- PRODUTO_Nome&#45;&#45;PRODUTO -->
<g id="edge14" class="edge">
<title>PRODUTO_Nome&#45;&#45;PRODUTO</title>
<path fill="none" stroke="#000000" d="M517.0422,-875.6019C546.0181,-870.7604 592.4904,-862.9954 622.7118,-857.9458"/>
</g>
<!-- PRODUTO_Custo -->
<g id="node17" class="node">
<title>PRODUTO_Custo</title>
<ellipse fill="#ffffff" stroke="#000000" cx="490.72" cy="-826" rx="27.8353" ry="18"/>
<text text-anchor="middle" x="490.72" y="-823.5" font-family="Courier,monospace" font-size="10.00" fill="#000000">Custo</text>
</g>
<!-- PRODUTO_Custo&#45;&#45;PRODUTO -->
<g id="edge15" class="edge">
<title>PRODUTO_Custo&#45;&#45;PRODUTO</title>
<path fill="none" stroke="#000000" d="M517.7669,-830.5192C546.7873,-835.3681 592.7389,-843.0461 622.7096,-848.0538"/>
</g>
<!-- PRODUTO_IdEmpresa -->
<g id="node18" class="node">
<title>PRODUTO_IdEmpresa</title>
<ellipse fill="#ffffff" stroke="#000000" cx="490.72" cy="-772" rx="41.5911" ry="18"/>
<text text-anchor="middle" x="490.72" y="-769.5" font-family="Courier,monospace" font-size="10.00" fill="#000000">IdEmpresa</text>
</g>
<!-- PRODUTO_IdEmpresa&#45;&#45;PRODUTO -->
<g id="edge16" class="edge">
<title>PRODUTO_IdEmpresa&#45;&#45;PRODUTO</title>
<path fill="none" stroke="#000000" d="M524.5114,-782.6862C537.368,-787.1714 551.9986,-792.7915 564.8121,-799 586.178,-809.3523 608.9607,-823.5232 625.9212,-834.7507"/>
</g>
<!-- PRODUTO_Quantidade -->
<g id="node19" class="node">
<title>PRODUTO_Quantidade</title>
<ellipse fill="#ffffff" stroke="#000000" cx="490.72" cy="-718" rx="45.1548" ry="18"/>
<text text-anchor="middle" x="490.72" y="-715.5" font-family="Courier,monospace" font-size="10.00" fill="#000000">Quantidade</text>
</g>
<!-- PRODUTO_Quantidade&#45;&#45;PRODUTO -->
<g id="edge17" class="edge">
<title>PRODUTO_Quantidade&#45;&#45;PRODUTO</title>
<path fill="none" stroke="#000000" d="M529.2117,-727.6423C541.2912,-731.7809 554.2241,-737.4465 564.8121,-745 599.1905,-769.5257 627.4559,-810.9886 641.901,-834.7715"/>
</g>
<!-- DEPARTAMENTO -->
<g id="node20" class="node">
<title>DEPARTAMENTO</title>
<polygon fill="#ffffff" stroke="#000000" points="696.8121,-547 607.8121,-547 607.8121,-511 696.8121,-511 696.8121,-547"/>
<text text-anchor="middle" x="652.3121" y="-526.5" font-family="Courier,monospace" font-size="10.00" fill="#000000">DEPARTAMENTO</text>
</g>
<!-- DEPARTAMENTO__NomeDepartamento_ -->
<g id="node21" class="node">
<title>DEPARTAMENTO__NomeDepartamento_</title>
<ellipse fill="#ffffff" stroke="#000000" cx="490.72" cy="-556" rx="73.6658" ry="18"/>
<text text-anchor="middle" x="490.72" y="-553.5" font-family="Courier,monospace" font-size="10.00" fill="#000000">_NomeDepartamento_</text>
</g>
<!-- DEPARTAMENTO__NomeDepartamento_&#45;&#45;DEPARTAMENTO -->
<g id="edge18" class="edge">
<title>DEPARTAMENTO__NomeDepartamento_&#45;&#45;DEPARTAMENTO</title>
<path fill="none" stroke="#000000" d="M551.8111,-545.7925C570.4011,-542.6863 590.4733,-539.3325 607.7554,-536.4449"/>
</g>
<!-- DEPARTAMENTO_Gestor -->
<g id="node22" class="node">
<title>DEPARTAMENTO_Gestor</title>
<ellipse fill="#ffffff" stroke="#000000" cx="490.72" cy="-502" rx="31.3996" ry="18"/>
<text text-anchor="middle" x="490.72" y="-499.5" font-family="Courier,monospace" font-size="10.00" fill="#000000">Gestor</text>
</g>
<!-- DEPARTAMENTO_Gestor&#45;&#45;DEPARTAMENTO -->
<g id="edge19" class="edge">
<title>DEPARTAMENTO_Gestor&#45;&#45;DEPARTAMENTO</title>
<path fill="none" stroke="#000000" d="M520.7356,-507.0152C545.1052,-511.0871 579.8397,-516.8908 607.5017,-521.5128"/>
</g>
<!-- FUNCIONARIO -->
<g id="node23" class="node">
<title>FUNCIONARIO</title>
<polygon fill="#ffffff" stroke="#000000" points="373.628,-317 290.628,-317 290.628,-281 373.628,-281 373.628,-317"/>
<text text-anchor="middle" x="332.128" y="-296.5" font-family="Courier,monospace" font-size="10.00" fill="#000000">FUNCIONARIO</text>
</g>
<!-- SUPERVISIONA -->
<g id="node50" class="node">
<title>SUPERVISIONA</title>
<polygon fill="#ffffff" stroke="#000000" points="490.72,-88 416.5358,-70 490.72,-52 564.9043,-70 490.72,-88"/>
<text text-anchor="middle" x="490.72" y="-67.5" font-family="Courier,monospace" font-size="10.00" fill="#000000">SUPERVISIONA</text>
</g>
<!-- FUNCIONARIO&#45;&#45;SUPERVISIONA -->
<g id="edge46" class="edge">
<title>FUNCIONARIO&#45;&#45;SUPERVISIONA</title>
<path fill="none" stroke="#000000" d="M339.9691,-280.5385C352.4677,-251.0734 377.6391,-191.5785 398.628,-141 406.7262,-121.4849 401.4003,-111.6471 416.628,-97 425.8043,-88.1735 438.0916,-82.1967 450.0186,-78.1641"/>
<text text-anchor="middle" x="395.128" y="-156" font-family="Courier,monospace" font-size="10.00" fill="#000000">1</text>
</g>
<!-- TRABALHA_EM -->
<g id="node51" class="node">
<title>TRABALHA_EM</title>
<polygon fill="#ffffff" stroke="#000000" points="490.72,-412 421.5257,-394 490.72,-376 559.9144,-394 490.72,-412"/>
<text text-anchor="middle" x="490.72" y="-391.5" font-family="Courier,monospace" font-size="10.00" fill="#000000">TRABALHA_EM</text>
</g>
<!-- FUNCIONARIO&#45;&#45;TRABALHA_EM -->
<g id="edge48" class="edge">
<title>FUNCIONARIO&#45;&#45;TRABALHA_EM</title>
<path fill="none" stroke="#000000" d="M350.9386,-317.1837C367.2434,-332.163 392.0257,-353.124 416.628,-367 429.3874,-374.1965 444.4245,-380.094 457.6062,-384.5212"/>
<text text-anchor="middle" x="395.128" y="-357" font-family="Courier,monospace" font-size="10.00" fill="#000000">N</text>
</g>
<!-- VENDE -->
<g id="node53" class="node">
<title>VENDE</title>
<polygon fill="#ffffff" stroke="#000000" points="490.72,-682 451.4651,-664 490.72,-646 529.975,-664 490.72,-682"/>
<text text-anchor="middle" x="490.72" y="-661.5" font-family="Courier,monospace" font-size="10.00" fill="#000000">VENDE</text>
</g>
<!-- FUNCIONARIO&#45;&#45;VENDE -->
<g id="edge52" class="edge">
<title>FUNCIONARIO&#45;&#45;VENDE</title>
<path fill="none" stroke="#000000" d="M336.2018,-317.3853C351.5075,-386.1578 405.2771,-624.9446 416.628,-637 428.1717,-649.2602 445.7268,-655.9721 460.8518,-659.637"/>
<text text-anchor="middle" x="395.128" y="-577" font-family="Courier,monospace" font-size="10.00" fill="#000000">M</text>
</g>
<!-- GERE -->
<g id="node54" class="node">
<title>GERE</title>
<polygon fill="#ffffff" stroke="#000000" points="490.72,-628 456.4549,-610 490.72,-592 524.9851,-610 490.72,-628"/>
<text text-anchor="middle" x="490.72" y="-607.5" font-family="Courier,monospace" font-size="10.00" fill="#000000">GERE</text>
</g>
<!-- FUNCIONARIO&#45;&#45;GERE -->
<g id="edge54" class="edge">
<title>FUNCIONARIO&#45;&#45;GERE</title>
<path fill="none" stroke="#000000" d="M336.579,-317.3869C351.173,-377.1029 397.7185,-562.9152 416.628,-583 428.8281,-595.9584 447.7439,-602.7185 463.4086,-606.2339"/>
<text text-anchor="middle" x="395.128" y="-541" font-family="Courier,monospace" font-size="10.00" fill="#000000">1</text>
</g>
<!-- FUNCIONARIO__IdFuncionario_ -->
<g id="node24" class="node">
<title>FUNCIONARIO__IdFuncionario_</title>
<ellipse fill="#ffffff" stroke="#000000" cx="190.641" cy="-450" rx="62.9739" ry="18"/>
<text text-anchor="middle" x="190.641" y="-447.5" font-family="Courier,monospace" font-size="10.00" fill="#000000">_IdFuncionario_</text>
</g>
<!-- FUNCIONARIO__IdFuncionario_&#45;&#45;FUNCIONARIO -->
<g id="edge20" class="edge">
<title>FUNCIONARIO__IdFuncionario_&#45;&#45;FUNCIONARIO</title>
<path fill="none" stroke="#000000" d="M232.3647,-436.3499C239.9233,-432.7399 247.3793,-428.3242 253.628,-423 288.5366,-393.2555 313.1642,-344.0355 324.7101,-317.4326"/>
</g>
<!-- FUNCIONARIO_Nome -->
<g id="node25" class="node">
<title>FUNCIONARIO_Nome</title>
<ellipse fill="#ffffff" stroke="#000000" cx="190.641" cy="-396" rx="27" ry="18"/>
<text text-anchor="middle" x="190.641" y="-393.5" font-family="Courier,monospace" font-size="10.00" fill="#000000">Nome</text>
</g>
<!-- FUNCIONARIO_Nome&#45;&#45;FUNCIONARIO -->
<g id="edge21" class="edge">
<title>FUNCIONARIO_Nome&#45;&#45;FUNCIONARIO</title>
<path fill="none" stroke="#000000" d="M214.884,-387.7245C226.9891,-383.075 241.5819,-376.6634 253.628,-369 276.8918,-354.2001 300.023,-332.5054 315.0841,-317.1987"/>
</g>
<!-- FUNCIONARIO_NumCC -->
<g id="node26" class="node">
<title>FUNCIONARIO_NumCC</title>
<ellipse fill="#ffffff" stroke="#000000" cx="190.641" cy="-342" rx="27.8353" ry="18"/>
<text text-anchor="middle" x="190.641" y="-339.5" font-family="Courier,monospace" font-size="10.00" fill="#000000">NumCC</text>
</g>
<!-- FUNCIONARIO_NumCC&#45;&#45;FUNCIONARIO -->
<g id="edge22" class="edge">
<title>FUNCIONARIO_NumCC&#45;&#45;FUNCIONARIO</title>
<path fill="none" stroke="#000000" d="M215.9361,-334.3125C236.6023,-328.0317 266.2422,-319.0237 290.4126,-311.6779"/>
</g>
<!-- FUNCIONARIO_DataNascimento -->
<g id="node27" class="node">
<title>FUNCIONARIO_DataNascimento</title>
<ellipse fill="#ffffff" stroke="#000000" cx="190.641" cy="-288" rx="59.4099" ry="18"/>
<text text-anchor="middle" x="190.641" y="-285.5" font-family="Courier,monospace" font-size="10.00" fill="#000000">DataNascimento</text>
</g>
<!-- FUNCIONARIO_DataNascimento&#45;&#45;FUNCIONARIO -->
<g id="edge23" class="edge">
<title>FUNCIONARIO_DataNascimento&#45;&#45;FUNCIONARIO</title>
<path fill="none" stroke="#000000" d="M248.5974,-292.5059C262.6395,-293.5976 277.3768,-294.7433 290.4961,-295.7633"/>
</g>
<!-- FUNCIONARIO_Email -->
<g id="node28" class="node">
<title>FUNCIONARIO_Email</title>
<ellipse fill="#ffffff" stroke="#000000" cx="190.641" cy="-234" rx="34.9638" ry="18"/>
<text text-anchor="middle" x="190.641" y="-231.5" font-family="Courier,monospace" font-size="10.00" fill="#000000">Email ?</text>
</g>
<!-- FUNCIONARIO_Email&#45;&#45;FUNCIONARIO -->
<g id="edge24" class="edge">
<title>FUNCIONARIO_Email&#45;&#45;FUNCIONARIO</title>
<path fill="none" stroke="#000000" d="M217.7334,-245.292C228.9001,-250.0295 241.9371,-255.668 253.628,-261 267.4041,-267.283 282.3958,-274.4558 295.5513,-280.8644"/>
</g>
<!-- FUNCIONARIO_Departamento -->
<g id="node29" class="node">
<title>FUNCIONARIO_Departamento</title>
<ellipse fill="#ffffff" stroke="#000000" cx="190.641" cy="-180" rx="52.2822" ry="18"/>
<text text-anchor="middle" x="190.641" y="-177.5" font-family="Courier,monospace" font-size="10.00" fill="#000000">Departamento</text>
</g>
<!-- FUNCIONARIO_Departamento&#45;&#45;FUNCIONARIO -->
<g id="edge25" class="edge">
<title>FUNCIONARIO_Departamento&#45;&#45;FUNCIONARIO</title>
<path fill="none" stroke="#000000" d="M228.1512,-192.7355C236.9383,-196.6035 245.9635,-201.3565 253.628,-207 281.8634,-227.7904 306.6663,-260.6066 320.4994,-280.9113"/>
</g>
<!-- FUNCIONARIO_Supervisor -->
<g id="node30" class="node">
<title>FUNCIONARIO_Supervisor</title>
<ellipse fill="#ffffff" stroke="#000000" cx="190.641" cy="-126" rx="52.2822" ry="18"/>
<text text-anchor="middle" x="190.641" y="-123.5" font-family="Courier,monospace" font-size="10.00" fill="#000000">Supervisor ?</text>
</g>
<!-- FUNCIONARIO_Supervisor&#45;&#45;FUNCIONARIO -->
<g id="edge26" class="edge">
<title>FUNCIONARIO_Supervisor&#45;&#45;FUNCIONARIO</title>
<path fill="none" stroke="#000000" d="M230.0491,-138.0691C238.4794,-141.9073 246.8703,-146.8145 253.628,-153 293.3254,-189.336 316.9137,-250.4907 326.7454,-280.8172"/>
</g>
<!-- FUNCIONARIO_Salario -->
<g id="node31" class="node">
<title>FUNCIONARIO_Salario</title>
<ellipse fill="none" stroke="#000000" stroke-dasharray="5,2" cx="190.641" cy="-72" rx="34.9638" ry="18"/>
<text text-anchor="middle" x="190.641" y="-69.5" font-family="Courier,monospace" font-size="10.00" fill="#000000">Salario</text>
</g>
<!-- FUNCIONARIO_Salario&#45;&#45;FUNCIONARIO -->
<g id="edge27" class="edge">
<title>FUNCIONARIO_Salario&#45;&#45;FUNCIONARIO</title>
<path fill="none" stroke="#000000" d="M222.1031,-79.9768C233.2354,-84.1126 245.0978,-90.2017 253.628,-99 304.9081,-151.8919 323.7868,-242.2109 329.7372,-280.7275"/>
</g>
<!-- FUNCIONARIO_HorasTrabalho -->
<g id="node32" class="node">
<title>FUNCIONARIO_HorasTrabalho</title>
<ellipse fill="#ffffff" stroke="#000000" cx="190.641" cy="-18" rx="55.8461" ry="18"/>
<text text-anchor="middle" x="190.641" y="-15.5" font-family="Courier,monospace" font-size="10.00" fill="#000000">HorasTrabalho</text>
</g>
<!-- FUNCIONARIO_HorasTrabalho&#45;&#45;FUNCIONARIO -->
<g id="edge28" class="edge">
<title>FUNCIONARIO_HorasTrabalho&#45;&#45;FUNCIONARIO</title>
<path fill="none" stroke="#000000" d="M232.6026,-29.9259C240.4082,-33.7111 247.8976,-38.6326 253.628,-45 286.0469,-81.0231 318.1022,-228.8656 328.5753,-280.8334"/>
</g>
<!-- FUNCIONARIO_Gere -->
<g id="node33" class="node">
<title>FUNCIONARIO_Gere</title>
<ellipse fill="#ffffff" stroke="#000000" cx="190.641" cy="-566" rx="31.3996" ry="18"/>
<text text-anchor="middle" x="190.641" y="-563.5" font-family="Courier,monospace" font-size="10.00" fill="#000000">Gere ?</text>
</g>
<!-- FUNCIONARIO_Gere&#45;&#45;FUNCIONARIO -->
<g id="edge29" class="edge">
<title>FUNCIONARIO_Gere&#45;&#45;FUNCIONARIO</title>
<path fill="none" stroke="#000000" d="M219.7921,-559.2042C231.6879,-555.114 244.7136,-548.7438 253.628,-539 313.6987,-473.3399 327.8617,-360.9008 331.1514,-317.1582"/>
</g>
<!-- FUNCIONARIO_NumTelemovel -->
<g id="node34" class="node">
<title>FUNCIONARIO_NumTelemovel</title>
<ellipse fill="#ffffff" stroke="#000000" cx="190.641" cy="-508" rx="52.2899" ry="18"/>
<ellipse fill="none" stroke="#000000" cx="190.641" cy="-508" rx="56.2822" ry="22"/>
<text text-anchor="middle" x="190.641" y="-505.5" font-family="Courier,monospace" font-size="10.00" fill="#000000">NumTelemovel</text>
</g>
<!-- FUNCIONARIO_NumTelemovel&#45;&#45;FUNCIONARIO -->
<g id="edge30" class="edge">
<title>FUNCIONARIO_NumTelemovel&#45;&#45;FUNCIONARIO</title>
<path fill="none" stroke="#000000" d="M232.0709,-492.7936C239.9151,-488.5573 247.5546,-483.334 253.628,-477 298.8593,-429.8276 320.5624,-352.2711 328.4637,-317.2133"/>
</g>
<!-- FORNECEDOR -->
<g id="node35" class="node">
<title>FORNECEDOR</title>
<polygon fill="#ffffff" stroke="#000000" points="370.628,-1132 293.628,-1132 293.628,-1096 370.628,-1096 370.628,-1132"/>
<text text-anchor="middle" x="332.128" y="-1111.5" font-family="Courier,monospace" font-size="10.00" fill="#000000">FORNECEDOR</text>
</g>
<!-- FORNECE -->
<g id="node48" class="node">
<title>FORNECE</title>
<polygon fill="#ffffff" stroke="#000000" points="490.72,-1104 441.4853,-1086 490.72,-1068 539.9547,-1086 490.72,-1104"/>
<text text-anchor="middle" x="490.72" y="-1083.5" font-family="Courier,monospace" font-size="10.00" fill="#000000">FORNECE</text>
</g>
<!-- FORNECEDOR&#45;&#45;FORNECE -->
<g id="edge42" class="edge">
<title>FORNECEDOR&#45;&#45;FORNECE</title>
<path fill="none" stroke="#000000" d="M370.5762,-1105.1809C397.0778,-1100.5019 431.8295,-1094.3664 457.0741,-1089.9094"/>
<path fill="none" stroke="transparent" d="M370.9239,-1107.1504C397.4256,-1102.4715 432.1772,-1096.3359 457.4218,-1091.8789"/>
<path fill="none" stroke="#000000" d="M371.2717,-1109.12C397.7733,-1104.441 432.525,-1098.3055 457.7696,-1093.8485"/>
<text text-anchor="middle" x="395.128" y="-1106" font-family="Courier,monospace" font-size="10.00" fill="#000000">M</text>
</g>
<!-- FORNECEDOR__IdEmpresa_ -->
<g id="node36" class="node">
<title>FORNECEDOR__IdEmpresa_</title>
<ellipse fill="#ffffff" stroke="#000000" cx="190.641" cy="-1276" rx="48.7185" ry="18"/>
<text text-anchor="middle" x="190.641" y="-1273.5" font-family="Courier,monospace" font-size="10.00" fill="#000000">_IdEmpresa_</text>
</g>
<!-- FORNECEDOR__IdEmpresa_&#45;&#45;FORNECEDOR -->
<g id="edge31" class="edge">
<title>FORNECEDOR__IdEmpresa_&#45;&#45;FORNECEDOR</title>
<path fill="none" stroke="#000000" d="M228.2559,-1264.4976C237.2348,-1260.5601 246.3226,-1255.4662 253.628,-1249 290.9828,-1215.9363 315.1933,-1160.6605 325.8569,-1132.1832"/>
</g>
<!-- FORNECEDOR_NomeEmpresa -->
<g id="node37" class="node">
<title>FORNECEDOR_NomeEmpresa</title>
<ellipse fill="#ffffff" stroke="#000000" cx="190.641" cy="-1222" rx="48.7185" ry="18"/>
<text text-anchor="middle" x="190.641" y="-1219.5" font-family="Courier,monospace" font-size="10.00" fill="#000000">NomeEmpresa</text>
</g>
<!-- FORNECEDOR_NomeEmpresa&#45;&#45;FORNECEDOR -->
<g id="edge32" class="edge">
<title>FORNECEDOR_NomeEmpresa&#45;&#45;FORNECEDOR</title>
<path fill="none" stroke="#000000" d="M226.2581,-1209.6302C235.5566,-1205.6387 245.2987,-1200.7354 253.628,-1195 279.4344,-1177.2303 303.6468,-1150.0321 318.1771,-1132.1323"/>
</g>
<!-- FORNECEDOR_IdProduto -->
<g id="node38" class="node">
<title>FORNECEDOR_IdProduto</title>
<ellipse fill="#ffffff" stroke="#000000" cx="190.641" cy="-1168" rx="41.5911" ry="18"/>
<text text-anchor="middle" x="190.641" y="-1165.5" font-family="Courier,monospace" font-size="10.00" fill="#000000">IdProduto</text>
</g>
<!-- FORNECEDOR_IdProduto&#45;&#45;FORNECEDOR -->
<g id="edge33" class="edge">
<title>FORNECEDOR_IdProduto&#45;&#45;FORNECEDOR</title>
<path fill="none" stroke="#000000" d="M222.0416,-1156.0156C243.1274,-1147.968 271.0507,-1137.3108 293.4982,-1128.7435"/>
</g>
<!-- FORNECEDOR_NomeProduto -->
<g id="node39" class="node">
<title>FORNECEDOR_NomeProduto</title>
<ellipse fill="#ffffff" stroke="#000000" cx="190.641" cy="-1114" rx="48.7185" ry="18"/>
<text text-anchor="middle" x="190.641" y="-1111.5" font-family="Courier,monospace" font-size="10.00" fill="#000000">NomeProduto</text>
</g>
<!-- FORNECEDOR_NomeProduto&#45;&#45;FORNECEDOR -->
<g id="edge34" class="edge">
<title>FORNECEDOR_NomeProduto&#45;&#45;FORNECEDOR</title>
<path fill="none" stroke="#000000" d="M239.7292,-1114C257.2883,-1114 276.8173,-1114 293.3813,-1114"/>
</g>
<!-- FORNECEDOR_Custo -->
<g id="node40" class="node">
<title>FORNECEDOR_Custo</title>
<ellipse fill="#ffffff" stroke="#000000" cx="190.641" cy="-1060" rx="27.8353" ry="18"/>
<text text-anchor="middle" x="190.641" y="-1057.5" font-family="Courier,monospace" font-size="10.00" fill="#000000">Custo</text>
</g>
<!-- FORNECEDOR_Custo&#45;&#45;FORNECEDOR -->
<g id="edge35" class="edge">
<title>FORNECEDOR_Custo&#45;&#45;FORNECEDOR</title>
<path fill="none" stroke="#000000" d="M214.6424,-1069.1604C236.2449,-1077.4052 268.373,-1089.6672 293.5741,-1099.2855"/>
</g>
<!-- FORNECEDOR_Comissao -->
<g id="node41" class="node">
<title>FORNECEDOR_Comissao</title>
<ellipse fill="#ffffff" stroke="#000000" cx="190.641" cy="-1006" rx="38.0276" ry="18"/>
<text text-anchor="middle" x="190.641" y="-1003.5" font-family="Courier,monospace" font-size="10.00" fill="#000000">Comissao</text>
</g>
<!-- FORNECEDOR_Comissao&#45;&#45;FORNECEDOR -->
<g id="edge36" class="edge">
<title>FORNECEDOR_Comissao&#45;&#45;FORNECEDOR</title>
<path fill="none" stroke="#000000" d="M222.0296,-1016.6026C232.5436,-1020.8809 244.0248,-1026.3875 253.628,-1033 279.4344,-1050.7697 303.6468,-1077.9679 318.1771,-1095.8677"/>
</g>
<!-- ENCOMENDAS -->
<g id="node42" class="node">
<title>ENCOMENDAS</title>
<polygon fill="#ffffff" stroke="#000000" points="690.8121,-277 613.8121,-277 613.8121,-241 690.8121,-241 690.8121,-277"/>
<text text-anchor="middle" x="652.3121" y="-256.5" font-family="Courier,monospace" font-size="10.00" fill="#000000">ENCOMENDAS</text>
</g>
<!-- ENCOMENDAS__NumCC_ -->
<g id="node43" class="node">
<title>ENCOMENDAS__NumCC_</title>
<ellipse fill="#ffffff" stroke="#000000" cx="490.72" cy="-286" rx="34.9638" ry="18"/>
<text text-anchor="middle" x="490.72" y="-283.5" font-family="Courier,monospace" font-size="10.00" fill="#000000">_NumCC_</text>
</g>
<!-- ENCOMENDAS__NumCC_&#45;&#45;ENCOMENDAS -->
<g id="edge37" class="edge">
<title>ENCOMENDAS__NumCC_&#45;&#45;ENCOMENDAS</title>
<path fill="none" stroke="#000000" d="M523.8105,-280.471C549.8492,-276.1203 586.1869,-270.0487 613.5795,-265.4717"/>
</g>
<!-- ENCOMENDAS_IdEmpresa -->
<g id="node44" class="node">
<title>ENCOMENDAS_IdEmpresa</title>
<ellipse fill="#ffffff" stroke="#000000" cx="490.72" cy="-232" rx="41.5911" ry="18"/>
<text text-anchor="middle" x="490.72" y="-229.5" font-family="Courier,monospace" font-size="10.00" fill="#000000">IdEmpresa</text>
</g>
<!-- ENCOMENDAS_IdEmpresa&#45;&#45;ENCOMENDAS -->
<g id="edge38" class="edge">
<title>ENCOMENDAS_IdEmpresa&#45;&#45;ENCOMENDAS</title>
<path fill="none" stroke="#000000" d="M529.837,-238.5359C555.2433,-242.781 588.2211,-248.2912 613.5554,-252.5242"/>
</g>
<!-- ENCOMENDAS_IdProduto -->
<g id="node45" class="node">
<title>ENCOMENDAS_IdProduto</title>
<ellipse fill="#ffffff" stroke="#000000" cx="490.72" cy="-178" rx="41.5911" ry="18"/>
<text text-anchor="middle" x="490.72" y="-175.5" font-family="Courier,monospace" font-size="10.00" fill="#000000">IdProduto</text>
</g>
<!-- ENCOMENDAS_IdProduto&#45;&#45;ENCOMENDAS -->
<g id="edge39" class="edge">
<title>ENCOMENDAS_IdProduto&#45;&#45;ENCOMENDAS</title>
<path fill="none" stroke="#000000" d="M524.5114,-188.6862C537.368,-193.1714 551.9986,-198.7915 564.8121,-205 586.178,-215.3523 608.9607,-229.5232 625.9212,-240.7507"/>
</g>
<!-- ENCOMENDAS_Quantidade -->
<g id="node46" class="node">
<title>ENCOMENDAS_Quantidade</title>
<ellipse fill="#ffffff" stroke="#000000" cx="490.72" cy="-124" rx="45.1548" ry="18"/>
<text text-anchor="middle" x="490.72" y="-121.5" font-family="Courier,monospace" font-size="10.00" fill="#000000">Quantidade</text>
</g>
<!-- ENCOMENDAS_Quantidade&#45;&#45;ENCOMENDAS -->
<g id="edge40" class="edge">
<title>ENCOMENDAS_Quantidade&#45;&#45;ENCOMENDAS</title>
<path fill="none" stroke="#000000" d="M529.2117,-133.6423C541.2912,-137.7809 554.2241,-143.4465 564.8121,-151 599.1905,-175.5257 627.4559,-216.9886 641.901,-240.7715"/>
</g>
<!-- ENCOMENDAS_Custo -->
<g id="node47" class="node">
<title>ENCOMENDAS_Custo</title>
<ellipse fill="#ffffff" stroke="#000000" cx="490.72" cy="-340" rx="27.8353" ry="18"/>
<text text-anchor="middle" x="490.72" y="-337.5" font-family="Courier,monospace" font-size="10.00" fill="#000000">Custo</text>
</g>
<!-- ENCOMENDAS_Custo&#45;&#45;ENCOMENDAS -->
<g id="edge41" class="edge">
<title>ENCOMENDAS_Custo&#45;&#45;ENCOMENDAS</title>
<path fill="none" stroke="#000000" d="M515.9383,-332.2309C530.5187,-327.3912 549.0417,-320.6412 564.8121,-313 586.178,-302.6477 608.9607,-288.4768 625.9212,-277.2493"/>
</g>
<!-- FORNECE&#45;&#45;PRODUTO -->
<g id="edge43" class="edge">
<title>FORNECE&#45;&#45;PRODUTO</title>
<path fill="none" stroke="#000000" d="M505.0009,-1072.0599C520.9667,-1058.8006 545.9916,-1036.4671 563.2211,-1013.7881 599.4125,-966.3534 629.5324,-901.3945 642.9423,-870.3071"/>
<path fill="none" stroke="transparent" d="M506.2788,-1073.5984C522.2984,-1060.2928 547.3233,-1037.9593 564.8121,-1015 601.2269,-967.1947 631.3468,-902.2358 644.7787,-871.0993"/>
<path fill="none" stroke="#000000" d="M507.5567,-1075.137C523.6301,-1061.785 548.6549,-1039.4515 566.4031,-1016.2119 603.0414,-968.036 633.1612,-903.0771 646.6151,-871.8915"/>
<text text-anchor="middle" x="586.3121" y="-989" font-family="Courier,monospace" font-size="10.00" fill="#000000">N</text>
</g>
<!-- COMPRA&#45;&#45;PRODUTO -->
<g id="edge45" class="edge">
<title>COMPRA&#45;&#45;PRODUTO</title>
<path fill="none" stroke="#000000" d="M518.6336,-979.6044C533.0446,-975.4157 550.5092,-968.8289 563.6506,-959.3719 597.5379,-935.3478 625.8034,-893.8849 640.1916,-870.1902"/>
<path fill="none" stroke="transparent" d="M519.1926,-981.5247C533.7504,-977.287 551.2149,-970.7003 564.8121,-961 599.1905,-936.4743 627.4559,-895.0114 641.901,-871.2285"/>
<path fill="none" stroke="#000000" d="M519.7516,-983.445C534.4562,-979.1583 551.9207,-972.5716 565.9736,-962.6281 600.843,-937.6009 629.1085,-896.138 643.6104,-872.2667"/>
<text text-anchor="middle" x="586.3121" y="-947" font-family="Courier,monospace" font-size="10.00" fill="#000000">N</text>
</g>
<!-- SUPERVISIONA&#45;&#45;FUNCIONARIO -->
<g id="edge47" class="edge">
<title>SUPERVISIONA&#45;&#45;FUNCIONARIO</title>
<path fill="none" stroke="#000000" d="M454.2619,-79.1921C441.6631,-83.3983 427.8933,-89.2201 416.628,-97 402.6256,-106.6702 400.1035,-111.2438 391.628,-126 361.5717,-178.3293 343.3551,-248.278 335.9599,-280.8671"/>
<text text-anchor="middle" x="395.128" y="-129" font-family="Courier,monospace" font-size="10.00" fill="#000000">N</text>
</g>
<!-- TRABALHA_EM&#45;&#45;DEPARTAMENTO -->
<g id="edge49" class="edge">
<title>TRABALHA_EM&#45;&#45;DEPARTAMENTO</title>
<path fill="none" stroke="#000000" d="M548.1204,-390.9299C562.7462,-392.5719 577.7296,-396.6048 589.8121,-405 626.0422,-430.1734 642.4122,-482.7209 648.8022,-510.6425"/>
<text text-anchor="middle" x="586.3121" y="-408" font-family="Courier,monospace" font-size="10.00" fill="#000000">1</text>
</g>
<!-- ENCOMENDA&#45;&#45;ENCOMENDAS -->
<g id="edge51" class="edge">
<title>ENCOMENDA&#45;&#45;ENCOMENDAS</title>
<path fill="none" stroke="#000000" d="M532.5385,-440.7722C551.6641,-436.4951 573.6895,-428.5691 588.4457,-414.5396 628.6671,-377.3967 643.3493,-309.1027 648.168,-276.7802"/>
<path fill="none" stroke="transparent" d="M532.9766,-442.7237C552.3413,-438.3769 574.3667,-430.451 589.8121,-416 630.6225,-377.817 645.3046,-309.5231 650.1461,-277.0754"/>
<path fill="none" stroke="#000000" d="M533.4146,-444.6751C553.0185,-440.2588 575.0439,-432.3328 591.1785,-417.4604 632.5778,-378.2374 647.2599,-309.9434 652.1242,-277.3705"/>
<text text-anchor="middle" x="586.3121" y="-424" font-family="Courier,monospace" font-size="10.00" fill="#000000">N</text>
</g>
<!-- VENDE&#45;&#45;PRODUTO -->
<g id="edge53" class="edge">
<title>VENDE&#45;&#45;PRODUTO</title>
<path fill="none" stroke="#000000" d="M519.4016,-667.2511C534.5923,-671.2389 552.5608,-677.9384 566.1196,-689.4866 613.0113,-730.3285 638.9942,-801.127 649.1813,-834.3657"/>
<path fill="none" stroke="transparent" d="M518.8951,-669.1859C533.8936,-673.1129 551.862,-679.8124 564.8121,-691 611.1338,-731.0175 637.1166,-801.8161 647.269,-834.9516"/>
<path fill="none" stroke="#000000" d="M518.3885,-671.1207C533.1949,-674.9869 551.1633,-681.6864 563.5046,-692.5134 609.2562,-731.7066 635.2391,-802.5052 645.3568,-835.5375"/>
<text text-anchor="middle" x="586.3121" y="-719" font-family="Courier,monospace" font-size="10.00" fill="#000000">N</text>
</g>
<!-- GERE&#45;&#45;DEPARTAMENTO -->
<g id="edge55" class="edge">
<title>GERE&#45;&#45;DEPARTAMENTO</title>
<path fill="none" stroke="#000000" d="M511.977,-601.4281C526.936,-596.5566 547.138,-589.3543 563.94,-581.2001 585.1216,-570.9494 607.9044,-556.7785 624.8172,-545.5816"/>
<path fill="none" stroke="transparent" d="M512.5964,-603.3297C527.6077,-598.4404 547.8096,-591.2381 564.8121,-583 586.178,-572.6477 608.9607,-558.4768 625.9212,-547.2493"/>
<path fill="none" stroke="#000000" d="M513.2158,-605.2314C528.2793,-600.3243 548.4813,-593.122 565.6842,-584.7999 587.2343,-574.346 610.0171,-560.1751 627.0252,-548.917"/>
<text text-anchor="middle" x="586.3121" y="-575" font-family="Courier,monospace" font-size="10.00" fill="#000000">1</text>
</g>
</g>
</svg>
