<?xml version="1.0" encoding="UTF-8" standalone="no"?>
<!DOCTYPE svg PUBLIC "-//W3C//DTD SVG 1.1//EN"
 "http://www.w3.org/Graphics/SVG/1.1/DTD/svg11.dtd">
<!-- Generated by graphviz version 2.40.1 (20161225.0304)
 -->
<!-- Title: %3 Pages: 1 -->
<svg width="530pt" height="629pt"
 viewBox="0.00 0.00 530.00 629.00" xmlns="http://www.w3.org/2000/svg" xmlns:xlink="http://www.w3.org/1999/xlink">
<g id="graph0" class="graph" transform="scale(1 1) rotate(0) translate(4 625)">
<title>%3</title>
<polygon fill="#ffffff" stroke="transparent" points="-4,4 -4,-625 526,-625 526,4 -4,4"/>
<!-- CLIENTE -->
<g id="node1" class="node">
<title>CLIENTE</title>
<polygon fill="#ffffff" stroke="transparent" points="345,-290.5 207,-290.5 207,-180.5 345,-180.5 345,-290.5"/>
<polygon fill="none" stroke="#000000" points="215,-269.5 215,-286.5 337,-286.5 337,-269.5 215,-269.5"/>
<text text-anchor="start" x="218" y="-276.5" font-family="Courier,monospace" font-weight="bold" font-size="10.00" fill="#000000">CLIENTE</text>
<polygon fill="none" stroke="#000000" points="215,-252.5 215,-269.5 337,-269.5 337,-252.5 215,-252.5"/>
<text text-anchor="start" x="218" y="-259.5" font-family="Courier,monospace" font-size="10.00" fill="#000000">NumCC </text>
<text text-anchor="start" x="255" y="-259.5" font-family="Courier,monospace" font-style="italic" font-size="10.00" fill="#000000">int</text>
<polygon fill="none" stroke="#000000" points="215,-235.5 215,-252.5 337,-252.5 337,-235.5 215,-235.5"/>
<text text-anchor="start" x="218" y="-242.5" font-family="Courier,monospace" font-size="10.00" fill="#000000">Nome </text>
<text text-anchor="start" x="249" y="-242.5" font-family="Courier,monospace" font-style="italic" font-size="10.00" fill="#000000">varchar</text>
<polygon fill="none" stroke="#000000" points="215,-218.5 215,-235.5 337,-235.5 337,-218.5 215,-218.5"/>
<text text-anchor="start" x="218" y="-225.5" font-family="Courier,monospace" font-size="10.00" fill="#000000">DataNascimento </text>
<text text-anchor="start" x="309" y="-225.5" font-family="Courier,monospace" font-style="italic" font-size="10.00" fill="#000000">date</text>
<polygon fill="none" stroke="#000000" points="215,-201.5 215,-218.5 337,-218.5 337,-201.5 215,-201.5"/>
<text text-anchor="start" x="218" y="-208.5" font-family="Courier,monospace" font-size="10.00" fill="#000000">Genero </text>
<text text-anchor="start" x="261" y="-208.5" font-family="Courier,monospace" font-style="italic" font-size="10.00" fill="#000000">enum</text>
<polygon fill="none" stroke="#000000" points="215,-184.5 215,-201.5 337,-201.5 337,-184.5 215,-184.5"/>
<text text-anchor="start" x="218" y="-191.5" font-family="Courier,monospace" font-size="10.00" fill="#000000">Email </text>
<text text-anchor="start" x="255" y="-191.5" font-family="Courier,monospace" font-style="italic" font-size="10.00" fill="#000000">varchar</text>
</g>
<!-- DEPARTAMENTO -->
<g id="node2" class="node">
<title>DEPARTAMENTO</title>
<polygon fill="#ffffff" stroke="transparent" points="168,-506 0,-506 0,-447 168,-447 168,-506"/>
<polygon fill="none" stroke="#000000" points="8,-484.5 8,-501.5 160,-501.5 160,-484.5 8,-484.5"/>
<text text-anchor="start" x="11" y="-491.5" font-family="Courier,monospace" font-weight="bold" font-size="10.00" fill="#000000">DEPARTAMENTO</text>
<polygon fill="none" stroke="#000000" points="8,-467.5 8,-484.5 160,-484.5 160,-467.5 8,-467.5"/>
<text text-anchor="start" x="11" y="-474.5" font-family="Courier,monospace" font-size="10.00" fill="#000000">NomeDepartamento </text>
<text text-anchor="start" x="114" y="-474.5" font-family="Courier,monospace" font-style="italic" font-size="10.00" fill="#000000">varchar</text>
<polygon fill="none" stroke="#000000" points="8,-450.5 8,-467.5 160,-467.5 160,-450.5 8,-450.5"/>
<text text-anchor="start" x="11" y="-457.5" font-family="Courier,monospace" text-decoration="underline" font-size="10.00" fill="#000000">Gestor</text>
<text text-anchor="start" x="48" y="-457.5" font-family="Courier,monospace" font-size="10.00" fill="#000000"> </text>
<text text-anchor="start" x="55" y="-457.5" font-family="Courier,monospace" font-style="italic" font-size="10.00" fill="#000000">int</text>
</g>
<!-- FUNCIONARIO -->
<g id="node3" class="node">
<title>FUNCIONARIO</title>
<polygon fill="#ffffff" stroke="transparent" points="348,-620 204,-620 204,-425 348,-425 348,-620"/>
<polygon fill="none" stroke="#000000" points="212,-598.5 212,-615.5 340,-615.5 340,-598.5 212,-598.5"/>
<text text-anchor="start" x="215" y="-605.5" font-family="Courier,monospace" font-weight="bold" font-size="10.00" fill="#000000">FUNCIONARIO</text>
<polygon fill="none" stroke="#000000" points="212,-581.5 212,-598.5 340,-598.5 340,-581.5 212,-581.5"/>
<text text-anchor="start" x="215" y="-588.5" font-family="Courier,monospace" text-decoration="underline" font-size="10.00" fill="#000000">IdFuncionario</text>
<text text-anchor="start" x="294" y="-588.5" font-family="Courier,monospace" font-size="10.00" fill="#000000"> </text>
<text text-anchor="start" x="301" y="-588.5" font-family="Courier,monospace" font-style="italic" font-size="10.00" fill="#000000">int</text>
<polygon fill="none" stroke="#000000" points="212,-564.5 212,-581.5 340,-581.5 340,-564.5 212,-564.5"/>
<text text-anchor="start" x="215" y="-571.5" font-family="Courier,monospace" font-size="10.00" fill="#000000">Nome </text>
<text text-anchor="start" x="246" y="-571.5" font-family="Courier,monospace" font-style="italic" font-size="10.00" fill="#000000">varchar</text>
<polygon fill="none" stroke="#000000" points="212,-547.5 212,-564.5 340,-564.5 340,-547.5 212,-547.5"/>
<text text-anchor="start" x="215" y="-554.5" font-family="Courier,monospace" font-size="10.00" fill="#000000">NumCC </text>
<text text-anchor="start" x="252" y="-554.5" font-family="Courier,monospace" font-style="italic" font-size="10.00" fill="#000000">int</text>
<polygon fill="none" stroke="#000000" points="212,-530.5 212,-547.5 340,-547.5 340,-530.5 212,-530.5"/>
<text text-anchor="start" x="215" y="-537.5" font-family="Courier,monospace" font-size="10.00" fill="#000000">DataNascimento </text>
<text text-anchor="start" x="306" y="-537.5" font-family="Courier,monospace" font-style="italic" font-size="10.00" fill="#000000">date</text>
<polygon fill="none" stroke="#000000" points="212,-513.5 212,-530.5 340,-530.5 340,-513.5 212,-513.5"/>
<text text-anchor="start" x="215" y="-520.5" font-family="Courier,monospace" font-size="10.00" fill="#000000">Email </text>
<text text-anchor="start" x="252" y="-520.5" font-family="Courier,monospace" font-style="italic" font-size="10.00" fill="#000000">varchar</text>
<polygon fill="none" stroke="#000000" points="212,-496.5 212,-513.5 340,-513.5 340,-496.5 212,-496.5"/>
<text text-anchor="start" x="215" y="-503.5" font-family="Courier,monospace" font-size="10.00" fill="#000000">Departamento </text>
<text text-anchor="start" x="294" y="-503.5" font-family="Courier,monospace" font-style="italic" font-size="10.00" fill="#000000">varchar</text>
<polygon fill="none" stroke="#000000" points="212,-479.5 212,-496.5 340,-496.5 340,-479.5 212,-479.5"/>
<text text-anchor="start" x="215" y="-486.5" font-family="Courier,monospace" text-decoration="underline" font-size="10.00" fill="#000000">Supervisor</text>
<text text-anchor="start" x="276" y="-486.5" font-family="Courier,monospace" font-size="10.00" fill="#000000"> </text>
<text text-anchor="start" x="283" y="-486.5" font-family="Courier,monospace" font-style="italic" font-size="10.00" fill="#000000">int</text>
<polygon fill="none" stroke="#000000" points="212,-462.5 212,-479.5 340,-479.5 340,-462.5 212,-462.5"/>
<text text-anchor="start" x="215" y="-469.5" font-family="Courier,monospace" font-size="10.00" fill="#000000">Salario </text>
<text text-anchor="start" x="264" y="-469.5" font-family="Courier,monospace" font-style="italic" font-size="10.00" fill="#000000">int</text>
<polygon fill="none" stroke="#000000" points="212,-445.5 212,-462.5 340,-462.5 340,-445.5 212,-445.5"/>
<text text-anchor="start" x="215" y="-452.5" font-family="Courier,monospace" font-size="10.00" fill="#000000">HorasTrabalho </text>
<text text-anchor="start" x="300" y="-452.5" font-family="Courier,monospace" font-style="italic" font-size="10.00" fill="#000000">int</text>
<polygon fill="none" stroke="#000000" points="212,-428.5 212,-445.5 340,-445.5 340,-428.5 212,-428.5"/>
<text text-anchor="start" x="215" y="-435.5" font-family="Courier,monospace" text-decoration="underline" font-size="10.00" fill="#000000">Gere</text>
<text text-anchor="start" x="240" y="-435.5" font-family="Courier,monospace" font-size="10.00" fill="#000000"> </text>
<text text-anchor="start" x="247" y="-435.5" font-family="Courier,monospace" font-style="italic" font-size="10.00" fill="#000000">varchar</text>
</g>
<!-- DEPARTAMENTO&#45;&gt;FUNCIONARIO -->
<g id="edge1" class="edge">
<title>DEPARTAMENTO:Gestor&#45;&gt;FUNCIONARIO:IdFuncionario</title>
<path fill="none" stroke="#000000" d="M160,-458.5C219.237,-458.5 157.4166,-574.9995 201.9943,-589.1069"/>
<polygon fill="#000000" stroke="#000000" points="201.6129,-592.5875 212,-590.5 202.5782,-585.6543 201.6129,-592.5875"/>
</g>
<!-- FUNCIONARIO&#45;&gt;DEPARTAMENTO -->
<g id="edge3" class="edge">
<title>FUNCIONARIO:Gere&#45;&gt;DEPARTAMENTO:NomeDepartamento</title>
<path fill="none" stroke="#000000" d="M212,-436.5C186.9479,-436.5 187.9657,-465.8286 169.8384,-473.6189"/>
<polygon fill="#000000" stroke="#000000" points="169.1648,-470.1843 160,-475.5 170.4794,-477.0597 169.1648,-470.1843"/>
</g>
<!-- FUNCIONARIO&#45;&gt;FUNCIONARIO -->
<g id="edge2" class="edge">
<title>FUNCIONARIO:Supervisor&#45;&gt;FUNCIONARIO:IdFuncionario</title>
<path fill="none" stroke="#000000" d="M211.9259,-483.367C164.151,-485.0138 116,-498.3516 116,-539 116,-576.7903 157.6179,-590.9756 201.8597,-594.1068"/>
<polygon fill="#000000" stroke="#000000" points="201.7568,-597.6061 211.9259,-594.633 202.1223,-590.6157 201.7568,-597.6061"/>
</g>
<!-- ENCOMENDAS -->
<g id="node4" class="node">
<title>ENCOMENDAS</title>
<polygon fill="#ffffff" stroke="transparent" points="138,-198.5 30,-198.5 30,-88.5 138,-88.5 138,-198.5"/>
<polygon fill="none" stroke="#000000" points="38,-177.5 38,-194.5 130,-194.5 130,-177.5 38,-177.5"/>
<text text-anchor="start" x="41" y="-184.5" font-family="Courier,monospace" font-weight="bold" font-size="10.00" fill="#000000">ENCOMENDAS</text>
<polygon fill="none" stroke="#000000" points="38,-160.5 38,-177.5 130,-177.5 130,-160.5 38,-160.5"/>
<text text-anchor="start" x="41" y="-167.5" font-family="Courier,monospace" text-decoration="underline" font-size="10.00" fill="#000000">NumCC</text>
<text text-anchor="start" x="72" y="-167.5" font-family="Courier,monospace" font-size="10.00" fill="#000000"> </text>
<text text-anchor="start" x="79" y="-167.5" font-family="Courier,monospace" font-style="italic" font-size="10.00" fill="#000000">int</text>
<polygon fill="none" stroke="#000000" points="38,-143.5 38,-160.5 130,-160.5 130,-143.5 38,-143.5"/>
<text text-anchor="start" x="41" y="-150.5" font-family="Courier,monospace" font-size="10.00" fill="#000000">IdEmpresa </text>
<text text-anchor="start" x="102" y="-150.5" font-family="Courier,monospace" font-style="italic" font-size="10.00" fill="#000000">int</text>
<polygon fill="none" stroke="#000000" points="38,-126.5 38,-143.5 130,-143.5 130,-126.5 38,-126.5"/>
<text text-anchor="start" x="41" y="-133.5" font-family="Courier,monospace" font-size="10.00" fill="#000000">IdProduto </text>
<text text-anchor="start" x="102" y="-133.5" font-family="Courier,monospace" font-style="italic" font-size="10.00" fill="#000000">int</text>
<polygon fill="none" stroke="#000000" points="38,-109.5 38,-126.5 130,-126.5 130,-109.5 38,-109.5"/>
<text text-anchor="start" x="41" y="-116.5" font-family="Courier,monospace" font-size="10.00" fill="#000000">Quantidade </text>
<text text-anchor="start" x="108" y="-116.5" font-family="Courier,monospace" font-style="italic" font-size="10.00" fill="#000000">int</text>
<polygon fill="none" stroke="#000000" points="38,-92.5 38,-109.5 130,-109.5 130,-92.5 38,-92.5"/>
<text text-anchor="start" x="41" y="-99.5" font-family="Courier,monospace" font-size="10.00" fill="#000000">Custo </text>
<text text-anchor="start" x="78" y="-99.5" font-family="Courier,monospace" font-style="italic" font-size="10.00" fill="#000000">decimal</text>
</g>
<!-- ENCOMENDAS&#45;&gt;CLIENTE -->
<g id="edge4" class="edge">
<title>ENCOMENDAS:NumCC&#45;&gt;CLIENTE:NumCC</title>
<path fill="none" stroke="#000000" d="M130,-169.5C181.9724,-169.5 162.4672,-249.687 204.9465,-260.3368"/>
<polygon fill="#000000" stroke="#000000" points="204.664,-263.8274 215,-261.5 205.4686,-256.8737 204.664,-263.8274"/>
</g>
<!-- FORNECEDOR -->
<g id="node5" class="node">
<title>FORNECEDOR</title>
<polygon fill="#ffffff" stroke="transparent" points="522,-127 384,-127 384,0 522,0 522,-127"/>
<polygon fill="none" stroke="#000000" points="392,-105.5 392,-122.5 514,-122.5 514,-105.5 392,-105.5"/>
<text text-anchor="start" x="395" y="-112.5" font-family="Courier,monospace" font-weight="bold" font-size="10.00" fill="#000000">FORNECEDOR</text>
<polygon fill="none" stroke="#000000" points="392,-88.5 392,-105.5 514,-105.5 514,-88.5 392,-88.5"/>
<text text-anchor="start" x="395" y="-95.5" font-family="Courier,monospace" text-decoration="underline" font-size="10.00" fill="#000000">IdEmpresa</text>
<text text-anchor="start" x="450" y="-95.5" font-family="Courier,monospace" font-size="10.00" fill="#000000"> </text>
<text text-anchor="start" x="457" y="-95.5" font-family="Courier,monospace" font-style="italic" font-size="10.00" fill="#000000">int</text>
<polygon fill="none" stroke="#000000" points="392,-71.5 392,-88.5 514,-88.5 514,-71.5 392,-71.5"/>
<text text-anchor="start" x="395" y="-78.5" font-family="Courier,monospace" font-size="10.00" fill="#000000">IdProduto </text>
<text text-anchor="start" x="456" y="-78.5" font-family="Courier,monospace" font-style="italic" font-size="10.00" fill="#000000">int</text>
<polygon fill="none" stroke="#000000" points="392,-54.5 392,-71.5 514,-71.5 514,-54.5 392,-54.5"/>
<text text-anchor="start" x="395" y="-61.5" font-family="Courier,monospace" font-size="10.00" fill="#000000">NomeEmpresa </text>
<text text-anchor="start" x="468" y="-61.5" font-family="Courier,monospace" font-style="italic" font-size="10.00" fill="#000000">varchar</text>
<polygon fill="none" stroke="#000000" points="392,-37.5 392,-54.5 514,-54.5 514,-37.5 392,-37.5"/>
<text text-anchor="start" x="395" y="-44.5" font-family="Courier,monospace" font-size="10.00" fill="#000000">NomeProduto </text>
<text text-anchor="start" x="468" y="-44.5" font-family="Courier,monospace" font-style="italic" font-size="10.00" fill="#000000">varchar</text>
<polygon fill="none" stroke="#000000" points="392,-20.5 392,-37.5 514,-37.5 514,-20.5 392,-20.5"/>
<text text-anchor="start" x="395" y="-27.5" font-family="Courier,monospace" font-size="10.00" fill="#000000">Custo </text>
<text text-anchor="start" x="432" y="-27.5" font-family="Courier,monospace" font-style="italic" font-size="10.00" fill="#000000">decimal</text>
<polygon fill="none" stroke="#000000" points="392,-3.5 392,-20.5 514,-20.5 514,-3.5 392,-3.5"/>
<text text-anchor="start" x="395" y="-10.5" font-family="Courier,monospace" font-size="10.00" fill="#000000">Comissao </text>
<text text-anchor="start" x="450" y="-10.5" font-family="Courier,monospace" font-style="italic" font-size="10.00" fill="#000000">decimal</text>
</g>
<!-- ENCOMENDAS&#45;&gt;FORNECEDOR -->
<g id="edge5" class="edge">
<title>ENCOMENDAS:IdEmpresa&#45;&gt;FORNECEDOR:IdEmpresa</title>
<path fill="none" stroke="#000000" d="M130,-152.5C227.2562,-152.5 257.9119,-170.1456 348,-133.5 367.7477,-125.4671 367.5075,-105.3608 382.1276,-99.2737"/>
<polygon fill="#000000" stroke="#000000" points="382.7765,-102.7132 392,-97.5 381.5386,-95.8236 382.7765,-102.7132"/>
</g>
<!-- PRODUTO -->
<g id="node6" class="node">
<title>PRODUTO</title>
<polygon fill="#ffffff" stroke="transparent" points="330,-124.5 222,-124.5 222,-14.5 330,-14.5 330,-124.5"/>
<polygon fill="none" stroke="#000000" points="230,-103.5 230,-120.5 322,-120.5 322,-103.5 230,-103.5"/>
<text text-anchor="start" x="233" y="-110.5" font-family="Courier,monospace" font-weight="bold" font-size="10.00" fill="#000000">PRODUTO</text>
<polygon fill="none" stroke="#000000" points="230,-86.5 230,-103.5 322,-103.5 322,-86.5 230,-86.5"/>
<text text-anchor="start" x="233" y="-93.5" font-family="Courier,monospace" text-decoration="underline" font-size="10.00" fill="#000000">IdProduto</text>
<text text-anchor="start" x="288" y="-93.5" font-family="Courier,monospace" font-size="10.00" fill="#000000"> </text>
<text text-anchor="start" x="295" y="-93.5" font-family="Courier,monospace" font-style="italic" font-size="10.00" fill="#000000">int</text>
<polygon fill="none" stroke="#000000" points="230,-69.5 230,-86.5 322,-86.5 322,-69.5 230,-69.5"/>
<text text-anchor="start" x="233" y="-76.5" font-family="Courier,monospace" font-size="10.00" fill="#000000">Nome </text>
<text text-anchor="start" x="264" y="-76.5" font-family="Courier,monospace" font-style="italic" font-size="10.00" fill="#000000">varchar</text>
<polygon fill="none" stroke="#000000" points="230,-52.5 230,-69.5 322,-69.5 322,-52.5 230,-52.5"/>
<text text-anchor="start" x="233" y="-59.5" font-family="Courier,monospace" font-size="10.00" fill="#000000">Custo </text>
<text text-anchor="start" x="270" y="-59.5" font-family="Courier,monospace" font-style="italic" font-size="10.00" fill="#000000">decimal</text>
<polygon fill="none" stroke="#000000" points="230,-35.5 230,-52.5 322,-52.5 322,-35.5 230,-35.5"/>
<text text-anchor="start" x="233" y="-41.5" font-family="Courier,monospace" font-size="10.00" fill="#000000">Empresa</text>
<polygon fill="none" stroke="#000000" points="230,-18.5 230,-35.5 322,-35.5 322,-18.5 230,-18.5"/>
<text text-anchor="start" x="233" y="-25.5" font-family="Courier,monospace" font-size="10.00" fill="#000000">Quantidade </text>
<text text-anchor="start" x="300" y="-25.5" font-family="Courier,monospace" font-style="italic" font-size="10.00" fill="#000000">int</text>
</g>
<!-- ENCOMENDAS&#45;&gt;PRODUTO -->
<g id="edge6" class="edge">
<title>ENCOMENDAS:IdProduto&#45;&gt;PRODUTO:IdProduto</title>
<path fill="none" stroke="#000000" d="M130,-134.5C173.9779,-134.5 181.3148,-101.3557 219.5675,-96.1769"/>
<polygon fill="#000000" stroke="#000000" points="220.2476,-99.6402 230,-95.5 219.7943,-92.6549 220.2476,-99.6402"/>
</g>
<!-- PRODUTO&#45;&gt;FORNECEDOR -->
<g id="edge10" class="edge">
<title>PRODUTO:Empresa&#45;&gt;FORNECEDOR:IdEmpresa</title>
<path fill="none" stroke="#000000" d="M322,-43.5C357.4553,-43.5 353.9277,-87.4681 381.7691,-96.0556"/>
<polygon fill="#000000" stroke="#000000" points="381.6089,-99.5676 392,-97.5 382.5875,-92.6364 381.6089,-99.5676"/>
</g>
<!-- MORADA -->
<g id="node7" class="node">
<title>MORADA</title>
<polygon fill="#ffffff" stroke="transparent" points="150,-429 18,-429 18,-302 150,-302 150,-429"/>
<polygon fill="none" stroke="#000000" points="26,-407.5 26,-424.5 142,-424.5 142,-407.5 26,-407.5"/>
<text text-anchor="start" x="29" y="-414.5" font-family="Courier,monospace" font-weight="bold" font-size="10.00" fill="#000000">MORADA</text>
<polygon fill="none" stroke="#000000" points="26,-390.5 26,-407.5 142,-407.5 142,-390.5 26,-390.5"/>
<text text-anchor="start" x="29" y="-397.5" font-family="Courier,monospace" text-decoration="underline" font-size="10.00" fill="#000000">NumCC</text>
<text text-anchor="start" x="60" y="-397.5" font-family="Courier,monospace" font-size="10.00" fill="#000000"> </text>
<text text-anchor="start" x="67" y="-397.5" font-family="Courier,monospace" font-style="italic" font-size="10.00" fill="#000000">int</text>
<polygon fill="none" stroke="#000000" points="26,-373.5 26,-390.5 142,-390.5 142,-373.5 26,-373.5"/>
<text text-anchor="start" x="29" y="-380.5" font-family="Courier,monospace" font-size="10.00" fill="#000000">Rua </text>
<text text-anchor="start" x="54" y="-380.5" font-family="Courier,monospace" font-style="italic" font-size="10.00" fill="#000000">varchar</text>
<polygon fill="none" stroke="#000000" points="26,-356.5 26,-373.5 142,-373.5 142,-356.5 26,-356.5"/>
<text text-anchor="start" x="29" y="-363.5" font-family="Courier,monospace" font-size="10.00" fill="#000000">NumRua </text>
<text text-anchor="start" x="72" y="-363.5" font-family="Courier,monospace" font-style="italic" font-size="10.00" fill="#000000">int</text>
<polygon fill="none" stroke="#000000" points="26,-339.5 26,-356.5 142,-356.5 142,-339.5 26,-339.5"/>
<text text-anchor="start" x="29" y="-346.5" font-family="Courier,monospace" font-size="10.00" fill="#000000">Andar </text>
<text text-anchor="start" x="66" y="-346.5" font-family="Courier,monospace" font-style="italic" font-size="10.00" fill="#000000">int</text>
<polygon fill="none" stroke="#000000" points="26,-322.5 26,-339.5 142,-339.5 142,-322.5 26,-322.5"/>
<text text-anchor="start" x="29" y="-329.5" font-family="Courier,monospace" font-size="10.00" fill="#000000">Localidade </text>
<text text-anchor="start" x="96" y="-329.5" font-family="Courier,monospace" font-style="italic" font-size="10.00" fill="#000000">varchar</text>
<polygon fill="none" stroke="#000000" points="26,-305.5 26,-322.5 142,-322.5 142,-305.5 26,-305.5"/>
<text text-anchor="start" x="29" y="-312.5" font-family="Courier,monospace" font-size="10.00" fill="#000000">CodPostal </text>
<text text-anchor="start" x="90" y="-312.5" font-family="Courier,monospace" font-style="italic" font-size="10.00" fill="#000000">varchar</text>
</g>
<!-- MORADA&#45;&gt;CLIENTE -->
<g id="edge7" class="edge">
<title>MORADA:NumCC&#45;&gt;CLIENTE:NumCC</title>
<path fill="none" stroke="#000000" d="M142,-399.5C207.5915,-399.5 152.4036,-276.181 204.7848,-262.693"/>
<polygon fill="#000000" stroke="#000000" points="205.4735,-266.1365 215,-261.5 204.6615,-259.1837 205.4735,-266.1365"/>
</g>
<!-- NUM_TELEFONE -->
<g id="node8" class="node">
<title>NUM_TELEFONE</title>
<polygon fill="#ffffff" stroke="transparent" points="144.5,-621 23.5,-621 23.5,-562 144.5,-562 144.5,-621"/>
<polygon fill="none" stroke="#000000" points="32,-599.5 32,-616.5 137,-616.5 137,-599.5 32,-599.5"/>
<text text-anchor="start" x="35" y="-606.5" font-family="Courier,monospace" font-weight="bold" font-size="10.00" fill="#000000">NUM_TELEFONE</text>
<polygon fill="none" stroke="#000000" points="32,-582.5 32,-599.5 137,-599.5 137,-582.5 32,-582.5"/>
<text text-anchor="start" x="35" y="-589.5" font-family="Courier,monospace" text-decoration="underline" font-size="10.00" fill="#000000">IdFuncionario</text>
<polygon fill="none" stroke="#000000" points="32,-565.5 32,-582.5 137,-582.5 137,-565.5 32,-565.5"/>
<text text-anchor="start" x="35" y="-572.5" font-family="Courier,monospace" text-decoration="underline" font-size="10.00" fill="#000000">NumTelemovel</text>
<text text-anchor="start" x="108" y="-572.5" font-family="Courier,monospace" font-size="10.00" fill="#000000"> </text>
<text text-anchor="start" x="115" y="-572.5" font-family="Courier,monospace" font-style="italic" font-size="10.00" fill="#000000">int</text>
</g>
<!-- NUM_TELEFONE&#45;&gt;FUNCIONARIO -->
<g id="edge8" class="edge">
<title>NUM_TELEFONE:IdFuncionario&#45;&gt;FUNCIONARIO:IdFuncionario</title>
<path fill="none" stroke="#000000" d="M137,-590.5C166.6875,-590.5 176.5447,-590.5 201.8943,-590.5"/>
<polygon fill="#000000" stroke="#000000" points="202,-594.0001 212,-590.5 202,-587.0001 202,-594.0001"/>
</g>
<!-- NUM_TELEMOVEL_CLIENTE -->
<g id="node9" class="node">
<title>NUM_TELEMOVEL_CLIENTE</title>
<polygon fill="#ffffff" stroke="transparent" points="158.5,-284 9.5,-284 9.5,-225 158.5,-225 158.5,-284"/>
<polygon fill="none" stroke="#000000" points="18,-262.5 18,-279.5 151,-279.5 151,-262.5 18,-262.5"/>
<text text-anchor="start" x="21" y="-269.5" font-family="Courier,monospace" font-weight="bold" font-size="10.00" fill="#000000">NUM_TELEMOVEL_CLIENTE</text>
<polygon fill="none" stroke="#000000" points="18,-245.5 18,-262.5 151,-262.5 151,-245.5 18,-245.5"/>
<text text-anchor="start" x="21" y="-252.5" font-family="Courier,monospace" text-decoration="underline" font-size="10.00" fill="#000000">NumCC</text>
<text text-anchor="start" x="52" y="-252.5" font-family="Courier,monospace" font-size="10.00" fill="#000000"> </text>
<text text-anchor="start" x="59" y="-252.5" font-family="Courier,monospace" font-style="italic" font-size="10.00" fill="#000000">int</text>
<polygon fill="none" stroke="#000000" points="18,-228.5 18,-245.5 151,-245.5 151,-228.5 18,-228.5"/>
<text text-anchor="start" x="21" y="-235.5" font-family="Courier,monospace" text-decoration="underline" font-size="10.00" fill="#000000">Num_Telemovel</text>
<text text-anchor="start" x="100" y="-235.5" font-family="Courier,monospace" font-size="10.00" fill="#000000"> </text>
<text text-anchor="start" x="107" y="-235.5" font-family="Courier,monospace" font-style="italic" font-size="10.00" fill="#000000">int</text>
</g>
<!-- NUM_TELEMOVEL_CLIENTE&#45;&gt;CLIENTE -->
<g id="edge9" class="edge">
<title>NUM_TELEMOVEL_CLIENTE:NumCC&#45;&gt;CLIENTE:NumCC</title>
<path fill="none" stroke="#000000" d="M151,-253.5C175.9706,-253.5 184.2495,-259.5704 204.9167,-261.1355"/>
<polygon fill="#000000" stroke="#000000" points="204.88,-264.6363 215,-261.5 205.133,-257.6409 204.88,-264.6363"/>
</g>
</g>
</svg>
