<?xml version="1.0" encoding="UTF-8" standalone="no"?>
<!DOCTYPE svg PUBLIC "-//W3C//DTD SVG 1.1//EN"
 "http://www.w3.org/Graphics/SVG/1.1/DTD/svg11.dtd">
<!-- Generated by graphviz version 2.40.1 (20161225.0304)
 -->
<!-- Title: %3 Pages: 1 -->
<svg width="530pt" height="615pt"
 viewBox="0.00 0.00 530.00 614.50" xmlns="http://www.w3.org/2000/svg" xmlns:xlink="http://www.w3.org/1999/xlink">
<g id="graph0" class="graph" transform="scale(1 1) rotate(0) translate(4 610.5)">
<title>%3</title>
<polygon fill="#ffffff" stroke="transparent" points="-4,4 -4,-610.5 526,-610.5 526,4 -4,4"/>
<!-- CLIENTE -->
<g id="node1" class="node">
<title>CLIENTE</title>
<polygon fill="#ffffff" stroke="transparent" points="345,-276 207,-276 207,-166 345,-166 345,-276"/>
<polygon fill="none" stroke="#000000" points="215,-255 215,-272 337,-272 337,-255 215,-255"/>
<text text-anchor="start" x="218" y="-262" font-family="Courier,monospace" font-weight="bold" font-size="10.00" fill="#000000">CLIENTE</text>
<polygon fill="none" stroke="#000000" points="215,-238 215,-255 337,-255 337,-238 215,-238"/>
<text text-anchor="start" x="218" y="-245" font-family="Courier,monospace" font-size="10.00" fill="#000000">NumCC </text>
<text text-anchor="start" x="255" y="-245" font-family="Courier,monospace" font-style="italic" font-size="10.00" fill="#000000">int</text>
<polygon fill="none" stroke="#000000" points="215,-221 215,-238 337,-238 337,-221 215,-221"/>
<text text-anchor="start" x="218" y="-228" font-family="Courier,monospace" font-size="10.00" fill="#000000">Nome </text>
<text text-anchor="start" x="249" y="-228" font-family="Courier,monospace" font-style="italic" font-size="10.00" fill="#000000">varchar</text>
<polygon fill="none" stroke="#000000" points="215,-204 215,-221 337,-221 337,-204 215,-204"/>
<text text-anchor="start" x="218" y="-211" font-family="Courier,monospace" font-size="10.00" fill="#000000">DataNascimento </text>
<text text-anchor="start" x="309" y="-211" font-family="Courier,monospace" font-style="italic" font-size="10.00" fill="#000000">date</text>
<polygon fill="none" stroke="#000000" points="215,-187 215,-204 337,-204 337,-187 215,-187"/>
<text text-anchor="start" x="218" y="-194" font-family="Courier,monospace" font-size="10.00" fill="#000000">Genero </text>
<text text-anchor="start" x="261" y="-194" font-family="Courier,monospace" font-style="italic" font-size="10.00" fill="#000000">enum</text>
<polygon fill="none" stroke="#000000" points="215,-170 215,-187 337,-187 337,-170 215,-170"/>
<text text-anchor="start" x="218" y="-177" font-family="Courier,monospace" font-size="10.00" fill="#000000">Email </text>
<text text-anchor="start" x="255" y="-177" font-family="Courier,monospace" font-style="italic" font-size="10.00" fill="#000000">varchar</text>
</g>
<!-- DEPARTAMENTO -->
<g id="node2" class="node">
<title>DEPARTAMENTO</title>
<polygon fill="#ffffff" stroke="transparent" points="168,-491.5 0,-491.5 0,-432.5 168,-432.5 168,-491.5"/>
<polygon fill="none" stroke="#000000" points="8,-470 8,-487 160,-487 160,-470 8,-470"/>
<text text-anchor="start" x="11" y="-477" font-family="Courier,monospace" font-weight="bold" font-size="10.00" fill="#000000">DEPARTAMENTO</text>
<polygon fill="none" stroke="#000000" points="8,-453 8,-470 160,-470 160,-453 8,-453"/>
<text text-anchor="start" x="11" y="-460" font-family="Courier,monospace" font-size="10.00" fill="#000000">NomeDepartamento </text>
<text text-anchor="start" x="114" y="-460" font-family="Courier,monospace" font-style="italic" font-size="10.00" fill="#000000">varchar</text>
<polygon fill="none" stroke="#000000" points="8,-436 8,-453 160,-453 160,-436 8,-436"/>
<text text-anchor="start" x="11" y="-443" font-family="Courier,monospace" text-decoration="underline" font-size="10.00" fill="#000000">Gestor</text>
<text text-anchor="start" x="48" y="-443" font-family="Courier,monospace" font-size="10.00" fill="#000000"> </text>
<text text-anchor="start" x="55" y="-443" font-family="Courier,monospace" font-style="italic" font-size="10.00" fill="#000000">int</text>
</g>
<!-- FUNCIONARIO -->
<g id="node3" class="node">
<title>FUNCIONARIO</title>
<polygon fill="#ffffff" stroke="transparent" points="348,-605.5 204,-605.5 204,-410.5 348,-410.5 348,-605.5"/>
<polygon fill="none" stroke="#000000" points="212,-584 212,-601 340,-601 340,-584 212,-584"/>
<text text-anchor="start" x="215" y="-591" font-family="Courier,monospace" font-weight="bold" font-size="10.00" fill="#000000">FUNCIONARIO</text>
<polygon fill="none" stroke="#000000" points="212,-567 212,-584 340,-584 340,-567 212,-567"/>
<text text-anchor="start" x="215" y="-574" font-family="Courier,monospace" text-decoration="underline" font-size="10.00" fill="#000000">IdFuncionario</text>
<text text-anchor="start" x="294" y="-574" font-family="Courier,monospace" font-size="10.00" fill="#000000"> </text>
<text text-anchor="start" x="301" y="-574" font-family="Courier,monospace" font-style="italic" font-size="10.00" fill="#000000">int</text>
<polygon fill="none" stroke="#000000" points="212,-550 212,-567 340,-567 340,-550 212,-550"/>
<text text-anchor="start" x="215" y="-557" font-family="Courier,monospace" font-size="10.00" fill="#000000">Nome </text>
<text text-anchor="start" x="246" y="-557" font-family="Courier,monospace" font-style="italic" font-size="10.00" fill="#000000">varchar</text>
<polygon fill="none" stroke="#000000" points="212,-533 212,-550 340,-550 340,-533 212,-533"/>
<text text-anchor="start" x="215" y="-540" font-family="Courier,monospace" font-size="10.00" fill="#000000">NumCC </text>
<text text-anchor="start" x="252" y="-540" font-family="Courier,monospace" font-style="italic" font-size="10.00" fill="#000000">int</text>
<polygon fill="none" stroke="#000000" points="212,-516 212,-533 340,-533 340,-516 212,-516"/>
<text text-anchor="start" x="215" y="-523" font-family="Courier,monospace" font-size="10.00" fill="#000000">DataNascimento </text>
<text text-anchor="start" x="306" y="-523" font-family="Courier,monospace" font-style="italic" font-size="10.00" fill="#000000">date</text>
<polygon fill="none" stroke="#000000" points="212,-499 212,-516 340,-516 340,-499 212,-499"/>
<text text-anchor="start" x="215" y="-506" font-family="Courier,monospace" font-size="10.00" fill="#000000">Email </text>
<text text-anchor="start" x="252" y="-506" font-family="Courier,monospace" font-style="italic" font-size="10.00" fill="#000000">varchar</text>
<polygon fill="none" stroke="#000000" points="212,-482 212,-499 340,-499 340,-482 212,-482"/>
<text text-anchor="start" x="215" y="-489" font-family="Courier,monospace" font-size="10.00" fill="#000000">Departamento </text>
<text text-anchor="start" x="294" y="-489" font-family="Courier,monospace" font-style="italic" font-size="10.00" fill="#000000">varchar</text>
<polygon fill="none" stroke="#000000" points="212,-465 212,-482 340,-482 340,-465 212,-465"/>
<text text-anchor="start" x="215" y="-472" font-family="Courier,monospace" text-decoration="underline" font-size="10.00" fill="#000000">Supervisor</text>
<text text-anchor="start" x="276" y="-472" font-family="Courier,monospace" font-size="10.00" fill="#000000"> </text>
<text text-anchor="start" x="283" y="-472" font-family="Courier,monospace" font-style="italic" font-size="10.00" fill="#000000">int</text>
<polygon fill="none" stroke="#000000" points="212,-448 212,-465 340,-465 340,-448 212,-448"/>
<text text-anchor="start" x="215" y="-455" font-family="Courier,monospace" font-size="10.00" fill="#000000">Salario </text>
<text text-anchor="start" x="264" y="-455" font-family="Courier,monospace" font-style="italic" font-size="10.00" fill="#000000">int</text>
<polygon fill="none" stroke="#000000" points="212,-431 212,-448 340,-448 340,-431 212,-431"/>
<text text-anchor="start" x="215" y="-438" font-family="Courier,monospace" font-size="10.00" fill="#000000">HorasTrabalho </text>
<text text-anchor="start" x="300" y="-438" font-family="Courier,monospace" font-style="italic" font-size="10.00" fill="#000000">int</text>
<polygon fill="none" stroke="#000000" points="212,-414 212,-431 340,-431 340,-414 212,-414"/>
<text text-anchor="start" x="215" y="-421" font-family="Courier,monospace" text-decoration="underline" font-size="10.00" fill="#000000">Gere</text>
<text text-anchor="start" x="240" y="-421" font-family="Courier,monospace" font-size="10.00" fill="#000000"> </text>
<text text-anchor="start" x="247" y="-421" font-family="Courier,monospace" font-style="italic" font-size="10.00" fill="#000000">varchar</text>
</g>
<!-- DEPARTAMENTO&#45;&gt;FUNCIONARIO -->
<g id="edge1" class="edge">
<title>DEPARTAMENTO:Gestor&#45;&gt;FUNCIONARIO:IdFuncionario</title>
<path fill="none" stroke="#000000" d="M160,-444C219.237,-444 157.4166,-560.4995 201.9943,-574.6069"/>
<polygon fill="#000000" stroke="#000000" points="201.6129,-578.0875 212,-576 202.5782,-571.1543 201.6129,-578.0875"/>
</g>
<!-- FUNCIONARIO&#45;&gt;DEPARTAMENTO -->
<g id="edge3" class="edge">
<title>FUNCIONARIO:Gere&#45;&gt;DEPARTAMENTO:NomeDepartamento</title>
<path fill="none" stroke="#000000" d="M212,-422C186.9479,-422 187.9657,-451.3286 169.8384,-459.1189"/>
<polygon fill="#000000" stroke="#000000" points="169.1648,-455.6843 160,-461 170.4794,-462.5597 169.1648,-455.6843"/>
</g>
<!-- FUNCIONARIO&#45;&gt;FUNCIONARIO -->
<g id="edge2" class="edge">
<title>FUNCIONARIO:Supervisor&#45;&gt;FUNCIONARIO:IdFuncionario</title>
<path fill="none" stroke="#000000" d="M211.9259,-468.867C164.151,-470.5138 116,-483.8516 116,-524.5 116,-562.2903 157.6179,-576.4756 201.8597,-579.6068"/>
<polygon fill="#000000" stroke="#000000" points="201.7568,-583.1061 211.9259,-580.133 202.1223,-576.1157 201.7568,-583.1061"/>
</g>
<!-- ENCOMENDAS -->
<g id="node4" class="node">
<title>ENCOMENDAS</title>
<polygon fill="#ffffff" stroke="transparent" points="138,-184 30,-184 30,-74 138,-74 138,-184"/>
<polygon fill="none" stroke="#000000" points="38,-163 38,-180 130,-180 130,-163 38,-163"/>
<text text-anchor="start" x="41" y="-170" font-family="Courier,monospace" font-weight="bold" font-size="10.00" fill="#000000">ENCOMENDAS</text>
<polygon fill="none" stroke="#000000" points="38,-146 38,-163 130,-163 130,-146 38,-146"/>
<text text-anchor="start" x="41" y="-153" font-family="Courier,monospace" text-decoration="underline" font-size="10.00" fill="#000000">NumCC</text>
<text text-anchor="start" x="72" y="-153" font-family="Courier,monospace" font-size="10.00" fill="#000000"> </text>
<text text-anchor="start" x="79" y="-153" font-family="Courier,monospace" font-style="italic" font-size="10.00" fill="#000000">int</text>
<polygon fill="none" stroke="#000000" points="38,-129 38,-146 130,-146 130,-129 38,-129"/>
<text text-anchor="start" x="41" y="-136" font-family="Courier,monospace" font-size="10.00" fill="#000000">IdEmpresa </text>
<text text-anchor="start" x="102" y="-136" font-family="Courier,monospace" font-style="italic" font-size="10.00" fill="#000000">int</text>
<polygon fill="none" stroke="#000000" points="38,-112 38,-129 130,-129 130,-112 38,-112"/>
<text text-anchor="start" x="41" y="-119" font-family="Courier,monospace" font-size="10.00" fill="#000000">IdProduto </text>
<text text-anchor="start" x="102" y="-119" font-family="Courier,monospace" font-style="italic" font-size="10.00" fill="#000000">int</text>
<polygon fill="none" stroke="#000000" points="38,-95 38,-112 130,-112 130,-95 38,-95"/>
<text text-anchor="start" x="41" y="-102" font-family="Courier,monospace" font-size="10.00" fill="#000000">Quantidade </text>
<text text-anchor="start" x="108" y="-102" font-family="Courier,monospace" font-style="italic" font-size="10.00" fill="#000000">int</text>
<polygon fill="none" stroke="#000000" points="38,-78 38,-95 130,-95 130,-78 38,-78"/>
<text text-anchor="start" x="41" y="-85" font-family="Courier,monospace" font-size="10.00" fill="#000000">Custo </text>
<text text-anchor="start" x="78" y="-85" font-family="Courier,monospace" font-style="italic" font-size="10.00" fill="#000000">decimal</text>
</g>
<!-- ENCOMENDAS&#45;&gt;CLIENTE -->
<g id="edge4" class="edge">
<title>ENCOMENDAS:NumCC&#45;&gt;CLIENTE:NumCC</title>
<path fill="none" stroke="#000000" d="M130,-155C181.9724,-155 162.4672,-235.187 204.9465,-245.8368"/>
<polygon fill="#000000" stroke="#000000" points="204.664,-249.3274 215,-247 205.4686,-242.3737 204.664,-249.3274"/>
</g>
<!-- FORNECEDOR -->
<g id="node5" class="node">
<title>FORNECEDOR</title>
<polygon fill="#ffffff" stroke="transparent" points="522,-112 384,-112 384,-2 522,-2 522,-112"/>
<polygon fill="none" stroke="#000000" points="392,-91 392,-108 514,-108 514,-91 392,-91"/>
<text text-anchor="start" x="395" y="-98" font-family="Courier,monospace" font-weight="bold" font-size="10.00" fill="#000000">FORNECEDOR</text>
<polygon fill="none" stroke="#000000" points="392,-74 392,-91 514,-91 514,-74 392,-74"/>
<text text-anchor="start" x="395" y="-81" font-family="Courier,monospace" text-decoration="underline" font-size="10.00" fill="#000000">IdEmpresa</text>
<text text-anchor="start" x="450" y="-81" font-family="Courier,monospace" font-size="10.00" fill="#000000"> </text>
<text text-anchor="start" x="457" y="-81" font-family="Courier,monospace" font-style="italic" font-size="10.00" fill="#000000">int</text>
<polygon fill="none" stroke="#000000" points="392,-57 392,-74 514,-74 514,-57 392,-57"/>
<text text-anchor="start" x="395" y="-64" font-family="Courier,monospace" font-size="10.00" fill="#000000">NomeEmpresa </text>
<text text-anchor="start" x="468" y="-64" font-family="Courier,monospace" font-style="italic" font-size="10.00" fill="#000000">varchar</text>
<polygon fill="none" stroke="#000000" points="392,-40 392,-57 514,-57 514,-40 392,-40"/>
<text text-anchor="start" x="395" y="-47" font-family="Courier,monospace" font-size="10.00" fill="#000000">NomeProduto </text>
<text text-anchor="start" x="468" y="-47" font-family="Courier,monospace" font-style="italic" font-size="10.00" fill="#000000">varchar</text>
<polygon fill="none" stroke="#000000" points="392,-23 392,-40 514,-40 514,-23 392,-23"/>
<text text-anchor="start" x="395" y="-30" font-family="Courier,monospace" font-size="10.00" fill="#000000">Custo </text>
<text text-anchor="start" x="432" y="-30" font-family="Courier,monospace" font-style="italic" font-size="10.00" fill="#000000">decimal</text>
<polygon fill="none" stroke="#000000" points="392,-6 392,-23 514,-23 514,-6 392,-6"/>
<text text-anchor="start" x="395" y="-13" font-family="Courier,monospace" font-size="10.00" fill="#000000">Comissao </text>
<text text-anchor="start" x="450" y="-13" font-family="Courier,monospace" font-style="italic" font-size="10.00" fill="#000000">decimal</text>
</g>
<!-- ENCOMENDAS&#45;&gt;FORNECEDOR -->
<g id="edge5" class="edge">
<title>ENCOMENDAS:IdEmpresa&#45;&gt;FORNECEDOR:IdEmpresa</title>
<path fill="none" stroke="#000000" d="M130,-138C227.2562,-138 257.9119,-155.6456 348,-119 367.7477,-110.9671 367.5075,-90.8608 382.1276,-84.7737"/>
<polygon fill="#000000" stroke="#000000" points="382.7765,-88.2132 392,-83 381.5386,-81.3236 382.7765,-88.2132"/>
</g>
<!-- PRODUTO -->
<g id="node6" class="node">
<title>PRODUTO</title>
<polygon fill="#ffffff" stroke="transparent" points="330,-110 222,-110 222,0 330,0 330,-110"/>
<polygon fill="none" stroke="#000000" points="230,-89 230,-106 322,-106 322,-89 230,-89"/>
<text text-anchor="start" x="233" y="-96" font-family="Courier,monospace" font-weight="bold" font-size="10.00" fill="#000000">PRODUTO</text>
<polygon fill="none" stroke="#000000" points="230,-72 230,-89 322,-89 322,-72 230,-72"/>
<text text-anchor="start" x="233" y="-79" font-family="Courier,monospace" text-decoration="underline" font-size="10.00" fill="#000000">IdProduto</text>
<text text-anchor="start" x="288" y="-79" font-family="Courier,monospace" font-size="10.00" fill="#000000"> </text>
<text text-anchor="start" x="295" y="-79" font-family="Courier,monospace" font-style="italic" font-size="10.00" fill="#000000">int</text>
<polygon fill="none" stroke="#000000" points="230,-55 230,-72 322,-72 322,-55 230,-55"/>
<text text-anchor="start" x="233" y="-62" font-family="Courier,monospace" font-size="10.00" fill="#000000">Nome </text>
<text text-anchor="start" x="264" y="-62" font-family="Courier,monospace" font-style="italic" font-size="10.00" fill="#000000">varchar</text>
<polygon fill="none" stroke="#000000" points="230,-38 230,-55 322,-55 322,-38 230,-38"/>
<text text-anchor="start" x="233" y="-45" font-family="Courier,monospace" font-size="10.00" fill="#000000">Custo </text>
<text text-anchor="start" x="270" y="-45" font-family="Courier,monospace" font-style="italic" font-size="10.00" fill="#000000">decimal</text>
<polygon fill="none" stroke="#000000" points="230,-21 230,-38 322,-38 322,-21 230,-21"/>
<text text-anchor="start" x="233" y="-27" font-family="Courier,monospace" font-size="10.00" fill="#000000">Empresa</text>
<polygon fill="none" stroke="#000000" points="230,-4 230,-21 322,-21 322,-4 230,-4"/>
<text text-anchor="start" x="233" y="-11" font-family="Courier,monospace" font-size="10.00" fill="#000000">Quantidade </text>
<text text-anchor="start" x="300" y="-11" font-family="Courier,monospace" font-style="italic" font-size="10.00" fill="#000000">int</text>
</g>
<!-- ENCOMENDAS&#45;&gt;PRODUTO -->
<g id="edge6" class="edge">
<title>ENCOMENDAS:IdProduto&#45;&gt;PRODUTO:IdProduto</title>
<path fill="none" stroke="#000000" d="M130,-120C173.9779,-120 181.3148,-86.8557 219.5675,-81.6769"/>
<polygon fill="#000000" stroke="#000000" points="220.2476,-85.1402 230,-81 219.7943,-78.1549 220.2476,-85.1402"/>
</g>
<!-- PRODUTO&#45;&gt;FORNECEDOR -->
<g id="edge10" class="edge">
<title>PRODUTO:Empresa&#45;&gt;FORNECEDOR:IdEmpresa</title>
<path fill="none" stroke="#000000" d="M322,-29C357.4553,-29 353.9277,-72.9681 381.7691,-81.5556"/>
<polygon fill="#000000" stroke="#000000" points="381.6089,-85.0676 392,-83 382.5875,-78.1364 381.6089,-85.0676"/>
</g>
<!-- MORADA -->
<g id="node7" class="node">
<title>MORADA</title>
<polygon fill="#ffffff" stroke="transparent" points="150,-414.5 18,-414.5 18,-287.5 150,-287.5 150,-414.5"/>
<polygon fill="none" stroke="#000000" points="26,-393 26,-410 142,-410 142,-393 26,-393"/>
<text text-anchor="start" x="29" y="-400" font-family="Courier,monospace" font-weight="bold" font-size="10.00" fill="#000000">MORADA</text>
<polygon fill="none" stroke="#000000" points="26,-376 26,-393 142,-393 142,-376 26,-376"/>
<text text-anchor="start" x="29" y="-383" font-family="Courier,monospace" text-decoration="underline" font-size="10.00" fill="#000000">NumCC</text>
<text text-anchor="start" x="60" y="-383" font-family="Courier,monospace" font-size="10.00" fill="#000000"> </text>
<text text-anchor="start" x="67" y="-383" font-family="Courier,monospace" font-style="italic" font-size="10.00" fill="#000000">int</text>
<polygon fill="none" stroke="#000000" points="26,-359 26,-376 142,-376 142,-359 26,-359"/>
<text text-anchor="start" x="29" y="-366" font-family="Courier,monospace" font-size="10.00" fill="#000000">Rua </text>
<text text-anchor="start" x="54" y="-366" font-family="Courier,monospace" font-style="italic" font-size="10.00" fill="#000000">varchar</text>
<polygon fill="none" stroke="#000000" points="26,-342 26,-359 142,-359 142,-342 26,-342"/>
<text text-anchor="start" x="29" y="-349" font-family="Courier,monospace" font-size="10.00" fill="#000000">NumRua </text>
<text text-anchor="start" x="72" y="-349" font-family="Courier,monospace" font-style="italic" font-size="10.00" fill="#000000">int</text>
<polygon fill="none" stroke="#000000" points="26,-325 26,-342 142,-342 142,-325 26,-325"/>
<text text-anchor="start" x="29" y="-332" font-family="Courier,monospace" font-size="10.00" fill="#000000">Andar </text>
<text text-anchor="start" x="66" y="-332" font-family="Courier,monospace" font-style="italic" font-size="10.00" fill="#000000">int</text>
<polygon fill="none" stroke="#000000" points="26,-308 26,-325 142,-325 142,-308 26,-308"/>
<text text-anchor="start" x="29" y="-315" font-family="Courier,monospace" font-size="10.00" fill="#000000">Localidade </text>
<text text-anchor="start" x="96" y="-315" font-family="Courier,monospace" font-style="italic" font-size="10.00" fill="#000000">varchar</text>
<polygon fill="none" stroke="#000000" points="26,-291 26,-308 142,-308 142,-291 26,-291"/>
<text text-anchor="start" x="29" y="-298" font-family="Courier,monospace" font-size="10.00" fill="#000000">CodPostal </text>
<text text-anchor="start" x="90" y="-298" font-family="Courier,monospace" font-style="italic" font-size="10.00" fill="#000000">varchar</text>
</g>
<!-- MORADA&#45;&gt;CLIENTE -->
<g id="edge7" class="edge">
<title>MORADA:NumCC&#45;&gt;CLIENTE:NumCC</title>
<path fill="none" stroke="#000000" d="M142,-385C207.5915,-385 152.4036,-261.681 204.7848,-248.193"/>
<polygon fill="#000000" stroke="#000000" points="205.4735,-251.6365 215,-247 204.6615,-244.6837 205.4735,-251.6365"/>
</g>
<!-- NUM_TELEFONE -->
<g id="node8" class="node">
<title>NUM_TELEFONE</title>
<polygon fill="#ffffff" stroke="transparent" points="144.5,-606.5 23.5,-606.5 23.5,-547.5 144.5,-547.5 144.5,-606.5"/>
<polygon fill="none" stroke="#000000" points="32,-585 32,-602 137,-602 137,-585 32,-585"/>
<text text-anchor="start" x="35" y="-592" font-family="Courier,monospace" font-weight="bold" font-size="10.00" fill="#000000">NUM_TELEFONE</text>
<polygon fill="none" stroke="#000000" points="32,-568 32,-585 137,-585 137,-568 32,-568"/>
<text text-anchor="start" x="35" y="-575" font-family="Courier,monospace" text-decoration="underline" font-size="10.00" fill="#000000">IdFuncionario</text>
<polygon fill="none" stroke="#000000" points="32,-551 32,-568 137,-568 137,-551 32,-551"/>
<text text-anchor="start" x="35" y="-558" font-family="Courier,monospace" text-decoration="underline" font-size="10.00" fill="#000000">NumTelemovel</text>
<text text-anchor="start" x="108" y="-558" font-family="Courier,monospace" font-size="10.00" fill="#000000"> </text>
<text text-anchor="start" x="115" y="-558" font-family="Courier,monospace" font-style="italic" font-size="10.00" fill="#000000">int</text>
</g>
<!-- NUM_TELEFONE&#45;&gt;FUNCIONARIO -->
<g id="edge8" class="edge">
<title>NUM_TELEFONE:IdFuncionario&#45;&gt;FUNCIONARIO:IdFuncionario</title>
<path fill="none" stroke="#000000" d="M137,-576C166.6875,-576 176.5447,-576 201.8943,-576"/>
<polygon fill="#000000" stroke="#000000" points="202,-579.5001 212,-576 202,-572.5001 202,-579.5001"/>
</g>
<!-- NUM_TELEMOVEL_CLIENTE -->
<g id="node9" class="node">
<title>NUM_TELEMOVEL_CLIENTE</title>
<polygon fill="#ffffff" stroke="transparent" points="158.5,-269.5 9.5,-269.5 9.5,-210.5 158.5,-210.5 158.5,-269.5"/>
<polygon fill="none" stroke="#000000" points="18,-248 18,-265 151,-265 151,-248 18,-248"/>
<text text-anchor="start" x="21" y="-255" font-family="Courier,monospace" font-weight="bold" font-size="10.00" fill="#000000">NUM_TELEMOVEL_CLIENTE</text>
<polygon fill="none" stroke="#000000" points="18,-231 18,-248 151,-248 151,-231 18,-231"/>
<text text-anchor="start" x="21" y="-238" font-family="Courier,monospace" text-decoration="underline" font-size="10.00" fill="#000000">NumCC</text>
<text text-anchor="start" x="52" y="-238" font-family="Courier,monospace" font-size="10.00" fill="#000000"> </text>
<text text-anchor="start" x="59" y="-238" font-family="Courier,monospace" font-style="italic" font-size="10.00" fill="#000000">int</text>
<polygon fill="none" stroke="#000000" points="18,-214 18,-231 151,-231 151,-214 18,-214"/>
<text text-anchor="start" x="21" y="-221" font-family="Courier,monospace" text-decoration="underline" font-size="10.00" fill="#000000">Num_Telemovel</text>
<text text-anchor="start" x="100" y="-221" font-family="Courier,monospace" font-size="10.00" fill="#000000"> </text>
<text text-anchor="start" x="107" y="-221" font-family="Courier,monospace" font-style="italic" font-size="10.00" fill="#000000">int</text>
</g>
<!-- NUM_TELEMOVEL_CLIENTE&#45;&gt;CLIENTE -->
<g id="edge9" class="edge">
<title>NUM_TELEMOVEL_CLIENTE:NumCC&#45;&gt;CLIENTE:NumCC</title>
<path fill="none" stroke="#000000" d="M151,-239C175.9706,-239 184.2495,-245.0704 204.9167,-246.6355"/>
<polygon fill="#000000" stroke="#000000" points="204.88,-250.1363 215,-247 205.133,-243.1409 204.88,-250.1363"/>
</g>
</g>
</svg>
