<?xml version="1.0" encoding="UTF-8" standalone="no"?>
<!DOCTYPE svg PUBLIC "-//W3C//DTD SVG 1.1//EN"
 "http://www.w3.org/Graphics/SVG/1.1/DTD/svg11.dtd">
<!-- Generated by graphviz version 2.40.1 (20161225.0304)
 -->
<!-- Title: %3 Pages: 1 -->
<svg width="866pt" height="1294pt"
 viewBox="0.00 0.00 866.25 1294.00" xmlns="http://www.w3.org/2000/svg" xmlns:xlink="http://www.w3.org/1999/xlink">
<g id="graph0" class="graph" transform="scale(1 1) rotate(0) translate(4 1290)">
<title>%3</title>
<polygon fill="#ffffff" stroke="transparent" points="-4,4 -4,-1290 862.2482,-1290 862.2482,4 -4,4"/>
<!-- CLIENTE -->
<g id="node1" class="node">
<title>CLIENTE</title>
<polygon fill="#ffffff" stroke="#000000" points="519.237,-1070 460.237,-1070 460.237,-1034 519.237,-1034 519.237,-1070"/>
<text text-anchor="middle" x="489.737" y="-1049.5" font-family="Courier,monospace" font-size="10.00" fill="#000000">CLIENTE</text>
</g>
<!-- COMPRA -->
<g id="node46" class="node">
<title>COMPRA</title>
<polygon fill="#ffffff" stroke="#000000" points="652.1561,-765 607.9113,-747 652.1561,-729 696.401,-747 652.1561,-765"/>
<text text-anchor="middle" x="652.1561" y="-744.5" font-family="Courier,monospace" font-size="10.00" fill="#000000">COMPRA</text>
</g>
<!-- CLIENTE&#45;&#45;COMPRA -->
<g id="edge40" class="edge">
<title>CLIENTE&#45;&#45;COMPRA</title>
<path fill="none" stroke="#000000" d="M491.4153,-1033.2199C502.7643,-977.5398 538.9549,-812.3148 576.6206,-772.6157 588.4025,-760.5846 604.8315,-753.9514 619.6484,-750.0756"/>
<path fill="none" stroke="transparent" d="M493.3751,-1033.6193C504.718,-977.9677 540.9086,-812.7427 578.0641,-774 589.1513,-762.4392 605.5803,-755.806 620.1524,-752.011"/>
<path fill="none" stroke="#000000" d="M495.3348,-1034.0187C506.6716,-978.3956 542.8622,-813.1707 579.5075,-775.3843 589.9,-764.2937 606.329,-757.6605 620.6565,-753.9465"/>
<text text-anchor="middle" x="556.5641" y="-817" font-family="Courier,monospace" font-size="10.00" fill="#000000">M</text>
</g>
<!-- CLIENTE_NumCC_ -->
<g id="node2" class="node">
<title>CLIENTE_NumCC_</title>
<ellipse fill="#ffffff" stroke="#000000" cx="334.8911" cy="-1268" rx="31.3996" ry="18"/>
<text text-anchor="start" x="316.3911" y="-1266.5" font-family="Courier,monospace" text-decoration="underline" font-size="10.00" fill="#000000">NumCC_</text>
</g>
<!-- CLIENTE_NumCC_&#45;&#45;CLIENTE -->
<g id="edge1" class="edge">
<title>CLIENTE_NumCC_&#45;&#45;CLIENTE</title>
<path fill="none" stroke="#000000" d="M364.0757,-1261.3253C376.7895,-1257.2087 391.1073,-1250.7843 401.41,-1241 452.885,-1192.1147 477.3146,-1107.2967 485.9383,-1070.2236"/>
</g>
<!-- CLIENTE_Nome -->
<g id="node3" class="node">
<title>CLIENTE_Nome</title>
<ellipse fill="#ffffff" stroke="#000000" cx="334.8911" cy="-1214" rx="27" ry="18"/>
<text text-anchor="middle" x="334.8911" y="-1211.5" font-family="Courier,monospace" font-size="10.00" fill="#000000">Nome</text>
</g>
<!-- CLIENTE_Nome&#45;&#45;CLIENTE -->
<g id="edge2" class="edge">
<title>CLIENTE_Nome&#45;&#45;CLIENTE</title>
<path fill="none" stroke="#000000" d="M360.1903,-1207.6996C373.4963,-1203.4612 389.4758,-1196.8196 401.41,-1187 441.2054,-1154.2555 469.4248,-1098.84 482.1503,-1070.2589"/>
</g>
<!-- CLIENTE_Email -->
<g id="node4" class="node">
<title>CLIENTE_Email</title>
<ellipse fill="#ffffff" stroke="#000000" cx="334.8911" cy="-1160" rx="34.9638" ry="18"/>
<text text-anchor="middle" x="334.8911" y="-1157.5" font-family="Courier,monospace" font-size="10.00" fill="#000000">Email ?</text>
</g>
<!-- CLIENTE_Email&#45;&#45;CLIENTE -->
<g id="edge3" class="edge">
<title>CLIENTE_Email&#45;&#45;CLIENTE</title>
<path fill="none" stroke="#000000" d="M364.807,-1150.4511C376.6686,-1146.0137 390.1385,-1140.1275 401.41,-1133 429.5466,-1115.2078 457.0152,-1088.0152 473.6599,-1070.1228"/>
</g>
<!-- CLIENTE_Genero -->
<g id="node5" class="node">
<title>CLIENTE_Genero</title>
<ellipse fill="#ffffff" stroke="#000000" cx="334.8911" cy="-1106" rx="31.3996" ry="18"/>
<text text-anchor="middle" x="334.8911" y="-1103.5" font-family="Courier,monospace" font-size="10.00" fill="#000000">Genero</text>
</g>
<!-- CLIENTE_Genero&#45;&#45;CLIENTE -->
<g id="edge4" class="edge">
<title>CLIENTE_Genero&#45;&#45;CLIENTE</title>
<path fill="none" stroke="#000000" d="M361.8632,-1096.5939C389.331,-1087.015 431.8044,-1072.203 460.173,-1062.31"/>
</g>
<!-- CLIENTE_DatadeNascimento -->
<g id="node6" class="node">
<title>CLIENTE_DatadeNascimento</title>
<ellipse fill="#ffffff" stroke="#000000" cx="334.8911" cy="-1052" rx="66.5378" ry="18"/>
<text text-anchor="middle" x="334.8911" y="-1049.5" font-family="Courier,monospace" font-size="10.00" fill="#000000">DatadeNascimento</text>
</g>
<!-- CLIENTE_DatadeNascimento&#45;&#45;CLIENTE -->
<g id="edge5" class="edge">
<title>CLIENTE_DatadeNascimento&#45;&#45;CLIENTE</title>
<path fill="none" stroke="#000000" d="M401.4583,-1052C421.9508,-1052 443.4784,-1052 460.1444,-1052"/>
</g>
<!-- CLIENTE_NumTelefone -->
<g id="node7" class="node">
<title>CLIENTE_NumTelefone</title>
<ellipse fill="#ffffff" stroke="#000000" cx="334.8911" cy="-994" rx="48.7291" ry="18"/>
<ellipse fill="none" stroke="#000000" cx="334.8911" cy="-994" rx="52.7184" ry="22"/>
<text text-anchor="middle" x="334.8911" y="-991.5" font-family="Courier,monospace" font-size="10.00" fill="#000000">NumTelefone</text>
</g>
<!-- CLIENTE_NumTelefone&#45;&#45;CLIENTE -->
<g id="edge6" class="edge">
<title>CLIENTE_NumTelefone&#45;&#45;CLIENTE</title>
<path fill="none" stroke="#000000" d="M374.3659,-1008.7859C401.0677,-1018.7875 435.7701,-1031.7858 460.1144,-1040.9044"/>
</g>
<!-- CLIENTE_Morada -->
<g id="node8" class="node">
<title>CLIENTE_Morada</title>
<ellipse fill="#ffffff" stroke="#000000" cx="334.8911" cy="-936" rx="31.3996" ry="18"/>
<text text-anchor="middle" x="334.8911" y="-933.5" font-family="Courier,monospace" font-size="10.00" fill="#000000">Morada</text>
</g>
<!-- CLIENTE_Morada&#45;&#45;CLIENTE -->
<g id="edge7" class="edge">
<title>CLIENTE_Morada&#45;&#45;CLIENTE</title>
<path fill="none" stroke="#000000" d="M362.6687,-944.4379C375.0985,-948.9105 389.583,-955.1259 401.41,-963 431.3087,-982.9059 459.3589,-1014.1243 475.523,-1033.8033"/>
</g>
<!-- CLIENTE_Morada_Rua -->
<g id="node9" class="node">
<title>CLIENTE_Morada_Rua</title>
<ellipse fill="#ffffff" stroke="#000000" cx="180.0451" cy="-963" rx="27" ry="18"/>
<text text-anchor="middle" x="180.0451" y="-960.5" font-family="Courier,monospace" font-size="10.00" fill="#000000">Rua</text>
</g>
<!-- CLIENTE_Morada_Rua&#45;&#45;CLIENTE_Morada -->
<g id="edge8" class="edge">
<title>CLIENTE_Morada_Rua&#45;&#45;CLIENTE_Morada</title>
<path fill="none" stroke="#000000" d="M206.3126,-958.4198C233.5789,-953.6655 276.1665,-946.2396 304.7769,-941.2509"/>
</g>
<!-- CLIENTE_Morada_NUm -->
<g id="node10" class="node">
<title>CLIENTE_Morada_NUm</title>
<ellipse fill="#ffffff" stroke="#000000" cx="180.0451" cy="-909" rx="27" ry="18"/>
<text text-anchor="middle" x="180.0451" y="-906.5" font-family="Courier,monospace" font-size="10.00" fill="#000000">NUm</text>
</g>
<!-- CLIENTE_Morada_NUm&#45;&#45;CLIENTE_Morada -->
<g id="edge9" class="edge">
<title>CLIENTE_Morada_NUm&#45;&#45;CLIENTE_Morada</title>
<path fill="none" stroke="#000000" d="M206.3126,-913.5802C233.5789,-918.3345 276.1665,-925.7604 304.7769,-930.7491"/>
</g>
<!-- CLIENTE_Morada_Andar -->
<g id="node11" class="node">
<title>CLIENTE_Morada_Andar</title>
<ellipse fill="#ffffff" stroke="#000000" cx="180.0451" cy="-855" rx="34.9638" ry="18"/>
<text text-anchor="middle" x="180.0451" y="-852.5" font-family="Courier,monospace" font-size="10.00" fill="#000000">Andar ?</text>
</g>
<!-- CLIENTE_Morada_Andar&#45;&#45;CLIENTE_Morada -->
<g id="edge10" class="edge">
<title>CLIENTE_Morada_Andar&#45;&#45;CLIENTE_Morada</title>
<path fill="none" stroke="#000000" d="M203.167,-868.6314C210.3077,-872.8791 218.1835,-877.6029 225.3721,-882 244.6227,-893.775 248.2849,-898.7171 268.3721,-909 281.1306,-915.5313 295.8497,-921.6431 308.1934,-926.3944"/>
</g>
<!-- CLIENTE_Morada_Localidade -->
<g id="node12" class="node">
<title>CLIENTE_Morada_Localidade</title>
<ellipse fill="#ffffff" stroke="#000000" cx="180.0451" cy="-1071" rx="45.1548" ry="18"/>
<text text-anchor="middle" x="180.0451" y="-1068.5" font-family="Courier,monospace" font-size="10.00" fill="#000000">Localidade</text>
</g>
<!-- CLIENTE_Morada_Localidade&#45;&#45;CLIENTE_Morada -->
<g id="edge11" class="edge">
<title>CLIENTE_Morada_Localidade&#45;&#45;CLIENTE_Morada</title>
<path fill="none" stroke="#000000" d="M209.1131,-1056.9078C214.9396,-1053.2364 220.6986,-1048.9093 225.3721,-1044 239.4236,-1029.2397 253.243,-976.6535 268.3721,-963 278.9202,-953.4808 293.2649,-947.0854 305.933,-942.9194"/>
</g>
<!-- CLIENTE_Morada_CodPostal -->
<g id="node13" class="node">
<title>CLIENTE_Morada_CodPostal</title>
<ellipse fill="none" stroke="#000000" stroke-dasharray="5,2" cx="180.0451" cy="-1017" rx="41.5911" ry="18"/>
<text text-anchor="middle" x="180.0451" y="-1014.5" font-family="Courier,monospace" font-size="10.00" fill="#000000">CodPostal</text>
</g>
<!-- CLIENTE_Morada_CodPostal&#45;&#45;CLIENTE_Morada -->
<g id="edge12" class="edge">
<title>CLIENTE_Morada_CodPostal&#45;&#45;CLIENTE_Morada</title>
<path fill="none" stroke="#000000" d="M205.0455,-1002.2502C211.6722,-998.3018 218.8086,-994.0148 225.3721,-990 244.6227,-978.225 248.2849,-973.2829 268.3721,-963 281.1306,-956.4687 295.8497,-950.3569 308.1934,-945.6056"/>
</g>
<!-- PRODUTO -->
<g id="node14" class="node">
<title>PRODUTO</title>
<polygon fill="#ffffff" stroke="#000000" points="843.2482,-748 784.2482,-748 784.2482,-712 843.2482,-712 843.2482,-748"/>
<text text-anchor="middle" x="813.7482" y="-727.5" font-family="Courier,monospace" font-size="10.00" fill="#000000">PRODUTO</text>
</g>
<!-- PRODUTO__IdProduto_ -->
<g id="node15" class="node">
<title>PRODUTO__IdProduto_</title>
<ellipse fill="#ffffff" stroke="#000000" cx="652.1561" cy="-585" rx="48.7185" ry="18"/>
<text text-anchor="middle" x="652.1561" y="-582.5" font-family="Courier,monospace" font-size="10.00" fill="#000000">_IdProduto_</text>
</g>
<!-- PRODUTO__IdProduto_&#45;&#45;PRODUTO -->
<g id="edge13" class="edge">
<title>PRODUTO__IdProduto_&#45;&#45;PRODUTO</title>
<path fill="none" stroke="#000000" d="M692.7581,-595.0394C704.284,-599.1059 716.3732,-604.6307 726.2482,-612 762.8354,-639.3033 791.037,-686.1157 804.6921,-711.8061"/>
</g>
<!-- PRODUTO_Nome -->
<g id="node16" class="node">
<title>PRODUTO_Nome</title>
<ellipse fill="#ffffff" stroke="#000000" cx="652.1561" cy="-531" rx="27" ry="18"/>
<text text-anchor="middle" x="652.1561" y="-528.5" font-family="Courier,monospace" font-size="10.00" fill="#000000">Nome</text>
</g>
<!-- PRODUTO_Nome&#45;&#45;PRODUTO -->
<g id="edge14" class="edge">
<title>PRODUTO_Nome&#45;&#45;PRODUTO</title>
<path fill="none" stroke="#000000" d="M678.2968,-535.5205C693.7352,-539.3177 712.8219,-546.1091 726.2482,-558 774.7796,-600.9815 799.936,-677.2547 809.3267,-711.9356"/>
</g>
<!-- PRODUTO_Custo -->
<g id="node17" class="node">
<title>PRODUTO_Custo</title>
<ellipse fill="#ffffff" stroke="#000000" cx="652.1561" cy="-909" rx="27.8353" ry="18"/>
<text text-anchor="middle" x="652.1561" y="-906.5" font-family="Courier,monospace" font-size="10.00" fill="#000000">Custo</text>
</g>
<!-- PRODUTO_Custo&#45;&#45;PRODUTO -->
<g id="edge15" class="edge">
<title>PRODUTO_Custo&#45;&#45;PRODUTO</title>
<path fill="none" stroke="#000000" d="M678.7861,-904.0482C694.0206,-900.1306 712.7285,-893.3635 726.2482,-882 770.3022,-844.9719 797.0004,-779.7691 807.9577,-748.1758"/>
</g>
<!-- PRODUTO_IdEmpresa -->
<g id="node18" class="node">
<title>PRODUTO_IdEmpresa</title>
<ellipse fill="#ffffff" stroke="#000000" cx="652.1561" cy="-855" rx="41.5911" ry="18"/>
<text text-anchor="middle" x="652.1561" y="-852.5" font-family="Courier,monospace" font-size="10.00" fill="#000000">IdEmpresa</text>
</g>
<!-- PRODUTO_IdEmpresa&#45;&#45;PRODUTO -->
<g id="edge16" class="edge">
<title>PRODUTO_IdEmpresa&#45;&#45;PRODUTO</title>
<path fill="none" stroke="#000000" d="M688.162,-845.8245C700.8552,-841.5977 714.8023,-835.7585 726.2482,-828 758.3443,-806.2439 786.3984,-770.1667 801.6251,-748.3826"/>
</g>
<!-- PRODUTO_Quantidade -->
<g id="node19" class="node">
<title>PRODUTO_Quantidade</title>
<ellipse fill="#ffffff" stroke="#000000" cx="652.1561" cy="-801" rx="45.1548" ry="18"/>
<text text-anchor="middle" x="652.1561" y="-798.5" font-family="Courier,monospace" font-size="10.00" fill="#000000">Quantidade</text>
</g>
<!-- PRODUTO_Quantidade&#45;&#45;PRODUTO -->
<g id="edge17" class="edge">
<title>PRODUTO_Quantidade&#45;&#45;PRODUTO</title>
<path fill="none" stroke="#000000" d="M686.7891,-789.3214C699.3435,-784.8417 713.5539,-779.4825 726.2482,-774 745.9166,-765.5054 767.4207,-754.7137 784.1888,-745.944"/>
</g>
<!-- DEPARTAMENTO -->
<g id="node20" class="node">
<title>DEPARTAMENTO</title>
<polygon fill="#ffffff" stroke="#000000" points="858.2482,-218 769.2482,-218 769.2482,-182 858.2482,-182 858.2482,-218"/>
<text text-anchor="middle" x="813.7482" y="-197.5" font-family="Courier,monospace" font-size="10.00" fill="#000000">DEPARTAMENTO</text>
</g>
<!-- DEPARTAMENTO__NomeDepartamento_ -->
<g id="node21" class="node">
<title>DEPARTAMENTO__NomeDepartamento_</title>
<ellipse fill="#ffffff" stroke="#000000" cx="652.1561" cy="-200" rx="73.6658" ry="18"/>
<text text-anchor="middle" x="652.1561" y="-197.5" font-family="Courier,monospace" font-size="10.00" fill="#000000">_NomeDepartamento_</text>
</g>
<!-- DEPARTAMENTO__NomeDepartamento_&#45;&#45;DEPARTAMENTO -->
<g id="edge18" class="edge">
<title>DEPARTAMENTO__NomeDepartamento_&#45;&#45;DEPARTAMENTO</title>
<path fill="none" stroke="#000000" d="M725.8591,-200C740.5091,-200 755.4726,-200 768.8029,-200"/>
</g>
<!-- DEPARTAMENTO_Gestor -->
<g id="node22" class="node">
<title>DEPARTAMENTO_Gestor</title>
<ellipse fill="#ffffff" stroke="#000000" cx="652.1561" cy="-146" rx="31.3996" ry="18"/>
<text text-anchor="middle" x="652.1561" y="-143.5" font-family="Courier,monospace" font-size="10.00" fill="#000000">Gestor</text>
</g>
<!-- DEPARTAMENTO_Gestor&#45;&#45;DEPARTAMENTO -->
<g id="edge19" class="edge">
<title>DEPARTAMENTO_Gestor&#45;&#45;DEPARTAMENTO</title>
<path fill="none" stroke="#000000" d="M679.203,-155.0384C703.731,-163.235 740.3542,-175.4736 769.2007,-185.1133"/>
</g>
<!-- FUNCIONARIO -->
<g id="node23" class="node">
<title>FUNCIONARIO</title>
<polygon fill="#ffffff" stroke="#000000" points="531.237,-306 448.237,-306 448.237,-270 531.237,-270 531.237,-306"/>
<text text-anchor="middle" x="489.737" y="-285.5" font-family="Courier,monospace" font-size="10.00" fill="#000000">FUNCIONARIO</text>
</g>
<!-- VENDE -->
<g id="node48" class="node">
<title>VENDE</title>
<polygon fill="#ffffff" stroke="#000000" points="652.1561,-657 612.9012,-639 652.1561,-621 691.4111,-639 652.1561,-657"/>
<text text-anchor="middle" x="652.1561" y="-636.5" font-family="Courier,monospace" font-size="10.00" fill="#000000">VENDE</text>
</g>
<!-- FUNCIONARIO&#45;&#45;VENDE -->
<g id="edge44" class="edge">
<title>FUNCIONARIO&#45;&#45;VENDE</title>
<path fill="none" stroke="#000000" d="M492.476,-306.2903C502.0159,-367.7782 535.5311,-565.7674 578.0641,-612 589.4652,-624.3929 607.0148,-631.1099 622.1725,-634.7444"/>
<text text-anchor="middle" x="556.5641" y="-580" font-family="Courier,monospace" font-size="10.00" fill="#000000">1</text>
</g>
<!-- SUPERVISIONA -->
<g id="node50" class="node">
<title>SUPERVISIONA</title>
<polygon fill="#ffffff" stroke="#000000" points="652.1561,-272 577.9719,-254 652.1561,-236 726.3404,-254 652.1561,-272"/>
<text text-anchor="middle" x="652.1561" y="-251.5" font-family="Courier,monospace" font-size="10.00" fill="#000000">SUPERVISIONA</text>
</g>
<!-- FUNCIONARIO&#45;&#45;SUPERVISIONA -->
<g id="edge48" class="edge">
<title>FUNCIONARIO&#45;&#45;SUPERVISIONA</title>
<path fill="none" stroke="#000000" d="M531.1542,-277.2866C555.9679,-272.0922 587.2542,-265.5429 611.7411,-260.4169"/>
<path fill="none" stroke="transparent" d="M531.564,-279.2442C556.3777,-274.0498 587.664,-267.5005 612.1508,-262.3745"/>
<path fill="none" stroke="#000000" d="M531.9738,-281.2017C556.7875,-276.0073 588.0738,-269.458 612.5606,-264.3321"/>
<text text-anchor="middle" x="556.5641" y="-277" font-family="Courier,monospace" font-size="10.00" fill="#000000">1</text>
</g>
<!-- TRABALHA_EM -->
<g id="node53" class="node">
<title>TRABALHA_EM</title>
<polygon fill="#ffffff" stroke="#000000" points="652.1561,-333 582.9618,-315 652.1561,-297 721.3505,-315 652.1561,-333"/>
<text text-anchor="middle" x="652.1561" y="-312.5" font-family="Courier,monospace" font-size="10.00" fill="#000000">TRABALHA_EM</text>
</g>
<!-- FUNCIONARIO&#45;&#45;TRABALHA_EM -->
<g id="edge52" class="edge">
<title>FUNCIONARIO&#45;&#45;TRABALHA_EM</title>
<path fill="none" stroke="#000000" d="M531.2558,-296.0953C538.5164,-297.4458 546.0042,-298.7972 553.0641,-300 570.7309,-303.01 590.2226,-306.0261 607.2107,-308.5561"/>
<text text-anchor="middle" x="556.5641" y="-303" font-family="Courier,monospace" font-size="10.00" fill="#000000">1</text>
</g>
<!-- FUNCIONARIO__IdFuncionario_ -->
<g id="node24" class="node">
<title>FUNCIONARIO__IdFuncionario_</title>
<ellipse fill="#ffffff" stroke="#000000" cx="334.8911" cy="-72" rx="62.9739" ry="18"/>
<text text-anchor="middle" x="334.8911" y="-69.5" font-family="Courier,monospace" font-size="10.00" fill="#000000">_IdFuncionario_</text>
</g>
<!-- FUNCIONARIO__IdFuncionario_&#45;&#45;FUNCIONARIO -->
<g id="edge20" class="edge">
<title>FUNCIONARIO__IdFuncionario_&#45;&#45;FUNCIONARIO</title>
<path fill="none" stroke="#000000" d="M380.7837,-84.4614C388.4176,-88.1581 395.6967,-92.9099 401.41,-99 448.5671,-149.2675 408.7855,-188.9956 444.41,-248 449.4006,-256.2659 456.6582,-263.7567 463.9089,-269.962"/>
</g>
<!-- FUNCIONARIO_Email -->
<g id="node25" class="node">
<title>FUNCIONARIO_Email</title>
<ellipse fill="#ffffff" stroke="#000000" cx="334.8911" cy="-18" rx="34.9638" ry="18"/>
<text text-anchor="middle" x="334.8911" y="-15.5" font-family="Courier,monospace" font-size="10.00" fill="#000000">Email ?</text>
</g>
<!-- FUNCIONARIO_Email&#45;&#45;FUNCIONARIO -->
<g id="edge21" class="edge">
<title>FUNCIONARIO_Email&#45;&#45;FUNCIONARIO</title>
<path fill="none" stroke="#000000" d="M367.065,-24.8376C379.2548,-28.8807 392.3603,-35.2046 401.41,-45 463.9929,-112.7397 400.5234,-166.8874 444.41,-248 448.9049,-256.3077 455.8416,-263.7179 462.9476,-269.8348"/>
</g>
<!-- FUNCIONARIO_Genero -->
<g id="node26" class="node">
<title>FUNCIONARIO_Genero</title>
<ellipse fill="#ffffff" stroke="#000000" cx="334.8911" cy="-504" rx="31.3996" ry="18"/>
<text text-anchor="middle" x="334.8911" y="-501.5" font-family="Courier,monospace" font-size="10.00" fill="#000000">Genero</text>
</g>
<!-- FUNCIONARIO_Genero&#45;&#45;FUNCIONARIO -->
<g id="edge22" class="edge">
<title>FUNCIONARIO_Genero&#45;&#45;FUNCIONARIO</title>
<path fill="none" stroke="#000000" d="M364.0757,-497.3253C376.7895,-493.2087 391.1073,-486.7843 401.41,-477 452.885,-428.1147 477.3146,-343.2967 485.9383,-306.2236"/>
</g>
<!-- FUNCIONARIO_Nome -->
<g id="node27" class="node">
<title>FUNCIONARIO_Nome</title>
<ellipse fill="#ffffff" stroke="#000000" cx="334.8911" cy="-450" rx="27" ry="18"/>
<text text-anchor="middle" x="334.8911" y="-447.5" font-family="Courier,monospace" font-size="10.00" fill="#000000">Nome</text>
</g>
<!-- FUNCIONARIO_Nome&#45;&#45;FUNCIONARIO -->
<g id="edge23" class="edge">
<title>FUNCIONARIO_Nome&#45;&#45;FUNCIONARIO</title>
<path fill="none" stroke="#000000" d="M360.1903,-443.6996C373.4963,-439.4612 389.4758,-432.8196 401.41,-423 441.2054,-390.2555 469.4248,-334.84 482.1503,-306.2589"/>
</g>
<!-- FUNCIONARIO_DatadeNascimento -->
<g id="node28" class="node">
<title>FUNCIONARIO_DatadeNascimento</title>
<ellipse fill="#ffffff" stroke="#000000" cx="334.8911" cy="-396" rx="66.5378" ry="18"/>
<text text-anchor="middle" x="334.8911" y="-393.5" font-family="Courier,monospace" font-size="10.00" fill="#000000">DatadeNascimento</text>
</g>
<!-- FUNCIONARIO_DatadeNascimento&#45;&#45;FUNCIONARIO -->
<g id="edge24" class="edge">
<title>FUNCIONARIO_DatadeNascimento&#45;&#45;FUNCIONARIO</title>
<path fill="none" stroke="#000000" d="M376.4794,-381.7889C385.0069,-378.1476 393.7201,-373.8627 401.41,-369 429.5466,-351.2078 457.0152,-324.0152 473.6599,-306.1228"/>
</g>
<!-- FUNCIONARIO_NumCC -->
<g id="node29" class="node">
<title>FUNCIONARIO_NumCC</title>
<ellipse fill="#ffffff" stroke="#000000" cx="334.8911" cy="-342" rx="27.8353" ry="18"/>
<text text-anchor="middle" x="334.8911" y="-339.5" font-family="Courier,monospace" font-size="10.00" fill="#000000">NumCC</text>
</g>
<!-- FUNCIONARIO_NumCC&#45;&#45;FUNCIONARIO -->
<g id="edge25" class="edge">
<title>FUNCIONARIO_NumCC&#45;&#45;FUNCIONARIO</title>
<path fill="none" stroke="#000000" d="M359.4269,-333.4435C383.2194,-325.1463 419.7761,-312.3977 448.121,-302.5129"/>
</g>
<!-- FUNCIONARIO_Departamento -->
<g id="node30" class="node">
<title>FUNCIONARIO_Departamento</title>
<ellipse fill="#ffffff" stroke="#000000" cx="334.8911" cy="-288" rx="52.2822" ry="18"/>
<text text-anchor="middle" x="334.8911" y="-285.5" font-family="Courier,monospace" font-size="10.00" fill="#000000">Departamento</text>
</g>
<!-- FUNCIONARIO_Departamento&#45;&#45;FUNCIONARIO -->
<g id="edge26" class="edge">
<title>FUNCIONARIO_Departamento&#45;&#45;FUNCIONARIO</title>
<path fill="none" stroke="#000000" d="M387.3148,-288C407.1437,-288 429.4233,-288 448.1266,-288"/>
</g>
<!-- FUNCIONARIO_Supervisor -->
<g id="node31" class="node">
<title>FUNCIONARIO_Supervisor</title>
<ellipse fill="#ffffff" stroke="#000000" cx="334.8911" cy="-234" rx="45.1548" ry="18"/>
<text text-anchor="middle" x="334.8911" y="-231.5" font-family="Courier,monospace" font-size="10.00" fill="#000000">Supervisor</text>
</g>
<!-- FUNCIONARIO_Supervisor&#45;&#45;FUNCIONARIO -->
<g id="edge27" class="edge">
<title>FUNCIONARIO_Supervisor&#45;&#45;FUNCIONARIO</title>
<path fill="none" stroke="#000000" d="M369.2564,-245.9844C392.5113,-254.0941 423.3653,-264.854 448.0279,-273.4546"/>
</g>
<!-- FUNCIONARIO_Salario -->
<g id="node32" class="node">
<title>FUNCIONARIO_Salario</title>
<ellipse fill="#ffffff" stroke="#000000" cx="334.8911" cy="-180" rx="34.9638" ry="18"/>
<text text-anchor="middle" x="334.8911" y="-177.5" font-family="Courier,monospace" font-size="10.00" fill="#000000">Salario</text>
</g>
<!-- FUNCIONARIO_Salario&#45;&#45;FUNCIONARIO -->
<g id="edge28" class="edge">
<title>FUNCIONARIO_Salario&#45;&#45;FUNCIONARIO</title>
<path fill="none" stroke="#000000" d="M364.878,-189.4379C376.7498,-193.8591 390.2083,-199.7633 401.41,-207 423.5901,-221.3293 424.9512,-230.1495 444.41,-248 452.2986,-255.2367 461.0968,-263.0568 468.8274,-269.8465"/>
</g>
<!-- FUNCIONARIO_HorasdeTradalho -->
<g id="node33" class="node">
<title>FUNCIONARIO_HorasdeTradalho</title>
<ellipse fill="none" stroke="#000000" stroke-dasharray="5,2" cx="334.8911" cy="-126" rx="62.9739" ry="18"/>
<text text-anchor="middle" x="334.8911" y="-123.5" font-family="Courier,monospace" font-size="10.00" fill="#000000">HorasdeTradalho</text>
</g>
<!-- FUNCIONARIO_HorasdeTradalho&#45;&#45;FUNCIONARIO -->
<g id="edge29" class="edge">
<title>FUNCIONARIO_HorasdeTradalho&#45;&#45;FUNCIONARIO</title>
<path fill="none" stroke="#000000" d="M379.9379,-138.7942C387.7427,-142.4683 395.3001,-147.1265 401.41,-153 434.8217,-185.1187 416.8666,-210.7265 444.41,-248 450.2731,-255.9343 457.9417,-263.4349 465.2995,-269.7506"/>
</g>
<!-- FORNECEDOR -->
<g id="node34" class="node">
<title>FORNECEDOR</title>
<polygon fill="#ffffff" stroke="#000000" points="528.237,-711 451.237,-711 451.237,-675 528.237,-675 528.237,-711"/>
<text text-anchor="middle" x="489.737" y="-690.5" font-family="Courier,monospace" font-size="10.00" fill="#000000">FORNECEDOR</text>
</g>
<!-- FORNECE -->
<g id="node47" class="node">
<title>FORNECE</title>
<polygon fill="#ffffff" stroke="#000000" points="652.1561,-711 602.9214,-693 652.1561,-675 701.3908,-693 652.1561,-711"/>
<text text-anchor="middle" x="652.1561" y="-690.5" font-family="Courier,monospace" font-size="10.00" fill="#000000">FORNECE</text>
</g>
<!-- FORNECEDOR&#45;&#45;FORNECE -->
<g id="edge42" class="edge">
<title>FORNECEDOR&#45;&#45;FORNECE</title>
<path fill="none" stroke="#000000" d="M528.6404,-691C550.8825,-691 578.9987,-691 602.7851,-691"/>
<path fill="none" stroke="transparent" d="M528.6404,-693C550.8825,-693 578.9987,-693 602.7851,-693"/>
<path fill="none" stroke="#000000" d="M528.6404,-695C550.8825,-695 578.9987,-695 602.7851,-695"/>
<text text-anchor="middle" x="556.5641" y="-696" font-family="Courier,monospace" font-size="10.00" fill="#000000">M</text>
</g>
<!-- FORNECEDOR__IdEmpresa_ -->
<g id="node35" class="node">
<title>FORNECEDOR__IdEmpresa_</title>
<ellipse fill="#ffffff" stroke="#000000" cx="334.8911" cy="-828" rx="48.7185" ry="18"/>
<text text-anchor="middle" x="334.8911" y="-825.5" font-family="Courier,monospace" font-size="10.00" fill="#000000">_IdEmpresa_</text>
</g>
<!-- FORNECEDOR__IdEmpresa_&#45;&#45;FORNECEDOR -->
<g id="edge30" class="edge">
<title>FORNECEDOR__IdEmpresa_&#45;&#45;FORNECEDOR</title>
<path fill="none" stroke="#000000" d="M372.5205,-816.5101C382.4459,-812.4962 392.7834,-807.3617 401.41,-801 435.5252,-775.8414 464.2738,-734.6109 479.0509,-711.0384"/>
</g>
<!-- FORNECEDOR_NomeEmpresa -->
<g id="node36" class="node">
<title>FORNECEDOR_NomeEmpresa</title>
<ellipse fill="#ffffff" stroke="#000000" cx="334.8911" cy="-774" rx="48.7185" ry="18"/>
<text text-anchor="middle" x="334.8911" y="-771.5" font-family="Courier,monospace" font-size="10.00" fill="#000000">NomeEmpresa</text>
</g>
<!-- FORNECEDOR_NomeEmpresa&#45;&#45;FORNECEDOR -->
<g id="edge31" class="edge">
<title>FORNECEDOR_NomeEmpresa&#45;&#45;FORNECEDOR</title>
<path fill="none" stroke="#000000" d="M369.5496,-761.1751C379.951,-756.9959 391.2834,-752.1078 401.41,-747 422.5927,-736.3156 445.4141,-722.2925 462.5526,-711.2145"/>
</g>
<!-- FORNECEDOR_NomeProduto -->
<g id="node37" class="node">
<title>FORNECEDOR_NomeProduto</title>
<ellipse fill="#ffffff" stroke="#000000" cx="334.8911" cy="-720" rx="48.7185" ry="18"/>
<text text-anchor="middle" x="334.8911" y="-717.5" font-family="Courier,monospace" font-size="10.00" fill="#000000">NomeProduto</text>
</g>
<!-- FORNECEDOR_NomeProduto&#45;&#45;FORNECEDOR -->
<g id="edge32" class="edge">
<title>FORNECEDOR_NomeProduto&#45;&#45;FORNECEDOR</title>
<path fill="none" stroke="#000000" d="M379.2637,-712.2629C401.9633,-708.3048 429.3291,-703.5331 451.1448,-699.7292"/>
</g>
<!-- FORNECEDOR_IdProduto -->
<g id="node38" class="node">
<title>FORNECEDOR_IdProduto</title>
<ellipse fill="#ffffff" stroke="#000000" cx="334.8911" cy="-666" rx="41.5911" ry="18"/>
<text text-anchor="middle" x="334.8911" y="-663.5" font-family="Courier,monospace" font-size="10.00" fill="#000000">IdProduto</text>
</g>
<!-- FORNECEDOR_IdProduto&#45;&#45;FORNECEDOR -->
<g id="edge33" class="edge">
<title>FORNECEDOR_IdProduto&#45;&#45;FORNECEDOR</title>
<path fill="none" stroke="#000000" d="M373.9652,-672.8132C397.6179,-676.9375 427.6589,-682.1756 451.2117,-686.2825"/>
</g>
<!-- FORNECEDOR_Custo -->
<g id="node39" class="node">
<title>FORNECEDOR_Custo</title>
<ellipse fill="#ffffff" stroke="#000000" cx="334.8911" cy="-612" rx="27.8353" ry="18"/>
<text text-anchor="middle" x="334.8911" y="-609.5" font-family="Courier,monospace" font-size="10.00" fill="#000000">Custo</text>
</g>
<!-- FORNECEDOR_Custo&#45;&#45;FORNECEDOR -->
<g id="edge34" class="edge">
<title>FORNECEDOR_Custo&#45;&#45;FORNECEDOR</title>
<path fill="none" stroke="#000000" d="M359.3282,-620.8199C372.0901,-625.6992 387.8337,-632.1522 401.41,-639 422.5927,-649.6844 445.4141,-663.7075 462.5526,-674.7855"/>
</g>
<!-- FORNECEDOR_Comissao -->
<g id="node40" class="node">
<title>FORNECEDOR_Comissao</title>
<ellipse fill="#ffffff" stroke="#000000" cx="334.8911" cy="-558" rx="38.0276" ry="18"/>
<text text-anchor="middle" x="334.8911" y="-555.5" font-family="Courier,monospace" font-size="10.00" fill="#000000">Comissao</text>
</g>
<!-- FORNECEDOR_Comissao&#45;&#45;FORNECEDOR -->
<g id="edge35" class="edge">
<title>FORNECEDOR_Comissao&#45;&#45;FORNECEDOR</title>
<path fill="none" stroke="#000000" d="M367.7152,-567.6183C379.0349,-571.8646 391.3791,-577.6027 401.41,-585 435.5252,-610.1586 464.2738,-651.3891 479.0509,-674.9616"/>
</g>
<!-- ENCOMENDAS -->
<g id="node41" class="node">
<title>ENCOMENDAS</title>
<polygon fill="#ffffff" stroke="#000000" points="218.5451,-819 141.5451,-819 141.5451,-783 218.5451,-783 218.5451,-819"/>
<text text-anchor="middle" x="180.0451" y="-798.5" font-family="Courier,monospace" font-size="10.00" fill="#000000">ENCOMENDAS</text>
</g>
<!-- ENCOMENDA -->
<g id="node49" class="node">
<title>ENCOMENDA</title>
<polygon fill="#ffffff" stroke="#000000" points="334.8911,-900 275.6766,-882 334.8911,-864 394.1056,-882 334.8911,-900"/>
<text text-anchor="middle" x="334.8911" y="-879.5" font-family="Courier,monospace" font-size="10.00" fill="#000000">ENCOMENDA</text>
</g>
<!-- ENCOMENDAS&#45;&#45;ENCOMENDA -->
<g id="edge46" class="edge">
<title>ENCOMENDAS&#45;&#45;ENCOMENDA</title>
<path fill="none" stroke="#000000" d="M211.853,-817.4872C216.737,-820.4135 221.7175,-823.4201 226.4157,-826.2939 246.2296,-838.5843 249.8918,-843.5263 269.2835,-853.2197 281.678,-859.5715 296.1076,-865.5843 308.2677,-870.2796"/>
<path fill="none" stroke="transparent" d="M210.8251,-819.2028C215.7034,-822.1257 220.6839,-825.1323 225.3721,-828 244.6227,-839.775 248.2849,-844.7171 268.3721,-855 280.9087,-861.4177 295.3384,-867.4304 307.5472,-872.1453"/>
<path fill="none" stroke="#000000" d="M209.7972,-820.9184C214.6697,-823.8379 219.6503,-826.8445 224.3285,-829.7061 243.0158,-840.9658 246.6781,-845.9078 267.4608,-856.7803 280.1394,-863.2638 294.5691,-869.2765 306.8267,-874.011"/>
<text text-anchor="middle" x="246.8721" y="-847" font-family="Courier,monospace" font-size="10.00" fill="#000000">N</text>
</g>
<!-- ENCOMENDAS__IdProduto_ -->
<g id="node42" class="node">
<title>ENCOMENDAS__IdProduto_</title>
<ellipse fill="#ffffff" stroke="#000000" cx="48.859" cy="-882" rx="48.7185" ry="18"/>
<text text-anchor="middle" x="48.859" y="-879.5" font-family="Courier,monospace" font-size="10.00" fill="#000000">_IdProduto_</text>
</g>
<!-- ENCOMENDAS__IdProduto_&#45;&#45;ENCOMENDAS -->
<g id="edge36" class="edge">
<title>ENCOMENDAS__IdProduto_&#45;&#45;ENCOMENDAS</title>
<path fill="none" stroke="#000000" d="M77.1162,-867.1728C83.9578,-863.3682 91.1807,-859.1683 97.718,-855 114.8829,-844.0553 117.7326,-839.2212 134.718,-828 139.1507,-825.0717 143.9014,-822.0843 148.5986,-819.215"/>
</g>
<!-- ENCOMENDAS_NumCC -->
<g id="node43" class="node">
<title>ENCOMENDAS_NumCC</title>
<ellipse fill="#ffffff" stroke="#000000" cx="48.859" cy="-828" rx="27.8353" ry="18"/>
<text text-anchor="middle" x="48.859" y="-825.5" font-family="Courier,monospace" font-size="10.00" fill="#000000">NumCC</text>
</g>
<!-- ENCOMENDAS_NumCC&#45;&#45;ENCOMENDAS -->
<g id="edge37" class="edge">
<title>ENCOMENDAS_NumCC&#45;&#45;ENCOMENDAS</title>
<path fill="none" stroke="#000000" d="M75.4065,-822.5361C94.3484,-818.6376 120.1205,-813.3334 141.3475,-808.9645"/>
</g>
<!-- ENCOMENDAS_Custo -->
<g id="node44" class="node">
<title>ENCOMENDAS_Custo</title>
<ellipse fill="#ffffff" stroke="#000000" cx="48.859" cy="-774" rx="27.8353" ry="18"/>
<text text-anchor="middle" x="48.859" y="-771.5" font-family="Courier,monospace" font-size="10.00" fill="#000000">Custo</text>
</g>
<!-- ENCOMENDAS_Custo&#45;&#45;ENCOMENDAS -->
<g id="edge38" class="edge">
<title>ENCOMENDAS_Custo&#45;&#45;ENCOMENDAS</title>
<path fill="none" stroke="#000000" d="M75.4065,-779.4639C94.3484,-783.3624 120.1205,-788.6666 141.3475,-793.0355"/>
</g>
<!-- ENCOMENDAS_Quantidade -->
<g id="node45" class="node">
<title>ENCOMENDAS_Quantidade</title>
<ellipse fill="#ffffff" stroke="#000000" cx="48.859" cy="-720" rx="45.1548" ry="18"/>
<text text-anchor="middle" x="48.859" y="-717.5" font-family="Courier,monospace" font-size="10.00" fill="#000000">Quantidade</text>
</g>
<!-- ENCOMENDAS_Quantidade&#45;&#45;ENCOMENDAS -->
<g id="edge39" class="edge">
<title>ENCOMENDAS_Quantidade&#45;&#45;ENCOMENDAS</title>
<path fill="none" stroke="#000000" d="M75.9481,-734.4932C83.09,-738.4436 90.7468,-742.7958 97.718,-747 116.7466,-758.4758 137.6792,-772.2217 153.6752,-782.9728"/>
</g>
<!-- COMPRA&#45;&#45;PRODUTO -->
<g id="edge41" class="edge">
<title>COMPRA&#45;&#45;PRODUTO</title>
<path fill="none" stroke="#000000" d="M687.4089,-741.2803C716.3023,-738.2406 756.6319,-733.9978 783.8439,-731.135"/>
<path fill="none" stroke="transparent" d="M687.6182,-743.2693C716.5116,-740.2296 756.8411,-735.9868 784.0531,-733.124"/>
<path fill="none" stroke="#000000" d="M687.8274,-745.2583C716.7208,-742.2186 757.0504,-737.9758 784.2624,-735.113"/>
<text text-anchor="middle" x="747.7482" y="-739" font-family="Courier,monospace" font-size="10.00" fill="#000000">N</text>
</g>
<!-- FORNECE&#45;&#45;PRODUTO -->
<g id="edge43" class="edge">
<title>FORNECE&#45;&#45;PRODUTO</title>
<path fill="none" stroke="#000000" d="M682.9968,-698.0099C712.0697,-704.6668 755.6391,-714.6429 784.4826,-721.2473"/>
<path fill="none" stroke="transparent" d="M682.5504,-699.9594C711.6233,-706.6163 755.1927,-716.5925 784.0362,-723.1968"/>
<path fill="none" stroke="#000000" d="M682.104,-701.909C711.1769,-708.5658 754.7464,-718.542 783.5898,-725.1463"/>
<text text-anchor="middle" x="747.7482" y="-717" font-family="Courier,monospace" font-size="10.00" fill="#000000">N</text>
</g>
<!-- VENDE&#45;&#45;PRODUTO -->
<g id="edge45" class="edge">
<title>VENDE&#45;&#45;PRODUTO</title>
<path fill="none" stroke="#000000" d="M677.1889,-644.0764C692.0764,-648.7986 711.1071,-655.6707 727.1903,-664.2358 751.6955,-677.3501 776.7468,-696.3463 793.8571,-710.3263"/>
<path fill="none" stroke="transparent" d="M676.5844,-645.9828C691.3971,-650.6797 710.4278,-657.5518 726.2482,-666 750.487,-678.9437 775.5384,-697.9399 792.5916,-711.875"/>
<path fill="none" stroke="#000000" d="M675.9799,-647.8893C690.7179,-652.5608 709.7485,-659.4329 725.3061,-667.7642 749.2786,-680.5374 774.3299,-699.5336 791.3261,-713.4237"/>
<text text-anchor="middle" x="747.7482" y="-682" font-family="Courier,monospace" font-size="10.00" fill="#000000">N</text>
</g>
<!-- ENCOMENDA&#45;&#45;CLIENTE -->
<g id="edge47" class="edge">
<title>ENCOMENDA&#45;&#45;CLIENTE</title>
<path fill="none" stroke="#000000" d="M366.9235,-890.4048C378.6742,-894.6098 391.5089,-900.6344 401.41,-909 442.8686,-944.0289 470.7099,-1003.6451 482.8358,-1033.6287"/>
<text text-anchor="middle" x="422.91" y="-934" font-family="Courier,monospace" font-size="10.00" fill="#000000">1</text>
</g>
<!-- SUPERVISIONA&#45;&#45;FUNCIONARIO -->
<g id="edge49" class="edge">
<title>SUPERVISIONA&#45;&#45;FUNCIONARIO</title>
<path fill="none" stroke="#000000" d="M579.7114,-254.4678C570.6634,-255.4582 561.5974,-256.9124 553.0641,-259 542.9626,-261.4712 532.5014,-265.5548 523.062,-269.8887"/>
<text text-anchor="middle" x="556.5641" y="-262" font-family="Courier,monospace" font-size="10.00" fill="#000000">1</text>
</g>
<!-- SUPERVISIONA_Supervisor -->
<g id="node51" class="node">
<title>SUPERVISIONA_Supervisor</title>
<ellipse fill="#ffffff" stroke="#000000" cx="489.737" cy="-221" rx="45.1548" ry="18"/>
<text text-anchor="middle" x="489.737" y="-218.5" font-family="Courier,monospace" font-size="10.00" fill="#000000">Supervisor</text>
</g>
<!-- SUPERVISIONA_Supervisor&#45;&#45;SUPERVISIONA -->
<g id="edge50" class="edge">
<title>SUPERVISIONA_Supervisor&#45;&#45;SUPERVISIONA</title>
<path fill="none" stroke="#000000" d="M530.6533,-229.0952C540.301,-231.0179 550.5473,-233.071 560.0641,-235 577.0236,-238.4375 595.7275,-242.2859 611.8236,-245.6155"/>
</g>
<!-- SUPERVISIONA_Horas -->
<g id="node52" class="node">
<title>SUPERVISIONA_Horas</title>
<ellipse fill="#ffffff" stroke="#000000" cx="489.737" cy="-167" rx="27.8353" ry="18"/>
<text text-anchor="middle" x="489.737" y="-164.5" font-family="Courier,monospace" font-size="10.00" fill="#000000">Horas</text>
</g>
<!-- SUPERVISIONA_Horas&#45;&#45;SUPERVISIONA -->
<g id="edge51" class="edge">
<title>SUPERVISIONA_Horas&#45;&#45;SUPERVISIONA</title>
<path fill="none" stroke="#000000" d="M510.8162,-178.864C518.5651,-183.4049 527.3316,-188.7563 535.0641,-194 555.0023,-207.5208 556.9461,-215.4079 578.0641,-227 590.6656,-233.9172 605.3943,-239.7023 618.3853,-244.1203"/>
</g>
<!-- TRABALHA_EM&#45;&#45;DEPARTAMENTO -->
<g id="edge53" class="edge">
<title>TRABALHA_EM&#45;&#45;DEPARTAMENTO</title>
<path fill="none" stroke="#000000" d="M680.7104,-304.391C694.9592,-298.4882 712.1221,-290.4282 726.2482,-281 753.6248,-262.728 780.7483,-235.9069 797.3724,-218.2049"/>
<text text-anchor="middle" x="747.7482" y="-270" font-family="Courier,monospace" font-size="10.00" fill="#000000">1</text>
</g>
</g>
</svg>
