<?xml version="1.0" encoding="UTF-8" standalone="no"?>
<!DOCTYPE svg PUBLIC "-//W3C//DTD SVG 1.1//EN"
 "http://www.w3.org/Graphics/SVG/1.1/DTD/svg11.dtd">
<!-- Generated by graphviz version 2.40.1 (20161225.0304)
 -->
<!-- Title: %3 Pages: 1 -->
<svg width="712pt" height="1256pt"
 viewBox="0.00 0.00 712.47 1256.00" xmlns="http://www.w3.org/2000/svg" xmlns:xlink="http://www.w3.org/1999/xlink">
<g id="graph0" class="graph" transform="scale(1 1) rotate(0) translate(4 1252)">
<title>%3</title>
<polygon fill="#ffffff" stroke="transparent" points="-4,4 -4,-1252 708.4662,-1252 708.4662,4 -4,4"/>
<!-- CLIENTE -->
<g id="node1" class="node">
<title>CLIENTE</title>
<polygon fill="#ffffff" stroke="#000000" points="365.455,-758 306.455,-758 306.455,-722 365.455,-722 365.455,-758"/>
<text text-anchor="middle" x="335.955" y="-737.5" font-family="Courier,monospace" font-size="10.00" fill="#000000">CLIENTE</text>
</g>
<!-- COMPRA -->
<g id="node48" class="node">
<title>COMPRA</title>
<polygon fill="#ffffff" stroke="#000000" points="498.3741,-1035 454.1293,-1017 498.3741,-999 542.6189,-1017 498.3741,-1035"/>
<text text-anchor="middle" x="498.3741" y="-1014.5" font-family="Courier,monospace" font-size="10.00" fill="#000000">COMPRA</text>
</g>
<!-- CLIENTE&#45;&#45;COMPRA -->
<g id="edge43" class="edge">
<title>CLIENTE&#45;&#45;COMPRA</title>
<path fill="none" stroke="#000000" d="M339.1909,-757.9821C343.2493,-803.2775 360.0269,-922.8316 425.7032,-988.5928 436.2994,-999.5267 452.7441,-1006.1445 467.0424,-1009.8969"/>
<path fill="none" stroke="transparent" d="M337.1989,-758.1607C341.2687,-803.5555 358.0464,-923.1095 424.2821,-990 435.5527,-1001.3821 451.9975,-1007.9999 466.5327,-1011.8309"/>
<path fill="none" stroke="#000000" d="M335.2069,-758.3393C339.2881,-803.8334 356.0658,-923.3875 422.8609,-991.4072 434.8061,-1003.2375 451.2508,-1009.8553 466.0229,-1013.7648"/>
<text text-anchor="middle" x="402.7821" y="-971" font-family="Courier,monospace" font-size="10.00" fill="#000000">M</text>
</g>
<!-- ENCOMENDA -->
<g id="node53" class="node">
<title>ENCOMENDA</title>
<polygon fill="#ffffff" stroke="#000000" points="498.3741,-549 439.1596,-531 498.3741,-513 557.5886,-531 498.3741,-549"/>
<text text-anchor="middle" x="498.3741" y="-528.5" font-family="Courier,monospace" font-size="10.00" fill="#000000">ENCOMENDA</text>
</g>
<!-- CLIENTE&#45;&#45;ENCOMENDA -->
<g id="edge51" class="edge">
<title>CLIENTE&#45;&#45;ENCOMENDA</title>
<path fill="none" stroke="#000000" d="M365.7326,-731.1519C380.3036,-725.2603 396.7237,-715.975 406.2821,-702 442.694,-648.7631 384.0859,-608.4407 424.2821,-558 432.729,-547.4003 445.7233,-540.9609 458.4847,-537.0493"/>
<text text-anchor="middle" x="402.7821" y="-713" font-family="Courier,monospace" font-size="10.00" fill="#000000">1</text>
</g>
<!-- CLIENTE_NumCC_ -->
<g id="node2" class="node">
<title>CLIENTE_NumCC_</title>
<ellipse fill="#ffffff" stroke="#000000" cx="190.641" cy="-848" rx="31.3996" ry="18"/>
<text text-anchor="start" x="172.141" y="-846.5" font-family="Courier,monospace" text-decoration="underline" font-size="10.00" fill="#000000">NumCC_</text>
</g>
<!-- CLIENTE_NumCC_&#45;&#45;CLIENTE -->
<g id="edge1" class="edge">
<title>CLIENTE_NumCC_&#45;&#45;CLIENTE</title>
<path fill="none" stroke="#000000" d="M217.8181,-838.9097C229.3644,-834.4133 242.6626,-828.3598 253.628,-821 280.2658,-803.1212 305.7653,-775.9503 321.1441,-758.0863"/>
</g>
<!-- CLIENTE_Nome -->
<g id="node3" class="node">
<title>CLIENTE_Nome</title>
<ellipse fill="#ffffff" stroke="#000000" cx="190.641" cy="-794" rx="27" ry="18"/>
<text text-anchor="middle" x="190.641" y="-791.5" font-family="Courier,monospace" font-size="10.00" fill="#000000">Nome</text>
</g>
<!-- CLIENTE_Nome&#45;&#45;CLIENTE -->
<g id="edge2" class="edge">
<title>CLIENTE_Nome&#45;&#45;CLIENTE</title>
<path fill="none" stroke="#000000" d="M214.3116,-785.2038C239.4035,-775.8794 279.0855,-761.1332 306.2583,-751.0356"/>
</g>
<!-- CLIENTE_DataNascimento -->
<g id="node4" class="node">
<title>CLIENTE_DataNascimento</title>
<ellipse fill="#ffffff" stroke="#000000" cx="190.641" cy="-740" rx="59.4099" ry="18"/>
<text text-anchor="middle" x="190.641" y="-737.5" font-family="Courier,monospace" font-size="10.00" fill="#000000">DataNascimento</text>
</g>
<!-- CLIENTE_DataNascimento&#45;&#45;CLIENTE -->
<g id="edge3" class="edge">
<title>CLIENTE_DataNascimento&#45;&#45;CLIENTE</title>
<path fill="none" stroke="#000000" d="M250.1651,-740C269.4465,-740 290.0043,-740 306.1608,-740"/>
</g>
<!-- CLIENTE_Genero -->
<g id="node5" class="node">
<title>CLIENTE_Genero</title>
<ellipse fill="#ffffff" stroke="#000000" cx="190.641" cy="-686" rx="31.3996" ry="18"/>
<text text-anchor="middle" x="190.641" y="-683.5" font-family="Courier,monospace" font-size="10.00" fill="#000000">Genero</text>
</g>
<!-- CLIENTE_Genero&#45;&#45;CLIENTE -->
<g id="edge4" class="edge">
<title>CLIENTE_Genero&#45;&#45;CLIENTE</title>
<path fill="none" stroke="#000000" d="M216.9563,-695.779C242.147,-705.1401 280.0931,-719.2412 306.3323,-728.9919"/>
</g>
<!-- CLIENTE_Enail -->
<g id="node6" class="node">
<title>CLIENTE_Enail</title>
<ellipse fill="#ffffff" stroke="#000000" cx="190.641" cy="-632" rx="27.8353" ry="18"/>
<text text-anchor="middle" x="190.641" y="-629.5" font-family="Courier,monospace" font-size="10.00" fill="#000000">Enail</text>
</g>
<!-- CLIENTE_Enail&#45;&#45;CLIENTE -->
<g id="edge5" class="edge">
<title>CLIENTE_Enail&#45;&#45;CLIENTE</title>
<path fill="none" stroke="#000000" d="M215.3504,-640.1424C227.4355,-644.7209 241.8723,-651.1098 253.628,-659 280.2658,-676.8788 305.7653,-704.0497 321.1441,-721.9137"/>
</g>
<!-- CLIENTE_NumTelemovel -->
<g id="node7" class="node">
<title>CLIENTE_NumTelemovel</title>
<ellipse fill="#ffffff" stroke="#000000" cx="190.641" cy="-574" rx="52.2899" ry="18"/>
<ellipse fill="none" stroke="#000000" cx="190.641" cy="-574" rx="56.2822" ry="22"/>
<text text-anchor="middle" x="190.641" y="-571.5" font-family="Courier,monospace" font-size="10.00" fill="#000000">NumTelemovel</text>
</g>
<!-- CLIENTE_NumTelemovel&#45;&#45;CLIENTE -->
<g id="edge6" class="edge">
<title>CLIENTE_NumTelemovel&#45;&#45;CLIENTE</title>
<path fill="none" stroke="#000000" d="M230.7852,-589.5027C238.8972,-593.7601 246.9693,-598.9168 253.628,-605 290.7171,-638.8841 316.8496,-693.3098 328.7375,-721.5941"/>
</g>
<!-- CLIENTE_Morada -->
<g id="node8" class="node">
<title>CLIENTE_Morada</title>
<ellipse fill="#ffffff" stroke="#000000" cx="190.641" cy="-902" rx="31.3996" ry="18"/>
<text text-anchor="middle" x="190.641" y="-899.5" font-family="Courier,monospace" font-size="10.00" fill="#000000">Morada</text>
</g>
<!-- CLIENTE_Morada&#45;&#45;CLIENTE -->
<g id="edge7" class="edge">
<title>CLIENTE_Morada&#45;&#45;CLIENTE</title>
<path fill="none" stroke="#000000" d="M218.7665,-894.1506C230.4807,-889.8738 243.648,-883.649 253.628,-875 291.7994,-841.9192 317.6297,-786.6508 329.1398,-758.1791"/>
</g>
<!-- CLIENTE_Morada_Rua -->
<g id="node9" class="node">
<title>CLIENTE_Morada_Rua</title>
<ellipse fill="#ffffff" stroke="#000000" cx="45.327" cy="-1010" rx="27" ry="18"/>
<text text-anchor="middle" x="45.327" y="-1007.5" font-family="Courier,monospace" font-size="10.00" fill="#000000">Rua</text>
</g>
<!-- CLIENTE_Morada_Rua&#45;&#45;CLIENTE_Morada -->
<g id="edge8" class="edge">
<title>CLIENTE_Morada_Rua&#45;&#45;CLIENTE_Morada</title>
<path fill="none" stroke="#000000" d="M67.2799,-999.2485C75.1233,-994.8281 83.7263,-989.2685 90.6541,-983 111.1532,-964.4518 106.4309,-950.715 127.6541,-933 138.4143,-924.0185 152.2178,-916.8506 164.1589,-911.6793"/>
</g>
<!-- CLIENTE_Morada_NumRua -->
<g id="node10" class="node">
<title>CLIENTE_Morada_NumRua</title>
<ellipse fill="#ffffff" stroke="#000000" cx="45.327" cy="-956" rx="31.3996" ry="18"/>
<text text-anchor="middle" x="45.327" y="-953.5" font-family="Courier,monospace" font-size="10.00" fill="#000000">NumRua</text>
</g>
<!-- CLIENTE_Morada_NumRua&#45;&#45;CLIENTE_Morada -->
<g id="edge9" class="edge">
<title>CLIENTE_Morada_NumRua&#45;&#45;CLIENTE_Morada</title>
<path fill="none" stroke="#000000" d="M71.6423,-946.221C97.8145,-936.4952 137.7553,-921.6528 164.0305,-911.8887"/>
</g>
<!-- CLIENTE_Morada_Andar -->
<g id="node11" class="node">
<title>CLIENTE_Morada_Andar</title>
<ellipse fill="#ffffff" stroke="#000000" cx="45.327" cy="-902" rx="34.9638" ry="18"/>
<text text-anchor="middle" x="45.327" y="-899.5" font-family="Courier,monospace" font-size="10.00" fill="#000000">Andar ?</text>
</g>
<!-- CLIENTE_Morada_Andar&#45;&#45;CLIENTE_Morada -->
<g id="edge10" class="edge">
<title>CLIENTE_Morada_Andar&#45;&#45;CLIENTE_Morada</title>
<path fill="none" stroke="#000000" d="M80.1334,-902C104.1472,-902 135.8145,-902 159.0919,-902"/>
</g>
<!-- CLIENTE_Morada_Localidade -->
<g id="node12" class="node">
<title>CLIENTE_Morada_Localidade</title>
<ellipse fill="#ffffff" stroke="#000000" cx="45.327" cy="-848" rx="45.1548" ry="18"/>
<text text-anchor="middle" x="45.327" y="-845.5" font-family="Courier,monospace" font-size="10.00" fill="#000000">Localidade</text>
</g>
<!-- CLIENTE_Morada_Localidade&#45;&#45;CLIENTE_Morada -->
<g id="edge11" class="edge">
<title>CLIENTE_Morada_Localidade&#45;&#45;CLIENTE_Morada</title>
<path fill="none" stroke="#000000" d="M78.665,-860.3887C104.6406,-870.0415 140.2109,-883.2597 164.2349,-892.1873"/>
</g>
<!-- CLIENTE_Morada_CodPostal -->
<g id="node13" class="node">
<title>CLIENTE_Morada_CodPostal</title>
<ellipse fill="none" stroke="#000000" stroke-dasharray="5,2" cx="45.327" cy="-794" rx="41.5911" ry="18"/>
<text text-anchor="middle" x="45.327" y="-791.5" font-family="Courier,monospace" font-size="10.00" fill="#000000">CodPostal</text>
</g>
<!-- CLIENTE_Morada_CodPostal&#45;&#45;CLIENTE_Morada -->
<g id="edge12" class="edge">
<title>CLIENTE_Morada_CodPostal&#45;&#45;CLIENTE_Morada</title>
<path fill="none" stroke="#000000" d="M73.0385,-807.9169C79.2014,-811.6946 85.4444,-816.111 90.6541,-821 111.8687,-840.9088 105.1702,-856.5366 127.6541,-875 137.8602,-883.3811 151.0574,-889.5703 162.7332,-893.8927"/>
</g>
<!-- PRODUTO -->
<g id="node14" class="node">
<title>PRODUTO</title>
<polygon fill="#ffffff" stroke="#000000" points="689.4662,-900 630.4662,-900 630.4662,-864 689.4662,-864 689.4662,-900"/>
<text text-anchor="middle" x="659.9662" y="-879.5" font-family="Courier,monospace" font-size="10.00" fill="#000000">PRODUTO</text>
</g>
<!-- PRODUTO__IdProduto_ -->
<g id="node15" class="node">
<title>PRODUTO__IdProduto_</title>
<ellipse fill="#ffffff" stroke="#000000" cx="498.3741" cy="-963" rx="48.7185" ry="18"/>
<text text-anchor="middle" x="498.3741" y="-960.5" font-family="Courier,monospace" font-size="10.00" fill="#000000">_IdProduto_</text>
</g>
<!-- PRODUTO__IdProduto_&#45;&#45;PRODUTO -->
<g id="edge13" class="edge">
<title>PRODUTO__IdProduto_&#45;&#45;PRODUTO</title>
<path fill="none" stroke="#000000" d="M535.5408,-951.1242C547.5407,-946.8515 560.7616,-941.6712 572.4662,-936 593.8321,-925.6477 616.6148,-911.4768 633.5753,-900.2493"/>
</g>
<!-- PRODUTO_Nome -->
<g id="node16" class="node">
<title>PRODUTO_Nome</title>
<ellipse fill="#ffffff" stroke="#000000" cx="498.3741" cy="-909" rx="27" ry="18"/>
<text text-anchor="middle" x="498.3741" y="-906.5" font-family="Courier,monospace" font-size="10.00" fill="#000000">Nome</text>
</g>
<!-- PRODUTO_Nome&#45;&#45;PRODUTO -->
<g id="edge14" class="edge">
<title>PRODUTO_Nome&#45;&#45;PRODUTO</title>
<path fill="none" stroke="#000000" d="M524.6963,-904.6019C553.6722,-899.7604 600.1445,-891.9954 630.3659,-886.9458"/>
</g>
<!-- PRODUTO_Custo -->
<g id="node17" class="node">
<title>PRODUTO_Custo</title>
<ellipse fill="#ffffff" stroke="#000000" cx="498.3741" cy="-855" rx="27.8353" ry="18"/>
<text text-anchor="middle" x="498.3741" y="-852.5" font-family="Courier,monospace" font-size="10.00" fill="#000000">Custo</text>
</g>
<!-- PRODUTO_Custo&#45;&#45;PRODUTO -->
<g id="edge15" class="edge">
<title>PRODUTO_Custo&#45;&#45;PRODUTO</title>
<path fill="none" stroke="#000000" d="M525.421,-859.5192C554.4414,-864.3681 600.393,-872.0461 630.3637,-877.0538"/>
</g>
<!-- PRODUTO_IdEmpresa -->
<g id="node18" class="node">
<title>PRODUTO_IdEmpresa</title>
<ellipse fill="#ffffff" stroke="#000000" cx="498.3741" cy="-801" rx="41.5911" ry="18"/>
<text text-anchor="middle" x="498.3741" y="-798.5" font-family="Courier,monospace" font-size="10.00" fill="#000000">IdEmpresa</text>
</g>
<!-- PRODUTO_IdEmpresa&#45;&#45;PRODUTO -->
<g id="edge16" class="edge">
<title>PRODUTO_IdEmpresa&#45;&#45;PRODUTO</title>
<path fill="none" stroke="#000000" d="M532.1655,-811.6862C545.0221,-816.1714 559.6527,-821.7915 572.4662,-828 593.8321,-838.3523 616.6148,-852.5232 633.5753,-863.7507"/>
</g>
<!-- PRODUTO_Quantidade -->
<g id="node19" class="node">
<title>PRODUTO_Quantidade</title>
<ellipse fill="#ffffff" stroke="#000000" cx="498.3741" cy="-747" rx="45.1548" ry="18"/>
<text text-anchor="middle" x="498.3741" y="-744.5" font-family="Courier,monospace" font-size="10.00" fill="#000000">Quantidade</text>
</g>
<!-- PRODUTO_Quantidade&#45;&#45;PRODUTO -->
<g id="edge17" class="edge">
<title>PRODUTO_Quantidade&#45;&#45;PRODUTO</title>
<path fill="none" stroke="#000000" d="M536.8658,-756.6423C548.9453,-760.7809 561.8782,-766.4465 572.4662,-774 606.8445,-798.5257 635.11,-839.9886 649.5551,-863.7715"/>
</g>
<!-- DEPARTAMENTO -->
<g id="node20" class="node">
<title>DEPARTAMENTO</title>
<polygon fill="#ffffff" stroke="#000000" points="704.4662,-603 615.4662,-603 615.4662,-567 704.4662,-567 704.4662,-603"/>
<text text-anchor="middle" x="659.9662" y="-582.5" font-family="Courier,monospace" font-size="10.00" fill="#000000">DEPARTAMENTO</text>
</g>
<!-- DEPARTAMENTO__NomeDepartamento_ -->
<g id="node21" class="node">
<title>DEPARTAMENTO__NomeDepartamento_</title>
<ellipse fill="#ffffff" stroke="#000000" cx="498.3741" cy="-585" rx="73.6658" ry="18"/>
<text text-anchor="middle" x="498.3741" y="-582.5" font-family="Courier,monospace" font-size="10.00" fill="#000000">_NomeDepartamento_</text>
</g>
<!-- DEPARTAMENTO__NomeDepartamento_&#45;&#45;DEPARTAMENTO -->
<g id="edge18" class="edge">
<title>DEPARTAMENTO__NomeDepartamento_&#45;&#45;DEPARTAMENTO</title>
<path fill="none" stroke="#000000" d="M572.0771,-585C586.7271,-585 601.6906,-585 615.0209,-585"/>
</g>
<!-- DEPARTAMENTO_Gestor -->
<g id="node22" class="node">
<title>DEPARTAMENTO_Gestor</title>
<ellipse fill="#ffffff" stroke="#000000" cx="498.3741" cy="-639" rx="31.3996" ry="18"/>
<text text-anchor="middle" x="498.3741" y="-636.5" font-family="Courier,monospace" font-size="10.00" fill="#000000">Gestor</text>
</g>
<!-- DEPARTAMENTO_Gestor&#45;&#45;DEPARTAMENTO -->
<g id="edge19" class="edge">
<title>DEPARTAMENTO_Gestor&#45;&#45;DEPARTAMENTO</title>
<path fill="none" stroke="#000000" d="M525.421,-629.9616C549.949,-621.765 586.5722,-609.5264 615.4187,-599.8867"/>
</g>
<!-- FUNCIONARIO -->
<g id="node23" class="node">
<title>FUNCIONARIO</title>
<polygon fill="#ffffff" stroke="#000000" points="377.455,-294 294.455,-294 294.455,-258 377.455,-258 377.455,-294"/>
<text text-anchor="middle" x="335.955" y="-273.5" font-family="Courier,monospace" font-size="10.00" fill="#000000">FUNCIONARIO</text>
</g>
<!-- SUPERVISIONA -->
<g id="node49" class="node">
<title>SUPERVISIONA</title>
<polygon fill="#ffffff" stroke="#000000" points="498.3741,-171 424.1899,-153 498.3741,-135 572.5584,-153 498.3741,-171"/>
<text text-anchor="middle" x="498.3741" y="-150.5" font-family="Courier,monospace" font-size="10.00" fill="#000000">SUPERVISIONA</text>
</g>
<!-- FUNCIONARIO&#45;&#45;SUPERVISIONA -->
<g id="edge45" class="edge">
<title>FUNCIONARIO&#45;&#45;SUPERVISIONA</title>
<path fill="none" stroke="#000000" d="M346.9757,-256.4551C362.5901,-235.0162 390.8842,-199.9817 423.1723,-178.3361 434.8987,-170.5586 448.6957,-164.7769 461.4179,-160.5001"/>
<path fill="none" stroke="transparent" d="M348.5924,-257.6324C364.1461,-236.2728 392.4402,-201.2383 424.2821,-180 435.6717,-172.4032 449.4687,-166.6215 462.0544,-162.3961"/>
<path fill="none" stroke="#000000" d="M350.2092,-258.8097C365.702,-237.5294 393.9961,-202.4949 425.3918,-181.6639 436.4447,-174.2478 450.2417,-168.4661 462.691,-164.2921"/>
<text text-anchor="middle" x="402.7821" y="-200" font-family="Courier,monospace" font-size="10.00" fill="#000000">1</text>
</g>
<!-- TRABALHA_EM -->
<g id="node52" class="node">
<title>TRABALHA_EM</title>
<polygon fill="#ffffff" stroke="#000000" points="498.3741,-495 429.1798,-477 498.3741,-459 567.5685,-477 498.3741,-495"/>
<text text-anchor="middle" x="498.3741" y="-474.5" font-family="Courier,monospace" font-size="10.00" fill="#000000">TRABALHA_EM</text>
</g>
<!-- FUNCIONARIO&#45;&#45;TRABALHA_EM -->
<g id="edge49" class="edge">
<title>FUNCIONARIO&#45;&#45;TRABALHA_EM</title>
<path fill="none" stroke="#000000" d="M340.3337,-294.003C349.7351,-328.9586 375.1001,-406.4042 424.2821,-450 434.2198,-458.809 447.264,-464.8188 459.6338,-468.886"/>
<text text-anchor="middle" x="402.7821" y="-434" font-family="Courier,monospace" font-size="10.00" fill="#000000">1</text>
</g>
<!-- VENDE -->
<g id="node54" class="node">
<title>VENDE</title>
<polygon fill="#ffffff" stroke="#000000" points="498.3741,-711 459.1192,-693 498.3741,-675 537.6291,-693 498.3741,-711"/>
<text text-anchor="middle" x="498.3741" y="-690.5" font-family="Courier,monospace" font-size="10.00" fill="#000000">VENDE</text>
</g>
<!-- FUNCIONARIO&#45;&#45;VENDE -->
<g id="edge53" class="edge">
<title>FUNCIONARIO&#45;&#45;VENDE</title>
<path fill="none" stroke="#000000" d="M337.7587,-294.0365C344.9871,-362.9778 373.926,-608.8207 424.2821,-666 435.321,-678.5347 452.6656,-685.2543 467.7988,-688.8545"/>
<text text-anchor="middle" x="402.7821" y="-634" font-family="Courier,monospace" font-size="10.00" fill="#000000">1</text>
</g>
<!-- FUNCIONARIO__IdFuncionario_ -->
<g id="node24" class="node">
<title>FUNCIONARIO__IdFuncionario_</title>
<ellipse fill="#ffffff" stroke="#000000" cx="190.641" cy="-396" rx="62.9739" ry="18"/>
<text text-anchor="middle" x="190.641" y="-393.5" font-family="Courier,monospace" font-size="10.00" fill="#000000">_IdFuncionario_</text>
</g>
<!-- FUNCIONARIO__IdFuncionario_&#45;&#45;FUNCIONARIO -->
<g id="edge20" class="edge">
<title>FUNCIONARIO__IdFuncionario_&#45;&#45;FUNCIONARIO</title>
<path fill="none" stroke="#000000" d="M230.7216,-381.9799C238.6636,-378.3464 246.684,-374.0161 253.628,-369 282.819,-347.9133 308.9593,-314.7618 323.6069,-294.2597"/>
</g>
<!-- FUNCIONARIO_Nome -->
<g id="node25" class="node">
<title>FUNCIONARIO_Nome</title>
<ellipse fill="#ffffff" stroke="#000000" cx="190.641" cy="-342" rx="27" ry="18"/>
<text text-anchor="middle" x="190.641" y="-339.5" font-family="Courier,monospace" font-size="10.00" fill="#000000">Nome</text>
</g>
<!-- FUNCIONARIO_Nome&#45;&#45;FUNCIONARIO -->
<g id="edge21" class="edge">
<title>FUNCIONARIO_Nome&#45;&#45;FUNCIONARIO</title>
<path fill="none" stroke="#000000" d="M213.7671,-332.3314C225.7156,-327.2741 240.5048,-320.9185 253.628,-315 268.3334,-308.3678 284.3901,-300.8293 298.3867,-294.1596"/>
</g>
<!-- FUNCIONARIO_NumCC -->
<g id="node26" class="node">
<title>FUNCIONARIO_NumCC</title>
<ellipse fill="#ffffff" stroke="#000000" cx="190.641" cy="-288" rx="27.8353" ry="18"/>
<text text-anchor="middle" x="190.641" y="-285.5" font-family="Courier,monospace" font-size="10.00" fill="#000000">NumCC</text>
</g>
<!-- FUNCIONARIO_NumCC&#45;&#45;FUNCIONARIO -->
<g id="edge22" class="edge">
<title>FUNCIONARIO_NumCC&#45;&#45;FUNCIONARIO</title>
<path fill="none" stroke="#000000" d="M218.3155,-285.7146C239.808,-283.9398 269.9582,-281.45 294.3541,-279.4354"/>
</g>
<!-- FUNCIONARIO_DataNascimento -->
<g id="node27" class="node">
<title>FUNCIONARIO_DataNascimento</title>
<ellipse fill="#ffffff" stroke="#000000" cx="190.641" cy="-234" rx="59.4099" ry="18"/>
<text text-anchor="middle" x="190.641" y="-231.5" font-family="Courier,monospace" font-size="10.00" fill="#000000">DataNascimento</text>
</g>
<!-- FUNCIONARIO_DataNascimento&#45;&#45;FUNCIONARIO -->
<g id="edge23" class="edge">
<title>FUNCIONARIO_DataNascimento&#45;&#45;FUNCIONARIO</title>
<path fill="none" stroke="#000000" d="M233.8466,-246.4877C252.9214,-252.0008 275.2561,-258.4562 294.1648,-263.9214"/>
</g>
<!-- FUNCIONARIO_Email -->
<g id="node28" class="node">
<title>FUNCIONARIO_Email</title>
<ellipse fill="#ffffff" stroke="#000000" cx="190.641" cy="-180" rx="34.9638" ry="18"/>
<text text-anchor="middle" x="190.641" y="-177.5" font-family="Courier,monospace" font-size="10.00" fill="#000000">Email ?</text>
</g>
<!-- FUNCIONARIO_Email&#45;&#45;FUNCIONARIO -->
<g id="edge24" class="edge">
<title>FUNCIONARIO_Email&#45;&#45;FUNCIONARIO</title>
<path fill="none" stroke="#000000" d="M219.4242,-190.2702C230.4777,-194.7391 242.9861,-200.4569 253.628,-207 277.4577,-221.6515 301.6267,-242.8226 317.5561,-257.8429"/>
</g>
<!-- FUNCIONARIO_Departamento -->
<g id="node29" class="node">
<title>FUNCIONARIO_Departamento</title>
<ellipse fill="#ffffff" stroke="#000000" cx="190.641" cy="-126" rx="52.2822" ry="18"/>
<text text-anchor="middle" x="190.641" y="-123.5" font-family="Courier,monospace" font-size="10.00" fill="#000000">Departamento</text>
</g>
<!-- FUNCIONARIO_Departamento&#45;&#45;FUNCIONARIO -->
<g id="edge25" class="edge">
<title>FUNCIONARIO_Departamento&#45;&#45;FUNCIONARIO</title>
<path fill="none" stroke="#000000" d="M229.2938,-138.4096C237.8519,-142.2494 246.4882,-147.0717 253.628,-153 256.0188,-154.9852 301.8307,-224.2421 324.0573,-257.9406"/>
</g>
<!-- FUNCIONARIO_Supervisor -->
<g id="node30" class="node">
<title>FUNCIONARIO_Supervisor</title>
<ellipse fill="#ffffff" stroke="#000000" cx="190.641" cy="-72" rx="52.2822" ry="18"/>
<text text-anchor="middle" x="190.641" y="-69.5" font-family="Courier,monospace" font-size="10.00" fill="#000000">Supervisor ?</text>
</g>
<!-- FUNCIONARIO_Supervisor&#45;&#45;FUNCIONARIO -->
<g id="edge26" class="edge">
<title>FUNCIONARIO_Supervisor&#45;&#45;FUNCIONARIO</title>
<path fill="none" stroke="#000000" d="M231.1489,-83.4426C239.4284,-87.2988 247.4781,-92.3713 253.628,-99 288.1371,-136.196 268.301,-161.4377 290.628,-207 299.5207,-225.1473 312.368,-244.2361 322.1159,-257.7241"/>
</g>
<!-- FUNCIONARIO_Salario -->
<g id="node31" class="node">
<title>FUNCIONARIO_Salario</title>
<ellipse fill="#ffffff" stroke="#000000" cx="190.641" cy="-18" rx="34.9638" ry="18"/>
<text text-anchor="middle" x="190.641" y="-15.5" font-family="Courier,monospace" font-size="10.00" fill="#000000">Salario</text>
</g>
<!-- FUNCIONARIO_Salario&#45;&#45;FUNCIONARIO -->
<g id="edge27" class="edge">
<title>FUNCIONARIO_Salario&#45;&#45;FUNCIONARIO</title>
<path fill="none" stroke="#000000" d="M222.4485,-25.2512C233.7564,-29.3145 245.648,-35.5436 253.628,-45 301.2584,-101.4426 262.0455,-138.9011 290.628,-207 298.3937,-225.5021 311.2217,-244.4035 321.2526,-257.734"/>
</g>
<!-- FUNCIONARIO_HorasTradalho -->
<g id="node32" class="node">
<title>FUNCIONARIO_HorasTradalho</title>
<ellipse fill="none" stroke="#000000" stroke-dasharray="5,2" cx="190.641" cy="-504" rx="55.8461" ry="18"/>
<text text-anchor="middle" x="190.641" y="-501.5" font-family="Courier,monospace" font-size="10.00" fill="#000000">HorasTradalho</text>
</g>
<!-- FUNCIONARIO_HorasTradalho&#45;&#45;FUNCIONARIO -->
<g id="edge28" class="edge">
<title>FUNCIONARIO_HorasTradalho&#45;&#45;FUNCIONARIO</title>
<path fill="none" stroke="#000000" d="M231.8457,-491.8251C239.7975,-488.0467 247.5366,-483.191 253.628,-477 305.994,-423.7775 326.6048,-332.6442 333.2561,-294.0814"/>
</g>
<!-- FUNCIONARIO_Gere -->
<g id="node33" class="node">
<title>FUNCIONARIO_Gere</title>
<ellipse fill="#ffffff" stroke="#000000" cx="190.641" cy="-450" rx="31.3996" ry="18"/>
<text text-anchor="middle" x="190.641" y="-447.5" font-family="Courier,monospace" font-size="10.00" fill="#000000">Gere ?</text>
</g>
<!-- FUNCIONARIO_Gere&#45;&#45;FUNCIONARIO -->
<g id="edge29" class="edge">
<title>FUNCIONARIO_Gere&#45;&#45;FUNCIONARIO</title>
<path fill="none" stroke="#000000" d="M218.9225,-442.3273C230.6644,-438.0818 243.8101,-431.8326 253.628,-423 294.2923,-386.4165 319.4771,-324.8423 330.099,-294.3076"/>
</g>
<!-- FORNECEDOR -->
<g id="node34" class="node">
<title>FORNECEDOR</title>
<polygon fill="#ffffff" stroke="#000000" points="374.455,-1089 297.455,-1089 297.455,-1053 374.455,-1053 374.455,-1089"/>
<text text-anchor="middle" x="335.955" y="-1068.5" font-family="Courier,monospace" font-size="10.00" fill="#000000">FORNECEDOR</text>
</g>
<!-- FORNECE -->
<g id="node47" class="node">
<title>FORNECE</title>
<polygon fill="#ffffff" stroke="#000000" points="498.3741,-1089 449.1394,-1071 498.3741,-1053 547.6088,-1071 498.3741,-1089"/>
<text text-anchor="middle" x="498.3741" y="-1068.5" font-family="Courier,monospace" font-size="10.00" fill="#000000">FORNECE</text>
</g>
<!-- FORNECEDOR&#45;&#45;FORNECE -->
<g id="edge41" class="edge">
<title>FORNECEDOR&#45;&#45;FORNECE</title>
<path fill="none" stroke="#000000" d="M374.8584,-1069C397.1004,-1069 425.2166,-1069 449.0031,-1069"/>
<path fill="none" stroke="transparent" d="M374.8584,-1071C397.1004,-1071 425.2166,-1071 449.0031,-1071"/>
<path fill="none" stroke="#000000" d="M374.8584,-1073C397.1004,-1073 425.2166,-1073 449.0031,-1073"/>
<text text-anchor="middle" x="402.7821" y="-1074" font-family="Courier,monospace" font-size="10.00" fill="#000000">M</text>
</g>
<!-- FORNECEDOR__IdEmpresa_ -->
<g id="node35" class="node">
<title>FORNECEDOR__IdEmpresa_</title>
<ellipse fill="#ffffff" stroke="#000000" cx="190.641" cy="-1122" rx="48.7185" ry="18"/>
<text text-anchor="middle" x="190.641" y="-1119.5" font-family="Courier,monospace" font-size="10.00" fill="#000000">_IdEmpresa_</text>
</g>
<!-- FORNECEDOR__IdEmpresa_&#45;&#45;FORNECEDOR -->
<g id="edge30" class="edge">
<title>FORNECEDOR__IdEmpresa_&#45;&#45;FORNECEDOR</title>
<path fill="none" stroke="#000000" d="M226.1888,-1109.524C247.6988,-1101.9748 275.1404,-1092.3438 297.2044,-1084.6001"/>
</g>
<!-- FORNECEDOR_NomeEmpresa -->
<g id="node36" class="node">
<title>FORNECEDOR_NomeEmpresa</title>
<ellipse fill="#ffffff" stroke="#000000" cx="190.641" cy="-1068" rx="48.7185" ry="18"/>
<text text-anchor="middle" x="190.641" y="-1065.5" font-family="Courier,monospace" font-size="10.00" fill="#000000">NomeEmpresa</text>
</g>
<!-- FORNECEDOR_NomeEmpresa&#45;&#45;FORNECEDOR -->
<g id="edge31" class="edge">
<title>FORNECEDOR_NomeEmpresa&#45;&#45;FORNECEDOR</title>
<path fill="none" stroke="#000000" d="M239.4327,-1069.0073C258.2317,-1069.3954 279.4285,-1069.833 297.1597,-1070.1991"/>
</g>
<!-- FORNECEDOR_IdProduto -->
<g id="node37" class="node">
<title>FORNECEDOR_IdProduto</title>
<ellipse fill="#ffffff" stroke="#000000" cx="190.641" cy="-1014" rx="41.5911" ry="18"/>
<text text-anchor="middle" x="190.641" y="-1011.5" font-family="Courier,monospace" font-size="10.00" fill="#000000">IdProduto</text>
</g>
<!-- FORNECEDOR_IdProduto&#45;&#45;FORNECEDOR -->
<g id="edge32" class="edge">
<title>FORNECEDOR_IdProduto&#45;&#45;FORNECEDOR</title>
<path fill="none" stroke="#000000" d="M221.8145,-1026.2279C243.9141,-1034.8966 273.7139,-1046.5857 297.3228,-1055.8464"/>
</g>
<!-- FORNECEDOR_NomeProduto -->
<g id="node38" class="node">
<title>FORNECEDOR_NomeProduto</title>
<ellipse fill="#ffffff" stroke="#000000" cx="190.641" cy="-960" rx="48.7185" ry="18"/>
<text text-anchor="middle" x="190.641" y="-957.5" font-family="Courier,monospace" font-size="10.00" fill="#000000">NomeProduto</text>
</g>
<!-- FORNECEDOR_NomeProduto&#45;&#45;FORNECEDOR -->
<g id="edge33" class="edge">
<title>FORNECEDOR_NomeProduto&#45;&#45;FORNECEDOR</title>
<path fill="none" stroke="#000000" d="M226.2366,-972.4011C235.5351,-976.3926 245.2826,-981.288 253.628,-987 280.9259,-1005.684 306.6429,-1034.359 321.8483,-1052.8981"/>
</g>
<!-- FORNECEDOR_Custo -->
<g id="node39" class="node">
<title>FORNECEDOR_Custo</title>
<ellipse fill="#ffffff" stroke="#000000" cx="190.641" cy="-1230" rx="27.8353" ry="18"/>
<text text-anchor="middle" x="190.641" y="-1227.5" font-family="Courier,monospace" font-size="10.00" fill="#000000">Custo</text>
</g>
<!-- FORNECEDOR_Custo&#45;&#45;FORNECEDOR -->
<g id="edge34" class="edge">
<title>FORNECEDOR_Custo&#45;&#45;FORNECEDOR</title>
<path fill="none" stroke="#000000" d="M216.2182,-1222.9989C228.5165,-1218.7009 242.8823,-1212.2186 253.628,-1203 291.1409,-1170.8182 317.0913,-1117.1941 328.8408,-1089.2285"/>
</g>
<!-- FORNECEDOR_Comissao -->
<g id="node40" class="node">
<title>FORNECEDOR_Comissao</title>
<ellipse fill="#ffffff" stroke="#000000" cx="190.641" cy="-1176" rx="38.0276" ry="18"/>
<text text-anchor="middle" x="190.641" y="-1173.5" font-family="Courier,monospace" font-size="10.00" fill="#000000">Comissao</text>
</g>
<!-- FORNECEDOR_Comissao&#45;&#45;FORNECEDOR -->
<g id="edge35" class="edge">
<title>FORNECEDOR_Comissao&#45;&#45;FORNECEDOR</title>
<path fill="none" stroke="#000000" d="M221.5497,-1165.2928C232.1371,-1160.9757 243.7865,-1155.4716 253.628,-1149 279.6205,-1131.9076 304.8886,-1106.2018 320.4253,-1089.0257"/>
</g>
<!-- ENCOMENDAS -->
<g id="node41" class="node">
<title>ENCOMENDAS</title>
<polygon fill="#ffffff" stroke="#000000" points="698.4662,-360 621.4662,-360 621.4662,-324 698.4662,-324 698.4662,-360"/>
<text text-anchor="middle" x="659.9662" y="-339.5" font-family="Courier,monospace" font-size="10.00" fill="#000000">ENCOMENDAS</text>
</g>
<!-- ENCOMENDAS__NumCC_ -->
<g id="node42" class="node">
<title>ENCOMENDAS__NumCC_</title>
<ellipse fill="#ffffff" stroke="#000000" cx="498.3741" cy="-315" rx="34.9638" ry="18"/>
<text text-anchor="middle" x="498.3741" y="-312.5" font-family="Courier,monospace" font-size="10.00" fill="#000000">_NumCC_</text>
</g>
<!-- ENCOMENDAS__NumCC_&#45;&#45;ENCOMENDAS -->
<g id="edge36" class="edge">
<title>ENCOMENDAS__NumCC_&#45;&#45;ENCOMENDAS</title>
<path fill="none" stroke="#000000" d="M531.4646,-320.529C557.5033,-324.8797 593.841,-330.9513 621.2336,-335.5283"/>
</g>
<!-- ENCOMENDAS_IdEmpresa -->
<g id="node43" class="node">
<title>ENCOMENDAS_IdEmpresa</title>
<ellipse fill="#ffffff" stroke="#000000" cx="498.3741" cy="-261" rx="41.5911" ry="18"/>
<text text-anchor="middle" x="498.3741" y="-258.5" font-family="Courier,monospace" font-size="10.00" fill="#000000">IdEmpresa</text>
</g>
<!-- ENCOMENDAS_IdEmpresa&#45;&#45;ENCOMENDAS -->
<g id="edge37" class="edge">
<title>ENCOMENDAS_IdEmpresa&#45;&#45;ENCOMENDAS</title>
<path fill="none" stroke="#000000" d="M532.1655,-271.6862C545.0221,-276.1714 559.6527,-281.7915 572.4662,-288 593.8321,-298.3523 616.6148,-312.5232 633.5753,-323.7507"/>
</g>
<!-- ENCOMENDAS_IdProduto -->
<g id="node44" class="node">
<title>ENCOMENDAS_IdProduto</title>
<ellipse fill="#ffffff" stroke="#000000" cx="498.3741" cy="-207" rx="41.5911" ry="18"/>
<text text-anchor="middle" x="498.3741" y="-204.5" font-family="Courier,monospace" font-size="10.00" fill="#000000">IdProduto</text>
</g>
<!-- ENCOMENDAS_IdProduto&#45;&#45;ENCOMENDAS -->
<g id="edge38" class="edge">
<title>ENCOMENDAS_IdProduto&#45;&#45;ENCOMENDAS</title>
<path fill="none" stroke="#000000" d="M534.9661,-216.0015C547.5774,-220.1898 561.321,-226.049 572.4662,-234 606.8445,-258.5257 635.11,-299.9886 649.5551,-323.7715"/>
</g>
<!-- ENCOMENDAS_Quantidade -->
<g id="node45" class="node">
<title>ENCOMENDAS_Quantidade</title>
<ellipse fill="#ffffff" stroke="#000000" cx="498.3741" cy="-423" rx="45.1548" ry="18"/>
<text text-anchor="middle" x="498.3741" y="-420.5" font-family="Courier,monospace" font-size="10.00" fill="#000000">Quantidade</text>
</g>
<!-- ENCOMENDAS_Quantidade&#45;&#45;ENCOMENDAS -->
<g id="edge39" class="edge">
<title>ENCOMENDAS_Quantidade&#45;&#45;ENCOMENDAS</title>
<path fill="none" stroke="#000000" d="M534.0317,-411.6591C546.4247,-407.2868 560.2688,-401.91 572.4662,-396 593.8321,-385.6477 616.6148,-371.4768 633.5753,-360.2493"/>
</g>
<!-- ENCOMENDAS_Custo -->
<g id="node46" class="node">
<title>ENCOMENDAS_Custo</title>
<ellipse fill="#ffffff" stroke="#000000" cx="498.3741" cy="-369" rx="27.8353" ry="18"/>
<text text-anchor="middle" x="498.3741" y="-366.5" font-family="Courier,monospace" font-size="10.00" fill="#000000">Custo</text>
</g>
<!-- ENCOMENDAS_Custo&#45;&#45;ENCOMENDAS -->
<g id="edge40" class="edge">
<title>ENCOMENDAS_Custo&#45;&#45;ENCOMENDAS</title>
<path fill="none" stroke="#000000" d="M525.421,-364.4808C551.6561,-360.0972 591.7285,-353.4017 621.3218,-348.457"/>
</g>
<!-- FORNECE&#45;&#45;PRODUTO -->
<g id="edge42" class="edge">
<title>FORNECE&#45;&#45;PRODUTO</title>
<path fill="none" stroke="#000000" d="M530.0216,-1062.7891C543.9209,-1058.8194 559.9053,-1052.3492 571.1587,-1042.4866 616.9103,-1003.2934 642.8932,-932.4948 653.0109,-899.4625"/>
<path fill="none" stroke="transparent" d="M530.5723,-1064.7118C544.6713,-1060.6733 560.6557,-1054.2031 572.4662,-1044 618.7879,-1003.9825 644.7707,-933.1839 654.9231,-900.0484"/>
<path fill="none" stroke="#000000" d="M531.1231,-1066.6345C545.4217,-1062.5271 561.4061,-1056.057 573.7737,-1045.5134 620.6654,-1004.6715 646.6483,-933.873 656.8354,-900.6343"/>
<text text-anchor="middle" x="593.9662" y="-1025" font-family="Courier,monospace" font-size="10.00" fill="#000000">N</text>
</g>
<!-- COMPRA&#45;&#45;PRODUTO -->
<g id="edge44" class="edge">
<title>COMPRA&#45;&#45;PRODUTO</title>
<path fill="none" stroke="#000000" d="M526.2877,-1008.6044C540.6987,-1004.4157 558.1633,-997.8289 571.3047,-988.3719 605.192,-964.3478 633.4575,-922.8849 647.8457,-899.1902"/>
<path fill="none" stroke="transparent" d="M526.8467,-1010.5247C541.4045,-1006.287 558.869,-999.7003 572.4662,-990 606.8445,-965.4743 635.11,-924.0114 649.5551,-900.2285"/>
<path fill="none" stroke="#000000" d="M527.4057,-1012.445C542.1103,-1008.1583 559.5748,-1001.5716 573.6277,-991.6281 608.4971,-966.6009 636.7626,-925.138 651.2645,-901.2667"/>
<text text-anchor="middle" x="593.9662" y="-976" font-family="Courier,monospace" font-size="10.00" fill="#000000">N</text>
</g>
<!-- SUPERVISIONA&#45;&#45;FUNCIONARIO -->
<g id="edge46" class="edge">
<title>SUPERVISIONA&#45;&#45;FUNCIONARIO</title>
<path fill="none" stroke="#000000" d="M459.0835,-161.6167C446.9561,-165.6938 434.1967,-171.5822 424.2821,-180 411.8429,-190.5612 416.4462,-199.2344 406.2821,-212 392.6058,-229.1767 374.1578,-245.7801 359.5877,-257.7698"/>
<text text-anchor="middle" x="402.7821" y="-222" font-family="Courier,monospace" font-size="10.00" fill="#000000">1</text>
</g>
<!-- SUPERVISIONA_Supervisor -->
<g id="node50" class="node">
<title>SUPERVISIONA_Supervisor</title>
<ellipse fill="#ffffff" stroke="#000000" cx="335.955" cy="-180" rx="45.1548" ry="18"/>
<text text-anchor="middle" x="335.955" y="-177.5" font-family="Courier,monospace" font-size="10.00" fill="#000000">Supervisor</text>
</g>
<!-- SUPERVISIONA_Supervisor&#45;&#45;SUPERVISIONA -->
<g id="edge47" class="edge">
<title>SUPERVISIONA_Supervisor&#45;&#45;SUPERVISIONA</title>
<path fill="none" stroke="#000000" d="M377.782,-173.0468C401.1858,-169.1562 430.3477,-164.3085 454.1315,-160.3547"/>
</g>
<!-- SUPERVISIONA_Horas -->
<g id="node51" class="node">
<title>SUPERVISIONA_Horas</title>
<ellipse fill="#ffffff" stroke="#000000" cx="335.955" cy="-126" rx="27.8353" ry="18"/>
<text text-anchor="middle" x="335.955" y="-123.5" font-family="Courier,monospace" font-size="10.00" fill="#000000">Horas</text>
</g>
<!-- SUPERVISIONA_Horas&#45;&#45;SUPERVISIONA -->
<g id="edge48" class="edge">
<title>SUPERVISIONA_Horas&#45;&#45;SUPERVISIONA</title>
<path fill="none" stroke="#000000" d="M362.7752,-130.4585C387.5529,-134.5775 424.8324,-140.7747 454.036,-145.6294"/>
</g>
<!-- TRABALHA_EM&#45;&#45;DEPARTAMENTO -->
<g id="edge50" class="edge">
<title>TRABALHA_EM&#45;&#45;DEPARTAMENTO</title>
<path fill="none" stroke="#000000" d="M564.0156,-476.0575C575.7772,-478.1219 587.4595,-481.8029 597.4662,-488 626.9311,-506.2474 645.1148,-544.1303 653.8086,-566.7769"/>
<text text-anchor="middle" x="593.9662" y="-491" font-family="Courier,monospace" font-size="10.00" fill="#000000">1</text>
</g>
<!-- ENCOMENDA&#45;&#45;ENCOMENDAS -->
<g id="edge52" class="edge">
<title>ENCOMENDA&#45;&#45;ENCOMENDAS</title>
<path fill="none" stroke="#000000" d="M540.1926,-523.7722C559.3182,-519.4951 581.3436,-511.5691 596.0998,-497.5396 636.3212,-460.3967 651.0034,-392.1027 655.8221,-359.7802"/>
<path fill="none" stroke="transparent" d="M540.6307,-525.7237C559.9954,-521.3769 582.0208,-513.451 597.4662,-499 638.2766,-460.817 652.9587,-392.5231 657.8002,-360.0754"/>
<path fill="none" stroke="#000000" d="M541.0687,-527.6751C560.6726,-523.2588 582.698,-515.3328 598.8326,-500.4604 640.2319,-461.2374 654.914,-392.9434 659.7783,-360.3705"/>
<text text-anchor="middle" x="593.9662" y="-507" font-family="Courier,monospace" font-size="10.00" fill="#000000">N</text>
</g>
<!-- VENDE&#45;&#45;PRODUTO -->
<g id="edge54" class="edge">
<title>VENDE&#45;&#45;PRODUTO</title>
<path fill="none" stroke="#000000" d="M527.0557,-696.2511C542.2464,-700.2389 560.2148,-706.9384 573.7737,-718.4866 620.6654,-759.3285 646.6483,-830.127 656.8354,-863.3657"/>
<path fill="none" stroke="transparent" d="M526.5492,-698.1859C541.5477,-702.1129 559.5161,-708.8124 572.4662,-720 618.7879,-760.0175 644.7707,-830.8161 654.9231,-863.9516"/>
<path fill="none" stroke="#000000" d="M526.0426,-700.1207C540.849,-703.9869 558.8174,-710.6864 571.1587,-721.5134 616.9103,-760.7066 642.8932,-831.5052 653.0109,-864.5375"/>
<text text-anchor="middle" x="593.9662" y="-748" font-family="Courier,monospace" font-size="10.00" fill="#000000">N</text>
</g>
</g>
</svg>
