<?xml version="1.0" encoding="UTF-8" standalone="no"?>
<!DOCTYPE svg PUBLIC "-//W3C//DTD SVG 1.1//EN"
 "http://www.w3.org/Graphics/SVG/1.1/DTD/svg11.dtd">
<!-- Generated by graphviz version 2.40.1 (20161225.0304)
 -->
<!-- Title: %3 Pages: 1 -->
<svg width="866pt" height="1240pt"
 viewBox="0.00 0.00 866.25 1240.00" xmlns="http://www.w3.org/2000/svg" xmlns:xlink="http://www.w3.org/1999/xlink">
<g id="graph0" class="graph" transform="scale(1 1) rotate(0) translate(4 1236)">
<title>%3</title>
<polygon fill="#ffffff" stroke="transparent" points="-4,4 -4,-1236 862.2482,-1236 862.2482,4 -4,4"/>
<!-- CLIENTE -->
<g id="node1" class="node">
<title>CLIENTE</title>
<polygon fill="#ffffff" stroke="#000000" points="519.237,-1008 460.237,-1008 460.237,-972 519.237,-972 519.237,-1008"/>
<text text-anchor="middle" x="489.737" y="-987.5" font-family="Courier,monospace" font-size="10.00" fill="#000000">CLIENTE</text>
</g>
<!-- COMPRA -->
<g id="node45" class="node">
<title>COMPRA</title>
<polygon fill="#ffffff" stroke="#000000" points="652.1561,-738 607.9113,-720 652.1561,-702 696.401,-720 652.1561,-738"/>
<text text-anchor="middle" x="652.1561" y="-717.5" font-family="Courier,monospace" font-size="10.00" fill="#000000">COMPRA</text>
</g>
<!-- CLIENTE&#45;&#45;COMPRA -->
<g id="edge39" class="edge">
<title>CLIENTE&#45;&#45;COMPRA</title>
<path fill="none" stroke="#000000" d="M489.2217,-971.482C493.7913,-926.752 511.5215,-811.3149 576.6493,-745.5864 588.6399,-733.8132 605.089,-727.1998 619.8486,-723.2807"/>
<path fill="none" stroke="transparent" d="M491.2114,-971.6852C495.7681,-927.0556 513.4983,-811.6186 578.0641,-747 589.3859,-735.6689 605.8351,-729.0554 620.36,-725.2142"/>
<path fill="none" stroke="#000000" d="M493.201,-971.8883C497.7449,-927.3592 515.4751,-811.9222 579.4789,-748.4136 590.132,-737.5245 606.5811,-730.911 620.8713,-727.1477"/>
<text text-anchor="middle" x="556.5641" y="-776" font-family="Courier,monospace" font-size="10.00" fill="#000000">M</text>
</g>
<!-- CLIENTE_NumCC_ -->
<g id="node2" class="node">
<title>CLIENTE_NumCC_</title>
<ellipse fill="#ffffff" stroke="#000000" cx="334.8911" cy="-882" rx="31.3996" ry="18"/>
<text text-anchor="start" x="316.3911" y="-880.5" font-family="Courier,monospace" text-decoration="underline" font-size="10.00" fill="#000000">NumCC_</text>
</g>
<!-- CLIENTE_NumCC_&#45;&#45;CLIENTE -->
<g id="edge1" class="edge">
<title>CLIENTE_NumCC_&#45;&#45;CLIENTE</title>
<path fill="none" stroke="#000000" d="M362.5008,-890.6967C374.8967,-895.2214 389.4011,-901.4062 401.41,-909 429.5466,-926.7922 457.0152,-953.9848 473.6599,-971.8772"/>
</g>
<!-- CLIENTE_Nome -->
<g id="node3" class="node">
<title>CLIENTE_Nome</title>
<ellipse fill="#ffffff" stroke="#000000" cx="334.8911" cy="-828" rx="27" ry="18"/>
<text text-anchor="middle" x="334.8911" y="-825.5" font-family="Courier,monospace" font-size="10.00" fill="#000000">Nome</text>
</g>
<!-- CLIENTE_Nome&#45;&#45;CLIENTE -->
<g id="edge2" class="edge">
<title>CLIENTE_Nome&#45;&#45;CLIENTE</title>
<path fill="none" stroke="#000000" d="M360.1903,-834.3004C373.4963,-838.5388 389.4758,-845.1804 401.41,-855 441.2054,-887.7445 469.4248,-943.16 482.1503,-971.7411"/>
</g>
<!-- CLIENTE_Email -->
<g id="node4" class="node">
<title>CLIENTE_Email</title>
<ellipse fill="#ffffff" stroke="#000000" cx="334.8911" cy="-1214" rx="34.9638" ry="18"/>
<text text-anchor="middle" x="334.8911" y="-1211.5" font-family="Courier,monospace" font-size="10.00" fill="#000000">Email ?</text>
</g>
<!-- CLIENTE_Email&#45;&#45;CLIENTE -->
<g id="edge3" class="edge">
<title>CLIENTE_Email&#45;&#45;CLIENTE</title>
<path fill="none" stroke="#000000" d="M366.8478,-1206.5013C378.8632,-1202.3782 391.902,-1196.1726 401.41,-1187 454.6859,-1135.6035 478.33,-1046.2581 486.354,-1008.1084"/>
</g>
<!-- CLIENTE_Genero -->
<g id="node5" class="node">
<title>CLIENTE_Genero</title>
<ellipse fill="#ffffff" stroke="#000000" cx="334.8911" cy="-1160" rx="31.3996" ry="18"/>
<text text-anchor="middle" x="334.8911" y="-1157.5" font-family="Courier,monospace" font-size="10.00" fill="#000000">Genero</text>
</g>
<!-- CLIENTE_Genero&#45;&#45;CLIENTE -->
<g id="edge4" class="edge">
<title>CLIENTE_Genero&#45;&#45;CLIENTE</title>
<path fill="none" stroke="#000000" d="M363.5676,-1152.7582C376.1789,-1148.5271 390.5568,-1142.1699 401.41,-1133 442.8686,-1097.9711 470.7099,-1038.3549 482.8358,-1008.3713"/>
</g>
<!-- CLIENTE_DatadeNascimento -->
<g id="node6" class="node">
<title>CLIENTE_DatadeNascimento</title>
<ellipse fill="#ffffff" stroke="#000000" cx="334.8911" cy="-1106" rx="66.5378" ry="18"/>
<text text-anchor="middle" x="334.8911" y="-1103.5" font-family="Courier,monospace" font-size="10.00" fill="#000000">DatadeNascimento</text>
</g>
<!-- CLIENTE_DatadeNascimento&#45;&#45;CLIENTE -->
<g id="edge5" class="edge">
<title>CLIENTE_DatadeNascimento&#45;&#45;CLIENTE</title>
<path fill="none" stroke="#000000" d="M377.008,-1091.9132C385.4106,-1088.2846 393.9403,-1083.9731 401.41,-1079 431.3087,-1059.0941 459.3589,-1027.8757 475.523,-1008.1967"/>
</g>
<!-- CLIENTE_NumTelefone -->
<g id="node7" class="node">
<title>CLIENTE_NumTelefone</title>
<ellipse fill="#ffffff" stroke="#000000" cx="334.8911" cy="-1048" rx="48.7291" ry="18"/>
<ellipse fill="none" stroke="#000000" cx="334.8911" cy="-1048" rx="52.7184" ry="22"/>
<text text-anchor="middle" x="334.8911" y="-1045.5" font-family="Courier,monospace" font-size="10.00" fill="#000000">NumTelefone</text>
</g>
<!-- CLIENTE_NumTelefone&#45;&#45;CLIENTE -->
<g id="edge6" class="edge">
<title>CLIENTE_NumTelefone&#45;&#45;CLIENTE</title>
<path fill="none" stroke="#000000" d="M374.3659,-1033.2141C401.0677,-1023.2125 435.7701,-1010.2142 460.1144,-1001.0956"/>
</g>
<!-- CLIENTE_Morada -->
<g id="node8" class="node">
<title>CLIENTE_Morada</title>
<ellipse fill="#ffffff" stroke="#000000" cx="334.8911" cy="-990" rx="31.3996" ry="18"/>
<text text-anchor="middle" x="334.8911" y="-987.5" font-family="Courier,monospace" font-size="10.00" fill="#000000">Morada</text>
</g>
<!-- CLIENTE_Morada&#45;&#45;CLIENTE -->
<g id="edge7" class="edge">
<title>CLIENTE_Morada&#45;&#45;CLIENTE</title>
<path fill="none" stroke="#000000" d="M366.2264,-990C393.6218,-990 433.1211,-990 460.0243,-990"/>
</g>
<!-- CLIENTE_Morada_Rua -->
<g id="node9" class="node">
<title>CLIENTE_Morada_Rua</title>
<ellipse fill="#ffffff" stroke="#000000" cx="180.0451" cy="-1017" rx="27" ry="18"/>
<text text-anchor="middle" x="180.0451" y="-1014.5" font-family="Courier,monospace" font-size="10.00" fill="#000000">Rua</text>
</g>
<!-- CLIENTE_Morada_Rua&#45;&#45;CLIENTE_Morada -->
<g id="edge8" class="edge">
<title>CLIENTE_Morada_Rua&#45;&#45;CLIENTE_Morada</title>
<path fill="none" stroke="#000000" d="M206.3126,-1012.4198C233.5789,-1007.6655 276.1665,-1000.2396 304.7769,-995.2509"/>
</g>
<!-- CLIENTE_Morada_NUm -->
<g id="node10" class="node">
<title>CLIENTE_Morada_NUm</title>
<ellipse fill="#ffffff" stroke="#000000" cx="180.0451" cy="-963" rx="27" ry="18"/>
<text text-anchor="middle" x="180.0451" y="-960.5" font-family="Courier,monospace" font-size="10.00" fill="#000000">NUm</text>
</g>
<!-- CLIENTE_Morada_NUm&#45;&#45;CLIENTE_Morada -->
<g id="edge9" class="edge">
<title>CLIENTE_Morada_NUm&#45;&#45;CLIENTE_Morada</title>
<path fill="none" stroke="#000000" d="M206.3126,-967.5802C233.5789,-972.3345 276.1665,-979.7604 304.7769,-984.7491"/>
</g>
<!-- CLIENTE_Morada_Andar -->
<g id="node11" class="node">
<title>CLIENTE_Morada_Andar</title>
<ellipse fill="#ffffff" stroke="#000000" cx="180.0451" cy="-909" rx="34.9638" ry="18"/>
<text text-anchor="middle" x="180.0451" y="-906.5" font-family="Courier,monospace" font-size="10.00" fill="#000000">Andar ?</text>
</g>
<!-- CLIENTE_Morada_Andar&#45;&#45;CLIENTE_Morada -->
<g id="edge10" class="edge">
<title>CLIENTE_Morada_Andar&#45;&#45;CLIENTE_Morada</title>
<path fill="none" stroke="#000000" d="M203.167,-922.6314C210.3077,-926.8791 218.1835,-931.6029 225.3721,-936 244.6227,-947.775 248.2849,-952.7171 268.3721,-963 281.1306,-969.5313 295.8497,-975.6431 308.1934,-980.3944"/>
</g>
<!-- CLIENTE_Morada_Localidade -->
<g id="node12" class="node">
<title>CLIENTE_Morada_Localidade</title>
<ellipse fill="#ffffff" stroke="#000000" cx="180.0451" cy="-1125" rx="45.1548" ry="18"/>
<text text-anchor="middle" x="180.0451" y="-1122.5" font-family="Courier,monospace" font-size="10.00" fill="#000000">Localidade</text>
</g>
<!-- CLIENTE_Morada_Localidade&#45;&#45;CLIENTE_Morada -->
<g id="edge11" class="edge">
<title>CLIENTE_Morada_Localidade&#45;&#45;CLIENTE_Morada</title>
<path fill="none" stroke="#000000" d="M209.1131,-1110.9078C214.9396,-1107.2364 220.6986,-1102.9093 225.3721,-1098 239.4236,-1083.2397 253.243,-1030.6535 268.3721,-1017 278.9202,-1007.4808 293.2649,-1001.0854 305.933,-996.9194"/>
</g>
<!-- CLIENTE_Morada_CodPostal -->
<g id="node13" class="node">
<title>CLIENTE_Morada_CodPostal</title>
<ellipse fill="none" stroke="#000000" stroke-dasharray="5,2" cx="180.0451" cy="-1071" rx="41.5911" ry="18"/>
<text text-anchor="middle" x="180.0451" y="-1068.5" font-family="Courier,monospace" font-size="10.00" fill="#000000">CodPostal</text>
</g>
<!-- CLIENTE_Morada_CodPostal&#45;&#45;CLIENTE_Morada -->
<g id="edge12" class="edge">
<title>CLIENTE_Morada_CodPostal&#45;&#45;CLIENTE_Morada</title>
<path fill="none" stroke="#000000" d="M205.0455,-1056.2502C211.6722,-1052.3018 218.8086,-1048.0148 225.3721,-1044 244.6227,-1032.225 248.2849,-1027.2829 268.3721,-1017 281.1306,-1010.4687 295.8497,-1004.3569 308.1934,-999.6056"/>
</g>
<!-- PRODUTO -->
<g id="node14" class="node">
<title>PRODUTO</title>
<polygon fill="#ffffff" stroke="#000000" points="843.2482,-721 784.2482,-721 784.2482,-685 843.2482,-685 843.2482,-721"/>
<text text-anchor="middle" x="813.7482" y="-700.5" font-family="Courier,monospace" font-size="10.00" fill="#000000">PRODUTO</text>
</g>
<!-- PRODUTO__IdProduto_ -->
<g id="node15" class="node">
<title>PRODUTO__IdProduto_</title>
<ellipse fill="#ffffff" stroke="#000000" cx="652.1561" cy="-558" rx="48.7185" ry="18"/>
<text text-anchor="middle" x="652.1561" y="-555.5" font-family="Courier,monospace" font-size="10.00" fill="#000000">_IdProduto_</text>
</g>
<!-- PRODUTO__IdProduto_&#45;&#45;PRODUTO -->
<g id="edge13" class="edge">
<title>PRODUTO__IdProduto_&#45;&#45;PRODUTO</title>
<path fill="none" stroke="#000000" d="M692.7581,-568.0394C704.284,-572.1059 716.3732,-577.6307 726.2482,-585 762.8354,-612.3033 791.037,-659.1157 804.6921,-684.8061"/>
</g>
<!-- PRODUTO_Nome -->
<g id="node16" class="node">
<title>PRODUTO_Nome</title>
<ellipse fill="#ffffff" stroke="#000000" cx="652.1561" cy="-504" rx="27" ry="18"/>
<text text-anchor="middle" x="652.1561" y="-501.5" font-family="Courier,monospace" font-size="10.00" fill="#000000">Nome</text>
</g>
<!-- PRODUTO_Nome&#45;&#45;PRODUTO -->
<g id="edge14" class="edge">
<title>PRODUTO_Nome&#45;&#45;PRODUTO</title>
<path fill="none" stroke="#000000" d="M678.2968,-508.5205C693.7352,-512.3177 712.8219,-519.1091 726.2482,-531 774.7796,-573.9815 799.936,-650.2547 809.3267,-684.9356"/>
</g>
<!-- PRODUTO_Custo -->
<g id="node17" class="node">
<title>PRODUTO_Custo</title>
<ellipse fill="#ffffff" stroke="#000000" cx="652.1561" cy="-882" rx="27.8353" ry="18"/>
<text text-anchor="middle" x="652.1561" y="-879.5" font-family="Courier,monospace" font-size="10.00" fill="#000000">Custo</text>
</g>
<!-- PRODUTO_Custo&#45;&#45;PRODUTO -->
<g id="edge15" class="edge">
<title>PRODUTO_Custo&#45;&#45;PRODUTO</title>
<path fill="none" stroke="#000000" d="M678.7861,-877.0482C694.0206,-873.1306 712.7285,-866.3635 726.2482,-855 770.3022,-817.9719 797.0004,-752.7691 807.9577,-721.1758"/>
</g>
<!-- PRODUTO_IdEmpresa -->
<g id="node18" class="node">
<title>PRODUTO_IdEmpresa</title>
<ellipse fill="#ffffff" stroke="#000000" cx="652.1561" cy="-828" rx="41.5911" ry="18"/>
<text text-anchor="middle" x="652.1561" y="-825.5" font-family="Courier,monospace" font-size="10.00" fill="#000000">IdEmpresa</text>
</g>
<!-- PRODUTO_IdEmpresa&#45;&#45;PRODUTO -->
<g id="edge16" class="edge">
<title>PRODUTO_IdEmpresa&#45;&#45;PRODUTO</title>
<path fill="none" stroke="#000000" d="M688.162,-818.8245C700.8552,-814.5977 714.8023,-808.7585 726.2482,-801 758.3443,-779.2439 786.3984,-743.1667 801.6251,-721.3826"/>
</g>
<!-- PRODUTO_Quantidade -->
<g id="node19" class="node">
<title>PRODUTO_Quantidade</title>
<ellipse fill="#ffffff" stroke="#000000" cx="652.1561" cy="-774" rx="45.1548" ry="18"/>
<text text-anchor="middle" x="652.1561" y="-771.5" font-family="Courier,monospace" font-size="10.00" fill="#000000">Quantidade</text>
</g>
<!-- PRODUTO_Quantidade&#45;&#45;PRODUTO -->
<g id="edge17" class="edge">
<title>PRODUTO_Quantidade&#45;&#45;PRODUTO</title>
<path fill="none" stroke="#000000" d="M686.7891,-762.3214C699.3435,-757.8417 713.5539,-752.4825 726.2482,-747 745.9166,-738.5054 767.4207,-727.7137 784.1888,-718.944"/>
</g>
<!-- DEPARTAMENTO -->
<g id="node20" class="node">
<title>DEPARTAMENTO</title>
<polygon fill="#ffffff" stroke="#000000" points="858.2482,-218 769.2482,-218 769.2482,-182 858.2482,-182 858.2482,-218"/>
<text text-anchor="middle" x="813.7482" y="-197.5" font-family="Courier,monospace" font-size="10.00" fill="#000000">DEPARTAMENTO</text>
</g>
<!-- DEPARTAMENTO__NomeDepartamento_ -->
<g id="node21" class="node">
<title>DEPARTAMENTO__NomeDepartamento_</title>
<ellipse fill="#ffffff" stroke="#000000" cx="652.1561" cy="-200" rx="73.6658" ry="18"/>
<text text-anchor="middle" x="652.1561" y="-197.5" font-family="Courier,monospace" font-size="10.00" fill="#000000">_NomeDepartamento_</text>
</g>
<!-- DEPARTAMENTO__NomeDepartamento_&#45;&#45;DEPARTAMENTO -->
<g id="edge18" class="edge">
<title>DEPARTAMENTO__NomeDepartamento_&#45;&#45;DEPARTAMENTO</title>
<path fill="none" stroke="#000000" d="M725.8591,-200C740.5091,-200 755.4726,-200 768.8029,-200"/>
</g>
<!-- DEPARTAMENTO_Gestor -->
<g id="node22" class="node">
<title>DEPARTAMENTO_Gestor</title>
<ellipse fill="#ffffff" stroke="#000000" cx="652.1561" cy="-146" rx="31.3996" ry="18"/>
<text text-anchor="middle" x="652.1561" y="-143.5" font-family="Courier,monospace" font-size="10.00" fill="#000000">Gestor</text>
</g>
<!-- DEPARTAMENTO_Gestor&#45;&#45;DEPARTAMENTO -->
<g id="edge19" class="edge">
<title>DEPARTAMENTO_Gestor&#45;&#45;DEPARTAMENTO</title>
<path fill="none" stroke="#000000" d="M679.203,-155.0384C703.731,-163.235 740.3542,-175.4736 769.2007,-185.1133"/>
</g>
<!-- FUNCIONARIO -->
<g id="node23" class="node">
<title>FUNCIONARIO</title>
<polygon fill="#ffffff" stroke="#000000" points="531.237,-306 448.237,-306 448.237,-270 531.237,-270 531.237,-306"/>
<text text-anchor="middle" x="489.737" y="-285.5" font-family="Courier,monospace" font-size="10.00" fill="#000000">FUNCIONARIO</text>
</g>
<!-- VENDE -->
<g id="node47" class="node">
<title>VENDE</title>
<polygon fill="#ffffff" stroke="#000000" points="652.1561,-630 612.9012,-612 652.1561,-594 691.4111,-612 652.1561,-630"/>
<text text-anchor="middle" x="652.1561" y="-609.5" font-family="Courier,monospace" font-size="10.00" fill="#000000">VENDE</text>
</g>
<!-- FUNCIONARIO&#45;&#45;VENDE -->
<g id="edge43" class="edge">
<title>FUNCIONARIO&#45;&#45;VENDE</title>
<path fill="none" stroke="#000000" d="M492.9774,-306.3818C503.5607,-364.5443 538.7024,-543.1866 578.0641,-585 589.6065,-597.2614 607.1616,-603.9733 622.2869,-607.6379"/>
<text text-anchor="middle" x="556.5641" y="-556" font-family="Courier,monospace" font-size="10.00" fill="#000000">1</text>
</g>
<!-- SUPERVISIONA -->
<g id="node49" class="node">
<title>SUPERVISIONA</title>
<polygon fill="#ffffff" stroke="#000000" points="652.1561,-272 577.9719,-254 652.1561,-236 726.3404,-254 652.1561,-272"/>
<text text-anchor="middle" x="652.1561" y="-251.5" font-family="Courier,monospace" font-size="10.00" fill="#000000">SUPERVISIONA</text>
</g>
<!-- FUNCIONARIO&#45;&#45;SUPERVISIONA -->
<g id="edge47" class="edge">
<title>FUNCIONARIO&#45;&#45;SUPERVISIONA</title>
<path fill="none" stroke="#000000" d="M531.1542,-277.2866C555.9679,-272.0922 587.2542,-265.5429 611.7411,-260.4169"/>
<path fill="none" stroke="transparent" d="M531.564,-279.2442C556.3777,-274.0498 587.664,-267.5005 612.1508,-262.3745"/>
<path fill="none" stroke="#000000" d="M531.9738,-281.2017C556.7875,-276.0073 588.0738,-269.458 612.5606,-264.3321"/>
<text text-anchor="middle" x="556.5641" y="-277" font-family="Courier,monospace" font-size="10.00" fill="#000000">1</text>
</g>
<!-- TRABALHA_EM -->
<g id="node52" class="node">
<title>TRABALHA_EM</title>
<polygon fill="#ffffff" stroke="#000000" points="652.1561,-333 582.9618,-315 652.1561,-297 721.3505,-315 652.1561,-333"/>
<text text-anchor="middle" x="652.1561" y="-312.5" font-family="Courier,monospace" font-size="10.00" fill="#000000">TRABALHA_EM</text>
</g>
<!-- FUNCIONARIO&#45;&#45;TRABALHA_EM -->
<g id="edge51" class="edge">
<title>FUNCIONARIO&#45;&#45;TRABALHA_EM</title>
<path fill="none" stroke="#000000" d="M531.2558,-296.0953C538.5164,-297.4458 546.0042,-298.7972 553.0641,-300 570.7309,-303.01 590.2226,-306.0261 607.2107,-308.5561"/>
<text text-anchor="middle" x="556.5641" y="-303" font-family="Courier,monospace" font-size="10.00" fill="#000000">1</text>
</g>
<!-- FUNCIONARIO__IdFuncionario_ -->
<g id="node24" class="node">
<title>FUNCIONARIO__IdFuncionario_</title>
<ellipse fill="#ffffff" stroke="#000000" cx="334.8911" cy="-180" rx="62.9739" ry="18"/>
<text text-anchor="middle" x="334.8911" y="-177.5" font-family="Courier,monospace" font-size="10.00" fill="#000000">_IdFuncionario_</text>
</g>
<!-- FUNCIONARIO__IdFuncionario_&#45;&#45;FUNCIONARIO -->
<g id="edge20" class="edge">
<title>FUNCIONARIO__IdFuncionario_&#45;&#45;FUNCIONARIO</title>
<path fill="none" stroke="#000000" d="M375.8523,-193.7985C384.5979,-197.5098 393.5583,-201.9275 401.41,-207 423.5901,-221.3293 424.9512,-230.1495 444.41,-248 452.2986,-255.2367 461.0968,-263.0568 468.8274,-269.8465"/>
</g>
<!-- FUNCIONARIO_Email -->
<g id="node25" class="node">
<title>FUNCIONARIO_Email</title>
<ellipse fill="#ffffff" stroke="#000000" cx="334.8911" cy="-126" rx="34.9638" ry="18"/>
<text text-anchor="middle" x="334.8911" y="-123.5" font-family="Courier,monospace" font-size="10.00" fill="#000000">Email ?</text>
</g>
<!-- FUNCIONARIO_Email&#45;&#45;FUNCIONARIO -->
<g id="edge21" class="edge">
<title>FUNCIONARIO_Email&#45;&#45;FUNCIONARIO</title>
<path fill="none" stroke="#000000" d="M366.8311,-133.5161C378.8442,-137.6416 391.8857,-143.8443 401.41,-153 434.8217,-185.1187 416.8666,-210.7265 444.41,-248 450.2731,-255.9343 457.9417,-263.4349 465.2995,-269.7506"/>
</g>
<!-- FUNCIONARIO_Genero -->
<g id="node26" class="node">
<title>FUNCIONARIO_Genero</title>
<ellipse fill="#ffffff" stroke="#000000" cx="334.8911" cy="-72" rx="31.3996" ry="18"/>
<text text-anchor="middle" x="334.8911" y="-69.5" font-family="Courier,monospace" font-size="10.00" fill="#000000">Genero</text>
</g>
<!-- FUNCIONARIO_Genero&#45;&#45;FUNCIONARIO -->
<g id="edge22" class="edge">
<title>FUNCIONARIO_Genero&#45;&#45;FUNCIONARIO</title>
<path fill="none" stroke="#000000" d="M364.6124,-78.1412C377.4347,-82.1501 391.6888,-88.6377 401.41,-99 448.5671,-149.2675 408.7855,-188.9956 444.41,-248 449.4006,-256.2659 456.6582,-263.7567 463.9089,-269.962"/>
</g>
<!-- FUNCIONARIO_Nome -->
<g id="node27" class="node">
<title>FUNCIONARIO_Nome</title>
<ellipse fill="#ffffff" stroke="#000000" cx="334.8911" cy="-18" rx="27" ry="18"/>
<text text-anchor="middle" x="334.8911" y="-15.5" font-family="Courier,monospace" font-size="10.00" fill="#000000">Nome</text>
</g>
<!-- FUNCIONARIO_Nome&#45;&#45;FUNCIONARIO -->
<g id="edge23" class="edge">
<title>FUNCIONARIO_Nome&#45;&#45;FUNCIONARIO</title>
<path fill="none" stroke="#000000" d="M361.0145,-22.9851C374.7307,-26.8513 390.8379,-33.5568 401.41,-45 463.9929,-112.7397 400.5234,-166.8874 444.41,-248 448.9049,-256.3077 455.8416,-263.7179 462.9476,-269.8348"/>
</g>
<!-- FUNCIONARIO_DatadeNascimento -->
<g id="node28" class="node">
<title>FUNCIONARIO_DatadeNascimento</title>
<ellipse fill="#ffffff" stroke="#000000" cx="334.8911" cy="-504" rx="66.5378" ry="18"/>
<text text-anchor="middle" x="334.8911" y="-501.5" font-family="Courier,monospace" font-size="10.00" fill="#000000">DatadeNascimento</text>
</g>
<!-- FUNCIONARIO_DatadeNascimento&#45;&#45;FUNCIONARIO -->
<g id="edge24" class="edge">
<title>FUNCIONARIO_DatadeNascimento&#45;&#45;FUNCIONARIO</title>
<path fill="none" stroke="#000000" d="M380.5689,-490.8194C388.1348,-487.203 395.4453,-482.6646 401.41,-477 452.885,-428.1147 477.3146,-343.2967 485.9383,-306.2236"/>
</g>
<!-- FUNCIONARIO_NumCC -->
<g id="node29" class="node">
<title>FUNCIONARIO_NumCC</title>
<ellipse fill="#ffffff" stroke="#000000" cx="334.8911" cy="-450" rx="27.8353" ry="18"/>
<text text-anchor="middle" x="334.8911" y="-447.5" font-family="Courier,monospace" font-size="10.00" fill="#000000">NumCC</text>
</g>
<!-- FUNCIONARIO_NumCC&#45;&#45;FUNCIONARIO -->
<g id="edge25" class="edge">
<title>FUNCIONARIO_NumCC&#45;&#45;FUNCIONARIO</title>
<path fill="none" stroke="#000000" d="M360.8362,-443.4927C374.0107,-439.2462 389.6683,-432.6613 401.41,-423 441.2054,-390.2555 469.4248,-334.84 482.1503,-306.2589"/>
</g>
<!-- FUNCIONARIO_Departamento -->
<g id="node30" class="node">
<title>FUNCIONARIO_Departamento</title>
<ellipse fill="#ffffff" stroke="#000000" cx="334.8911" cy="-396" rx="52.2822" ry="18"/>
<text text-anchor="middle" x="334.8911" y="-393.5" font-family="Courier,monospace" font-size="10.00" fill="#000000">Departamento</text>
</g>
<!-- FUNCIONARIO_Departamento&#45;&#45;FUNCIONARIO -->
<g id="edge26" class="edge">
<title>FUNCIONARIO_Departamento&#45;&#45;FUNCIONARIO</title>
<path fill="none" stroke="#000000" d="M372.6412,-383.3908C382.3578,-379.4258 392.5613,-374.5954 401.41,-369 429.5466,-351.2078 457.0152,-324.0152 473.6599,-306.1228"/>
</g>
<!-- FUNCIONARIO_Supervisor -->
<g id="node31" class="node">
<title>FUNCIONARIO_Supervisor</title>
<ellipse fill="#ffffff" stroke="#000000" cx="334.8911" cy="-342" rx="45.1548" ry="18"/>
<text text-anchor="middle" x="334.8911" y="-339.5" font-family="Courier,monospace" font-size="10.00" fill="#000000">Supervisor</text>
</g>
<!-- FUNCIONARIO_Supervisor&#45;&#45;FUNCIONARIO -->
<g id="edge27" class="edge">
<title>FUNCIONARIO_Supervisor&#45;&#45;FUNCIONARIO</title>
<path fill="none" stroke="#000000" d="M369.2564,-330.0156C392.5113,-321.9059 423.3653,-311.146 448.0279,-302.5454"/>
</g>
<!-- FUNCIONARIO_Salario -->
<g id="node32" class="node">
<title>FUNCIONARIO_Salario</title>
<ellipse fill="#ffffff" stroke="#000000" cx="334.8911" cy="-288" rx="34.9638" ry="18"/>
<text text-anchor="middle" x="334.8911" y="-285.5" font-family="Courier,monospace" font-size="10.00" fill="#000000">Salario</text>
</g>
<!-- FUNCIONARIO_Salario&#45;&#45;FUNCIONARIO -->
<g id="edge28" class="edge">
<title>FUNCIONARIO_Salario&#45;&#45;FUNCIONARIO</title>
<path fill="none" stroke="#000000" d="M369.6415,-288C392.9142,-288 423.6678,-288 448.2276,-288"/>
</g>
<!-- FUNCIONARIO_HorasdeTradalho -->
<g id="node33" class="node">
<title>FUNCIONARIO_HorasdeTradalho</title>
<ellipse fill="none" stroke="#000000" stroke-dasharray="5,2" cx="334.8911" cy="-234" rx="62.9739" ry="18"/>
<text text-anchor="middle" x="334.8911" y="-231.5" font-family="Courier,monospace" font-size="10.00" fill="#000000">HorasdeTradalho</text>
</g>
<!-- FUNCIONARIO_HorasdeTradalho&#45;&#45;FUNCIONARIO -->
<g id="edge29" class="edge">
<title>FUNCIONARIO_HorasdeTradalho&#45;&#45;FUNCIONARIO</title>
<path fill="none" stroke="#000000" d="M375.1708,-248.0469C397.5732,-255.8594 425.413,-265.568 448.039,-273.4585"/>
</g>
<!-- FORNECEDOR -->
<g id="node34" class="node">
<title>FORNECEDOR</title>
<polygon fill="#ffffff" stroke="#000000" points="528.237,-684 451.237,-684 451.237,-648 528.237,-648 528.237,-684"/>
<text text-anchor="middle" x="489.737" y="-663.5" font-family="Courier,monospace" font-size="10.00" fill="#000000">FORNECEDOR</text>
</g>
<!-- FORNECE -->
<g id="node46" class="node">
<title>FORNECE</title>
<polygon fill="#ffffff" stroke="#000000" points="652.1561,-684 602.9214,-666 652.1561,-648 701.3908,-666 652.1561,-684"/>
<text text-anchor="middle" x="652.1561" y="-663.5" font-family="Courier,monospace" font-size="10.00" fill="#000000">FORNECE</text>
</g>
<!-- FORNECEDOR&#45;&#45;FORNECE -->
<g id="edge41" class="edge">
<title>FORNECEDOR&#45;&#45;FORNECE</title>
<path fill="none" stroke="#000000" d="M528.6404,-664C550.8825,-664 578.9987,-664 602.7851,-664"/>
<path fill="none" stroke="transparent" d="M528.6404,-666C550.8825,-666 578.9987,-666 602.7851,-666"/>
<path fill="none" stroke="#000000" d="M528.6404,-668C550.8825,-668 578.9987,-668 602.7851,-668"/>
<text text-anchor="middle" x="556.5641" y="-669" font-family="Courier,monospace" font-size="10.00" fill="#000000">M</text>
</g>
<!-- FORNECEDOR__IdEmpresa_ -->
<g id="node35" class="node">
<title>FORNECEDOR__IdEmpresa_</title>
<ellipse fill="#ffffff" stroke="#000000" cx="334.8911" cy="-720" rx="48.7185" ry="18"/>
<text text-anchor="middle" x="334.8911" y="-717.5" font-family="Courier,monospace" font-size="10.00" fill="#000000">_IdEmpresa_</text>
</g>
<!-- FORNECEDOR__IdEmpresa_&#45;&#45;FORNECEDOR -->
<g id="edge30" class="edge">
<title>FORNECEDOR__IdEmpresa_&#45;&#45;FORNECEDOR</title>
<path fill="none" stroke="#000000" d="M370.4158,-707.6113C394.5238,-699.2041 426.3876,-688.0921 451.123,-679.466"/>
</g>
<!-- FORNECEDOR_NomeEmpresa -->
<g id="node36" class="node">
<title>FORNECEDOR_NomeEmpresa</title>
<ellipse fill="#ffffff" stroke="#000000" cx="334.8911" cy="-666" rx="48.7185" ry="18"/>
<text text-anchor="middle" x="334.8911" y="-663.5" font-family="Courier,monospace" font-size="10.00" fill="#000000">NomeEmpresa</text>
</g>
<!-- FORNECEDOR_NomeEmpresa&#45;&#45;FORNECEDOR -->
<g id="edge31" class="edge">
<title>FORNECEDOR_NomeEmpresa&#45;&#45;FORNECEDOR</title>
<path fill="none" stroke="#000000" d="M383.8853,-666C405.5046,-666 430.5581,-666 450.8627,-666"/>
</g>
<!-- FORNECEDOR_NomeProduto -->
<g id="node37" class="node">
<title>FORNECEDOR_NomeProduto</title>
<ellipse fill="#ffffff" stroke="#000000" cx="334.8911" cy="-612" rx="48.7185" ry="18"/>
<text text-anchor="middle" x="334.8911" y="-609.5" font-family="Courier,monospace" font-size="10.00" fill="#000000">NomeProduto</text>
</g>
<!-- FORNECEDOR_NomeProduto&#45;&#45;FORNECEDOR -->
<g id="edge32" class="edge">
<title>FORNECEDOR_NomeProduto&#45;&#45;FORNECEDOR</title>
<path fill="none" stroke="#000000" d="M370.4158,-624.3887C394.5238,-632.7959 426.3876,-643.9079 451.123,-652.534"/>
</g>
<!-- FORNECEDOR_Custo -->
<g id="node38" class="node">
<title>FORNECEDOR_Custo</title>
<ellipse fill="#ffffff" stroke="#000000" cx="334.8911" cy="-558" rx="27.8353" ry="18"/>
<text text-anchor="middle" x="334.8911" y="-555.5" font-family="Courier,monospace" font-size="10.00" fill="#000000">Custo</text>
</g>
<!-- FORNECEDOR_Custo&#45;&#45;FORNECEDOR -->
<g id="edge33" class="edge">
<title>FORNECEDOR_Custo&#45;&#45;FORNECEDOR</title>
<path fill="none" stroke="#000000" d="M359.9239,-565.7687C372.8487,-570.3603 388.5584,-576.8733 401.41,-585 429.5466,-602.7922 457.0152,-629.9848 473.6599,-647.8772"/>
</g>
<!-- FORNECEDOR_Comissao -->
<g id="node39" class="node">
<title>FORNECEDOR_Comissao</title>
<ellipse fill="#ffffff" stroke="#000000" cx="334.8911" cy="-774" rx="38.0276" ry="18"/>
<text text-anchor="middle" x="334.8911" y="-771.5" font-family="Courier,monospace" font-size="10.00" fill="#000000">Comissao</text>
</g>
<!-- FORNECEDOR_Comissao&#45;&#45;FORNECEDOR -->
<g id="edge34" class="edge">
<title>FORNECEDOR_Comissao&#45;&#45;FORNECEDOR</title>
<path fill="none" stroke="#000000" d="M366.48,-763.8196C377.9226,-759.4609 390.6652,-753.7945 401.41,-747 429.5466,-729.2078 457.0152,-702.0152 473.6599,-684.1228"/>
</g>
<!-- ENCOMENDAS -->
<g id="node40" class="node">
<title>ENCOMENDAS</title>
<polygon fill="#ffffff" stroke="#000000" points="218.5451,-873 141.5451,-873 141.5451,-837 218.5451,-837 218.5451,-873"/>
<text text-anchor="middle" x="180.0451" y="-852.5" font-family="Courier,monospace" font-size="10.00" fill="#000000">ENCOMENDAS</text>
</g>
<!-- ENCOMENDA -->
<g id="node48" class="node">
<title>ENCOMENDA</title>
<polygon fill="#ffffff" stroke="#000000" points="334.8911,-954 275.6766,-936 334.8911,-918 394.1056,-936 334.8911,-954"/>
<text text-anchor="middle" x="334.8911" y="-933.5" font-family="Courier,monospace" font-size="10.00" fill="#000000">ENCOMENDA</text>
</g>
<!-- ENCOMENDAS&#45;&#45;ENCOMENDA -->
<g id="edge45" class="edge">
<title>ENCOMENDAS&#45;&#45;ENCOMENDA</title>
<path fill="none" stroke="#000000" d="M211.853,-871.4872C216.737,-874.4135 221.7175,-877.4201 226.4157,-880.2939 246.2296,-892.5843 249.8918,-897.5263 269.2835,-907.2197 281.678,-913.5715 296.1076,-919.5843 308.2677,-924.2796"/>
<path fill="none" stroke="transparent" d="M210.8251,-873.2028C215.7034,-876.1257 220.6839,-879.1323 225.3721,-882 244.6227,-893.775 248.2849,-898.7171 268.3721,-909 280.9087,-915.4177 295.3384,-921.4304 307.5472,-926.1453"/>
<path fill="none" stroke="#000000" d="M209.7972,-874.9184C214.6697,-877.8379 219.6503,-880.8445 224.3285,-883.7061 243.0158,-894.9658 246.6781,-899.9078 267.4608,-910.7803 280.1394,-917.2638 294.5691,-923.2765 306.8267,-928.011"/>
<text text-anchor="middle" x="246.8721" y="-901" font-family="Courier,monospace" font-size="10.00" fill="#000000">N</text>
</g>
<!-- ENCOMENDAS__IdProduto_ -->
<g id="node41" class="node">
<title>ENCOMENDAS__IdProduto_</title>
<ellipse fill="#ffffff" stroke="#000000" cx="48.859" cy="-936" rx="48.7185" ry="18"/>
<text text-anchor="middle" x="48.859" y="-933.5" font-family="Courier,monospace" font-size="10.00" fill="#000000">_IdProduto_</text>
</g>
<!-- ENCOMENDAS__IdProduto_&#45;&#45;ENCOMENDAS -->
<g id="edge35" class="edge">
<title>ENCOMENDAS__IdProduto_&#45;&#45;ENCOMENDAS</title>
<path fill="none" stroke="#000000" d="M77.1162,-921.1728C83.9578,-917.3682 91.1807,-913.1683 97.718,-909 114.8829,-898.0553 117.7326,-893.2212 134.718,-882 139.1507,-879.0717 143.9014,-876.0843 148.5986,-873.215"/>
</g>
<!-- ENCOMENDAS_NumCC -->
<g id="node42" class="node">
<title>ENCOMENDAS_NumCC</title>
<ellipse fill="#ffffff" stroke="#000000" cx="48.859" cy="-882" rx="27.8353" ry="18"/>
<text text-anchor="middle" x="48.859" y="-879.5" font-family="Courier,monospace" font-size="10.00" fill="#000000">NumCC</text>
</g>
<!-- ENCOMENDAS_NumCC&#45;&#45;ENCOMENDAS -->
<g id="edge36" class="edge">
<title>ENCOMENDAS_NumCC&#45;&#45;ENCOMENDAS</title>
<path fill="none" stroke="#000000" d="M75.4065,-876.5361C94.3484,-872.6376 120.1205,-867.3334 141.3475,-862.9645"/>
</g>
<!-- ENCOMENDAS_Custo -->
<g id="node43" class="node">
<title>ENCOMENDAS_Custo</title>
<ellipse fill="#ffffff" stroke="#000000" cx="48.859" cy="-828" rx="27.8353" ry="18"/>
<text text-anchor="middle" x="48.859" y="-825.5" font-family="Courier,monospace" font-size="10.00" fill="#000000">Custo</text>
</g>
<!-- ENCOMENDAS_Custo&#45;&#45;ENCOMENDAS -->
<g id="edge37" class="edge">
<title>ENCOMENDAS_Custo&#45;&#45;ENCOMENDAS</title>
<path fill="none" stroke="#000000" d="M75.4065,-833.4639C94.3484,-837.3624 120.1205,-842.6666 141.3475,-847.0355"/>
</g>
<!-- ENCOMENDAS_Quantidade -->
<g id="node44" class="node">
<title>ENCOMENDAS_Quantidade</title>
<ellipse fill="#ffffff" stroke="#000000" cx="48.859" cy="-774" rx="45.1548" ry="18"/>
<text text-anchor="middle" x="48.859" y="-771.5" font-family="Courier,monospace" font-size="10.00" fill="#000000">Quantidade</text>
</g>
<!-- ENCOMENDAS_Quantidade&#45;&#45;ENCOMENDAS -->
<g id="edge38" class="edge">
<title>ENCOMENDAS_Quantidade&#45;&#45;ENCOMENDAS</title>
<path fill="none" stroke="#000000" d="M75.9481,-788.4932C83.09,-792.4436 90.7468,-796.7958 97.718,-801 116.7466,-812.4758 137.6792,-826.2217 153.6752,-836.9728"/>
</g>
<!-- COMPRA&#45;&#45;PRODUTO -->
<g id="edge40" class="edge">
<title>COMPRA&#45;&#45;PRODUTO</title>
<path fill="none" stroke="#000000" d="M687.4089,-714.2803C716.3023,-711.2406 756.6319,-706.9978 783.8439,-704.135"/>
<path fill="none" stroke="transparent" d="M687.6182,-716.2693C716.5116,-713.2296 756.8411,-708.9868 784.0531,-706.124"/>
<path fill="none" stroke="#000000" d="M687.8274,-718.2583C716.7208,-715.2186 757.0504,-710.9758 784.2624,-708.113"/>
<text text-anchor="middle" x="747.7482" y="-712" font-family="Courier,monospace" font-size="10.00" fill="#000000">N</text>
</g>
<!-- FORNECE&#45;&#45;PRODUTO -->
<g id="edge42" class="edge">
<title>FORNECE&#45;&#45;PRODUTO</title>
<path fill="none" stroke="#000000" d="M682.9968,-671.0099C712.0697,-677.6668 755.6391,-687.6429 784.4826,-694.2473"/>
<path fill="none" stroke="transparent" d="M682.5504,-672.9594C711.6233,-679.6163 755.1927,-689.5925 784.0362,-696.1968"/>
<path fill="none" stroke="#000000" d="M682.104,-674.909C711.1769,-681.5658 754.7464,-691.542 783.5898,-698.1463"/>
<text text-anchor="middle" x="747.7482" y="-690" font-family="Courier,monospace" font-size="10.00" fill="#000000">N</text>
</g>
<!-- VENDE&#45;&#45;PRODUTO -->
<g id="edge44" class="edge">
<title>VENDE&#45;&#45;PRODUTO</title>
<path fill="none" stroke="#000000" d="M677.1889,-617.0764C692.0764,-621.7986 711.1071,-628.6707 727.1903,-637.2358 751.6955,-650.3501 776.7468,-669.3463 793.8571,-683.3263"/>
<path fill="none" stroke="transparent" d="M676.5844,-618.9828C691.3971,-623.6797 710.4278,-630.5518 726.2482,-639 750.487,-651.9437 775.5384,-670.9399 792.5916,-684.875"/>
<path fill="none" stroke="#000000" d="M675.9799,-620.8893C690.7179,-625.5608 709.7485,-632.4329 725.3061,-640.7642 749.2786,-653.5374 774.3299,-672.5336 791.3261,-686.4237"/>
<text text-anchor="middle" x="747.7482" y="-655" font-family="Courier,monospace" font-size="10.00" fill="#000000">N</text>
</g>
<!-- ENCOMENDA&#45;&#45;CLIENTE -->
<g id="edge46" class="edge">
<title>ENCOMENDA&#45;&#45;CLIENTE</title>
<path fill="none" stroke="#000000" d="M362.5744,-945.6541C390.0634,-955.2405 432.0595,-969.8859 460.1844,-979.694"/>
<text text-anchor="middle" x="422.91" y="-970" font-family="Courier,monospace" font-size="10.00" fill="#000000">1</text>
</g>
<!-- SUPERVISIONA&#45;&#45;FUNCIONARIO -->
<g id="edge48" class="edge">
<title>SUPERVISIONA&#45;&#45;FUNCIONARIO</title>
<path fill="none" stroke="#000000" d="M579.7114,-254.4678C570.6634,-255.4582 561.5974,-256.9124 553.0641,-259 542.9626,-261.4712 532.5014,-265.5548 523.062,-269.8887"/>
<text text-anchor="middle" x="556.5641" y="-262" font-family="Courier,monospace" font-size="10.00" fill="#000000">1</text>
</g>
<!-- SUPERVISIONA_Supervisor -->
<g id="node50" class="node">
<title>SUPERVISIONA_Supervisor</title>
<ellipse fill="#ffffff" stroke="#000000" cx="489.737" cy="-221" rx="45.1548" ry="18"/>
<text text-anchor="middle" x="489.737" y="-218.5" font-family="Courier,monospace" font-size="10.00" fill="#000000">Supervisor</text>
</g>
<!-- SUPERVISIONA_Supervisor&#45;&#45;SUPERVISIONA -->
<g id="edge49" class="edge">
<title>SUPERVISIONA_Supervisor&#45;&#45;SUPERVISIONA</title>
<path fill="none" stroke="#000000" d="M530.6533,-229.0952C540.301,-231.0179 550.5473,-233.071 560.0641,-235 577.0236,-238.4375 595.7275,-242.2859 611.8236,-245.6155"/>
</g>
<!-- SUPERVISIONA_Horas -->
<g id="node51" class="node">
<title>SUPERVISIONA_Horas</title>
<ellipse fill="#ffffff" stroke="#000000" cx="489.737" cy="-167" rx="27.8353" ry="18"/>
<text text-anchor="middle" x="489.737" y="-164.5" font-family="Courier,monospace" font-size="10.00" fill="#000000">Horas</text>
</g>
<!-- SUPERVISIONA_Horas&#45;&#45;SUPERVISIONA -->
<g id="edge50" class="edge">
<title>SUPERVISIONA_Horas&#45;&#45;SUPERVISIONA</title>
<path fill="none" stroke="#000000" d="M510.8162,-178.864C518.5651,-183.4049 527.3316,-188.7563 535.0641,-194 555.0023,-207.5208 556.9461,-215.4079 578.0641,-227 590.6656,-233.9172 605.3943,-239.7023 618.3853,-244.1203"/>
</g>
<!-- TRABALHA_EM&#45;&#45;DEPARTAMENTO -->
<g id="edge52" class="edge">
<title>TRABALHA_EM&#45;&#45;DEPARTAMENTO</title>
<path fill="none" stroke="#000000" d="M680.7104,-304.391C694.9592,-298.4882 712.1221,-290.4282 726.2482,-281 753.6248,-262.728 780.7483,-235.9069 797.3724,-218.2049"/>
<text text-anchor="middle" x="747.7482" y="-270" font-family="Courier,monospace" font-size="10.00" fill="#000000">1</text>
</g>
</g>
</svg>
